<?xml version="1.0" standalone="no"?><!DOCTYPE svg PUBLIC "-//W3C//DTD SVG 1.1//EN" "http://www.w3.org/Graphics/SVG/1.1/DTD/svg11.dtd" ><svg version="1.1" xmlns="http://www.w3.org/2000/svg"><defs><font horiz-adv-x="0" id="font"><font-face ascent="780" bbox="-267 -290 1363 1188" cap-height="780" descent="-220" font-family="Self Modern" font-stretch="normal" font-style="italic" font-weight="300" units-per-em="1000" x-height="500" /><missing-glyph horiz-adv-x="400" /><glyph glyph-name=".null" horiz-adv-x="500" /><glyph d="M230 0 236 30H196C152 30 127 40 127 64C127 73 131 86 139 100L236 280H535L568 90C575 48 554 30 476 30H436L430 0H750L756 30H722C686 30 648 41 641 80L510 790H506L465 760L99 100C67 43 52 30 -10 30H-44L-50 0ZM252 310 462 700 530 310Z" glyph-name="A" horiz-adv-x="800" unicode="A" /><glyph d="M230 0 236 30H196C152 30 127 40 127 64C127 73 131 86 139 100L463 690L512 410H375L369 380H517L568 90C575 48 554 30 476 30H436L430 0H887L969 180L949 190C929 150 872 30 722 30C686 30 648 41 641 80L586 380H724C792 380 818 342 802 254L796 220H820L882 570H858L852 536C837 456 798 410 729 410H581L518 750H815C965 750 984 630 989 590L1009 600L991 780H509L465 760L99 100C67 43 52 30 -10 30H-44L-50 0Z" glyph-name="AE" horiz-adv-x="1000" unicode="&#198;" /><glyph d="M782 1008 762 1030 558 840 578 818ZM230 0 236 30H196C152 30 127 40 127 64C127 73 131 86 139 100L463 690L512 410H375L369 380H517L568 90C575 48 554 30 476 30H436L430 0H887L969 180L949 190C929 150 872 30 722 30C686 30 648 41 641 80L586 380H724C792 380 818 342 802 254L796 220H820L882 570H858L852 536C837 456 798 410 729 410H581L518 750H815C965 750 984 630 989 590L1009 600L991 780H509L465 760L99 100C67 43 52 30 -10 30H-44L-50 0Z" glyph-name="AEacute" horiz-adv-x="1000" unicode="&#508;" /><glyph d="M641 1008 621 1030 417 840 437 818ZM230 0 236 30H196C152 30 127 40 127 64C127 73 131 86 139 100L236 280H535L568 90C575 48 554 30 476 30H436L430 0H750L756 30H722C686 30 648 41 641 80L510 790H506L465 760L99 100C67 43 52 30 -10 30H-44L-50 0ZM252 310 462 700 530 310Z" glyph-name="Aacute" horiz-adv-x="800" unicode="&#193;" /><glyph d="M437 985H407V973C407 930 425 865 516 865C616 865 656 943 667 985H637C629 960 601 895 521 895C444 895 437 956 437 982ZM230 0 236 30H196C152 30 127 40 127 64C127 73 131 86 139 100L236 280H535L568 90C575 48 554 30 476 30H436L430 0H750L756 30H722C686 30 648 41 641 80L510 790H506L465 760L99 100C67 43 52 30 -10 30H-44L-50 0ZM252 310 462 700 530 310Z" glyph-name="Abreve" horiz-adv-x="800" unicode="&#258;" /><glyph d="M345 842 365 820 543 985 663 820 685 840 550 1030H546ZM230 0 236 30H196C152 30 127 40 127 64C127 73 131 86 139 100L236 280H535L568 90C575 48 554 30 476 30H436L430 0H750L756 30H722C686 30 648 41 641 80L510 790H506L465 760L99 100C67 43 52 30 -10 30H-44L-50 0ZM252 310 462 700 530 310Z" glyph-name="Acircumflex" horiz-adv-x="800" unicode="&#194;" /><glyph d="M379 925C379 889 403 875 429 875C455 875 479 889 479 925C479 961 455 975 429 975C404 975 379 961 379 925ZM539 925C539 889 563 875 589 875C615 875 639 889 639 925C639 961 615 975 589 975C564 975 539 961 539 925ZM230 0 236 30H196C152 30 127 40 127 64C127 73 131 86 139 100L236 280H535L568 90C575 48 554 30 476 30H436L430 0H750L756 30H722C686 30 648 41 641 80L510 790H506L465 760L99 100C67 43 52 30 -10 30H-44L-50 0ZM252 310 462 700 530 310Z" glyph-name="Adieresis" horiz-adv-x="800" unicode="&#196;" /><glyph d="M427 1010 563 820 587 838 451 1028ZM230 0 236 30H196C152 30 127 40 127 64C127 73 131 86 139 100L236 280H535L568 90C575 48 554 30 476 30H436L430 0H750L756 30H722C686 30 648 41 641 80L510 790H506L465 760L99 100C67 43 52 30 -10 30H-44L-50 0ZM252 310 462 700 530 310Z" glyph-name="Agrave" horiz-adv-x="800" unicode="&#192;" /><glyph d="M634 941H410L404 909H628ZM230 0 236 30H196C152 30 127 40 127 64C127 73 131 86 139 100L236 280H535L568 90C575 48 554 30 476 30H436L430 0H750L756 30H722C686 30 648 41 641 80L510 790H506L465 760L99 100C67 43 52 30 -10 30H-44L-50 0ZM252 310 462 700 530 310Z" glyph-name="Amacron" horiz-adv-x="800" unicode="&#256;" /><glyph d="M230 0 236 30H196C152 30 127 40 127 64C127 73 131 86 139 100L236 280H535L568 90C575 48 554 30 476 30H436L430 0H674C655 -24 631 -60 631 -101C631 -138 647 -170 703 -170H751L756 -140H722C681 -140 666 -122 666 -92C666 -46 683 -18 699 0H750L756 30H722C686 30 648 41 641 80L510 790H506L465 760L99 100C67 43 52 30 -10 30H-44L-50 0ZM252 310 462 700 530 310Z" glyph-name="Aogonek" horiz-adv-x="800" unicode="&#260;" /><glyph d="M610 926C610 987 566 1025 509 1025C453 1025 409 987 409 926C409 864 453 825 509 825C566 825 610 864 610 926ZM577 926C577 881 550 853 509 853C469 853 441 881 441 926C441 969 469 997 509 997C550 997 577 969 577 926ZM230 0 236 30H196C152 30 127 40 127 64C127 73 131 86 139 100L236 280H535L568 90C575 48 554 30 476 30H436L430 0H750L756 30H722C686 30 648 41 641 80L510 790H506L465 760L99 100C67 43 52 30 -10 30H-44L-50 0ZM252 310 462 700 530 310Z" glyph-name="Aring" horiz-adv-x="800" unicode="&#197;" /><glyph d="M610 926C610 986 567 1024 511 1025L662 1166L642 1188L444 1003C422 986 409 960 409 926C409 864 453 825 509 825C566 825 610 864 610 926ZM577 926C577 881 550 853 509 853C469 853 441 881 441 926C441 969 469 997 509 997C550 997 577 969 577 926ZM230 0 236 30H196C152 30 127 40 127 64C127 73 131 86 139 100L236 280H535L568 90C575 48 554 30 476 30H436L430 0H750L756 30H722C686 30 648 41 641 80L510 790H506L465 760L99 100C67 43 52 30 -10 30H-44L-50 0ZM252 310 462 700 530 310Z" glyph-name="Aringacute" horiz-adv-x="800" unicode="&#506;" /><glyph d="M589 940C637 940 650 894 652 880H682C681 897 669 972 595 972C531 972 492 910 428 910C380 910 367 956 366 970H336C336 953 348 878 422 878C496 878 536 940 589 940ZM230 0 236 30H196C152 30 127 40 127 64C127 73 131 86 139 100L236 280H535L568 90C575 48 554 30 476 30H436L430 0H750L756 30H722C686 30 648 41 641 80L510 790H506L465 760L99 100C67 43 52 30 -10 30H-44L-50 0ZM252 310 462 700 530 310Z" glyph-name="Atilde" horiz-adv-x="800" unicode="&#195;" /><glyph d="M652 256C652 338 599 405 485 421C607 448 698 524 698 620C698 730 599 780 425 780H99L93 750H153C217 750 238 728 231 690L125 90C118 51 86 30 26 30H-34L-40 0H317C505 0 652 118 652 256ZM295 690C302 730 333 750 393 750C518 750 614 717 614 612C614 500 526 430 373 430H249ZM318 400C477 400 568 371 568 260C568 115 445 30 292 30H266C204 30 182 50 189 90L244 400Z" glyph-name="B" horiz-adv-x="700" unicode="B" /><glyph d="M456 790C250 790 40 590 40 290C40 150 122 -10 330 -10C577 -10 672 250 676 260L656 270C652 260 580 50 360 50C184 50 103 200 103 360C103 590 250 750 440 750C584 750 650 678 683 570L703 580L680 790H676L644 771C633 765 625 762 615 762C582 762 553 790 456 790Z" glyph-name="C" horiz-adv-x="700" unicode="C" /><glyph glyph-name="CR" horiz-adv-x="500" /><glyph d="M592 1008 572 1030 368 840 388 818ZM456 790C250 790 40 590 40 290C40 150 122 -10 330 -10C577 -10 672 250 676 260L656 270C652 260 580 50 360 50C184 50 103 200 103 360C103 590 250 750 440 750C584 750 650 678 683 570L703 580L680 790H676L644 771C633 765 625 762 615 762C582 762 553 790 456 790Z" glyph-name="Cacute" horiz-adv-x="700" unicode="&#262;" /><glyph d="M666 1008 648 1030 468 862 348 1028 326 1010 461 820H465ZM456 790C250 790 40 590 40 290C40 150 122 -10 330 -10C577 -10 672 250 676 260L656 270C652 260 580 50 360 50C184 50 103 200 103 360C103 590 250 750 440 750C584 750 650 678 683 570L703 580L680 790H676L644 771C633 765 625 762 615 762C582 762 553 790 456 790Z" glyph-name="Ccaron" horiz-adv-x="700" unicode="&#268;" /><glyph d="M189 -140C192 -150 210 -210 284 -210C354 -210 392 -162 392 -120C392 -81 364 -64 335 -64C325 -64 314 -66 302 -70L368 -8C587 17 672 251 676 260L656 270C652 260 580 50 360 50C184 50 103 200 103 360C103 590 250 750 440 750C584 750 650 678 683 570L703 580L680 790H676L644 771C633 765 625 762 615 762C582 762 553 790 456 790C250 790 40 590 40 290C40 150 122 -10 330 -10H337L272 -70L278 -90C284 -88 293 -86 305 -86C330 -86 354 -96 354 -126C354 -156 331 -182 282 -182C232 -182 214 -140 211 -130Z" glyph-name="Ccedilla" horiz-adv-x="700" unicode="&#199;" /><glyph d="M296 842 316 820 494 985 614 820 636 840 501 1030H497ZM456 790C250 790 40 590 40 290C40 150 122 -10 330 -10C577 -10 672 250 676 260L656 270C652 260 580 50 360 50C184 50 103 200 103 360C103 590 250 750 440 750C584 750 650 678 683 570L703 580L680 790H676L644 771C633 765 625 762 615 762C582 762 553 790 456 790Z" glyph-name="Ccircumflex" horiz-adv-x="700" unicode="&#264;" /><glyph d="M410 925C410 889 434 875 460 875C486 875 510 889 510 925C510 961 486 975 460 975C435 975 410 961 410 925ZM456 790C250 790 40 590 40 290C40 150 122 -10 330 -10C577 -10 672 250 676 260L656 270C652 260 580 50 360 50C184 50 103 200 103 360C103 590 250 750 440 750C584 750 650 678 683 570L703 580L680 790H676L644 771C633 765 625 762 615 762C582 762 553 790 456 790Z" glyph-name="Cdotaccent" horiz-adv-x="700" unicode="&#266;" /><glyph d="M321 0C592 0 778 253 778 479C778 660 665 780 449 780H99L93 750H153C217 750 238 728 231 690L125 90C118 51 86 30 26 30H-34L-40 0ZM295 690C302 730 333 750 393 750H423C621 750 694 649 694 497C694 237 552 30 316 30H266C204 30 182 51 189 90Z" glyph-name="D" horiz-adv-x="800" unicode="D" /><glyph d="M626 1008 608 1030 428 862 308 1028 286 1010 421 820H425ZM321 0C592 0 778 253 778 479C778 660 665 780 449 780H99L93 750H153C217 750 238 728 231 690L125 90C118 51 86 30 26 30H-34L-40 0ZM295 690C302 730 333 750 393 750H423C621 750 694 649 694 497C694 237 552 30 316 30H266C204 30 182 51 189 90Z" glyph-name="Dcaron" horiz-adv-x="800" unicode="&#270;" /><glyph d="M321 0C592 0 778 253 778 479C778 660 665 780 449 780H99L93 750H153C217 750 238 728 231 690L181 405H68L62 375H175L125 90C118 51 86 30 26 30H-34L-40 0ZM295 690C302 730 333 750 393 750H423C621 750 694 649 694 497C694 237 552 30 316 30H266C204 30 182 51 189 90L239 375H352L358 405H245Z" glyph-name="Dcroat" horiz-adv-x="800" unicode="&#272;" /><glyph d="M372 751 471 30H19ZM-15 30 -20 0H500L505 30L403 780H353Z" glyph-name="Delta.math" horiz-adv-x="600" /><glyph d="M398 380C466 380 492 342 476 254L470 220H494L556 570H532L526 536C511 456 472 410 403 410H246L295 690C302 731 333 750 393 750H503C653 750 672 630 677 590L697 600L679 780H99L93 750H153C217 750 238 727 231 690L125 90C118 50 86 30 26 30H-34L-40 0H571L653 180L633 190C613 150 556 30 406 30H266C204 30 182 51 189 90L240 380Z" glyph-name="E" horiz-adv-x="700" unicode="E" /><glyph d="M298 -10C548 -10 652 182 669 220L651 230C646 215 549 40 343 40C218 40 130 89 130 197C130 336 236 400 425 400H541L546 430H430C311 430 215 453 215 575C215 678 304 760 448 760C614 760 664 640 682 570L702 580L679 790H675L643 771C632 765 624 762 614 762C588 762 553 790 443 790C263 790 137 698 137 576C137 444 271 424 300 420L299 416C243 408 44 363 44 174C44 50 152 -10 298 -10Z" glyph-name="E.alt" horiz-adv-x="700" /><glyph d="M572 1008 552 1030 348 840 368 818ZM398 380C466 380 492 342 476 254L470 220H494L556 570H532L526 536C511 456 472 410 403 410H246L295 690C302 731 333 750 393 750H503C653 750 672 630 677 590L697 600L679 780H99L93 750H153C217 750 238 727 231 690L125 90C118 50 86 30 26 30H-34L-40 0H571L653 180L633 190C613 150 556 30 406 30H266C204 30 182 51 189 90L240 380Z" glyph-name="Eacute" horiz-adv-x="700" unicode="&#201;" /><glyph d="M368 985H338V973C338 930 356 865 447 865C547 865 587 943 598 985H568C560 960 532 895 452 895C375 895 368 956 368 982ZM398 380C466 380 492 342 476 254L470 220H494L556 570H532L526 536C511 456 472 410 403 410H246L295 690C302 731 333 750 393 750H503C653 750 672 630 677 590L697 600L679 780H99L93 750H153C217 750 238 727 231 690L125 90C118 50 86 30 26 30H-34L-40 0H571L653 180L633 190C613 150 556 30 406 30H266C204 30 182 51 189 90L240 380Z" glyph-name="Ebreve" horiz-adv-x="700" unicode="&#276;" /><glyph d="M646 1008 628 1030 448 862 328 1028 306 1010 441 820H445ZM398 380C466 380 492 342 476 254L470 220H494L556 570H532L526 536C511 456 472 410 403 410H246L295 690C302 731 333 750 393 750H503C653 750 672 630 677 590L697 600L679 780H99L93 750H153C217 750 238 727 231 690L125 90C118 50 86 30 26 30H-34L-40 0H571L653 180L633 190C613 150 556 30 406 30H266C204 30 182 51 189 90L240 380Z" glyph-name="Ecaron" horiz-adv-x="700" unicode="&#282;" /><glyph d="M276 842 296 820 474 985 594 820 616 840 481 1030H477ZM398 380C466 380 492 342 476 254L470 220H494L556 570H532L526 536C511 456 472 410 403 410H246L295 690C302 731 333 750 393 750H503C653 750 672 630 677 590L697 600L679 780H99L93 750H153C217 750 238 727 231 690L125 90C118 50 86 30 26 30H-34L-40 0H571L653 180L633 190C613 150 556 30 406 30H266C204 30 182 51 189 90L240 380Z" glyph-name="Ecircumflex" horiz-adv-x="700" unicode="&#202;" /><glyph d="M310 925C310 889 334 875 360 875C386 875 410 889 410 925C410 961 386 975 360 975C335 975 310 961 310 925ZM470 925C470 889 494 875 520 875C546 875 570 889 570 925C570 961 546 975 520 975C495 975 470 961 470 925ZM398 380C466 380 492 342 476 254L470 220H494L556 570H532L526 536C511 456 472 410 403 410H246L295 690C302 731 333 750 393 750H503C653 750 672 630 677 590L697 600L679 780H99L93 750H153C217 750 238 727 231 690L125 90C118 50 86 30 26 30H-34L-40 0H571L653 180L633 190C613 150 556 30 406 30H266C204 30 182 51 189 90L240 380Z" glyph-name="Edieresis" horiz-adv-x="700" unicode="&#203;" /><glyph d="M390 925C390 889 414 875 440 875C466 875 490 889 490 925C490 961 466 975 440 975C415 975 390 961 390 925ZM398 380C466 380 492 342 476 254L470 220H494L556 570H532L526 536C511 456 472 410 403 410H246L295 690C302 731 333 750 393 750H503C653 750 672 630 677 590L697 600L679 780H99L93 750H153C217 750 238 727 231 690L125 90C118 50 86 30 26 30H-34L-40 0H571L653 180L633 190C613 150 556 30 406 30H266C204 30 182 51 189 90L240 380Z" glyph-name="Edotaccent" horiz-adv-x="700" unicode="&#278;" /><glyph d="M358 1010 494 820 518 838 382 1028ZM398 380C466 380 492 342 476 254L470 220H494L556 570H532L526 536C511 456 472 410 403 410H246L295 690C302 731 333 750 393 750H503C653 750 672 630 677 590L697 600L679 780H99L93 750H153C217 750 238 727 231 690L125 90C118 50 86 30 26 30H-34L-40 0H571L653 180L633 190C613 150 556 30 406 30H266C204 30 182 51 189 90L240 380Z" glyph-name="Egrave" horiz-adv-x="700" unicode="&#200;" /><glyph d="M565 941H341L335 909H559ZM398 380C466 380 492 342 476 254L470 220H494L556 570H532L526 536C511 456 472 410 403 410H246L295 690C302 731 333 750 393 750H503C653 750 672 630 677 590L697 600L679 780H99L93 750H153C217 750 238 727 231 690L125 90C118 50 86 30 26 30H-34L-40 0H571L653 180L633 190C613 150 556 30 406 30H266C204 30 182 51 189 90L240 380Z" glyph-name="Emacron" horiz-adv-x="700" unicode="&#274;" /><glyph d="M701 690 600 117 291 780H99L93 750H133C197 750 218 728 211 690L105 90C98 50 66 30 6 30H-34L-40 0H250L256 30H216C154 30 132 51 139 90L249 711L571 18C540 -84 496 -150 390 -150H284C272 -156 260 -172 260 -192C260 -222 282 -230 306 -230C445 -230 592 -118 622 50L735 690C742 730 773 750 833 750H873L879 780H589L583 750H623C687 750 708 728 701 690Z" glyph-name="Eng" horiz-adv-x="800" unicode="&#330;" /><glyph d="M398 380C466 380 492 342 476 254L470 220H494L556 570H532L526 536C511 456 472 410 403 410H246L295 690C302 731 333 750 393 750H503C653 750 672 630 677 590L697 600L679 780H99L93 750H153C217 750 238 727 231 690L125 90C118 50 86 30 26 30H-34L-40 0H544C528 -38 518 -74 518 -101C518 -138 534 -170 590 -170H638L643 -140H609C568 -140 553 -122 553 -92C553 -54 568 -10 589 39L631 131C635 141 640 150 644 160L653 180L633 190C613 150 556 30 406 30H266C204 30 182 51 189 90L240 380Z" glyph-name="Eogonek" horiz-adv-x="700" unicode="&#280;" /><glyph d="M321 0C592 0 778 253 778 479C778 660 665 780 449 780H99L93 750H153C217 750 238 728 231 690L197 500H86L80 470H192L125 90C118 51 86 30 26 30H-34L-40 0ZM295 690C302 730 333 750 393 750H423C621 750 694 649 694 497C694 237 552 30 316 30H266C204 30 182 51 189 90L256 470H370L376 500H261Z" glyph-name="Eth" horiz-adv-x="800" unicode="&#208;" /><glyph d="M10 280H68C68 274 68 269 68 263C68 100 136 -10 289 -10C503 -10 573 248 577 260L559 270C555 260 502 40 308 40C195 40 150 119 150 248C150 259 150 269 151 280H400L406 310H152C156 364 165 418 179 470H434L439 500H188C232 644 314 760 423 760C541 760 572 630 592 570L613 580L590 790H586L554 771C543 765 535 762 529 762C505 762 482 790 420 790C282 790 167 664 109 500H49L44 470H99C83 419 73 365 70 310H16Z" glyph-name="Euro" horiz-adv-x="600" unicode="&#8364;" /><glyph d="M10 280H68C68 274 68 269 68 263C68 100 136 -10 289 -10C503 -10 573 248 577 260L559 270C555 260 502 40 308 40C195 40 150 119 150 248C150 259 150 269 151 280H400L406 310H152C156 364 165 418 179 470H434L439 500H188C232 644 314 760 423 760C541 760 572 630 592 570L613 580L590 790H586L554 771C543 765 535 762 529 762C505 762 482 790 420 790C282 790 167 664 109 500H49L44 470H99C83 419 73 365 70 310H16Z" glyph-name="Euro.LP" horiz-adv-x="600" /><glyph d="M360 0 366 30H266C204 30 182 49 189 90L240 380H418C486 380 507 338 496 254L490 220H514L576 570H552L546 536C531 456 492 410 423 410H246L295 690C302 730 333 750 393 750H543C693 750 712 630 717 590L737 600L719 780H99L93 750H153C217 750 238 728 231 690L125 90C118 51 86 30 26 30H-34L-40 0Z" glyph-name="F" horiz-adv-x="700" unicode="F" /><glyph d="M300 -10C416 -10 489 53 540 153V0H560L640 390H293L288 360H575L560 281C538 166 472 50 340 50C172 50 103 200 103 360C103 580 240 750 430 750C574 750 623 688 660 570L680 580L657 790H653L621 771C610 765 602 762 592 762C558 762 532 790 450 790C240 790 40 590 40 290C40 150 107 -10 300 -10Z" glyph-name="G" horiz-adv-x="700" unicode="G" /><glyph d="M384 985H354V973C354 930 372 865 463 865C563 865 603 943 614 985H584C576 960 548 895 468 895C391 895 384 956 384 982ZM300 -10C416 -10 489 53 540 153V0H560L640 390H293L288 360H575L560 281C538 166 472 50 340 50C172 50 103 200 103 360C103 580 240 750 430 750C574 750 623 688 660 570L680 580L657 790H653L621 771C610 765 602 762 592 762C558 762 532 790 450 790C240 790 40 590 40 290C40 150 107 -10 300 -10Z" glyph-name="Gbreve" horiz-adv-x="700" unicode="&#286;" /><glyph d="M292 842 312 820 490 985 610 820 632 840 497 1030H493ZM300 -10C416 -10 489 53 540 153V0H560L640 390H293L288 360H575L560 281C538 166 472 50 340 50C172 50 103 200 103 360C103 580 240 750 430 750C574 750 623 688 660 570L680 580L657 790H653L621 771C610 765 602 762 592 762C558 762 532 790 450 790C240 790 40 590 40 290C40 150 107 -10 300 -10Z" glyph-name="Gcircumflex" horiz-adv-x="700" unicode="&#284;" /><glyph d="M300 -10C416 -10 489 53 540 153V0H560L640 390H293L288 360H575L560 281C538 166 472 50 340 50C172 50 103 200 103 360C103 580 240 750 430 750C574 750 623 688 660 570L680 580L657 790H653L621 771C610 765 602 762 592 762C558 762 532 790 450 790C240 790 40 590 40 290C40 150 107 -10 300 -10ZM141 -208 159 -230 316 -70 298 -48Z" glyph-name="Gcommaaccent" horiz-adv-x="700" unicode="&#290;" /><glyph d="M406 925C406 889 430 875 456 875C482 875 506 889 506 925C506 961 482 975 456 975C431 975 406 961 406 925ZM300 -10C416 -10 489 53 540 153V0H560L640 390H293L288 360H575L560 281C538 166 472 50 340 50C172 50 103 200 103 360C103 580 240 750 430 750C574 750 623 688 660 570L680 580L657 790H653L621 771C610 765 602 762 592 762C558 762 532 790 450 790C240 790 40 590 40 290C40 150 107 -10 300 -10Z" glyph-name="Gdotaccent" horiz-adv-x="700" unicode="&#288;" /><glyph d="M320 0 326 30H266C204 30 182 49 189 90L240 380H676L625 90C618 50 586 30 526 30H466L460 0H820L826 30H766C704 30 682 49 689 90L795 690C802 730 833 750 893 750H953L959 780H599L593 750H653C717 750 738 730 731 690L682 410H246L295 690C302 730 333 750 393 750H453L459 780H99L93 750H153C217 750 238 730 231 690L125 90C118 50 86 30 26 30H-34L-40 0Z" glyph-name="H" horiz-adv-x="900" unicode="H" /><glyph d="M320 0 326 30H266C204 30 182 49 189 90L240 380H676L625 90C618 50 586 30 526 30H466L460 0H820L826 30H766C704 30 682 49 689 90L774 570H867L873 600H779L795 690C802 730 833 750 893 750H953L959 780H599L593 750H653C717 750 738 730 731 690L715 600H279L295 690C302 730 333 750 393 750H453L459 780H99L93 750H153C217 750 238 730 231 690L215 600H122L116 570H210L125 90C118 50 86 30 26 30H-34L-40 0ZM246 410 274 570H710L682 410Z" glyph-name="Hbar" horiz-adv-x="900" unicode="&#294;" /><glyph d="M376 842 396 820 574 985 694 820 716 840 581 1030H577ZM320 0 326 30H266C204 30 182 49 189 90L240 380H676L625 90C618 50 586 30 526 30H466L460 0H820L826 30H766C704 30 682 49 689 90L795 690C802 730 833 750 893 750H953L959 780H599L593 750H653C717 750 738 730 731 690L682 410H246L295 690C302 730 333 750 393 750H453L459 780H99L93 750H153C217 750 238 730 231 690L125 90C118 50 86 30 26 30H-34L-40 0Z" glyph-name="Hcircumflex" horiz-adv-x="900" unicode="&#292;" /><glyph d="M320 0 326 30H266C204 30 182 52 189 90L295 690C302 730 333 750 393 750H453L459 780H99L93 750H153C217 750 237 724 231 690L125 90C118 50 86 30 26 30H-34L-40 0Z" glyph-name="I" horiz-adv-x="400" unicode="I" /><glyph d="M320 0 326 30H266C204 30 182 52 189 90L295 690C302 730 333 750 393 750H453L459 780H99L93 750H153C217 750 237 724 231 690L125 90C118 50 86 30 26 30H-34L-40 0ZM500 -10C629 -10 688 90 715 240L795 690C802 730 833 750 893 750H953L959 780H599L593 750H653C717 750 738 728 731 690L650 230C628 107 578 40 496 40C410 40 393 109 393 157C393 179 395 195 396 200L375 190C373 182 370 162 370 136C370 76 392 -10 500 -10Z" glyph-name="IJ" horiz-adv-x="900" unicode="&#306;" /><glyph d="M442 1008 422 1030 218 840 238 818ZM320 0 326 30H266C204 30 182 52 189 90L295 690C302 730 333 750 393 750H453L459 780H99L93 750H153C217 750 237 724 231 690L125 90C118 50 86 30 26 30H-34L-40 0Z" glyph-name="Iacute" horiz-adv-x="400" unicode="&#205;" /><glyph d="M238 985H208V973C208 930 226 865 317 865C417 865 457 943 468 985H438C430 960 402 895 322 895C245 895 238 956 238 982ZM320 0 326 30H266C204 30 182 52 189 90L295 690C302 730 333 750 393 750H453L459 780H99L93 750H153C217 750 237 724 231 690L125 90C118 50 86 30 26 30H-34L-40 0Z" glyph-name="Ibreve" horiz-adv-x="400" unicode="&#300;" /><glyph d="M146 842 166 820 344 985 464 820 486 840 351 1030H347ZM320 0 326 30H266C204 30 182 52 189 90L295 690C302 730 333 750 393 750H453L459 780H99L93 750H153C217 750 237 724 231 690L125 90C118 50 86 30 26 30H-34L-40 0Z" glyph-name="Icircumflex" horiz-adv-x="400" unicode="&#206;" /><glyph d="M180 925C180 889 204 875 230 875C256 875 280 889 280 925C280 961 256 975 230 975C205 975 180 961 180 925ZM340 925C340 889 364 875 390 875C416 875 440 889 440 925C440 961 416 975 390 975C365 975 340 961 340 925ZM320 0 326 30H266C204 30 182 52 189 90L295 690C302 730 333 750 393 750H453L459 780H99L93 750H153C217 750 237 724 231 690L125 90C118 50 86 30 26 30H-34L-40 0Z" glyph-name="Idieresis" horiz-adv-x="400" unicode="&#207;" /><glyph d="M260 925C260 889 284 875 310 875C336 875 360 889 360 925C360 961 336 975 310 975C285 975 260 961 260 925ZM320 0 326 30H266C204 30 182 52 189 90L295 690C302 730 333 750 393 750H453L459 780H99L93 750H153C217 750 237 724 231 690L125 90C118 50 86 30 26 30H-34L-40 0Z" glyph-name="Idotaccent" horiz-adv-x="400" unicode="&#304;" /><glyph d="M228 1010 364 820 388 838 252 1028ZM320 0 326 30H266C204 30 182 52 189 90L295 690C302 730 333 750 393 750H453L459 780H99L93 750H153C217 750 237 724 231 690L125 90C118 50 86 30 26 30H-34L-40 0Z" glyph-name="Igrave" horiz-adv-x="400" unicode="&#204;" /><glyph d="M435 941H211L205 909H429ZM320 0 326 30H266C204 30 182 52 189 90L295 690C302 730 333 750 393 750H453L459 780H99L93 750H153C217 750 237 724 231 690L125 90C118 50 86 30 26 30H-34L-40 0Z" glyph-name="Imacron" horiz-adv-x="400" unicode="&#298;" /><glyph d="M320 0 326 30H266C204 30 182 52 189 90L295 690C302 730 333 750 393 750H453L459 780H99L93 750H153C217 750 237 724 231 690L125 90C118 50 86 30 26 30H-34L-40 0H244C225 -24 201 -60 201 -101C201 -138 217 -170 273 -170H321L326 -140H292C251 -140 236 -122 236 -92C236 -46 253 -18 269 0Z" glyph-name="Iogonek" horiz-adv-x="400" unicode="&#302;" /><glyph d="M390 940C438 940 451 894 453 880H483C482 897 470 972 396 972C332 972 293 910 229 910C181 910 168 956 167 970H137C137 953 149 878 223 878C297 878 337 940 390 940ZM320 0 326 30H266C204 30 182 52 189 90L295 690C302 730 333 750 393 750H453L459 780H99L93 750H153C217 750 237 724 231 690L125 90C118 50 86 30 26 30H-34L-40 0Z" glyph-name="Itilde" horiz-adv-x="400" unicode="&#296;" /><glyph d="M100 -10C229 -10 288 90 315 240L395 690C402 730 433 750 493 750H553L559 780H199L193 750H253C317 750 338 728 331 690L250 230C228 107 178 40 96 40C10 40 -7 109 -7 157C-7 179 -5 195 -4 200L-25 190C-27 182 -30 162 -30 136C-30 76 -8 -10 100 -10Z" glyph-name="J" horiz-adv-x="500" unicode="J" /><glyph d="M216 842 236 820 414 985 534 820 556 840 421 1030H417ZM100 -10C229 -10 288 90 315 240L395 690C402 730 433 750 493 750H553L559 780H199L193 750H253C317 750 338 728 331 690L250 230C228 107 178 40 96 40C10 40 -7 109 -7 157C-7 179 -5 195 -4 200L-25 190C-27 182 -30 162 -30 136C-30 76 -8 -10 100 -10Z" glyph-name="Jcircumflex" horiz-adv-x="500" unicode="&#308;" /><glyph d="M320 0 326 30H266C204 30 182 50 189 90L230 323L372 443L369 440L537 90C540 83 543 74 543 66C543 36 503 30 466 30H426L420 0H740L746 30H712C676 30 634 42 616 80L421 484L651 680C702 724 737 750 799 750H833L839 780H559L553 750H593C623 750 633 742 633 730C633 719 625 701 601 680L237 364L295 690C302 730 333 750 393 750H453L459 780H99L93 750H153C217 750 238 730 231 690L125 90C118 50 86 30 26 30H-34L-40 0Z" glyph-name="K" horiz-adv-x="800" unicode="K" /><glyph d="M320 0 326 30H266C204 30 182 50 189 90L230 323L372 443L369 440L537 90C540 83 543 74 543 66C543 36 503 30 466 30H426L420 0H740L746 30H712C676 30 634 42 616 80L421 484L651 680C702 724 737 750 799 750H833L839 780H559L553 750H593C623 750 633 742 633 730C633 719 625 701 601 680L237 364L295 690C302 730 333 750 393 750H453L459 780H99L93 750H153C217 750 238 730 231 690L125 90C118 50 86 30 26 30H-34L-40 0ZM263 -208 281 -230 438 -70 420 -48Z" glyph-name="Kcommaaccent" horiz-adv-x="800" unicode="&#310;" /><glyph d="M581 0 663 180 643 190C623 150 566 30 416 30H266C204 30 182 49 189 90L295 690C302 730 333 750 393 750H473L479 780H99L93 750H153C217 750 238 730 231 690L125 90C118 51 86 30 26 30H-34L-40 0Z" glyph-name="L" horiz-adv-x="700" unicode="L" /><glyph d="M476 1008 456 1030 252 840 272 818ZM581 0 663 180 643 190C623 150 566 30 416 30H266C204 30 182 49 189 90L295 690C302 730 333 750 393 750H473L479 780H99L93 750H153C217 750 238 730 231 690L125 90C118 51 86 30 26 30H-34L-40 0Z" glyph-name="Lacute" horiz-adv-x="700" unicode="&#313;" /><glyph d="M581 0 663 180 643 190C623 150 566 30 416 30H266C204 30 182 49 189 90L295 690C302 730 333 750 393 750H473L479 780H99L93 750H153C217 750 238 730 231 690L125 90C118 51 86 30 26 30H-34L-40 0ZM491 686 462 694 371 492 399 484Z" glyph-name="Lcaron" horiz-adv-x="700" unicode="&#317;" /><glyph d="M581 0 663 180 643 190C623 150 566 30 416 30H266C204 30 182 49 189 90L295 690C302 730 333 750 393 750H473L479 780H99L93 750H153C217 750 238 730 231 690L125 90C118 51 86 30 26 30H-34L-40 0ZM193 -208 211 -230 368 -70 350 -48Z" glyph-name="Lcommaaccent" horiz-adv-x="700" unicode="&#315;" /><glyph d="M581 0 663 180 643 190C623 150 566 30 416 30H266C204 30 182 49 189 90L295 690C302 730 333 750 393 750H473L479 780H99L93 750H153C217 750 238 730 231 690L125 90C118 51 86 30 26 30H-34L-40 0ZM403 360C403 324 427 310 453 310C479 310 503 324 503 360C503 396 479 410 453 410C428 410 403 396 403 360Z" glyph-name="Ldot" horiz-adv-x="700" unicode="&#319;" /><glyph d="M381 403 376 433 246 411 295 690C302 730 333 750 393 750H473L479 780H99L93 750H153C217 750 238 730 231 690L180 400L46 378L50 348L174 369L125 90C118 51 86 30 26 30H-34L-40 0H581L663 180L643 190C623 150 566 30 416 30H266C204 30 182 49 189 90L240 380Z" glyph-name="Lslash" horiz-adv-x="700" unicode="&#321;" /><glyph d="M920 0 926 30H866C804 30 782 49 789 90L895 690C902 730 933 750 993 750H1053L1059 780H839L449 105L297 780H99L93 750H133C197 750 218 729 211 690L105 90C98 50 66 30 6 30H-34L-40 0H250L256 30H216C154 30 132 49 139 90L247 704L410 -10H414L833 703L725 90C718 50 686 30 626 30H566L560 0Z" glyph-name="M" horiz-adv-x="1000" unicode="M" /><glyph d="M701 690 600 119 291 780H99L93 750H133C197 750 218 728 211 690L105 90C98 50 66 30 6 30H-34L-40 0H250L256 30H216C154 30 132 51 139 90L249 711L579 0H613L735 690C742 730 773 750 833 750H873L879 780H589L583 750H623C687 750 708 728 701 690Z" glyph-name="N" horiz-adv-x="800" unicode="N" /><glyph d="M622 1008 602 1030 398 840 418 818ZM701 690 600 119 291 780H99L93 750H133C197 750 218 728 211 690L105 90C98 50 66 30 6 30H-34L-40 0H250L256 30H216C154 30 132 51 139 90L249 711L579 0H613L735 690C742 730 773 750 833 750H873L879 780H589L583 750H623C687 750 708 728 701 690Z" glyph-name="Nacute" horiz-adv-x="800" unicode="&#323;" /><glyph d="M696 1008 678 1030 498 862 378 1028 356 1010 491 820H495ZM701 690 600 119 291 780H99L93 750H133C197 750 218 728 211 690L105 90C98 50 66 30 6 30H-34L-40 0H250L256 30H216C154 30 132 51 139 90L249 711L579 0H613L735 690C742 730 773 750 833 750H873L879 780H589L583 750H623C687 750 708 728 701 690Z" glyph-name="Ncaron" horiz-adv-x="800" unicode="&#327;" /><glyph d="M701 690 600 119 291 780H99L93 750H133C197 750 218 728 211 690L105 90C98 50 66 30 6 30H-34L-40 0H250L256 30H216C154 30 132 51 139 90L249 711L579 0H613L735 690C742 730 773 750 833 750H873L879 780H589L583 750H623C687 750 708 728 701 690ZM233 -208 251 -230 408 -70 390 -48Z" glyph-name="Ncommaaccent" horiz-adv-x="800" unicode="&#325;" /><glyph d="M570 940C618 940 631 894 633 880H663C662 897 650 972 576 972C512 972 473 910 409 910C361 910 348 956 347 970H317C317 953 329 878 403 878C477 878 517 940 570 940ZM701 690 600 119 291 780H99L93 750H133C197 750 218 728 211 690L105 90C98 50 66 30 6 30H-34L-40 0H250L256 30H216C154 30 132 51 139 90L249 711L579 0H613L735 690C742 730 773 750 833 750H873L879 780H589L583 750H623C687 750 708 728 701 690Z" glyph-name="Ntilde" horiz-adv-x="800" unicode="&#209;" /><glyph d="M330 -10C550 -10 770 190 770 490C770 640 673 790 470 790C250 790 30 590 30 290C30 140 127 -10 330 -10ZM380 50C190 50 90 200 90 360C90 590 240 730 420 730C620 730 710 580 710 420C710 190 560 50 380 50Z" glyph-name="O" horiz-adv-x="800" unicode="O" /><glyph d="M330 -10C359 -10 387 -7 416 0H891L973 180L953 190C933 150 876 30 726 30H500C625 90 728 214 760 380H798C866 380 892 342 876 254L870 220H894L956 570H932L926 536C912 456 872 410 803 410H765C768 436 770 462 770 490C770 593 724 695 631 750H819C969 750 988 630 993 590L1013 600L995 780H556C530 786 501 790 470 790C250 790 30 590 30 290C30 140 127 -10 330 -10ZM380 50C190 50 90 200 90 360C90 590 240 730 420 730C620 730 710 580 710 420C710 412 710 411 710 410H379L373 380H708C692 174 549 50 380 50Z" glyph-name="OE" horiz-adv-x="1000" unicode="&#338;" /><glyph d="M616 1008 596 1030 392 840 412 818ZM330 -10C550 -10 770 190 770 490C770 640 673 790 470 790C250 790 30 590 30 290C30 140 127 -10 330 -10ZM380 50C190 50 90 200 90 360C90 590 240 730 420 730C620 730 710 580 710 420C710 190 560 50 380 50Z" glyph-name="Oacute" horiz-adv-x="800" unicode="&#211;" /><glyph d="M412 985H382V973C382 930 400 865 491 865C591 865 631 943 642 985H612C604 960 576 895 496 895C419 895 412 956 412 982ZM330 -10C550 -10 770 190 770 490C770 640 673 790 470 790C250 790 30 590 30 290C30 140 127 -10 330 -10ZM380 50C190 50 90 200 90 360C90 590 240 730 420 730C620 730 710 580 710 420C710 190 560 50 380 50Z" glyph-name="Obreve" horiz-adv-x="800" unicode="&#334;" /><glyph d="M320 842 340 820 518 985 638 820 660 840 525 1030H521ZM330 -10C550 -10 770 190 770 490C770 640 673 790 470 790C250 790 30 590 30 290C30 140 127 -10 330 -10ZM380 50C190 50 90 200 90 360C90 590 240 730 420 730C620 730 710 580 710 420C710 190 560 50 380 50Z" glyph-name="Ocircumflex" horiz-adv-x="800" unicode="&#212;" /><glyph d="M354 925C354 889 378 875 404 875C430 875 454 889 454 925C454 961 430 975 404 975C379 975 354 961 354 925ZM514 925C514 889 538 875 564 875C590 875 614 889 614 925C614 961 590 975 564 975C539 975 514 961 514 925ZM330 -10C550 -10 770 190 770 490C770 640 673 790 470 790C250 790 30 590 30 290C30 140 127 -10 330 -10ZM380 50C190 50 90 200 90 360C90 590 240 730 420 730C620 730 710 580 710 420C710 190 560 50 380 50Z" glyph-name="Odieresis" horiz-adv-x="800" unicode="&#214;" /><glyph d="M402 1010 538 820 562 838 426 1028ZM330 -10C550 -10 770 190 770 490C770 640 673 790 470 790C250 790 30 590 30 290C30 140 127 -10 330 -10ZM380 50C190 50 90 200 90 360C90 590 240 730 420 730C620 730 710 580 710 420C710 190 560 50 380 50Z" glyph-name="Ograve" horiz-adv-x="800" unicode="&#210;" /><glyph d="M567 1030 399 874 417 852 585 1008ZM687 1030 519 874 537 852 705 1008ZM330 -10C550 -10 770 190 770 490C770 640 673 790 470 790C250 790 30 590 30 290C30 140 127 -10 330 -10ZM380 50C190 50 90 200 90 360C90 590 240 730 420 730C620 730 710 580 710 420C710 190 560 50 380 50Z" glyph-name="Ohungarumlaut" horiz-adv-x="800" unicode="&#336;" /><glyph d="M609 941H385L379 909H603ZM330 -10C550 -10 770 190 770 490C770 640 673 790 470 790C250 790 30 590 30 290C30 140 127 -10 330 -10ZM380 50C190 50 90 200 90 360C90 590 240 730 420 730C620 730 710 580 710 420C710 190 560 50 380 50Z" glyph-name="Omacron" horiz-adv-x="800" unicode="&#332;" /><glyph d="M527 30H311C447 129 588 305 588 533C588 664 522 790 368 790C160 790 47 554 47 355C47 187 115 92 180 30H-37L-42 0H212L217 30C182 62 82 158 82 362C82 559 198 760 364 760C486 760 550 665 550 529C550 238 322 62 273 30L268 0H522Z" glyph-name="Omega.math" horiz-adv-x="600" /><glyph d="M330 -10C550 -10 770 190 770 490C770 576 738 663 672 720L795 880L775 900L650 738C604 770 544 790 470 790C250 790 30 590 30 290C30 204 62 117 128 60L5 -100L25 -120L150 42C196 10 256 -10 330 -10ZM90 360C90 590 240 730 420 730C495 730 555 709 601 673L180 127C121 186 90 272 90 360ZM380 50C307 50 247 72 201 109L622 655C682 596 710 510 710 420C710 190 560 50 380 50Z" glyph-name="Oslash" horiz-adv-x="800" unicode="&#216;" /><glyph d="M722 1008 702 1030 498 840 518 818ZM330 -10C550 -10 770 190 770 490C770 576 738 663 672 720L795 880L775 900L650 738C604 770 544 790 470 790C250 790 30 590 30 290C30 204 62 117 128 60L5 -100L25 -120L150 42C196 10 256 -10 330 -10ZM90 360C90 590 240 730 420 730C495 730 555 709 601 673L180 127C121 186 90 272 90 360ZM380 50C307 50 247 72 201 109L622 655C682 596 710 510 710 420C710 190 560 50 380 50Z" glyph-name="Oslashacute" horiz-adv-x="800" unicode="&#510;" /><glyph d="M564 940C612 940 625 894 627 880H657C656 897 644 972 570 972C506 972 467 910 403 910C355 910 342 956 341 970H311C311 953 323 878 397 878C471 878 511 940 564 940ZM330 -10C550 -10 770 190 770 490C770 640 673 790 470 790C250 790 30 590 30 290C30 140 127 -10 330 -10ZM380 50C190 50 90 200 90 360C90 590 240 730 420 730C620 730 710 580 710 420C710 190 560 50 380 50Z" glyph-name="Otilde" horiz-adv-x="800" unicode="&#213;" /><glyph d="M346 30H266C204 30 182 50 189 90L237 362H391C601 362 725 463 725 604C725 724 616 780 445 780H99L93 750H153C217 750 238 728 231 690L125 90C118 50 86 30 26 30H-34L-40 0H340ZM295 690C302 730 333 750 393 750H429C555 750 641 705 641 602C641 464 541 392 366 392H242Z" glyph-name="P" horiz-adv-x="700" unicode="P" /><glyph d="M330 -10C418 -10 507 22 581 80L676 -60L702 -40L606 102C703 189 770 325 770 490C770 630 673 790 470 790C250 790 30 590 30 290C30 150 127 -10 330 -10ZM380 50C200 50 93 200 93 360C93 590 240 730 420 730C600 730 707 580 707 420C707 291 661 191 589 127L478 291L452 271L563 107C511 70 448 50 380 50Z" glyph-name="Q" horiz-adv-x="800" unicode="Q" /><glyph d="M340 0 345 30H265C203 30 181 50 188 90L239 382H339L506 0H640L645 30H621C573 30 554 59 531 110L408 383C614 393 706 493 706 610C706 729 595 780 424 780H98L92 750H152C216 750 237 730 230 690L124 90C117 50 85 30 25 30H-35L-40 0ZM349 412H245L294 690C301 730 332 750 392 750H408C534 750 622 709 622 607C622 490 542 412 349 412Z" glyph-name="R" horiz-adv-x="700" unicode="R" /><glyph d="M532 1008 512 1030 308 840 328 818ZM340 0 345 30H265C203 30 181 50 188 90L239 382H339L506 0H640L645 30H621C573 30 554 59 531 110L408 383C614 393 706 493 706 610C706 729 595 780 424 780H98L92 750H152C216 750 237 730 230 690L124 90C117 50 85 30 25 30H-35L-40 0ZM349 412H245L294 690C301 730 332 750 392 750H408C534 750 622 709 622 607C622 490 542 412 349 412Z" glyph-name="Racute" horiz-adv-x="700" unicode="&#340;" /><glyph d="M606 1008 588 1030 408 862 288 1028 266 1010 401 820H405ZM340 0 345 30H265C203 30 181 50 188 90L239 382H339L506 0H640L645 30H621C573 30 554 59 531 110L408 383C614 393 706 493 706 610C706 729 595 780 424 780H98L92 750H152C216 750 237 730 230 690L124 90C117 50 85 30 25 30H-35L-40 0ZM349 412H245L294 690C301 730 332 750 392 750H408C534 750 622 709 622 607C622 490 542 412 349 412Z" glyph-name="Rcaron" horiz-adv-x="700" unicode="&#344;" /><glyph d="M340 0 345 30H265C203 30 181 50 188 90L239 382H339L506 0H640L645 30H621C573 30 554 59 531 110L408 383C614 393 706 493 706 610C706 729 595 780 424 780H98L92 750H152C216 750 237 730 230 690L124 90C117 50 85 30 25 30H-35L-40 0ZM349 412H245L294 690C301 730 332 750 392 750H408C534 750 622 709 622 607C622 490 542 412 349 412ZM167 -208 185 -230 342 -70 324 -48Z" glyph-name="Rcommaaccent" horiz-adv-x="700" unicode="&#342;" /><glyph d="M259 -10C424 -10 528 92 528 220C528 466 178 385 178 598C178 695 252 756 348 756C488 756 532 688 568 570L588 580L565 790H561L529 771C518 765 510 762 500 762C466 762 438 790 348 790C201 790 114 698 114 580C114 322 461 412 461 186C461 88 379 24 273 24C105 24 59 112 32 210L12 200L35 -10H39L72 9C83 15 90 18 100 18C134 18 159 -10 259 -10Z" glyph-name="S" horiz-adv-x="600" unicode="S" /><glyph d="M502 1008 482 1030 278 840 298 818ZM259 -10C424 -10 528 92 528 220C528 466 178 385 178 598C178 695 252 756 348 756C488 756 532 688 568 570L588 580L565 790H561L529 771C518 765 510 762 500 762C466 762 438 790 348 790C201 790 114 698 114 580C114 322 461 412 461 186C461 88 379 24 273 24C105 24 59 112 32 210L12 200L35 -10H39L72 9C83 15 90 18 100 18C134 18 159 -10 259 -10Z" glyph-name="Sacute" horiz-adv-x="600" unicode="&#346;" /><glyph d="M576 1008 558 1030 378 862 258 1028 236 1010 371 820H375ZM259 -10C424 -10 528 92 528 220C528 466 178 385 178 598C178 695 252 756 348 756C488 756 532 688 568 570L588 580L565 790H561L529 771C518 765 510 762 500 762C466 762 438 790 348 790C201 790 114 698 114 580C114 322 461 412 461 186C461 88 379 24 273 24C105 24 59 112 32 210L12 200L35 -10H39L72 9C83 15 90 18 100 18C134 18 159 -10 259 -10Z" glyph-name="Scaron" horiz-adv-x="600" unicode="&#352;" /><glyph d="M129 -140C132 -150 150 -210 224 -210C294 -210 332 -162 332 -120C332 -81 304 -64 275 -64C265 -64 254 -66 242 -70L310 -7C445 12 528 106 528 220C528 466 178 385 178 598C178 695 252 756 348 756C488 756 532 688 568 570L588 580L565 790H561L529 771C518 765 510 762 500 762C466 762 438 790 348 790C201 790 114 698 114 580C114 322 461 412 461 186C461 88 379 24 273 24C105 24 59 112 32 210L12 200L35 -10H39L72 9C83 15 90 18 100 18C134 18 159 -10 259 -10C265 -10 271 -10 278 -10L212 -70L218 -90C224 -88 233 -86 245 -86C270 -86 294 -96 294 -126C294 -156 271 -182 222 -182C172 -182 154 -140 151 -130Z" glyph-name="Scedilla" horiz-adv-x="600" unicode="&#350;" /><glyph d="M40 390C34 360 32 331 32 303C32 118 147 -10 329 -10C576 -10 768 233 768 476C768 660 653 790 470 790C250 790 114 639 54 470H138C184 620 285 760 455 760C611 760 684 645 684 487C684 455 681 422 675 390ZM115 291C115 314 116 337 119 360H669C626 179 496 20 325 20C185 20 115 134 115 291Z" glyph-name="Schwa" horiz-adv-x="800" unicode="&#399;" /><glyph d="M206 842 226 820 404 985 524 820 546 840 411 1030H407ZM259 -10C424 -10 528 92 528 220C528 466 178 385 178 598C178 695 252 756 348 756C488 756 532 688 568 570L588 580L565 790H561L529 771C518 765 510 762 500 762C466 762 438 790 348 790C201 790 114 698 114 580C114 322 461 412 461 186C461 88 379 24 273 24C105 24 59 112 32 210L12 200L35 -10H39L72 9C83 15 90 18 100 18C134 18 159 -10 259 -10Z" glyph-name="Scircumflex" horiz-adv-x="600" unicode="&#348;" /><glyph d="M259 -10C424 -10 528 92 528 220C528 466 178 385 178 598C178 695 252 756 348 756C488 756 532 688 568 570L588 580L565 790H561L529 771C518 765 510 762 500 762C466 762 438 790 348 790C201 790 114 698 114 580C114 322 461 412 461 186C461 88 379 24 273 24C105 24 59 112 32 210L12 200L35 -10H39L72 9C83 15 90 18 100 18C134 18 159 -10 259 -10ZM107 -208 125 -230 282 -70 264 -48Z" glyph-name="Scommaaccent" horiz-adv-x="600" unicode="&#536;" /><glyph d="M510 0 516 30H456C394 30 372 50 379 90L485 690C492 730 523 750 583 750H615C765 750 782 630 787 590L807 600L789 780H147L65 600L85 590C104 630 163 750 313 750H343C407 750 428 730 421 690L315 90C308 51 276 30 216 30H156L150 0Z" glyph-name="T" horiz-adv-x="800" unicode="T" /><glyph d="M252 375H365L315 90C308 51 276 30 216 30H156L150 0H510L516 30H456C394 30 372 50 379 90L429 375H542L548 405H435L485 690C492 730 523 750 583 750H615C765 750 782 630 787 590L807 600L789 780H147L65 600L85 590C104 630 163 750 313 750H343C407 750 428 730 421 690L371 405H258Z" glyph-name="Tbar" horiz-adv-x="800" unicode="&#358;" /><glyph d="M676 1008 658 1030 478 862 358 1028 336 1010 471 820H475ZM510 0 516 30H456C394 30 372 50 379 90L485 690C492 730 523 750 583 750H615C765 750 782 630 787 590L807 600L789 780H147L65 600L85 590C104 630 163 750 313 750H343C407 750 428 730 421 690L315 90C308 51 276 30 216 30H156L150 0Z" glyph-name="Tcaron" horiz-adv-x="800" unicode="&#356;" /><glyph d="M510 0 516 30H456C394 30 372 50 379 90L485 690C492 730 523 750 583 750H615C765 750 782 630 787 590L807 600L789 780H147L65 600L85 590C104 630 163 750 313 750H343C407 750 428 730 421 690L315 90C308 51 276 30 216 30H156L150 0ZM175 -208 193 -230 350 -70 332 -48Z" glyph-name="Tcommaaccent" horiz-adv-x="800" unicode="&#538;" /><glyph d="M295 690C302 730 333 750 393 750H453L459 780H99L93 750H153C217 750 237 724 231 690L125 90C118 50 86 30 26 30H-34L-40 0H340L346 30H266C204 30 182 50 189 90L286 638H423C549 638 635 593 635 490C635 352 535 280 360 280H268L262 250H385C595 250 719 351 719 492C719 612 610 668 439 668H291Z" glyph-name="Thorn" horiz-adv-x="700" unicode="&#222;" /><glyph d="M338 -10C529 -10 609 92 633 230L714 690C721 730 756 750 814 750H862L868 780H560L554 750H602C666 750 687 730 680 690L599 230C581 130 536 30 355 30C233 30 188 82 188 172C188 193 190 216 194 240L274 690C281 730 312 750 372 750H432L438 780H78L72 750H132C196 750 217 730 210 690L130 240C126 216 124 193 124 172C124 60 186 -10 338 -10Z" glyph-name="U" horiz-adv-x="800" unicode="U" /><glyph d="M632 1008 612 1030 408 840 428 818ZM338 -10C529 -10 609 92 633 230L714 690C721 730 756 750 814 750H862L868 780H560L554 750H602C666 750 687 730 680 690L599 230C581 130 536 30 355 30C233 30 188 82 188 172C188 193 190 216 194 240L274 690C281 730 312 750 372 750H432L438 780H78L72 750H132C196 750 217 730 210 690L130 240C126 216 124 193 124 172C124 60 186 -10 338 -10Z" glyph-name="Uacute" horiz-adv-x="800" unicode="&#218;" /><glyph d="M428 985H398V973C398 930 416 865 507 865C607 865 647 943 658 985H628C620 960 592 895 512 895C435 895 428 956 428 982ZM338 -10C529 -10 609 92 633 230L714 690C721 730 756 750 814 750H862L868 780H560L554 750H602C666 750 687 730 680 690L599 230C581 130 536 30 355 30C233 30 188 82 188 172C188 193 190 216 194 240L274 690C281 730 312 750 372 750H432L438 780H78L72 750H132C196 750 217 730 210 690L130 240C126 216 124 193 124 172C124 60 186 -10 338 -10Z" glyph-name="Ubreve" horiz-adv-x="800" unicode="&#364;" /><glyph d="M336 842 356 820 534 985 654 820 676 840 541 1030H537ZM338 -10C529 -10 609 92 633 230L714 690C721 730 756 750 814 750H862L868 780H560L554 750H602C666 750 687 730 680 690L599 230C581 130 536 30 355 30C233 30 188 82 188 172C188 193 190 216 194 240L274 690C281 730 312 750 372 750H432L438 780H78L72 750H132C196 750 217 730 210 690L130 240C126 216 124 193 124 172C124 60 186 -10 338 -10Z" glyph-name="Ucircumflex" horiz-adv-x="800" unicode="&#219;" /><glyph d="M370 925C370 889 394 875 420 875C446 875 470 889 470 925C470 961 446 975 420 975C395 975 370 961 370 925ZM530 925C530 889 554 875 580 875C606 875 630 889 630 925C630 961 606 975 580 975C555 975 530 961 530 925ZM338 -10C529 -10 609 92 633 230L714 690C721 730 756 750 814 750H862L868 780H560L554 750H602C666 750 687 730 680 690L599 230C581 130 536 30 355 30C233 30 188 82 188 172C188 193 190 216 194 240L274 690C281 730 312 750 372 750H432L438 780H78L72 750H132C196 750 217 730 210 690L130 240C126 216 124 193 124 172C124 60 186 -10 338 -10Z" glyph-name="Udieresis" horiz-adv-x="800" unicode="&#220;" /><glyph d="M418 1010 554 820 578 838 442 1028ZM338 -10C529 -10 609 92 633 230L714 690C721 730 756 750 814 750H862L868 780H560L554 750H602C666 750 687 730 680 690L599 230C581 130 536 30 355 30C233 30 188 82 188 172C188 193 190 216 194 240L274 690C281 730 312 750 372 750H432L438 780H78L72 750H132C196 750 217 730 210 690L130 240C126 216 124 193 124 172C124 60 186 -10 338 -10Z" glyph-name="Ugrave" horiz-adv-x="800" unicode="&#217;" /><glyph d="M583 1030 415 874 433 852 601 1008ZM703 1030 535 874 553 852 721 1008ZM338 -10C529 -10 609 92 633 230L714 690C721 730 756 750 814 750H862L868 780H560L554 750H602C666 750 687 730 680 690L599 230C581 130 536 30 355 30C233 30 188 82 188 172C188 193 190 216 194 240L274 690C281 730 312 750 372 750H432L438 780H78L72 750H132C196 750 217 730 210 690L130 240C126 216 124 193 124 172C124 60 186 -10 338 -10Z" glyph-name="Uhungarumlaut" horiz-adv-x="800" unicode="&#368;" /><glyph d="M625 941H401L395 909H619ZM338 -10C529 -10 609 92 633 230L714 690C721 730 756 750 814 750H862L868 780H560L554 750H602C666 750 687 730 680 690L599 230C581 130 536 30 355 30C233 30 188 82 188 172C188 193 190 216 194 240L274 690C281 730 312 750 372 750H432L438 780H78L72 750H132C196 750 217 730 210 690L130 240C126 216 124 193 124 172C124 60 186 -10 338 -10Z" glyph-name="Umacron" horiz-adv-x="800" unicode="&#362;" /><glyph d="M338 -10C435 -10 504 17 551 61C518 -9 486 -61 486 -101C486 -138 502 -170 558 -170H606L611 -140H577C536 -140 521 -122 521 -92C521 -30 597 76 627 202C629 208 630 214 631 220C632 222 632 224 632 225C632 226 632 226 632 227C633 228 633 229 633 230L714 690C721 730 756 750 814 750H862L868 780H560L554 750H602C666 750 687 730 680 690L599 230C581 130 536 30 355 30C233 30 188 82 188 172C188 193 190 216 194 240L274 690C281 730 312 750 372 750H432L438 780H78L72 750H132C196 750 217 730 210 690L130 240C126 216 124 193 124 172C124 60 186 -10 338 -10Z" glyph-name="Uogonek" horiz-adv-x="800" unicode="&#370;" /><glyph d="M601 926C601 987 557 1025 500 1025C444 1025 400 987 400 926C400 864 444 825 500 825C557 825 601 864 601 926ZM568 926C568 881 541 853 500 853C460 853 432 881 432 926C432 969 460 997 500 997C541 997 568 969 568 926ZM338 -10C529 -10 609 92 633 230L714 690C721 730 756 750 814 750H862L868 780H560L554 750H602C666 750 687 730 680 690L599 230C581 130 536 30 355 30C233 30 188 82 188 172C188 193 190 216 194 240L274 690C281 730 312 750 372 750H432L438 780H78L72 750H132C196 750 217 730 210 690L130 240C126 216 124 193 124 172C124 60 186 -10 338 -10Z" glyph-name="Uring" horiz-adv-x="800" unicode="&#366;" /><glyph d="M580 940C628 940 641 894 643 880H673C672 897 660 972 586 972C522 972 483 910 419 910C371 910 358 956 357 970H327C327 953 339 878 413 878C487 878 527 940 580 940ZM338 -10C529 -10 609 92 633 230L714 690C721 730 756 750 814 750H862L868 780H560L554 750H602C666 750 687 730 680 690L599 230C581 130 536 30 355 30C233 30 188 82 188 172C188 193 190 216 194 240L274 690C281 730 312 750 372 750H432L438 780H78L72 750H132C196 750 217 730 210 690L130 240C126 216 124 193 124 172C124 60 186 -10 338 -10Z" glyph-name="Utilde" horiz-adv-x="800" unicode="&#360;" /><glyph d="M568 780 562 750H602C646 750 672 740 672 718C672 708 668 696 660 680L369 116L264 690C256 732 289 750 356 750H402L408 780H88L82 750H116C152 750 185 739 193 700L332 -10H336L700 680C730 737 746 750 808 750H842L848 780Z" glyph-name="V" horiz-adv-x="800" unicode="V" /><glyph d="M812 780 806 750H856C900 750 923 740 923 717C923 708 919 696 912 680L663 131L597 690C592 730 621 750 688 750H734L740 780H450L444 750H448C484 750 520 739 525 700L533 639L303 131L237 690C232 730 261 750 328 750H374L380 780H60L54 750H88C124 750 160 739 165 700L264 -10H268L542 575L624 -10H628L952 680C979 737 998 750 1060 750H1094L1100 780Z" glyph-name="W" horiz-adv-x="1000" unicode="W" /><glyph d="M732 1008 712 1030 508 840 528 818ZM812 780 806 750H856C900 750 923 740 923 717C923 708 919 696 912 680L663 131L597 690C592 730 621 750 688 750H734L740 780H450L444 750H448C484 750 520 739 525 700L533 639L303 131L237 690C232 730 261 750 328 750H374L380 780H60L54 750H88C124 750 160 739 165 700L264 -10H268L542 575L624 -10H628L952 680C979 737 998 750 1060 750H1094L1100 780Z" glyph-name="Wacute" horiz-adv-x="1000" unicode="&#7810;" /><glyph d="M436 842 456 820 634 985 754 820 776 840 641 1030H637ZM812 780 806 750H856C900 750 923 740 923 717C923 708 919 696 912 680L663 131L597 690C592 730 621 750 688 750H734L740 780H450L444 750H448C484 750 520 739 525 700L533 639L303 131L237 690C232 730 261 750 328 750H374L380 780H60L54 750H88C124 750 160 739 165 700L264 -10H268L542 575L624 -10H628L952 680C979 737 998 750 1060 750H1094L1100 780Z" glyph-name="Wcircumflex" horiz-adv-x="1000" unicode="&#372;" /><glyph d="M470 925C470 889 494 875 520 875C546 875 570 889 570 925C570 961 546 975 520 975C495 975 470 961 470 925ZM630 925C630 889 654 875 680 875C706 875 730 889 730 925C730 961 706 975 680 975C655 975 630 961 630 925ZM812 780 806 750H856C900 750 923 740 923 717C923 708 919 696 912 680L663 131L597 690C592 730 621 750 688 750H734L740 780H450L444 750H448C484 750 520 739 525 700L533 639L303 131L237 690C232 730 261 750 328 750H374L380 780H60L54 750H88C124 750 160 739 165 700L264 -10H268L542 575L624 -10H628L952 680C979 737 998 750 1060 750H1094L1100 780Z" glyph-name="Wdieresis" horiz-adv-x="1000" unicode="&#7812;" /><glyph d="M518 1010 654 820 678 838 542 1028ZM812 780 806 750H856C900 750 923 740 923 717C923 708 919 696 912 680L663 131L597 690C592 730 621 750 688 750H734L740 780H450L444 750H448C484 750 520 739 525 700L533 639L303 131L237 690C232 730 261 750 328 750H374L380 780H60L54 750H88C124 750 160 739 165 700L264 -10H268L542 575L624 -10H628L952 680C979 737 998 750 1060 750H1094L1100 780Z" glyph-name="Wgrave" horiz-adv-x="1000" unicode="&#7808;" /><glyph d="M158 100 390 367 517 90C520 83 522 77 522 70C522 46 499 30 441 30H405L399 0H719L725 30H681C645 30 610 44 594 79L436 421L661 680C704 730 726 750 788 750H822L828 780H548L542 750H582C618 750 636 740 636 716C636 706 633 694 621 680L422 451L312 690C308 699 306 704 306 714C306 734 326 750 392 750H432L438 780H118L112 750H146C182 750 219 740 236 702L376 397L118 100C75 50 53 30 -1 30H-35L-40 0H240L245 30H203C160 30 139 40 139 61C139 74 146 87 158 100Z" glyph-name="X" horiz-adv-x="800" unicode="X" /><glyph d="M630 680C668 733 688 750 738 750H782L788 780H508L502 750H532C577 750 605 740 605 716C605 707 600 695 590 680L345 331L208 690C193 728 209 750 288 750H332L338 780H18L12 750H46C82 750 119 737 134 701L291 300L254 90C247 50 215 30 155 30H95L89 0H449L455 30H395C333 30 311 50 318 90L355 300Z" glyph-name="Y" horiz-adv-x="800" unicode="Y" /><glyph d="M562 1008 542 1030 338 840 358 818ZM630 680C668 733 688 750 738 750H782L788 780H508L502 750H532C577 750 605 740 605 716C605 707 600 695 590 680L345 331L208 690C193 728 209 750 288 750H332L338 780H18L12 750H46C82 750 119 737 134 701L291 300L254 90C247 50 215 30 155 30H95L89 0H449L455 30H395C333 30 311 50 318 90L355 300Z" glyph-name="Yacute" horiz-adv-x="800" unicode="&#221;" /><glyph d="M266 842 286 820 464 985 584 820 606 840 471 1030H467ZM630 680C668 733 688 750 738 750H782L788 780H508L502 750H532C577 750 605 740 605 716C605 707 600 695 590 680L345 331L208 690C193 728 209 750 288 750H332L338 780H18L12 750H46C82 750 119 737 134 701L291 300L254 90C247 50 215 30 155 30H95L89 0H449L455 30H395C333 30 311 50 318 90L355 300Z" glyph-name="Ycircumflex" horiz-adv-x="800" unicode="&#374;" /><glyph d="M300 925C300 889 324 875 350 875C376 875 400 889 400 925C400 961 376 975 350 975C325 975 300 961 300 925ZM460 925C460 889 484 875 510 875C536 875 560 889 560 925C560 961 536 975 510 975C485 975 460 961 460 925ZM630 680C668 733 688 750 738 750H782L788 780H508L502 750H532C577 750 605 740 605 716C605 707 600 695 590 680L345 331L208 690C193 728 209 750 288 750H332L338 780H18L12 750H46C82 750 119 737 134 701L291 300L254 90C247 50 215 30 155 30H95L89 0H449L455 30H395C333 30 311 50 318 90L355 300Z" glyph-name="Ydieresis" horiz-adv-x="800" unicode="&#376;" /><glyph d="M348 1010 484 820 508 838 372 1028ZM630 680C668 733 688 750 738 750H782L788 780H508L502 750H532C577 750 605 740 605 716C605 707 600 695 590 680L345 331L208 690C193 728 209 750 288 750H332L338 780H18L12 750H46C82 750 119 737 134 701L291 300L254 90C247 50 215 30 155 30H95L89 0H449L455 30H395C333 30 311 50 318 90L355 300Z" glyph-name="Ygrave" horiz-adv-x="800" unicode="&#7922;" /><glyph d="M478 0 560 180 540 190C520 150 464 30 314 30H52L664 776V780H176L94 600L114 590C133 630 190 750 340 750H564L-50 4V0Z" glyph-name="Z" horiz-adv-x="600" unicode="Z" /><glyph d="M532 1008 512 1030 308 840 328 818ZM478 0 560 180 540 190C520 150 464 30 314 30H52L664 776V780H176L94 600L114 590C133 630 190 750 340 750H564L-50 4V0Z" glyph-name="Zacute" horiz-adv-x="600" unicode="&#377;" /><glyph d="M606 1008 588 1030 408 862 288 1028 266 1010 401 820H405ZM478 0 560 180 540 190C520 150 464 30 314 30H52L664 776V780H176L94 600L114 590C133 630 190 750 340 750H564L-50 4V0Z" glyph-name="Zcaron" horiz-adv-x="600" unicode="&#381;" /><glyph d="M350 925C350 889 374 875 400 875C426 875 450 889 450 925C450 961 426 975 400 975C375 975 350 961 350 925ZM478 0 560 180 540 190C520 150 464 30 314 30H52L664 776V780H176L94 600L114 590C133 630 190 750 340 750H564L-50 4V0Z" glyph-name="Zdotaccent" horiz-adv-x="600" unicode="&#379;" /><glyph d="M50 391C50 169 229 -10 450 -10C671 -10 850 169 850 391C850 611 671 790 450 790C229 790 50 611 50 391ZM435 570C386 571 341 577 299 588C330 683 383 748 435 758ZM601 588C560 577 513 571 465 570V758C517 748 569 683 601 588ZM627 597C603 662 571 716 535 750C608 733 673 694 722 641C695 623 663 608 627 597ZM274 596C237 607 204 623 178 641C227 694 292 733 365 750C329 716 297 661 274 596ZM265 567C250 517 241 463 240 405H80C83 486 112 560 159 619C188 598 224 580 265 567ZM661 405C658 463 649 517 636 567C676 580 711 598 741 619C788 560 817 486 820 405ZM465 540C516 541 565 547 608 560C621 513 630 462 631 405H465ZM270 405C271 462 279 513 292 560C335 548 384 541 435 540V405ZM636 215C650 264 658 319 661 375H820C816 296 788 223 742 164C713 185 677 202 636 215ZM240 375C241 319 250 265 264 216C223 202 187 185 158 164C112 223 84 296 80 375ZM465 375H631C630 320 621 269 609 224C566 235 516 242 465 244ZM435 244C383 242 334 236 291 224C278 269 271 320 270 375H435ZM435 21C382 32 329 98 298 195C340 206 386 212 435 214ZM465 214C513 212 560 206 601 195C570 98 517 32 465 21ZM272 189C295 121 328 65 365 30C291 48 225 88 176 142C203 161 235 176 272 189ZM628 188C664 176 697 160 724 142C674 87 609 47 535 30C572 65 605 121 628 188Z" glyph-name="_0196" horiz-adv-x="900" /><glyph d="M400 134C395 115 390 94 390 78C390 32 414 0 454 0H474C494 10 512 27 544 70L610 160L590 170C537 96 514 70 490 70C450 70 442 94 442 120C442 143 448 159 479 244L515 342C551 441 490 510 330 510C220 510 96 476 96 386C96 362 110 340 140 340C171 340 179 357 186 382C203 446 236 480 340 480C430 480 465 440 465 400C465 339 400 300 262 288C124 276 20 240 20 120C20 40 80 -10 160 -10C300 -10 380 132 409 179H413ZM262 263C349 274 412 281 448 309H452L438 281C416 237 336 54 190 54C132 54 94 82 94 140C94 220 149 249 262 263Z" glyph-name="a" horiz-adv-x="600" unicode="a" /><glyph d="M390 79C390 32 414 0 454 0H473C494 10 512 27 544 70L610 160L590 170C537 96 514 70 490 70C450 70 442 94 442 120C442 143 448 159 474 240H410C400 216 336 54 190 54C132 54 94 82 94 140C94 227 176 237 263 252C381 273 520 290 520 400C520 470 447 510 330 510C200 510 96 460 96 386C96 362 110 340 140 340C171 340 179 357 186 382C203 446 236 480 320 480C400 480 440 440 440 400C440 330 360 303 262 280C155 255 20 240 20 120C20 40 80 -10 160 -10C300 -10 380 132 410 180H414L400 134C395 116 390 94 390 79Z" glyph-name="a.alt" horiz-adv-x="600" /><glyph d="M476 768 456 790 252 600 272 578ZM400 134C395 115 390 94 390 78C390 32 414 0 454 0H474C494 10 512 27 544 70L610 160L590 170C537 96 514 70 490 70C450 70 442 94 442 120C442 143 448 159 479 244L515 342C551 441 490 510 330 510C220 510 96 476 96 386C96 362 110 340 140 340C171 340 179 357 186 382C203 446 236 480 340 480C430 480 465 440 465 400C465 339 400 300 262 288C124 276 20 240 20 120C20 40 80 -10 160 -10C300 -10 380 132 409 179H413ZM262 263C349 274 412 281 448 309H452L438 281C416 237 336 54 190 54C132 54 94 82 94 140C94 220 149 249 262 263Z" glyph-name="aacute" horiz-adv-x="600" unicode="&#225;" /><glyph d="M272 745H242V733C242 690 260 625 351 625C451 625 491 703 502 745H472C464 720 436 655 356 655C279 655 272 716 272 742ZM400 134C395 115 390 94 390 78C390 32 414 0 454 0H474C494 10 512 27 544 70L610 160L590 170C537 96 514 70 490 70C450 70 442 94 442 120C442 143 448 159 479 244L515 342C551 441 490 510 330 510C220 510 96 476 96 386C96 362 110 340 140 340C171 340 179 357 186 382C203 446 236 480 340 480C430 480 465 440 465 400C465 339 400 300 262 288C124 276 20 240 20 120C20 40 80 -10 160 -10C300 -10 380 132 409 179H413ZM262 263C349 274 412 281 448 309H452L438 281C416 237 336 54 190 54C132 54 94 82 94 140C94 220 149 249 262 263Z" glyph-name="abreve" horiz-adv-x="600" unicode="&#259;" /><glyph d="M180 602 200 580 378 745 498 580 520 600 385 790H381ZM400 134C395 115 390 94 390 78C390 32 414 0 454 0H474C494 10 512 27 544 70L610 160L590 170C537 96 514 70 490 70C450 70 442 94 442 120C442 143 448 159 479 244L515 342C551 441 490 510 330 510C220 510 96 476 96 386C96 362 110 340 140 340C171 340 179 357 186 382C203 446 236 480 340 480C430 480 465 440 465 400C465 339 400 300 262 288C124 276 20 240 20 120C20 40 80 -10 160 -10C300 -10 380 132 409 179H413ZM262 263C349 274 412 281 448 309H452L438 281C416 237 336 54 190 54C132 54 94 82 94 140C94 220 149 249 262 263Z" glyph-name="acircumflex" horiz-adv-x="600" unicode="&#226;" /><glyph d="M382 768 362 790 158 600 178 578Z" glyph-name="acute" horiz-adv-x="500" unicode="&#180;" /><glyph d="M382 1008 362 1030 158 840 178 818Z" glyph-name="acute.cap" horiz-adv-x="500" /><glyph d="M214 685C214 649 238 635 264 635C290 635 314 649 314 685C314 721 290 735 264 735C239 735 214 721 214 685ZM374 685C374 649 398 635 424 635C450 635 474 649 474 685C474 721 450 735 424 735C399 735 374 721 374 685ZM400 134C395 115 390 94 390 78C390 32 414 0 454 0H474C494 10 512 27 544 70L610 160L590 170C537 96 514 70 490 70C450 70 442 94 442 120C442 143 448 159 479 244L515 342C551 441 490 510 330 510C220 510 96 476 96 386C96 362 110 340 140 340C171 340 179 357 186 382C203 446 236 480 340 480C430 480 465 440 465 400C465 339 400 300 262 288C124 276 20 240 20 120C20 40 80 -10 160 -10C300 -10 380 132 409 179H413ZM262 263C349 274 412 281 448 309H452L438 281C416 237 336 54 190 54C132 54 94 82 94 140C94 220 149 249 262 263Z" glyph-name="adieresis" horiz-adv-x="600" unicode="&#228;" /><glyph d="M880 210 860 220C850 198 784 50 650 50C550 50 490 130 490 230C490 240 491 250 492 260H810L840 380C849 417 830 510 720 510C647 510 573 466 520 400C516 466 455 510 330 510C220 510 96 476 96 386C96 362 110 340 140 340C172 340 179 357 186 382C203 446 236 480 340 480C430 480 465 440 465 400C465 339 400 300 262 288C124 276 20 240 20 120C20 40 80 -10 160 -10C300 -10 388 136 428 200H441C440 193 440 187 440 180C440 60 500 -10 610 -10C774 -10 866 182 880 210ZM790 310H503C529 391 596 450 680 450C780 450 790 380 790 340ZM263 263C349 274 412 281 448 309H452L438 281C415 235 336 54 190 54C132 54 94 80 94 140C94 220 149 249 263 263Z" glyph-name="ae" horiz-adv-x="900" unicode="&#230;" /><glyph d="M742 768 722 790 518 600 538 578ZM880 210 860 220C850 198 784 50 650 50C550 50 490 130 490 230C490 240 491 250 492 260H810L840 380C849 417 830 510 720 510C647 510 573 466 520 400C516 466 455 510 330 510C220 510 96 476 96 386C96 362 110 340 140 340C172 340 179 357 186 382C203 446 236 480 340 480C430 480 465 440 465 400C465 339 400 300 262 288C124 276 20 240 20 120C20 40 80 -10 160 -10C300 -10 388 136 428 200H441C440 193 440 187 440 180C440 60 500 -10 610 -10C774 -10 866 182 880 210ZM790 310H503C529 391 596 450 680 450C780 450 790 380 790 340ZM263 263C349 274 412 281 448 309H452L438 281C415 235 336 54 190 54C132 54 94 80 94 140C94 220 149 249 263 263Z" glyph-name="aeacute" horiz-adv-x="900" unicode="&#509;" /><glyph d="M262 770 398 580 422 598 286 788ZM400 134C395 115 390 94 390 78C390 32 414 0 454 0H474C494 10 512 27 544 70L610 160L590 170C537 96 514 70 490 70C450 70 442 94 442 120C442 143 448 159 479 244L515 342C551 441 490 510 330 510C220 510 96 476 96 386C96 362 110 340 140 340C171 340 179 357 186 382C203 446 236 480 340 480C430 480 465 440 465 400C465 339 400 300 262 288C124 276 20 240 20 120C20 40 80 -10 160 -10C300 -10 380 132 409 179H413ZM262 263C349 274 412 281 448 309H452L438 281C416 237 336 54 190 54C132 54 94 82 94 140C94 220 149 249 262 263Z" glyph-name="agrave" horiz-adv-x="600" unicode="&#224;" /><glyph d="M469 701H245L239 669H463ZM400 134C395 115 390 94 390 78C390 32 414 0 454 0H474C494 10 512 27 544 70L610 160L590 170C537 96 514 70 490 70C450 70 442 94 442 120C442 143 448 159 479 244L515 342C551 441 490 510 330 510C220 510 96 476 96 386C96 362 110 340 140 340C171 340 179 357 186 382C203 446 236 480 340 480C430 480 465 440 465 400C465 339 400 300 262 288C124 276 20 240 20 120C20 40 80 -10 160 -10C300 -10 380 132 409 179H413ZM262 263C349 274 412 281 448 309H452L438 281C416 237 336 54 190 54C132 54 94 82 94 140C94 220 149 249 262 263Z" glyph-name="amacron" horiz-adv-x="600" unicode="&#257;" /><glyph d="M398 305 495 350C503 354 514 356 523 356C560 356 610 319 610 244C610 176 573 40 329 40C204 40 116 89 116 207C116 336 222 400 411 400H436L442 430H416C298 430 203 471 203 585C203 689 265 760 394 760C560 760 593 640 611 570L632 580L609 790H605L573 771C562 765 554 762 544 762C518 762 493 790 389 790C215 790 123 689 123 589C123 467 232 431 266 422V418C232 411 30 363 30 194C30 50 140 -10 304 -10C575 -10 640 174 640 242C640 305 605 351 549 375L723 455L715 480L388 330Z" glyph-name="ampersand" horiz-adv-x="700" unicode="&amp;" /><glyph d="M400 134C395 115 390 94 390 78C390 32 414 0 454 0H474C485 5 495 13 507 25C482 -23 464 -68 464 -101C464 -138 480 -170 536 -170H584L589 -140H555C514 -140 499 -122 499 -92C499 -25 545 63 610 160L590 170C537 96 514 70 490 70C450 70 442 94 442 120C442 143 448 159 479 244L515 342C551 441 490 510 330 510C220 510 96 476 96 386C96 362 110 340 140 340C171 340 179 357 186 382C203 446 236 480 340 480C430 480 465 440 465 400C465 339 400 300 262 288C124 276 20 240 20 120C20 40 80 -10 160 -10C300 -10 380 132 409 179H413ZM262 263C349 274 412 281 448 309H452L438 281C416 237 336 54 190 54C132 54 94 82 94 140C94 220 149 249 262 263Z" glyph-name="aogonek" horiz-adv-x="600" unicode="&#261;" /><glyph d="M70 416 65 386C75 374 106 346 168 346C284 346 357 426 454 426C516 426 553 396 565 386L570 416C560 428 529 456 467 456C351 456 279 376 181 376C119 376 83 406 70 416ZM35 215 30 185C40 173 71 145 133 145C249 145 322 225 419 225C481 225 517 195 530 185L535 215C525 227 494 255 432 255C316 255 244 175 146 175C84 175 47 205 35 215Z" glyph-name="approxequal" horiz-adv-x="600" unicode="&#8776;" /><glyph d="M445 685C445 746 401 784 344 784C288 784 244 746 244 685C244 623 288 584 344 584C401 584 445 623 445 685ZM412 685C412 640 385 612 344 612C304 612 276 640 276 685C276 728 304 756 344 756C385 756 412 728 412 685ZM400 134C395 115 390 94 390 78C390 32 414 0 454 0H474C494 10 512 27 544 70L610 160L590 170C537 96 514 70 490 70C450 70 442 94 442 120C442 143 448 159 479 244L515 342C551 441 490 510 330 510C220 510 96 476 96 386C96 362 110 340 140 340C171 340 179 357 186 382C203 446 236 480 340 480C430 480 465 440 465 400C465 339 400 300 262 288C124 276 20 240 20 120C20 40 80 -10 160 -10C300 -10 380 132 409 179H413ZM262 263C349 274 412 281 448 309H452L438 281C416 237 336 54 190 54C132 54 94 82 94 140C94 220 149 249 262 263Z" glyph-name="aring" horiz-adv-x="600" unicode="&#229;" /><glyph d="M445 685C445 745 402 783 346 784L496 924L476 946L279 763C258 746 244 719 244 685C244 623 288 584 344 584C401 584 445 623 445 685ZM412 685C412 640 385 612 344 612C304 612 276 640 276 685C276 728 304 756 344 756C385 756 412 728 412 685ZM400 134C395 115 390 94 390 78C390 32 414 0 454 0H474C494 10 512 27 544 70L610 160L590 170C537 96 514 70 490 70C450 70 442 94 442 120C442 143 448 159 479 244L515 342C551 441 490 510 330 510C220 510 96 476 96 386C96 362 110 340 140 340C171 340 179 357 186 382C203 446 236 480 340 480C430 480 465 440 465 400C465 339 400 300 262 288C124 276 20 240 20 120C20 40 80 -10 160 -10C300 -10 380 132 409 179H413ZM262 263C349 274 412 281 448 309H452L438 281C416 237 336 54 190 54C132 54 94 82 94 140C94 220 149 249 262 263Z" glyph-name="aringacute" horiz-adv-x="600" unicode="&#507;" /><glyph d="M60 180 40 160 260 -60 480 160 460 180 275 -7V660H245V-7Z" glyph-name="arrowdown" horiz-adv-x="500" unicode="&#8595;" /><glyph d="M67 346H40V35H352V62H88L560 534L539 555L67 83Z" glyph-name="arrowdownleft" horiz-adv-x="580" /><glyph d="M513 346V83L41 555L20 534L492 62H228V35H540V346Z" glyph-name="arrowdownright" horiz-adv-x="580" /><glyph d="M280 100 93 285H760V315H93L280 500L260 520L40 300L260 80Z" glyph-name="arrowleft" horiz-adv-x="800" unicode="&#8592;" /><glyph d="M520 100 540 80 760 300 540 520 520 500 707 315H40V285H707Z" glyph-name="arrowright" horiz-adv-x="800" unicode="&#8594;" /><glyph d="M60 420 245 607V-60H275V607L460 420L480 440L260 660L40 440Z" glyph-name="arrowup" horiz-adv-x="520" unicode="&#8593;" /><glyph d="M67 244V507L539 35L560 56L88 528H352V555H40V244Z" glyph-name="arrowupleft" horiz-adv-x="580" /><glyph d="M513 244H540V555H228V528H492L20 56L41 35L513 507Z" glyph-name="arrowupright" horiz-adv-x="580" /><glyph d="M426 70H460L321 530L20 70H54L310 465Z" glyph-name="asciicircum" horiz-adv-x="500" unicode="^" /><glyph d="M53 315 47 285C57 273 88 245 150 245C266 245 339 325 436 325C498 325 535 295 547 285L553 315C543 327 512 355 450 355C334 355 261 275 163 275C101 275 65 305 53 315Z" glyph-name="asciitilde" horiz-adv-x="600" unicode="~" /><glyph d="M40 657 172 634 86 531 109 512 195 615 241 489 269 499 223 624 355 601 360 631 228 654 314 757 291 776 205 673 159 799 131 789 177 664 45 687Z" glyph-name="asterisk" horiz-adv-x="400" unicode="*" /><glyph d="M680 0C760 0 850 100 850 250C850 471 671 650 450 650C229 650 50 471 50 250C50 29 232 -150 450 -150V-120C248 -120 84 46 84 250C84 454 246 620 450 620C654 620 816 454 816 250C816 140 770 30 670 30C606 30 583 52 582 88C582 101 585 115 590 130L665 342C671 358 676 378 676 394C676 464 612 510 490 510C370 510 280 436 280 380C280 350 304 340 320 340C370 340 371 376 378 413C385 451 406 485 490 485C574 485 616 440 616 400C616 331 570 298 452 285C314 270 220 234 220 120C220 40 280 -10 360 -10C468 -10 524 90 543 128H547C543 118 536 100 536 68C536 22 573 0 600 0ZM451 258C518 269 577 277 604 314L588 281C567 237 520 50 390 50C330 50 290 80 290 140C290 220 338 240 451 258Z" glyph-name="at" horiz-adv-x="900" unicode="@" /><glyph d="M424 700C472 700 485 654 487 640H517C516 657 504 732 430 732C366 732 327 670 263 670C215 670 202 716 201 730H171C171 713 183 638 257 638C331 638 371 700 424 700ZM400 134C395 115 390 94 390 78C390 32 414 0 454 0H474C494 10 512 27 544 70L610 160L590 170C537 96 514 70 490 70C450 70 442 94 442 120C442 143 448 159 479 244L515 342C551 441 490 510 330 510C220 510 96 476 96 386C96 362 110 340 140 340C171 340 179 357 186 382C203 446 236 480 340 480C430 480 465 440 465 400C465 339 400 300 262 288C124 276 20 240 20 120C20 40 80 -10 160 -10C300 -10 380 132 409 179H413ZM262 263C349 274 412 281 448 309H452L438 281C416 237 336 54 190 54C132 54 94 82 94 140C94 220 149 249 262 263Z" glyph-name="atilde" horiz-adv-x="600" unicode="&#227;" /><glyph d="M98 102H102C115 49 158 -10 240 -10C390 -10 560 160 560 340C560 450 500 510 410 510C310 510 222 440 152 326H148C261 676 284 764 284 776L280 780H100L90 730H200L40 -10H70ZM150 180C150 320 240 450 360 450C450 450 500 370 500 300C500 150 390 30 280 30C190 30 150 115 150 180Z" glyph-name="b" horiz-adv-x="600" unicode="b" /><glyph d="M-10 780 284 -230 310 -220 16 790Z" glyph-name="backslash" horiz-adv-x="300" unicode="\" /><glyph d="M-5 -226 23 -230 205 786 177 790Z" glyph-name="bar" horiz-adv-x="200" unicode="|" /><glyph d="M350 126C496 126 616 245 616 390C616 535 496 654 350 654C204 654 84 535 84 390C84 245 204 126 350 126Z" glyph-name="blackcircle" horiz-adv-x="700" /><glyph d="M350 700 40 390 350 80 660 390Z" glyph-name="blackdiamond" horiz-adv-x="700" /><glyph d="M638 640H62L350 140Z" glyph-name="blackdownpointingtriangle" horiz-adv-x="700" /><glyph d="M580 678 80 390 580 102Z" glyph-name="blackleftpointingtriangle" horiz-adv-x="700" /><glyph d="M120 678V102L620 390Z" glyph-name="blackrightpointingtriangle" horiz-adv-x="700" /><glyph d="M120 620V160H580V620Z" glyph-name="blacksquare" horiz-adv-x="700" /><glyph d="M120 678V102L620 390Z" glyph-name="blacktriangle" horiz-adv-x="700" /><glyph d="M638 140 350 640 62 140Z" glyph-name="blackuppointingtriangle" horiz-adv-x="700" /><glyph d="M203 139C203 56 101 2 101 -123C101 -215 175 -250 254 -250L267 -230C204 -230 137 -194 137 -121C137 -24 243 50 243 146C243 214 192 241 162 248V252C205 261 290 311 290 408C290 464 259 504 259 565C259 684 354 730 437 730L430 750C327 750 221 674 221 554C221 495 250 461 250 408C250 312 187 272 84 260L80 240C156 231 203 196 203 139Z" glyph-name="braceleft" horiz-adv-x="400" unicode="{" /><glyph d="M203 279C203 196 101 142 101 17C101 -75 175 -110 254 -110L267 -90C204 -90 137 -54 137 19C137 116 243 190 243 286C243 354 192 381 162 388V392C205 401 290 451 290 548C290 604 259 644 259 705C259 824 354 870 437 870L430 890C327 890 221 814 221 694C221 635 250 601 250 548C250 452 187 412 84 400L80 380C156 371 203 336 203 279Z" glyph-name="braceleft.cap" horiz-adv-x="400" /><glyph d="M110 92C110 36 141 -4 141 -65C141 -184 46 -230 -37 -230L-30 -250C73 -250 179 -174 179 -54C179 5 150 39 150 92C150 188 213 228 316 240L320 260C244 269 197 304 197 361C197 444 299 498 299 623C299 715 225 750 146 750L133 730C196 730 263 694 263 621C263 524 157 450 157 354C157 286 208 259 238 252V248C195 239 110 189 110 92Z" glyph-name="braceright" horiz-adv-x="400" unicode="}" /><glyph d="M110 232C110 176 141 136 141 75C141 -44 46 -90 -37 -90L-30 -110C73 -110 179 -34 179 86C179 145 150 179 150 232C150 328 213 368 316 380L320 400C244 409 197 444 197 501C197 584 299 638 299 763C299 855 225 890 146 890L133 870C196 870 263 834 263 761C263 664 157 590 157 494C157 426 208 399 238 392V388C195 379 110 329 110 232Z" glyph-name="braceright.cap" horiz-adv-x="400" /><glyph d="M60 -250H309L315 -220H99L265 720H480L486 750H236Z" glyph-name="bracketleft" horiz-adv-x="400" unicode="[" /><glyph d="M60 -110H309L315 -80H99L265 860H480L486 890H236Z" glyph-name="bracketleft.cap" horiz-adv-x="400" /><glyph d="M340 750H90L84 720H301L135 -220H-81L-87 -250H164Z" glyph-name="bracketright" horiz-adv-x="400" unicode="]" /><glyph d="M340 890H90L84 860H301L135 -80H-81L-87 -110H164Z" glyph-name="bracketright.cap" horiz-adv-x="400" /><glyph d="M178 745H148V733C148 690 166 625 257 625C357 625 397 703 408 745H378C370 720 342 655 262 655C185 655 178 716 178 742Z" glyph-name="breve" horiz-adv-x="500" unicode="&#728;" /><glyph d="M178 985H148V973C148 930 166 865 257 865C357 865 397 943 408 985H378C370 960 342 895 262 895C185 895 178 956 178 982Z" glyph-name="breve.cap" horiz-adv-x="500" /><glyph d="M134 390 205 786 177 790 106 394ZM23 -230 94 166 66 170 -5 -226Z" glyph-name="brokenbar" horiz-adv-x="200" unicode="&#166;" /><glyph d="M60 300C60 221 121 160 200 160C280 160 340 221 340 300C340 380 280 440 200 440C121 440 60 380 60 300Z" glyph-name="bullet" horiz-adv-x="400" unicode="&#8226;" /><glyph d="M210 -10C374 -10 466 182 480 210L460 220C450 198 384 50 250 50C150 50 90 130 90 230C90 360 190 470 310 470C350 470 378 448 378 400V362C378 334 392 320 420 320C450 320 468 342 468 386C468 440 442 510 320 510C180 510 40 350 40 180C40 60 100 -10 210 -10Z" glyph-name="c" horiz-adv-x="500" unicode="c" /><glyph d="M462 768 442 790 238 600 258 578ZM210 -10C374 -10 466 182 480 210L460 220C450 198 384 50 250 50C150 50 90 130 90 230C90 360 190 470 310 470C350 470 378 448 378 400V362C378 334 392 320 420 320C450 320 468 342 468 386C468 440 442 510 320 510C180 510 40 350 40 180C40 60 100 -10 210 -10Z" glyph-name="cacute" horiz-adv-x="500" unicode="&#263;" /><glyph d="M456 768 438 790 258 622 138 788 116 770 251 580H255Z" glyph-name="caron" horiz-adv-x="500" unicode="&#711;" /><glyph d="M456 1008 438 1030 258 862 138 1028 116 1010 251 820H255Z" glyph-name="caron.cap" horiz-adv-x="500" /><glyph d="M339 782 310 790 219 588 247 580Z" glyph-name="caronSlovak" horiz-adv-x="500" /><glyph d="M536 768 518 790 338 622 218 788 196 770 331 580H335ZM210 -10C374 -10 466 182 480 210L460 220C450 198 384 50 250 50C150 50 90 130 90 230C90 360 190 470 310 470C350 470 378 448 378 400V362C378 334 392 320 420 320C450 320 468 342 468 386C468 440 442 510 320 510C180 510 40 350 40 180C40 60 100 -10 210 -10Z" glyph-name="ccaron" horiz-adv-x="500" unicode="&#269;" /><glyph d="M79 -140C82 -150 100 -210 174 -210C244 -210 282 -162 282 -120C282 -81 254 -64 225 -64C215 -64 204 -66 192 -70L263 -3C394 32 468 185 480 210L460 220C450 198 384 50 250 50C150 50 90 130 90 230C90 360 190 470 310 470C350 470 378 448 378 400V362C378 334 392 320 420 320C450 320 468 342 468 386C468 440 442 510 320 510C180 510 40 350 40 180C40 60 100 -10 210 -10C216 -10 222 -10 228 -9L162 -70L168 -90C174 -88 183 -86 195 -86C220 -86 244 -96 244 -126C244 -156 221 -182 172 -182C122 -182 104 -140 101 -130Z" glyph-name="ccedilla" horiz-adv-x="500" unicode="&#231;" /><glyph d="M166 602 186 580 364 745 484 580 506 600 371 790H367ZM210 -10C374 -10 466 182 480 210L460 220C450 198 384 50 250 50C150 50 90 130 90 230C90 360 190 470 310 470C350 470 378 448 378 400V362C378 334 392 320 420 320C450 320 468 342 468 386C468 440 442 510 320 510C180 510 40 350 40 180C40 60 100 -10 210 -10Z" glyph-name="ccircumflex" horiz-adv-x="500" unicode="&#265;" /><glyph d="M280 685C280 649 304 635 330 635C356 635 380 649 380 685C380 721 356 735 330 735C305 735 280 721 280 685ZM210 -10C374 -10 466 182 480 210L460 220C450 198 384 50 250 50C150 50 90 130 90 230C90 360 190 470 310 470C350 470 378 448 378 400V362C378 334 392 320 420 320C450 320 468 342 468 386C468 440 442 510 320 510C180 510 40 350 40 180C40 60 100 -10 210 -10Z" glyph-name="cdotaccent" horiz-adv-x="500" unicode="&#267;" /><glyph d="M115 -140C118 -150 136 -210 210 -210C280 -210 318 -162 318 -120C318 -81 290 -64 261 -64C251 -64 240 -66 228 -70L324 20L317 40L198 -70L204 -90C210 -88 219 -86 231 -86C256 -86 280 -96 280 -126C280 -156 257 -182 208 -182C158 -182 140 -140 137 -130Z" glyph-name="cedilla" horiz-adv-x="500" unicode="&#184;" /><glyph d="M225 130C389 130 481 322 495 350L475 360C465 338 399 190 265 190C233 190 205 198 181 213L394 489C398 470 412 460 435 460C465 460 483 482 483 526C483 546 480 567 469 587L610 770L590 790L452 611C430 634 394 650 335 650C195 650 55 490 55 320C55 252 74 200 111 168L-10 10L10 -10L134 151C159 137 189 130 225 130ZM105 370C105 500 205 610 325 610C365 610 393 588 393 540V534L159 230C124 263 105 313 105 370Z" glyph-name="cent" horiz-adv-x="600" unicode="&#162;" /><glyph d="M225 130C389 130 481 322 495 350L475 360C465 338 399 190 265 190C233 190 205 198 181 213L394 489C398 470 412 460 435 460C465 460 483 482 483 526C483 546 480 567 469 587L610 770L590 790L452 611C430 634 394 650 335 650C195 650 55 490 55 320C55 252 74 200 111 168L-10 10L10 -10L134 151C159 137 189 130 225 130ZM105 370C105 500 205 610 325 610C365 610 393 588 393 540V534L159 230C124 263 105 313 105 370Z" glyph-name="cent.LP" horiz-adv-x="600" /><glyph d="M50 391C50 169 229 -10 450 -10C671 -10 850 169 850 391C850 611 671 790 450 790C229 790 50 611 50 391ZM84 391C84 595 246 760 450 760C654 760 816 595 816 391C816 187 654 20 450 20C246 20 84 187 84 391ZM587 303C587 359 553 387 515 408C564 428 604 467 604 522C604 584 556 610 496 610C409 610 350 556 350 494C350 449 375 424 406 404C349 385 296 345 296 274C296 212 344 170 424 170C523 170 587 231 587 303ZM403 506C403 548 436 582 493 582C538 582 570 562 570 514C570 468 535 433 493 419C448 441 403 459 403 506ZM330 282C330 344 374 379 427 393C477 366 534 347 534 286C534 233 490 197 430 197C369 197 330 228 330 282Z" glyph-name="circleddigiteight" horiz-adv-x="900" /><glyph d="M50 391C50 169 229 -10 450 -10C671 -10 850 169 850 391C850 611 671 790 450 790C229 790 50 611 50 391ZM84 391C84 595 246 760 450 760C654 760 816 595 816 391C816 187 654 20 450 20C246 20 84 187 84 391ZM458 426C508 426 536 393 536 333C536 269 499 200 422 200C334 200 320 273 320 310L301 299C301 256 320 173 427 173C533 173 593 260 593 341C593 415 539 453 480 453C432 453 397 433 377 417L397 530C402 563 415 569 443 569H503C586 569 592 519 595 497L613 508L603 607H383L344 386H371C382 398 412 426 458 426Z" glyph-name="circleddigitfive" horiz-adv-x="900" /><glyph d="M50 391C50 169 229 -10 450 -10C671 -10 850 169 850 391C850 611 671 790 450 790C229 790 50 611 50 391ZM84 391C84 595 246 760 450 760C654 760 816 595 816 391C816 187 654 20 450 20C246 20 84 187 84 391ZM479 512C482 512 483 509 482 503L450 326H311L471 505C476 511 477 512 479 512ZM274 299H445L435 244C431 222 421 211 388 211H344L339 183H557L562 211H518C484 211 476 224 480 244L490 299H588L593 326H494L546 618H543L279 326Z" glyph-name="circleddigitfour" horiz-adv-x="900" /><glyph d="M50 391C50 169 229 -10 450 -10C671 -10 850 169 850 391C850 611 671 790 450 790C229 790 50 611 50 391ZM84 391C84 595 246 760 450 760C654 760 816 595 816 391C816 187 654 20 450 20C246 20 84 187 84 391ZM387 198C319 198 303 258 303 291L285 280C285 259 292 170 394 170C516 170 601 341 601 463C601 558 556 610 483 610C393 610 318 531 318 436C318 366 365 324 428 324C475 324 511 353 535 384C511 270 461 198 387 198ZM446 352C401 352 375 383 375 434C375 521 418 583 477 583C523 583 546 549 546 496C546 430 512 352 446 352Z" glyph-name="circleddigitnine" horiz-adv-x="900" /><glyph d="M50 391C50 169 229 -10 450 -10C671 -10 850 169 850 391C850 611 671 790 450 790C229 790 50 611 50 391ZM84 391C84 595 246 760 450 760C654 760 816 595 816 391C816 187 654 20 450 20C246 20 84 187 84 391ZM411 234C407 212 397 201 364 201H303L297 173H550L556 201H496C462 201 454 210 458 234L524 608H496L492 587C485 553 474 536 434 536H368L362 509H460Z" glyph-name="circleddigitone" horiz-adv-x="900" /><glyph d="M50 391C50 169 229 -10 450 -10C671 -10 850 169 850 391C850 611 671 790 450 790C229 790 50 611 50 391ZM84 391C84 595 246 760 450 760C654 760 816 595 816 391C816 187 654 20 450 20C246 20 84 187 84 391ZM633 605V607H369L325 508L339 497C350 519 374 569 457 569H536C546 569 550 564 550 559C550 531 362 255 362 195C362 178 373 173 383 173C417 173 420 198 433 255C467 404 541 504 633 605Z" glyph-name="circleddigitseven" horiz-adv-x="899" /><glyph d="M50 391C50 169 229 -10 450 -10C671 -10 850 169 850 391C850 611 671 790 450 790C229 790 50 611 50 391ZM84 391C84 595 246 760 450 760C654 760 816 595 816 391C816 187 654 20 450 20C246 20 84 187 84 391ZM506 582C574 582 554 537 554 510C554 492 564 483 580 483C596 483 608 496 608 526C608 560 588 610 514 610C379 610 292 440 292 318C292 222 337 170 410 170C500 170 575 249 575 344C575 414 528 456 465 456C418 456 381 423 357 395C381 509 432 582 506 582ZM447 428C492 428 518 397 518 345C518 259 475 197 416 197C370 197 347 231 347 284C347 350 381 428 447 428Z" glyph-name="circleddigitsix" horiz-adv-x="900" /><glyph d="M50 391C50 169 229 -10 450 -10C671 -10 850 169 850 391C850 611 671 790 450 790C229 790 50 611 50 391ZM84 391C84 595 246 760 450 760C654 760 816 595 816 391C816 187 654 20 450 20C246 20 84 187 84 391ZM536 170C648 170 724 328 724 462C724 550 688 610 613 610C502 610 425 451 425 319C425 230 461 170 536 170ZM275 234C271 212 261 201 228 201H167L161 173H414L420 201H360C326 201 318 210 322 234L388 608H360L356 587C349 553 338 536 298 536H232L226 509H324ZM535 197C495 197 479 234 479 293C479 411 527 582 614 582C654 582 670 545 670 487C670 366 623 197 535 197Z" glyph-name="circleddigitten" horiz-adv-x="900" /><glyph d="M50 391C50 169 229 -10 450 -10C671 -10 850 169 850 391C850 611 671 790 450 790C229 790 50 611 50 391ZM84 391C84 595 246 760 450 760C654 760 816 595 816 391C816 187 654 20 450 20C246 20 84 187 84 391ZM418 170C512 170 579 233 579 308C579 386 512 405 494 409V412C502 414 602 437 602 524C602 570 566 610 495 610C399 610 346 538 346 505C346 488 357 483 367 483C393 483 401 505 404 528C408 564 427 582 479 582C523 582 551 563 551 519C551 461 507 417 436 417H403L399 391H432C489 391 521 364 521 304C521 252 485 197 413 197C320 197 309 290 309 307L291 296C291 273 300 170 418 170Z" glyph-name="circleddigitthree" horiz-adv-x="900" /><glyph d="M50 391C50 169 229 -10 450 -10C671 -10 850 169 850 391C850 611 671 790 450 790C229 790 50 611 50 391ZM84 391C84 595 246 760 450 760C654 760 816 595 816 391C816 187 654 20 450 20C246 20 84 187 84 391ZM536 173 580 272 566 283C555 261 531 212 448 212H356C348 212 344 214 344 218C344 223 347 227 354 234C465 345 606 398 606 513C606 571 569 608 496 608C398 608 345 536 345 503C345 486 356 481 366 481C394 481 402 500 404 522C407 555 419 580 478 580C522 580 550 561 550 517C550 397 391 328 286 190L283 173Z" glyph-name="circleddigittwo" horiz-adv-x="899" /><glyph d="M50 391C50 169 229 -10 450 -10C671 -10 850 169 850 391C850 611 671 790 450 790C229 790 50 611 50 391ZM84 391C84 595 246 760 450 760C654 760 816 595 816 391C816 187 654 20 450 20C246 20 84 187 84 391ZM412 170C524 170 600 328 600 462C600 550 564 610 489 610C378 610 301 451 301 319C301 230 337 170 412 170ZM411 197C371 197 355 234 355 293C355 411 403 582 490 582C530 582 546 545 546 487C546 366 499 197 411 197Z" glyph-name="circleddigitzero" horiz-adv-x="900" /><glyph d="M86 602 106 580 284 745 404 580 426 600 291 790H287Z" glyph-name="circumflex" horiz-adv-x="500" unicode="&#710;" /><glyph d="M86 842 106 820 284 985 404 820 426 840 291 1030H287Z" glyph-name="circumflex.cap" horiz-adv-x="500" /><glyph d="M110 450C110 410 141 390 170 390C200 390 230 410 230 450C230 490 200 510 170 510C141 510 110 490 110 450ZM40 50C40 10 71 -10 100 -10C130 -10 160 10 160 50C160 90 130 110 100 110C71 110 40 90 40 50Z" glyph-name="colon" horiz-adv-x="300" unicode=":" /><glyph d="M50 50C50 14 74 -2 96 -2C110 -2 117 2 122 6H126L-12 -168L14 -186L152 2C166 21 170 34 170 50C170 90 140 110 110 110C80 110 50 90 50 50Z" glyph-name="comma" horiz-adv-x="300" unicode="," /><glyph d="M93 -208 111 -230 268 -70 250 -48Z" glyph-name="commaaccent" horiz-adv-x="500" unicode="&#63171;" /><glyph d="M303 630 322 610 478 770 459 790Z" glyph-name="commaaccent.alt" horiz-adv-x="500" /><glyph d="M44 321C44 132 183 -10 379 -10C658 -10 856 210 856 460C856 647 717 790 520 790C249 790 44 574 44 321ZM515 760C697 760 822 629 822 457C822 215 625 20 385 20C203 20 78 152 78 325C78 569 275 760 515 760ZM498 650C338 650 205 494 205 334C205 215 276 128 400 128C590 128 666 324 670 332L655 341C652 334 575 156 415 156C317 156 261 229 261 333C261 494 364 622 501 622C615 622 644 526 657 480L675 491L651 635H647C636 624 630 616 620 616C598 616 584 650 498 650Z" glyph-name="copyright" horiz-adv-x="900" unicode="&#169;" /><glyph d="M109 120 181 181C204 159 236 145 273 145C311 145 347 159 377 180L426 120L452 142L402 202C436 236 457 282 457 327C457 354 450 379 436 399L508 458L490 480L419 420C396 442 364 455 327 455C288 455 252 442 222 421L172 481L146 459L196 399C163 366 143 321 143 273C143 247 150 223 163 203L91 142ZM322 427C384 427 425 382 425 324C425 253 360 173 278 173C215 173 175 219 175 277C175 357 240 427 322 427Z" glyph-name="currency" horiz-adv-x="600" unicode="&#164;" /><glyph d="M397 142C387 110 384 92 384 78C384 32 408 0 448 0H468C488 10 506 27 538 70L604 160L584 170C531 96 504 70 480 70C440 70 420 92 420 122C420 142 423 153 436 196C591 709 599 764 599 776L595 780H415L405 730H515L466 439H457C442 471 405 510 340 510C192 510 30 340 30 160C30 50 90 -10 180 -10C260 -10 344 52 393 142ZM420 320C420 180 330 50 220 50C130 50 90 130 90 200C90 350 190 450 290 450C380 450 420 385 420 320Z" glyph-name="d" horiz-adv-x="600" unicode="d" /><glyph d="M104 470 204 475 175 370 87 -10 69 -110H89L117 -10L205 370L224 475L323 470H393L400 500H330L230 496L258 601L277 680L294 780H274L247 680L229 601L209 496L109 500H39L33 470Z" glyph-name="dagger" horiz-adv-x="400" unicode="&#8224;" /><glyph d="M160 300 139 195 41 200H-30L-36 170H34L135 175L106 70L87 -10L69 -110H89L117 -10L136 70L155 175L254 170H324L331 200H261L160 195L189 300L205 370L224 475L323 470H393L400 500H330L230 496L258 601L277 680L295 780H274L247 680L229 601L209 496L109 500H39L33 470H104L204 475L175 370Z" glyph-name="daggerdbl" horiz-adv-x="400" unicode="&#8225;" /><glyph d="M711 782 682 790 591 588 619 580ZM397 142C387 110 384 92 384 78C384 32 408 0 448 0H468C488 10 506 27 538 70L604 160L584 170C531 96 504 70 480 70C440 70 420 92 420 122C420 142 423 153 436 196C591 709 599 764 599 776L595 780H415L405 730H515L466 439H457C442 471 405 510 340 510C192 510 30 340 30 160C30 50 90 -10 180 -10C260 -10 344 52 393 142ZM420 320C420 180 330 50 220 50C130 50 90 130 90 200C90 350 190 450 290 450C380 450 420 385 420 320Z" glyph-name="dcaron" horiz-adv-x="600" unicode="&#271;" /><glyph d="M397 142C387 110 384 92 384 78C384 32 408 0 448 0H468C488 10 506 27 538 70L604 160L584 170C531 96 504 70 480 70C440 70 420 92 420 122C420 142 423 153 436 196C487 366 523 485 547 570H650V602H556C596 744 599 769 599 776L595 780H415L405 730H515L493 602H360V570H488L466 439H457C442 471 405 510 340 510C192 510 30 340 30 160C30 50 90 -10 180 -10C260 -10 344 52 393 142ZM420 320C420 180 330 50 220 50C130 50 90 130 90 200C90 350 190 450 290 450C380 450 420 385 420 320Z" glyph-name="dcroat" horiz-adv-x="600" unicode="&#273;" /><glyph d="M63 635C63 568 110 520 181 520C265 520 338 587 338 675C338 743 291 790 220 790C136 790 63 723 63 635ZM215 762C272 762 305 726 305 672C305 602 252 548 186 548C129 548 96 585 96 638C96 709 149 762 215 762Z" glyph-name="degree" horiz-adv-x="400" unicode="&#176;" /><glyph d="M120 685C120 649 144 635 170 635C196 635 220 649 220 685C220 721 196 735 170 735C145 735 120 721 120 685ZM280 685C280 649 304 635 330 635C356 635 380 649 380 685C380 721 356 735 330 735C305 735 280 721 280 685Z" glyph-name="dieresis" horiz-adv-x="500" unicode="&#168;" /><glyph d="M120 925C120 889 144 875 170 875C196 875 220 889 220 925C220 961 196 975 170 975C145 975 120 961 120 925ZM280 925C280 889 304 875 330 875C356 875 380 889 380 925C380 961 356 975 330 975C305 975 280 961 280 925Z" glyph-name="dieresis.cap" horiz-adv-x="500" /><glyph d="M270 465C270 425 302 405 330 405C360 405 390 425 390 465C390 505 360 525 330 525C301 525 270 505 270 465ZM57 285H537L543 315H63ZM214 135C214 95 246 75 274 75C304 75 334 95 334 135C334 175 304 195 274 195C245 195 214 175 214 135Z" glyph-name="divide" horiz-adv-x="600" unicode="&#247;" /><glyph d="M205 -116 233 -120 253 -10C255 -10 257 -10 259 -10C424 -10 528 92 528 220C528 353 426 390 332 430L390 754C497 741 536 675 568 570L588 580L565 790H561L529 771C518 765 510 762 500 762C473 762 450 780 395 787L415 896L387 900L367 790C361 790 355 790 348 790C201 790 114 698 114 580C114 449 204 408 292 369L230 26C97 40 57 121 32 210L12 200L35 -10H39L72 9C83 15 90 18 100 18C130 18 152 -3 224 -9ZM178 598C178 695 252 756 348 756C352 756 357 756 361 756L305 442C236 473 178 511 178 598ZM461 186C461 88 379 24 273 24C268 24 263 24 259 24L319 357C394 324 461 285 461 186Z" glyph-name="dollar" horiz-adv-x="600" unicode="$" /><glyph d="M205 -116 233 -120 253 -10C255 -10 257 -10 259 -10C424 -10 528 92 528 220C528 353 426 390 332 430L390 754C497 741 536 675 568 570L588 580L565 790H561L529 771C518 765 510 762 500 762C473 762 450 780 395 787L415 896L387 900L367 790C361 790 355 790 348 790C201 790 114 698 114 580C114 449 204 408 292 369L230 26C97 40 57 121 32 210L12 200L35 -10H39L72 9C83 15 90 18 100 18C130 18 152 -3 224 -9ZM178 598C178 695 252 756 348 756C352 756 357 756 361 756L305 442C236 473 178 511 178 598ZM461 186C461 88 379 24 273 24C268 24 263 24 259 24L319 357C394 324 461 285 461 186Z" glyph-name="dollar.LP" horiz-adv-x="600" /><glyph d="M200 685C200 649 224 635 250 635C276 635 300 649 300 685C300 721 276 735 250 735C225 735 200 721 200 685Z" glyph-name="dotaccent" horiz-adv-x="500" unicode="&#729;" /><glyph d="M200 925C200 889 224 875 250 875C276 875 300 889 300 925C300 961 276 975 250 975C225 975 200 961 200 925Z" glyph-name="dotaccent.cap" horiz-adv-x="500" /><glyph d="M64 132C59 113 56 92 56 78C56 32 90 0 130 0H150C170 10 188 27 220 70L286 160L266 170C213 96 186 70 162 70C122 70 104 94 104 120C104 141 111 166 129 215C169 323 224 474 224 496L220 500H50L40 450H139Z" glyph-name="dotlessi" horiz-adv-x="300" unicode="&#305;" /><glyph d="M90 90C56 -52 20 -150 -110 -150H-216C-228 -156 -240 -172 -240 -192C-240 -222 -218 -230 -194 -230C-20 -230 86 -92 158 140C258 462 259 474 259 496L255 500H75L65 450H175Z" glyph-name="dotlessj" horiz-adv-x="300" unicode="&#567;" /><glyph d="M480 210 460 220C450 198 384 50 250 50C150 50 90 130 90 230C90 240 91 250 92 260H410L440 380C449 417 430 510 320 510C180 510 40 350 40 180C40 60 100 -10 210 -10C374 -10 466 182 480 210ZM390 310H103C129 391 196 450 280 450C380 450 390 380 390 340Z" glyph-name="e" horiz-adv-x="500" unicode="e" /><glyph d="M462 768 442 790 238 600 258 578ZM480 210 460 220C450 198 384 50 250 50C150 50 90 130 90 230C90 240 91 250 92 260H410L440 380C449 417 430 510 320 510C180 510 40 350 40 180C40 60 100 -10 210 -10C374 -10 466 182 480 210ZM390 310H103C129 391 196 450 280 450C380 450 390 380 390 340Z" glyph-name="eacute" horiz-adv-x="500" unicode="&#233;" /><glyph d="M258 745H228V733C228 690 246 625 337 625C437 625 477 703 488 745H458C450 720 422 655 342 655C265 655 258 716 258 742ZM480 210 460 220C450 198 384 50 250 50C150 50 90 130 90 230C90 240 91 250 92 260H410L440 380C449 417 430 510 320 510C180 510 40 350 40 180C40 60 100 -10 210 -10C374 -10 466 182 480 210ZM390 310H103C129 391 196 450 280 450C380 450 390 380 390 340Z" glyph-name="ebreve" horiz-adv-x="500" unicode="&#277;" /><glyph d="M536 768 518 790 338 622 218 788 196 770 331 580H335ZM480 210 460 220C450 198 384 50 250 50C150 50 90 130 90 230C90 240 91 250 92 260H410L440 380C449 417 430 510 320 510C180 510 40 350 40 180C40 60 100 -10 210 -10C374 -10 466 182 480 210ZM390 310H103C129 391 196 450 280 450C380 450 390 380 390 340Z" glyph-name="ecaron" horiz-adv-x="500" unicode="&#283;" /><glyph d="M166 602 186 580 364 745 484 580 506 600 371 790H367ZM480 210 460 220C450 198 384 50 250 50C150 50 90 130 90 230C90 240 91 250 92 260H410L440 380C449 417 430 510 320 510C180 510 40 350 40 180C40 60 100 -10 210 -10C374 -10 466 182 480 210ZM390 310H103C129 391 196 450 280 450C380 450 390 380 390 340Z" glyph-name="ecircumflex" horiz-adv-x="500" unicode="&#234;" /><glyph d="M200 685C200 649 224 635 250 635C276 635 300 649 300 685C300 721 276 735 250 735C225 735 200 721 200 685ZM360 685C360 649 384 635 410 635C436 635 460 649 460 685C460 721 436 735 410 735C385 735 360 721 360 685ZM480 210 460 220C450 198 384 50 250 50C150 50 90 130 90 230C90 240 91 250 92 260H410L440 380C449 417 430 510 320 510C180 510 40 350 40 180C40 60 100 -10 210 -10C374 -10 466 182 480 210ZM390 310H103C129 391 196 450 280 450C380 450 390 380 390 340Z" glyph-name="edieresis" horiz-adv-x="500" unicode="&#235;" /><glyph d="M280 685C280 649 304 635 330 635C356 635 380 649 380 685C380 721 356 735 330 735C305 735 280 721 280 685ZM480 210 460 220C450 198 384 50 250 50C150 50 90 130 90 230C90 240 91 250 92 260H410L440 380C449 417 430 510 320 510C180 510 40 350 40 180C40 60 100 -10 210 -10C374 -10 466 182 480 210ZM390 310H103C129 391 196 450 280 450C380 450 390 380 390 340Z" glyph-name="edotaccent" horiz-adv-x="500" unicode="&#279;" /><glyph d="M248 770 384 580 408 598 272 788ZM480 210 460 220C450 198 384 50 250 50C150 50 90 130 90 230C90 240 91 250 92 260H410L440 380C449 417 430 510 320 510C180 510 40 350 40 180C40 60 100 -10 210 -10C374 -10 466 182 480 210ZM390 310H103C129 391 196 450 280 450C380 450 390 380 390 340Z" glyph-name="egrave" horiz-adv-x="500" unicode="&#232;" /><glyph d="M539 228C539 338 464 385 382 421C486 455 569 533 569 630C569 743 485 790 368 790C208 790 109 691 109 582C109 490 170 446 242 411C126 376 10 294 10 168C10 44 111 -10 237 -10C422 -10 539 110 539 228ZM179 602C179 700 249 760 363 760C452 760 517 720 517 625C517 527 441 453 358 432C269 470 179 503 179 602ZM62 177C62 308 161 368 266 399V400C363 356 469 321 469 211C469 107 370 20 243 20C144 20 62 65 62 177Z" glyph-name="eight" horiz-adv-x="600" unicode="8" /><glyph d="M539 228C539 338 464 385 382 421C486 455 569 533 569 630C569 743 485 790 368 790C208 790 109 691 109 582C109 490 170 446 242 411C126 376 10 294 10 168C10 44 111 -10 237 -10C422 -10 539 110 539 228ZM179 602C179 700 249 760 363 760C452 760 517 720 517 625C517 527 441 453 358 432C269 470 179 503 179 602ZM62 177C62 308 161 368 266 399V400C363 356 469 321 469 211C469 107 370 20 243 20C144 20 62 65 62 177Z" glyph-name="eight.LP" horiz-adv-x="600" /><glyph d="M337 483C337 539 303 567 265 588C314 608 354 647 354 702C354 764 306 790 246 790C159 790 100 736 100 674C100 629 125 604 156 584C99 565 46 525 46 454C46 392 94 350 174 350C273 350 337 411 337 483ZM153 686C153 728 186 762 243 762C288 762 320 742 320 694C320 648 285 613 243 599C198 621 153 639 153 686ZM80 462C80 524 124 559 177 573C227 546 284 527 284 466C284 413 240 377 180 377C119 377 80 408 80 462Z" glyph-name="eightsuperior" horiz-adv-x="400" unicode="&#8312;" /><glyph d="M460 50C460 10 491 -10 520 -10C550 -10 580 10 580 50C580 90 550 110 520 110C491 110 460 90 460 50ZM40 50C40 10 71 -10 100 -10C130 -10 160 10 160 50C160 90 130 110 100 110C71 110 40 90 40 50ZM250 50C250 10 281 -10 310 -10C340 -10 370 10 370 50C370 90 340 110 310 110C281 110 250 90 250 50Z" glyph-name="ellipsis" horiz-adv-x="700" unicode="&#8230;" /><glyph d="M455 701H231L225 669H449ZM480 210 460 220C450 198 384 50 250 50C150 50 90 130 90 230C90 240 91 250 92 260H410L440 380C449 417 430 510 320 510C180 510 40 350 40 180C40 60 100 -10 210 -10C374 -10 466 182 480 210ZM390 310H103C129 391 196 450 280 450C380 450 390 380 390 340Z" glyph-name="emacron" horiz-adv-x="500" unicode="&#275;" /><glyph d="M774 235 780 265H26L20 235Z" glyph-name="emdash" horiz-adv-x="800" unicode="&#8212;" /><glyph d="M774 375 780 405H26L20 375Z" glyph-name="emdash.cap" horiz-adv-x="800" /><glyph d="M20 235H574L580 265H26Z" glyph-name="endash" horiz-adv-x="600" unicode="&#8211;" /><glyph d="M20 375H574L580 405H26Z" glyph-name="endash.cap" horiz-adv-x="600" /><glyph d="M509 244C536 321 548 358 548 410C548 456 514 510 436 510C350 510 282 449 220 310L162 180H150C156 196 250 476 250 496L246 500H80L70 450H180L70 0H130L228 250C291 410 327 450 388 450C440 450 476 412 476 364C476 341 463 295 453 258L418 132C385 5 344 -150 210 -150H104C92 -156 80 -172 80 -192C80 -222 102 -230 126 -230C340 -230 428 14 509 244Z" glyph-name="eng" horiz-adv-x="600" unicode="&#331;" /><glyph d="M427 -170 432 -140H398C357 -140 342 -122 342 -92C342 -30 381 49 438 137C442 142 445 148 448 153C450 155 451 158 453 160C467 184 476 203 480 210L460 220C457 213 448 193 433 170C432 168 431 166 430 164C397 114 338 50 250 50C150 50 90 130 90 230C90 240 91 250 92 260H410L440 380C449 417 430 510 320 510C180 510 40 350 40 180C40 60 100 -10 210 -10C272 -10 324 18 365 54C333 -5 307 -61 307 -101C307 -138 323 -170 379 -170ZM390 310H103C129 391 196 450 280 450C380 450 390 380 390 340Z" glyph-name="eogonek" horiz-adv-x="500" unicode="&#281;" /><glyph d="M65 386H565L571 415H71ZM30 185H530L536 215H36Z" glyph-name="equal" horiz-adv-x="600" unicode="=" /><glyph d="M725 323C736 354 737 388 737 416C737 573 638 682 460 682C220 682 64 461 64 270C64 111 161 -10 338 -10C485 -10 607 71 689 197L669 207C606 108 485 20 344 20C225 20 150 75 117 160L146 323ZM454 648C569 648 647 599 682 518L653 353H151L177 501C240 585 336 648 454 648Z" glyph-name="estimated" horiz-adv-x="800" unicode="&#8494;" /><glyph d="M426 425H422C411 452 370 510 281 510C144 510 10 385 10 191C10 66 89 -10 195 -10C427 -10 492 257 492 397C492 524 451 614 398 676L523 697L518 727L373 703C328 745 278 773 236 790L223 770C252 756 287 729 319 694L188 672L192 642L342 667C389 606 426 527 426 441ZM221 30C141 30 91 101 91 201C91 326 167 470 279 470C349 470 401 421 401 315C401 186 334 30 221 30Z" glyph-name="eth" horiz-adv-x="500" unicode="&#240;" /><glyph d="M240 780H160C154 760 123 627 60 220H90C166 530 236 770 240 780ZM-10 50C-10 10 21 -10 50 -10C80 -10 110 10 110 50C110 90 80 110 50 110C21 110 -10 90 -10 50Z" glyph-name="exclam" horiz-adv-x="200" unicode="!" /><glyph d="M210 450C210 490 179 510 150 510C120 510 90 490 90 450C90 410 120 390 150 390C179 390 210 410 210 450ZM-40 -280H40C46 -260 77 -127 140 280H110C34 -30 -36 -270 -40 -280Z" glyph-name="exclamdown" horiz-adv-x="200" unicode="&#161;" /><glyph d="M230 730C230 770 199 790 170 790C140 790 110 770 110 730C110 690 140 670 170 670C199 670 230 690 230 730ZM-20 0H60C66 20 97 153 160 560H130C54 250 -16 10 -20 0Z" glyph-name="exclamdown.cap" horiz-adv-x="200" /><glyph d="M47 450H152L70 90C38 -51 2 -150 -128 -150H-234C-246 -156 -258 -172 -258 -192C-258 -222 -236 -230 -212 -230C-8 -230 63 -72 122 130L216 450H347L357 500H231L253 576C286 689 310 740 350 740C401 740 390 690 440 690C470 690 484 712 484 736C484 770 466 790 422 790C354 790 211 712 179 570L163 500H57Z" glyph-name="f" horiz-adv-x="300" unicode="f" /><glyph d="M47 450H152L70 90C38 -51 2 -150 -128 -150H-234C-246 -156 -258 -172 -258 -192C-258 -222 -236 -230 -212 -230C-8 -230 63 -72 122 130L216 450H347L357 500H231L253 576C286 689 310 740 350 740C401 740 390 690 440 690C470 690 484 712 484 736C484 770 466 790 422 790C354 790 211 712 179 570L163 500H57Z" glyph-name="f.alt" horiz-adv-x="300" /><glyph d="M47 450H152L70 90C38 -51 2 -150 -128 -150H-234C-246 -156 -258 -172 -258 -192C-258 -222 -236 -230 -212 -230C-8 -230 63 -72 122 130L216 450H452L370 90C338 -51 302 -150 172 -150H66C54 -156 42 -172 42 -192C42 -222 64 -230 88 -230C292 -230 363 -72 422 130L516 450H647L657 500H531L553 576C586 689 610 740 650 740C701 740 690 690 740 690C770 690 784 712 784 736C784 770 766 790 722 790C654 790 511 712 479 570L463 500H231L253 576C286 689 310 740 350 740C401 740 390 690 440 690C470 690 484 712 484 736C484 770 466 790 422 790C354 790 211 712 179 570L163 500H57Z" glyph-name="f_f" horiz-adv-x="600" /><glyph d="M47 450H152L70 90C38 -51 2 -150 -128 -150H-234C-246 -156 -258 -172 -258 -192C-258 -222 -236 -230 -212 -230C-8 -230 63 -72 122 130L216 450H452L370 90C338 -51 302 -150 172 -150H66C54 -156 42 -172 42 -192C42 -222 64 -230 88 -230C292 -230 363 -72 422 130L516 450H647L657 500H531L553 576C586 689 610 740 650 740C701 740 690 690 740 690C770 690 784 712 784 736C784 770 766 790 722 790C654 790 511 712 479 570L463 500H231L253 576C286 689 310 740 350 740C401 740 390 690 440 690C470 690 484 712 484 736C484 770 466 790 422 790C354 790 211 712 179 570L163 500H57Z" glyph-name="f_f.alt" horiz-adv-x="600" /><glyph d="M47 450H152L70 90C38 -51 2 -150 -128 -150H-234C-246 -156 -258 -172 -258 -192C-258 -222 -236 -230 -212 -230C-8 -230 63 -72 122 130L216 450H452L370 90C338 -51 302 -150 172 -150H66C54 -156 42 -172 42 -192C42 -222 64 -230 88 -230C292 -230 363 -72 422 130L516 450H739L664 132C659 113 656 92 656 78C656 32 690 0 730 0H750C770 10 788 27 820 70L886 160L866 170C813 96 786 70 762 70C722 70 704 94 704 120C704 141 711 166 729 215C769 323 824 474 824 496L820 500H531L553 576C586 689 610 740 672 740C731 740 730 690 800 690C830 690 844 712 844 736C844 770 826 790 772 790C674 790 515 730 479 570L463 500H231L253 576C286 689 310 740 350 740C401 740 390 690 440 690C470 690 484 712 484 736C484 770 466 790 422 790C354 790 211 712 179 570L163 500H57Z" glyph-name="f_f_i" horiz-adv-x="900" /><glyph d="M47 450H152L70 90C38 -51 2 -150 -128 -150H-234C-246 -156 -258 -172 -258 -192C-258 -222 -236 -230 -212 -230C-8 -230 63 -72 122 130L216 450H452L370 90C338 -51 302 -150 172 -150H66C54 -156 42 -172 42 -192C42 -222 64 -230 88 -230C292 -230 363 -72 422 130L516 450H739L664 132C659 113 656 92 656 78C656 32 690 0 730 0H750C770 10 788 27 820 70L886 160L866 170C813 96 786 70 762 70C722 70 704 94 704 120C704 141 711 166 729 215C769 323 824 474 824 496L820 500H531L553 576C586 689 610 740 672 740C731 740 730 690 800 690C830 690 844 712 844 736C844 770 826 790 772 790C674 790 515 730 479 570L463 500H231L253 576C286 689 310 740 350 740C401 740 390 690 440 690C470 690 484 712 484 736C484 770 466 790 422 790C354 790 211 712 179 570L163 500H57Z" glyph-name="f_f_i.alt" horiz-adv-x="900" /><glyph d="M47 450H152L70 90C38 -51 2 -150 -128 -150H-234C-246 -156 -258 -172 -258 -192C-258 -222 -236 -230 -212 -230C-8 -230 63 -72 122 130L216 450H452L370 90C338 -51 302 -150 172 -150H66C54 -156 42 -172 42 -192C42 -222 64 -230 88 -230C292 -230 363 -72 422 130L516 450H647L657 500H531L553 576C586 689 600 740 690 740C721 740 762 730 782 691L654 156C649 137 644 114 644 94C644 34 678 0 735 0H755C775 10 793 27 825 70L891 160L871 170C818 96 791 70 767 70C710 70 696 103 696 142C696 162 700 189 712 226C869 723 871 739 871 761L867 765C840 776 804 790 752 790C654 790 511 712 479 570L463 500H231L253 576C286 689 310 740 350 740C401 740 390 690 440 690C470 690 484 712 484 736C484 770 466 790 422 790C354 790 211 712 179 570L163 500H57Z" glyph-name="f_f_l" horiz-adv-x="900" /><glyph d="M47 450H152L70 90C38 -51 2 -150 -128 -150H-234C-246 -156 -258 -172 -258 -192C-258 -222 -236 -230 -212 -230C-8 -230 63 -72 122 130L216 450H452L370 90C338 -51 302 -150 172 -150H66C54 -156 42 -172 42 -192C42 -222 64 -230 88 -230C292 -230 363 -72 422 130L516 450H647L657 500H531L553 576C586 689 600 740 690 740C721 740 762 730 782 691L654 156C649 137 644 114 644 94C644 34 678 0 735 0H755C775 10 793 27 825 70L891 160L871 170C818 96 791 70 767 70C710 70 696 103 696 142C696 162 700 189 712 226C869 723 871 739 871 761L867 765C840 776 804 790 752 790C654 790 511 712 479 570L463 500H231L253 576C286 689 310 740 350 740C401 740 390 690 440 690C470 690 484 712 484 736C484 770 466 790 422 790C354 790 211 712 179 570L163 500H57Z" glyph-name="f_f_l.alt" horiz-adv-x="900" /><glyph d="M364 132C359 113 356 92 356 78C356 32 390 0 430 0H450C470 10 488 27 520 70L586 160L566 170C513 96 486 70 462 70C422 70 404 94 404 120C404 141 411 166 429 215C469 323 524 474 524 496L520 500H231L253 576C286 689 310 740 372 740C431 740 430 690 500 690C530 690 544 712 544 736C544 770 526 790 472 790C374 790 215 730 179 570L163 500H57L47 450H152L70 90C38 -51 2 -150 -128 -150H-234C-246 -156 -258 -172 -258 -192C-258 -222 -236 -230 -212 -230C-8 -230 63 -72 122 130L216 450H439Z" glyph-name="fi" horiz-adv-x="600" unicode="&#64257;" /><glyph d="M364 132C359 113 356 92 356 78C356 32 390 0 430 0H450C470 10 488 27 520 70L586 160L566 170C513 96 486 70 462 70C422 70 404 94 404 120C404 141 411 166 429 215C469 323 524 474 524 496L520 500H231L253 576C286 689 310 740 372 740C431 740 430 690 500 690C530 690 544 712 544 736C544 770 526 790 472 790C374 790 215 730 179 570L163 500H57L47 450H152L70 90C38 -51 2 -150 -128 -150H-234C-246 -156 -258 -172 -258 -192C-258 -222 -236 -230 -212 -230C-8 -230 63 -72 122 130L216 450H439Z" glyph-name="fi.alt" horiz-adv-x="600" /><glyph d="M360 0 366 30H266C204 30 182 49 189 90L240 380H418C486 380 507 338 496 254L490 220H514L576 570H552L546 536C531 456 492 410 423 410H246L295 690C302 730 333 750 393 750H543C693 750 712 630 717 590L737 600L719 780H99L93 750H153C217 750 238 728 231 690L125 90C118 51 86 30 26 30H-34L-40 0ZM1020 0 1026 30H966C904 30 882 52 889 90L995 690C1002 730 1033 750 1093 750H1153L1159 780H799L793 750H853C917 750 937 724 931 690L825 90C818 50 786 30 726 30H666L660 0Z" glyph-name="fi.cap" horiz-adv-x="1100" /><glyph d="M284 470C394 470 447 391 447 290C447 143 349 40 215 40C51 40 42 192 42 230L20 220C20 164 35 -10 221 -10C403 -10 531 140 531 290C531 446 417 500 309 500C219 500 155 455 121 426L169 660C181 719 200 730 250 730H370C520 730 542 630 547 590L567 600L549 780H159L78 378H108C126 404 184 470 284 470Z" glyph-name="five" horiz-adv-x="600" unicode="5" /><glyph d="M284 470C394 470 447 391 447 290C447 143 349 40 215 40C51 40 42 192 42 230L20 220C20 164 35 -10 221 -10C403 -10 531 140 531 290C531 446 417 500 309 500C219 500 155 455 121 426L169 660C181 719 200 730 250 730H370C520 730 542 630 547 590L567 600L549 780H159L78 378H108C126 404 184 470 284 470Z" glyph-name="five.LP" horiz-adv-x="600" /><glyph d="M208 603C258 603 286 570 286 510C286 446 249 377 172 377C84 377 70 450 70 487L51 476C51 433 70 350 177 350C283 350 343 437 343 518C343 592 289 630 230 630C182 630 147 610 127 594L147 707C152 740 165 746 193 746H253C336 746 342 696 345 674L363 685L353 784H133L94 563H121C132 575 162 603 208 603Z" glyph-name="fivesuperior" horiz-adv-x="400" unicode="&#8309;" /><glyph d="M47 450H152L70 90C38 -51 2 -150 -128 -150H-234C-246 -156 -258 -172 -258 -192C-258 -222 -236 -230 -212 -230C-8 -230 63 -72 122 130L216 450H347L357 500H231L253 576C286 689 300 740 390 740C421 740 462 730 482 691L354 156C349 137 344 114 344 94C344 34 378 0 435 0H455C475 10 493 27 525 70L591 160L571 170C518 96 491 70 467 70C410 70 396 103 396 142C396 162 400 189 412 226C569 723 571 739 571 761L567 765C540 776 504 790 452 790C354 790 211 712 179 570L163 500H57Z" glyph-name="fl" horiz-adv-x="600" unicode="&#64258;" /><glyph d="M47 450H152L70 90C38 -51 2 -150 -128 -150H-234C-246 -156 -258 -172 -258 -192C-258 -222 -236 -230 -212 -230C-8 -230 63 -72 122 130L216 450H347L357 500H231L253 576C286 689 300 740 390 740C421 740 462 730 482 691L354 156C349 137 344 114 344 94C344 34 378 0 435 0H455C475 10 493 27 525 70L591 160L571 170C518 96 491 70 467 70C410 70 396 103 396 142C396 162 400 189 412 226C569 723 571 739 571 761L567 765C540 776 504 790 452 790C354 790 211 712 179 570L163 500H57Z" glyph-name="fl.alt" horiz-adv-x="600" /><glyph d="M360 0 366 30H266C204 30 182 49 189 90L240 380H418C486 380 507 338 496 254L490 220H514L576 570H552L546 536C531 456 492 410 423 410H246L295 690C302 730 333 750 393 750H543C693 750 712 630 717 590L737 600L719 780H99L93 750H153C217 750 238 728 231 690L125 90C118 51 86 30 26 30H-34L-40 0ZM1281 0 1363 180 1343 190C1323 150 1266 30 1116 30H966C904 30 882 49 889 90L995 690C1002 730 1033 750 1093 750H1173L1179 780H799L793 750H853C917 750 938 730 931 690L825 90C818 51 786 30 726 30H666L660 0Z" glyph-name="fl.cap" horiz-adv-x="1400" /><glyph d="M235 204C210 60 149 40 109 40C59 40 69 90 17 90C-12 90 -31 64 -31 40C-31 9 -4 -10 39 -10C156 -10 279 88 302 220L329 375H497L503 405H335L365 576C390 720 451 740 491 740C541 740 531 690 583 690C612 690 631 716 631 740C631 771 604 790 560 790C444 790 321 692 298 560L271 405H103L97 375H265Z" glyph-name="florin" horiz-adv-x="600" unicode="&#402;" /><glyph d="M215 204C190 60 129 40 89 40C39 40 49 90 -3 90C-32 90 -51 64 -51 40C-51 9 -24 -10 19 -10C136 -10 259 88 282 220L309 375H477L483 405H315L345 576C370 720 431 740 471 740C521 740 511 690 563 690C592 690 611 716 611 740C611 771 584 790 540 790C424 790 301 692 278 560L251 405H83L77 375H245Z" glyph-name="florin.LP" horiz-adv-x="600" /><glyph d="M386 644C389 644 392 642 390 631L324 260H24L371 632C380 642 382 644 386 644ZM-24 210H315L294 90C287 50 255 30 195 30H135L129 0H489L495 30H435C373 30 351 50 358 90L379 210H547L556 260H388L481 790H476L-14 260Z" glyph-name="four" horiz-adv-x="600" unicode="4" /><glyph d="M386 644C389 644 392 642 390 631L324 260H24L371 632C380 642 382 644 386 644ZM-24 210H315L294 90C287 50 255 30 195 30H135L129 0H489L495 30H435C373 30 351 50 358 90L379 210H547L556 260H388L481 790H476L-14 260Z" glyph-name="four.LP" horiz-adv-x="600" /><glyph d="M251 684C254 684 255 681 254 675L222 498H83L243 677C248 683 249 684 251 684ZM46 471H217L207 416C203 394 193 383 160 383H116L111 355H329L334 383H290C256 383 248 396 252 416L262 471H360L365 498H266L318 790H315L51 498Z" glyph-name="foursuperior" horiz-adv-x="400" unicode="&#8308;" /><glyph d="M589 790 -12 6 10 -10 611 774Z" glyph-name="fraction" horiz-adv-x="600" unicode="&#8260;" /><glyph d="M80 300C80 229 123 177 185 158V154C94 150 10 140 10 86C10 55 33 36 80 30L91 28C-22 -22 -80 -45 -80 -120C-80 -220 24 -230 130 -230C260 -230 410 -190 410 -60C410 20 347 37 290 50L110 90C83 96 80 100 80 106C80 135 221 124 323 166C390 193 450 254 450 360C450 393 440 425 421 450H520L530 500H351C333 506 313 510 290 510C190 510 80 440 80 300ZM120 350C120 420 170 460 240 460C340 460 410 390 410 310C410 230 350 200 290 200C180 200 120 280 120 350ZM230 10C283 3 380 -10 380 -80C380 -150 290 -180 180 -180C40 -180 -10 -150 -10 -100C-10 -42 27 -22 124 24Z" glyph-name="g" horiz-adv-x="500" unicode="g" /><glyph d="M238 745H208V733C208 690 226 625 317 625C417 625 457 703 468 745H438C430 720 402 655 322 655C245 655 238 716 238 742ZM80 300C80 229 123 177 185 158V154C94 150 10 140 10 86C10 55 33 36 80 30L91 28C-22 -22 -80 -45 -80 -120C-80 -220 24 -230 130 -230C260 -230 410 -190 410 -60C410 20 347 37 290 50L110 90C83 96 80 100 80 106C80 135 221 124 323 166C390 193 450 254 450 360C450 393 440 425 421 450H520L530 500H351C333 506 313 510 290 510C190 510 80 440 80 300ZM120 350C120 420 170 460 240 460C340 460 410 390 410 310C410 230 350 200 290 200C180 200 120 280 120 350ZM230 10C283 3 380 -10 380 -80C380 -150 290 -180 180 -180C40 -180 -10 -150 -10 -100C-10 -42 27 -22 124 24Z" glyph-name="gbreve" horiz-adv-x="500" unicode="&#287;" /><glyph d="M146 602 166 580 344 745 464 580 486 600 351 790H347ZM80 300C80 229 123 177 185 158V154C94 150 10 140 10 86C10 55 33 36 80 30L91 28C-22 -22 -80 -45 -80 -120C-80 -220 24 -230 130 -230C260 -230 410 -190 410 -60C410 20 347 37 290 50L110 90C83 96 80 100 80 106C80 135 221 124 323 166C390 193 450 254 450 360C450 393 440 425 421 450H520L530 500H351C333 506 313 510 290 510C190 510 80 440 80 300ZM120 350C120 420 170 460 240 460C340 460 410 390 410 310C410 230 350 200 290 200C180 200 120 280 120 350ZM230 10C283 3 380 -10 380 -80C380 -150 290 -180 180 -180C40 -180 -10 -150 -10 -100C-10 -42 27 -22 124 24Z" glyph-name="gcircumflex" horiz-adv-x="500" unicode="&#285;" /><glyph d="M271 630 290 610 446 770 427 790ZM80 300C80 229 123 177 185 158V154C94 150 10 140 10 86C10 55 33 36 80 30L91 28C-22 -22 -80 -45 -80 -120C-80 -220 24 -230 130 -230C260 -230 410 -190 410 -60C410 20 347 37 290 50L110 90C83 96 80 100 80 106C80 135 221 124 323 166C390 193 450 254 450 360C450 393 440 425 421 450H520L530 500H351C333 506 313 510 290 510C190 510 80 440 80 300ZM120 350C120 420 170 460 240 460C340 460 410 390 410 310C410 230 350 200 290 200C180 200 120 280 120 350ZM230 10C283 3 380 -10 380 -80C380 -150 290 -180 180 -180C40 -180 -10 -150 -10 -100C-10 -42 27 -22 124 24Z" glyph-name="gcommaaccent" horiz-adv-x="500" unicode="&#291;" /><glyph d="M260 685C260 649 284 635 310 635C336 635 360 649 360 685C360 721 336 735 310 735C285 735 260 721 260 685ZM80 300C80 229 123 177 185 158V154C94 150 10 140 10 86C10 55 33 36 80 30L91 28C-22 -22 -80 -45 -80 -120C-80 -220 24 -230 130 -230C260 -230 410 -190 410 -60C410 20 347 37 290 50L110 90C83 96 80 100 80 106C80 135 221 124 323 166C390 193 450 254 450 360C450 393 440 425 421 450H520L530 500H351C333 506 313 510 290 510C190 510 80 440 80 300ZM120 350C120 420 170 460 240 460C340 460 410 390 410 310C410 230 350 200 290 200C180 200 120 280 120 350ZM230 10C283 3 380 -10 380 -80C380 -150 290 -180 180 -180C40 -180 -10 -150 -10 -100C-10 -42 27 -22 124 24Z" glyph-name="gdotaccent" horiz-adv-x="500" unicode="&#289;" /><glyph d="M38 450H143L61 90C29 -51 -7 -150 -137 -150H-243C-255 -156 -267 -172 -267 -192C-267 -222 -245 -230 -221 -230C-17 -230 54 -72 113 130L244 576C275 683 330 740 420 740C527 740 558 646 514 495C495 502 464 510 420 510C344 510 264 460 264 370C264 200 524 230 524 100C524 50 494 20 424 20C258 20 213 190 210 200L190 190L223 -10H227L257 19C262 24 267 26 273 26C299 26 327 -10 420 -10C504 -10 584 34 584 130C584 280 334 260 334 390C334 450 374 480 430 480C510 480 533 460 533 460L540 481C600 660 560 790 410 790C308 790 205 723 170 570L154 500H48Z" glyph-name="germandbls" horiz-adv-x="600" unicode="&#223;" /><glyph d="M259 -10C424 -10 528 92 528 220C528 466 178 385 178 598C178 695 252 756 348 756C488 756 532 688 568 570L588 580L565 790H561L529 771C518 765 510 762 500 762C466 762 438 790 348 790C201 790 114 698 114 580C114 322 461 412 461 186C461 88 379 24 273 24C105 24 59 112 32 210L12 200L35 -10H39L72 9C83 15 90 18 100 18C134 18 159 -10 259 -10ZM859 -10C1024 -10 1128 92 1128 220C1128 466 778 385 778 598C778 695 852 756 948 756C1088 756 1132 688 1168 570L1188 580L1165 790H1161L1129 771C1118 765 1110 762 1100 762C1066 762 1038 790 948 790C801 790 714 698 714 580C714 322 1061 412 1061 186C1061 88 979 24 873 24C705 24 659 112 632 210L612 200L635 -10H639L672 9C683 15 690 18 700 18C734 18 759 -10 859 -10Z" glyph-name="germandbls.cap" horiz-adv-x="1200" /><glyph d="M168 770 304 580 328 598 192 788Z" glyph-name="grave" horiz-adv-x="500" unicode="`" /><glyph d="M168 1010 304 820 328 838 192 1028Z" glyph-name="grave.cap" horiz-adv-x="500" /><glyph d="M520 300 99 520 93 486 455 300 27 114 21 80Z" glyph-name="greater" horiz-adv-x="600" unicode="&gt;" /><glyph d="M520 300 99 520 93 486 455 300 27 114 21 80ZM7 0H487L493 30H13Z" glyph-name="greaterequal" horiz-adv-x="600" unicode="&#8805;" /><glyph d="M50 248 291 450 273 470 14 250 197 30 217 48ZM170 248 411 450 393 470 134 250 317 30 337 48Z" glyph-name="guillemotleft" horiz-adv-x="400" unicode="&#171;" /><glyph d="M50 388 291 590 273 610 14 390 197 170 217 188ZM170 388 411 590 393 610 134 390 317 170 337 188Z" glyph-name="guillemotleft.cap" horiz-adv-x="400" /><glyph d="M348 252 109 50 127 30 386 250 205 468 185 450ZM228 252 -11 50 7 30 266 250 85 468 65 450Z" glyph-name="guillemotright" horiz-adv-x="400" unicode="&#187;" /><glyph d="M348 392 109 190 127 170 386 390 205 608 185 590ZM228 392 -11 190 7 170 266 390 85 608 65 590Z" glyph-name="guillemotright.cap" horiz-adv-x="400" /><glyph d="M50 248 291 450 273 470 14 250 197 30 217 48Z" glyph-name="guilsinglleft" horiz-adv-x="300" unicode="&#8249;" /><glyph d="M50 388 291 590 273 610 14 390 197 170 217 188Z" glyph-name="guilsinglleft.cap" horiz-adv-x="300" /><glyph d="M252 252 13 50 31 30 290 250 109 468 89 450Z" glyph-name="guilsinglright" horiz-adv-x="300" unicode="&#8250;" /><glyph d="M252 392 13 190 31 170 290 390 109 608 89 590Z" glyph-name="guilsinglright.cap" horiz-adv-x="300" /><glyph d="M403 258 368 132C363 113 360 92 360 78C360 32 384 0 424 0H444C464 10 482 27 514 70L580 160L560 170C507 96 480 70 456 70C416 70 408 94 408 120C408 143 417 165 449 244C479 319 498 358 498 410C498 456 474 510 396 510C310 510 242 449 180 310L122 180H110C258 694 272 764 272 776L268 780H88L78 730H188L30 0H90L188 250C251 410 287 450 348 450C399 450 426 412 426 364C426 323 413 295 403 258Z" glyph-name="h" horiz-adv-x="600" unicode="h" /><glyph d="M403 258 368 132C363 113 360 92 360 78C360 32 384 0 424 0H444C464 10 482 27 514 70L580 160L560 170C507 96 480 70 456 70C416 70 408 94 408 120C408 143 417 165 449 244C479 319 498 358 498 410C498 456 474 510 396 510C310 510 242 449 180 310L122 180H110C161 358 196 482 220 570H340V602H229C267 740 272 769 272 776L268 780H88L78 730H188L160 602H50V570H153L30 0H90L188 250C251 410 287 450 348 450C399 450 426 412 426 364C426 323 413 295 403 258Z" glyph-name="hbar" horiz-adv-x="600" unicode="&#295;" /><glyph d="M76 842 96 820 274 985 394 820 416 840 281 1030H277ZM403 258 368 132C363 113 360 92 360 78C360 32 384 0 424 0H444C464 10 482 27 514 70L580 160L560 170C507 96 480 70 456 70C416 70 408 94 408 120C408 143 417 165 449 244C479 319 498 358 498 410C498 456 474 510 396 510C310 510 242 449 180 310L122 180H110C258 694 272 764 272 776L268 780H88L78 730H188L30 0H90L188 250C251 410 287 450 348 450C399 450 426 412 426 364C426 323 413 295 403 258Z" glyph-name="hcircumflex" horiz-adv-x="600" unicode="&#293;" /><glyph d="M160 650C83 650 40 600 40 520C40 367 200 240 300 130C400 240 560 367 560 520C560 600 517 650 440 650C336 650 310 550 300 481C290 550 264 650 160 650Z" glyph-name="heart" horiz-adv-x="600" unicode="&#9829;" /><glyph d="M331 790 163 634 181 612 349 768ZM451 790 283 634 301 612 469 768Z" glyph-name="hungarumlaut" horiz-adv-x="500" unicode="&#733;" /><glyph d="M333 1030 165 874 183 852 351 1008ZM453 1030 285 874 303 852 471 1008Z" glyph-name="hungarumlaut.cap" horiz-adv-x="500" /><glyph d="M32 235H362L368 265H38Z" glyph-name="hyphen" horiz-adv-x="400" unicode="-" /><glyph d="M32 375H362L368 405H38Z" glyph-name="hyphen.cap" horiz-adv-x="400" /><glyph d="M160 685C160 645 190 625 220 625C250 625 280 645 280 685C280 725 250 745 220 745C191 745 160 725 160 685ZM64 132C59 113 56 92 56 78C56 32 90 0 130 0H150C170 10 188 27 220 70L286 160L266 170C213 96 186 70 162 70C122 70 104 94 104 120C104 141 111 166 129 215C169 323 224 474 224 496L220 500H50L40 450H139Z" glyph-name="i" horiz-adv-x="300" unicode="i" /><glyph d="M326 768 306 790 102 600 122 578ZM64 132C59 113 56 92 56 78C56 32 90 0 130 0H150C170 10 188 27 220 70L286 160L266 170C213 96 186 70 162 70C122 70 104 94 104 120C104 141 111 166 129 215C169 323 224 474 224 496L220 500H50L40 450H139Z" glyph-name="iacute" horiz-adv-x="300" unicode="&#237;" /><glyph d="M122 745H92V733C92 690 110 625 201 625C301 625 341 703 352 745H322C314 720 286 655 206 655C129 655 122 716 122 742ZM64 132C59 113 56 92 56 78C56 32 90 0 130 0H150C170 10 188 27 220 70L286 160L266 170C213 96 186 70 162 70C122 70 104 94 104 120C104 141 111 166 129 215C169 323 224 474 224 496L220 500H50L40 450H139Z" glyph-name="ibreve" horiz-adv-x="300" unicode="&#301;" /><glyph d="M30 602 50 580 228 745 348 580 370 600 235 790H231ZM64 132C59 113 56 92 56 78C56 32 90 0 130 0H150C170 10 188 27 220 70L286 160L266 170C213 96 186 70 162 70C122 70 104 94 104 120C104 141 111 166 129 215C169 323 224 474 224 496L220 500H50L40 450H139Z" glyph-name="icircumflex" horiz-adv-x="300" unicode="&#238;" /><glyph d="M64 685C64 649 88 635 114 635C140 635 164 649 164 685C164 721 140 735 114 735C89 735 64 721 64 685ZM224 685C224 649 248 635 274 635C300 635 324 649 324 685C324 721 300 735 274 735C249 735 224 721 224 685ZM64 132C59 113 56 92 56 78C56 32 90 0 130 0H150C170 10 188 27 220 70L286 160L266 170C213 96 186 70 162 70C122 70 104 94 104 120C104 141 111 166 129 215C169 323 224 474 224 496L220 500H50L40 450H139Z" glyph-name="idieresis" horiz-adv-x="300" unicode="&#239;" /><glyph d="M144 685C144 649 168 635 194 635C220 635 244 649 244 685C244 721 220 735 194 735C169 735 144 721 144 685ZM64 132C59 113 56 92 56 78C56 32 90 0 130 0H150C170 10 188 27 220 70L286 160L266 170C213 96 186 70 162 70C122 70 104 94 104 120C104 141 111 166 129 215C169 323 224 474 224 496L220 500H50L40 450H139Z" glyph-name="idotaccent" horiz-adv-x="300" /><glyph d="M112 770 248 580 272 598 136 788ZM64 132C59 113 56 92 56 78C56 32 90 0 130 0H150C170 10 188 27 220 70L286 160L266 170C213 96 186 70 162 70C122 70 104 94 104 120C104 141 111 166 129 215C169 323 224 474 224 496L220 500H50L40 450H139Z" glyph-name="igrave" horiz-adv-x="300" unicode="&#236;" /><glyph d="M160 685C160 645 190 625 220 625C250 625 280 645 280 685C280 725 250 745 220 745C191 745 160 725 160 685ZM480 685C480 645 510 625 540 625C570 625 600 645 600 685C600 725 570 745 540 745C511 745 480 725 480 685ZM64 132C59 113 56 92 56 78C56 32 90 0 130 0H150C170 10 188 27 220 70L286 160L266 170C213 96 186 70 162 70C122 70 104 94 104 120C104 141 111 166 129 215C169 323 224 474 224 496L220 500H50L40 450H139ZM390 90C356 -52 320 -150 190 -150H84C72 -156 60 -172 60 -192C60 -222 82 -230 106 -230C280 -230 386 -92 458 140C558 462 559 474 559 496L555 500H375L365 450H475Z" glyph-name="ij" horiz-adv-x="600" unicode="&#307;" /><glyph d="M319 701H95L89 669H313ZM64 132C59 113 56 92 56 78C56 32 90 0 130 0H150C170 10 188 27 220 70L286 160L266 170C213 96 186 70 162 70C122 70 104 94 104 120C104 141 111 166 129 215C169 323 224 474 224 496L220 500H50L40 450H139Z" glyph-name="imacron" horiz-adv-x="300" unicode="&#299;" /><glyph d="M577 339C577 411 540 463 477 463C408 463 359 400 314 333C292 400 264 463 189 463C102 463 30 381 30 261C30 189 68 138 131 138C201 138 251 200 298 268C319 200 345 138 419 138C506 138 577 219 577 339ZM137 168C96 168 65 205 65 265C65 378 127 433 183 433C249 433 269 366 290 296C245 229 200 168 137 168ZM424 168C363 168 344 234 323 304C368 371 412 433 471 433C512 433 543 395 543 335C543 222 480 168 424 168Z" glyph-name="infinity" horiz-adv-x="600" unicode="&#8734;" /><glyph d="M69 -220 241 750H363L369 780H216L44 -190H-63L-69 -220Z" glyph-name="integral" horiz-adv-x="300" unicode="&#8747;" /><glyph d="M160 685C160 645 190 625 220 625C250 625 280 645 280 685C280 725 250 745 220 745C191 745 160 725 160 685ZM64 132C59 113 56 92 56 78C56 32 90 0 130 0H150C161 5 171 13 183 25C158 -23 140 -68 140 -101C140 -138 156 -170 212 -170H260L265 -140H231C190 -140 175 -122 175 -92C175 -25 221 63 286 160L266 170C213 96 186 70 162 70C122 70 104 94 104 120C104 141 111 166 129 215C169 323 224 474 224 496L220 500H50L40 450H139Z" glyph-name="iogonek" horiz-adv-x="300" unicode="&#303;" /><glyph d="M274 700C322 700 335 654 337 640H367C366 657 354 732 280 732C216 732 177 670 113 670C65 670 52 716 51 730H21C21 713 33 638 107 638C181 638 221 700 274 700ZM64 132C59 113 56 92 56 78C56 32 90 0 130 0H150C170 10 188 27 220 70L286 160L266 170C213 96 186 70 162 70C122 70 104 94 104 120C104 141 111 166 129 215C169 323 224 474 224 496L220 500H50L40 450H139Z" glyph-name="itilde" horiz-adv-x="300" unicode="&#297;" /><glyph d="M180 685C180 645 210 625 240 625C270 625 300 645 300 685C300 725 270 745 240 745C211 745 180 725 180 685ZM90 90C56 -52 20 -150 -110 -150H-216C-228 -156 -240 -172 -240 -192C-240 -222 -218 -230 -194 -230C-20 -230 86 -92 158 140C258 462 259 474 259 496L255 500H75L65 450H175Z" glyph-name="j" horiz-adv-x="300" unicode="j" /><glyph d="M46 602 66 580 244 745 364 580 386 600 251 790H247ZM90 90C56 -52 20 -150 -110 -150H-216C-228 -156 -240 -172 -240 -192C-240 -222 -218 -230 -194 -230C-20 -230 86 -92 158 140C258 462 259 474 259 496L255 500H75L65 450H175Z" glyph-name="jcircumflex" horiz-adv-x="300" unicode="&#309;" /><glyph d="M40 0H100L178 200H196L364 40C390 15 408 0 432 0H452C472 10 490 27 522 70L588 160L568 170C515 96 486 60 462 60C446 60 429 64 410 80L270 200C410 200 548 290 548 400C548 452 518 510 430 510C340 510 256 448 192 310L132 180H120C288 694 302 764 302 776L298 780H118L108 730H218ZM198 250C262 410 313 450 382 450C437 450 476 412 476 354C476 290 393 220 250 220H186Z" glyph-name="k" horiz-adv-x="600" unicode="k" /><glyph d="M40 0H100L178 200H196L364 40C390 15 408 0 432 0H452C472 10 490 27 522 70L588 160L568 170C515 96 486 60 462 60C446 60 429 64 410 80L270 200C410 200 548 290 548 400C548 452 518 510 430 510C340 510 256 448 192 310L132 180H120C288 694 302 764 302 776L298 780H118L108 730H218ZM198 250C262 410 313 450 382 450C437 450 476 412 476 354C476 290 393 220 250 220H186ZM77 -208 95 -230 252 -70 234 -48Z" glyph-name="kcommaaccent" horiz-adv-x="600" unicode="&#311;" /><glyph d="M112 226C276 743 275 754 275 776L271 780H91L81 730H191L54 156C49 137 44 114 44 94C44 34 78 0 135 0H155C175 10 193 27 225 70L291 160L271 170C218 96 191 70 167 70C110 70 96 103 96 142C96 162 100 189 112 226Z" glyph-name="l" horiz-adv-x="300" unicode="l" /><glyph d="M382 1008 362 1030 158 840 178 818ZM112 226C276 743 275 754 275 776L271 780H91L81 730H191L54 156C49 137 44 114 44 94C44 34 78 0 135 0H155C175 10 193 27 225 70L291 160L271 170C218 96 191 70 167 70C110 70 96 103 96 142C96 162 100 189 112 226Z" glyph-name="lacute" horiz-adv-x="300" unicode="&#314;" /><glyph d="M391 782 362 790 271 588 299 580ZM112 226C276 743 275 754 275 776L271 780H91L81 730H191L54 156C49 137 44 114 44 94C44 34 78 0 135 0H155C175 10 193 27 225 70L291 160L271 170C218 96 191 70 167 70C110 70 96 103 96 142C96 162 100 189 112 226Z" glyph-name="lcaron" horiz-adv-x="300" unicode="&#318;" /><glyph d="M112 226C276 743 275 754 275 776L271 780H91L81 730H191L54 156C49 137 44 114 44 94C44 34 78 0 135 0H155C175 10 193 27 225 70L291 160L271 170C218 96 191 70 167 70C110 70 96 103 96 142C96 162 100 189 112 226ZM-33 -208 -15 -230 142 -70 124 -48Z" glyph-name="lcommaaccent" horiz-adv-x="300" unicode="&#316;" /><glyph d="M112 226C276 743 275 754 275 776L271 780H91L81 730H191L54 156C49 137 44 114 44 94C44 34 78 0 135 0H155C175 10 193 27 225 70L291 160L271 170C218 96 191 70 167 70C110 70 96 103 96 142C96 162 100 189 112 226ZM220 385C220 349 244 335 270 335C296 335 320 349 320 385C320 421 296 435 270 435C245 435 220 421 220 385Z" glyph-name="ldot" horiz-adv-x="300" unicode="&#320;" /><glyph d="M448 114 86 300 514 486 520 520 21 300 442 80Z" glyph-name="less" horiz-adv-x="600" unicode="&lt;" /><glyph d="M448 114 86 300 514 486 520 520 21 300 442 80ZM-52 0H428L434 30H-46Z" glyph-name="lessequal" horiz-adv-x="600" unicode="&#8804;" /><glyph d="M54 442 48 412H503L458 158H488L533 412L538 442Z" glyph-name="logicalnot" horiz-adv-x="600" unicode="&#172;" /><glyph d="M256 0 560 390 394 780H344L40 390L206 0ZM78 390 365 760 522 390 235 20Z" glyph-name="lozenge" horiz-adv-x="600" unicode="&#9674;" /><glyph d="M112 226C130 283 146 334 161 379L302 403L297 433L171 412C276 746 275 757 275 776L271 780H91L81 730H191L113 402L-33 378L-29 348L105 370L54 156C49 137 44 114 44 94C44 34 78 0 135 0H155C175 10 193 27 225 70L291 160L271 170C218 96 191 70 167 70C110 70 96 103 96 142C96 162 100 189 112 226Z" glyph-name="lslash" horiz-adv-x="300" unicode="&#322;" /><glyph d="M733 120C733 143 740 160 774 244C804 319 824 358 824 410C824 456 799 510 721 510C635 510 567 449 505 310L447 180H435C464 265 502 364 502 410C502 456 484 510 406 510C320 510 252 449 190 310L132 180H120C126 196 220 476 220 496L216 500H50L40 450H150L40 0H100L198 250C261 410 297 450 358 450C409 450 434 412 434 364C434 330 425 295 416 258L355 0H415L513 250C576 410 612 450 673 450C724 450 750 412 750 364C750 334 738 295 728 258L693 132C688 113 685 92 685 78C685 32 709 0 749 0H769C789 10 807 27 839 70L905 160L885 170C832 96 805 70 781 70C741 70 733 94 733 120Z" glyph-name="m" horiz-adv-x="900" unicode="m" /><glyph d="M375 701H151L145 669H369Z" glyph-name="macron" horiz-adv-x="500" unicode="&#175;" /><glyph d="M375 941H151L145 909H369Z" glyph-name="macron.cap" horiz-adv-x="500" /><glyph d="M57 285H537L543 315H63Z" glyph-name="minus" horiz-adv-x="600" unicode="&#8722;" /><glyph d="M99 500 -25 -200H5L52 68C77 5 138 -10 192 -10C269 -10 325 23 373 85L358 0H390L479 500H447L388 170C374 91 326 20 199 20C81 20 59 95 74 181L131 500Z" glyph-name="mu.math" horiz-adv-x="500" unicode="&#181;" /><glyph d="M60 121 246 279 376 121 402 142 271 300 457 458 439 480 254 322 123 480 98 458 228 300 43 142Z" glyph-name="multiply" horiz-adv-x="500" unicode="&#215;" /><glyph d="M378 132C373 113 370 92 370 78C370 32 394 0 434 0H454C474 10 492 27 524 70L590 160L570 170C517 96 490 70 466 70C426 70 418 94 418 120C418 143 425 160 459 244C489 319 508 358 508 410C508 456 474 510 396 510C310 510 242 449 180 310L122 180H110C116 196 210 476 210 496L206 500H40L30 450H140L30 0H90L188 250C251 410 287 450 348 450C400 450 436 412 436 364C436 323 423 295 413 258Z" glyph-name="n" horiz-adv-x="600" unicode="n" /><glyph d="M526 768 506 790 302 600 322 578ZM378 132C373 113 370 92 370 78C370 32 394 0 434 0H454C474 10 492 27 524 70L590 160L570 170C517 96 490 70 466 70C426 70 418 94 418 120C418 143 425 160 459 244C489 319 508 358 508 410C508 456 474 510 396 510C310 510 242 449 180 310L122 180H110C116 196 210 476 210 496L206 500H40L30 450H140L30 0H90L188 250C251 410 287 450 348 450C400 450 436 412 436 364C436 323 423 295 413 258Z" glyph-name="nacute" horiz-adv-x="600" unicode="&#324;" /><glyph d="M600 768 582 790 402 622 282 788 260 770 395 580H399ZM378 132C373 113 370 92 370 78C370 32 394 0 434 0H454C474 10 492 27 524 70L590 160L570 170C517 96 490 70 466 70C426 70 418 94 418 120C418 143 425 160 459 244C489 319 508 358 508 410C508 456 474 510 396 510C310 510 242 449 180 310L122 180H110C116 196 210 476 210 496L206 500H40L30 450H140L30 0H90L188 250C251 410 287 450 348 450C400 450 436 412 436 364C436 323 423 295 413 258Z" glyph-name="ncaron" horiz-adv-x="600" unicode="&#328;" /><glyph d="M378 132C373 113 370 92 370 78C370 32 394 0 434 0H454C474 10 492 27 524 70L590 160L570 170C517 96 490 70 466 70C426 70 418 94 418 120C418 143 425 160 459 244C489 319 508 358 508 410C508 456 474 510 396 510C310 510 242 449 180 310L122 180H110C116 196 210 476 210 496L206 500H40L30 450H140L30 0H90L188 250C251 410 287 450 348 450C400 450 436 412 436 364C436 323 423 295 413 258ZM67 -208 85 -230 242 -70 224 -48Z" glyph-name="ncommaaccent" horiz-adv-x="600" unicode="&#326;" /><glyph d="M181 40C46 40 23 162 23 200L3 190C4 152 14 -10 178 -10C412 -10 560 300 560 522C560 695 479 790 347 790C183 790 46 632 46 474C46 347 131 270 246 270C334 270 409 318 459 379C415 172 314 40 181 40ZM275 300C186 300 130 369 130 475C130 612 208 760 338 760C425 760 480 683 480 577C480 439 402 300 275 300Z" glyph-name="nine" horiz-adv-x="600" unicode="9" /><glyph d="M171 40C36 40 13 162 13 200L-7 190C-6 152 4 -10 168 -10C402 -10 550 300 550 522C550 695 469 790 337 790C173 790 36 632 36 474C36 347 121 270 236 270C324 270 399 318 449 379C405 172 304 40 171 40ZM265 300C176 300 120 369 120 475C120 612 198 760 328 760C415 760 470 683 470 577C470 439 392 300 265 300Z" glyph-name="nine.LP" horiz-adv-x="600" /><glyph d="M137 378C69 378 53 438 53 471L35 460C35 439 42 350 144 350C266 350 351 521 351 643C351 738 306 790 233 790C143 790 68 711 68 616C68 546 115 504 178 504C225 504 261 533 285 564C261 450 211 378 137 378ZM196 532C151 532 125 563 125 614C125 701 168 763 227 763C273 763 296 729 296 676C296 610 262 532 196 532Z" glyph-name="ninesuperior" horiz-adv-x="400" unicode="&#8313;" /><glyph d="M29 185H189L17 -27L38 -42L222 185H529L535 215H247L386 386H564L570 416H410L582 628L561 643L377 416H70L64 386H352L213 215H35Z" glyph-name="notequal" horiz-adv-x="600" unicode="&#8800;" /><glyph d="M474 700C522 700 535 654 537 640H567C566 657 554 732 480 732C416 732 377 670 313 670C265 670 252 716 251 730H221C221 713 233 638 307 638C381 638 421 700 474 700ZM378 132C373 113 370 92 370 78C370 32 394 0 434 0H454C474 10 492 27 524 70L590 160L570 170C517 96 490 70 466 70C426 70 418 94 418 120C418 143 425 160 459 244C489 319 508 358 508 410C508 456 474 510 396 510C310 510 242 449 180 310L122 180H110C116 196 210 476 210 496L206 500H40L30 450H140L30 0H90L188 250C251 410 287 450 348 450C400 450 436 412 436 364C436 323 423 295 413 258Z" glyph-name="ntilde" horiz-adv-x="600" unicode="&#241;" /><glyph d="M121 0H151L196 255H356L311 0H341L386 255H536L541 285H391L429 495H578L584 525H434L479 780H449L404 525H244L289 780H259L214 525H64L58 495H209L171 285H21L16 255H166ZM201 285 239 495H399L361 285Z" glyph-name="numbersign" horiz-adv-x="600" unicode="#" /><glyph d="M121 0H151L196 255H356L311 0H341L386 255H536L541 285H391L429 495H578L584 525H434L479 780H449L404 525H244L289 780H259L214 525H64L58 495H209L171 285H21L16 255H166ZM201 285 239 495H399L361 285Z" glyph-name="numbersign.LP" horiz-adv-x="600" /><glyph d="M475 523C475 419 544 350 649 350C790 350 900 478 900 617C900 721 831 790 726 790C585 790 475 662 475 523ZM654 4 291 780H99L93 750H133C197 750 218 728 211 690L105 90C98 50 66 30 6 30H-34L-40 0H250L256 30H216C154 30 132 51 139 90L249 711L579 0H654ZM729 760C805 760 846 713 846 632C846 482 759 380 646 380C570 380 529 428 529 509C529 658 616 760 729 760Z" glyph-name="numero" horiz-adv-x="900" unicode="&#8470;" /><glyph d="M195 -10C345 -10 475 150 475 320C475 450 395 510 305 510C155 510 25 350 25 180C25 50 105 -10 195 -10ZM235 50C145 50 75 130 75 230C75 350 145 450 265 450C355 450 425 370 425 270C425 150 355 50 235 50Z" glyph-name="o" horiz-adv-x="500" unicode="o" /><glyph d="M452 768 432 790 228 600 248 578ZM195 -10C345 -10 475 150 475 320C475 450 395 510 305 510C155 510 25 350 25 180C25 50 105 -10 195 -10ZM235 50C145 50 75 130 75 230C75 350 145 450 265 450C355 450 425 370 425 270C425 150 355 50 235 50Z" glyph-name="oacute" horiz-adv-x="500" unicode="&#243;" /><glyph d="M248 745H218V733C218 690 236 625 327 625C427 625 467 703 478 745H448C440 720 412 655 332 655C255 655 248 716 248 742ZM195 -10C345 -10 475 150 475 320C475 450 395 510 305 510C155 510 25 350 25 180C25 50 105 -10 195 -10ZM235 50C145 50 75 130 75 230C75 350 145 450 265 450C355 450 425 370 425 270C425 150 355 50 235 50Z" glyph-name="obreve" horiz-adv-x="500" unicode="&#335;" /><glyph d="M156 602 176 580 354 745 474 580 496 600 361 790H357ZM195 -10C345 -10 475 150 475 320C475 450 395 510 305 510C155 510 25 350 25 180C25 50 105 -10 195 -10ZM235 50C145 50 75 130 75 230C75 350 145 450 265 450C355 450 425 370 425 270C425 150 355 50 235 50Z" glyph-name="ocircumflex" horiz-adv-x="500" unicode="&#244;" /><glyph d="M190 685C190 649 214 635 240 635C266 635 290 649 290 685C290 721 266 735 240 735C215 735 190 721 190 685ZM350 685C350 649 374 635 400 635C426 635 450 649 450 685C450 721 426 735 400 735C375 735 350 721 350 685ZM195 -10C345 -10 475 150 475 320C475 450 395 510 305 510C155 510 25 350 25 180C25 50 105 -10 195 -10ZM235 50C145 50 75 130 75 230C75 350 145 450 265 450C355 450 425 370 425 270C425 150 355 50 235 50Z" glyph-name="odieresis" horiz-adv-x="500" unicode="&#246;" /><glyph d="M210 -10C302 -10 386 50 437 135C451 42 509 -10 604 -10C768 -10 860 182 874 210L854 220C844 198 778 50 644 50C544 50 484 130 484 230C484 240 485 250 486 260H804L834 380C843 417 824 510 714 510C627 510 540 449 487 361C472 463 400 510 320 510C170 510 40 350 40 180C40 50 120 -10 210 -10ZM250 50C160 50 90 130 90 230C90 350 160 450 280 450C370 450 440 370 440 270C440 150 370 50 250 50ZM784 310H497C523 391 590 450 674 450C774 450 784 380 784 340Z" glyph-name="oe" horiz-adv-x="900" unicode="&#339;" /><glyph d="M330 -170 335 -140H301C260 -140 245 -122 245 -92C245 -25 291 63 356 160L336 170C284 80 210 -34 210 -101C210 -138 226 -170 282 -170Z" glyph-name="ogonek" horiz-adv-x="500" unicode="&#731;" /><glyph d="M238 770 374 580 398 598 262 788ZM195 -10C345 -10 475 150 475 320C475 450 395 510 305 510C155 510 25 350 25 180C25 50 105 -10 195 -10ZM235 50C145 50 75 130 75 230C75 350 145 450 265 450C355 450 425 370 425 270C425 150 355 50 235 50Z" glyph-name="ograve" horiz-adv-x="500" unicode="&#242;" /><glyph d="M401 750 233 594 251 572 419 728ZM521 750 353 594 371 572 539 728ZM195 -10C345 -10 475 150 475 320C475 450 395 510 305 510C155 510 25 350 25 180C25 50 105 -10 195 -10ZM235 50C145 50 75 130 75 230C75 350 145 450 265 450C355 450 425 370 425 270C425 150 355 50 235 50Z" glyph-name="ohungarumlaut" horiz-adv-x="500" unicode="&#337;" /><glyph d="M445 701H221L215 669H439ZM195 -10C345 -10 475 150 475 320C475 450 395 510 305 510C155 510 25 350 25 180C25 50 105 -10 195 -10ZM235 50C145 50 75 130 75 230C75 350 145 450 265 450C355 450 425 370 425 270C425 150 355 50 235 50Z" glyph-name="omacron" horiz-adv-x="500" unicode="&#333;" /><glyph d="M245 90C238 50 206 30 146 30H36L30 0H490L496 30H386C324 30 302 50 309 90L432 790H402L394 752C381 690 350 660 277 660H158L152 630H340Z" glyph-name="one" horiz-adv-x="600" unicode="1" /><glyph d="M175 90C168 50 136 30 76 30H-34L-40 0H420L426 30H316C254 30 232 50 239 90L362 790H332L324 752C311 690 280 660 207 660H88L82 630H270Z" glyph-name="one.LP" horiz-adv-x="500" /><glyph d="M590 790 -11 6 11 -10 612 774ZM105 406C101 384 91 373 58 373H-3L-9 345H244L250 373H190C156 373 148 382 152 406L218 780H190L186 759C179 725 168 708 128 708H62L56 681H154ZM526 0 570 99 556 110C545 88 521 39 438 39H346C338 39 334 41 334 45C334 50 337 54 344 61C455 172 596 225 596 340C596 398 559 435 486 435C388 435 335 363 335 330C335 313 346 308 356 308C384 308 392 327 394 349C397 382 409 407 468 407C512 407 540 388 540 344C540 224 381 155 276 17L273 0Z" glyph-name="onehalf" horiz-adv-x="600" unicode="&#189;" /><glyph d="M589 790 -12 6 10 -10 611 774ZM107 406C103 384 93 373 60 373H-1L-7 345H246L252 373H192C158 373 150 382 154 406L220 780H192L188 759C181 725 170 708 130 708H64L58 681H156ZM454 329C457 329 458 326 457 320L425 143H286L446 322C451 328 452 329 454 329ZM249 116H420L410 61C406 39 396 28 363 28H319L314 0H532L537 28H493C459 28 451 41 455 61L465 116H563L568 143H469L521 435H518L254 143Z" glyph-name="onequarter" horiz-adv-x="600" unicode="&#188;" /><glyph d="M161 416C157 394 147 383 114 383H53L47 355H300L306 383H246C212 383 204 392 208 416L274 790H246L242 769C235 735 224 718 184 718H118L112 691H210Z" glyph-name="onesuperior" horiz-adv-x="400" unicode="&#185;" /><glyph d="M322 430C321 423 320 415 320 409C320 373 338 350 372 350C412 350 442 390 467 438L453 446C447 432 430 390 395 390C376 390 370 404 370 422C370 427 370 433 371 438L391 550H388L340 528C323 484 262 377 160 377C116 377 87 397 87 450C87 525 155 556 252 576C385 603 430 637 430 699C430 765 349 790 289 790C158 790 86 724 86 679C86 660 101 654 113 654C153 654 160 684 170 712C181 742 202 770 266 770C331 770 374 742 375 693C376 630 343 611 280 602C123 580 28 552 28 441C28 378 70 350 135 350C231 350 286 413 325 465H328Z" glyph-name="ordfeminine" horiz-adv-x="500" unicode="&#170;" /><glyph d="M28 523C28 419 97 350 202 350C343 350 453 478 453 617C453 721 384 790 279 790C138 790 28 662 28 523ZM282 760C358 760 399 713 399 632C399 482 312 380 199 380C123 380 82 428 82 509C82 658 169 760 282 760Z" glyph-name="ordmasculine" horiz-adv-x="480" unicode="&#186;" /><glyph d="M195 -10C345 -10 475 150 475 320C475 381 457 427 429 458L645 739L625 759L408 477C379 499 343 510 305 510C155 510 25 350 25 180C25 118 43 72 72 41L-145 -241L-125 -261L93 22C122 0 158 -10 195 -10ZM75 230C75 350 145 450 265 450C301 450 334 437 360 415L120 104C92 136 75 181 75 230ZM235 50C199 50 167 63 141 84L380 395C408 363 425 319 425 270C425 150 355 50 235 50Z" glyph-name="oslash" horiz-adv-x="500" unicode="&#248;" /><glyph d="M502 768 482 790 278 600 298 578ZM195 -10C345 -10 475 150 475 320C475 381 457 427 429 458L645 739L625 759L408 477C379 499 343 510 305 510C155 510 25 350 25 180C25 118 43 72 72 41L-145 -241L-125 -261L93 22C122 0 158 -10 195 -10ZM75 230C75 350 145 450 265 450C301 450 334 437 360 415L120 104C92 136 75 181 75 230ZM235 50C199 50 167 63 141 84L380 395C408 363 425 319 425 270C425 150 355 50 235 50Z" glyph-name="oslashacute" horiz-adv-x="500" unicode="&#511;" /><glyph d="M400 700C448 700 461 654 463 640H493C492 657 480 732 406 732C342 732 303 670 239 670C191 670 178 716 177 730H147C147 713 159 638 233 638C307 638 347 700 400 700ZM195 -10C345 -10 475 150 475 320C475 450 395 510 305 510C155 510 25 350 25 180C25 50 105 -10 195 -10ZM235 50C145 50 75 130 75 230C75 350 145 450 265 450C355 450 425 370 425 270C425 150 355 50 235 50Z" glyph-name="otilde" horiz-adv-x="500" unicode="&#245;" /><glyph d="M116 77H120C132 39 172 -10 250 -10C398 -10 560 160 560 340C560 450 500 510 410 510C330 510 246 450 183 340H179C186 357 230 476 230 496L226 500H60L50 450H160L28 -116C17 -164 -8 -190 -45 -190H-75L-82 -220H178L185 -190H129C86 -190 65 -176 65 -140C65 -120 71 -100 78 -74ZM170 180C170 320 260 450 370 450C460 450 500 370 500 300C500 150 400 50 300 50C210 50 170 115 170 180Z" glyph-name="p" horiz-adv-x="600" unicode="p" /><glyph d="M398 440 320 0H350L482 750H622L628 780H253C133 780 32 704 32 564C32 477 96 410 187 410H272L200 0H230L308 440L362 750H452Z" glyph-name="paragraph" horiz-adv-x="600" unicode="&#182;" /><glyph d="M478 730 468 750C275 683 40 442 40 140C40 -77 169 -216 295 -250L305 -230C205 -204 84 -75 84 138C84 442 323 675 478 730Z" glyph-name="parenleft" horiz-adv-x="400" unicode="(" /><glyph d="M478 870 468 890C275 823 40 582 40 280C40 63 169 -76 295 -110L305 -90C205 -64 84 65 84 278C84 582 323 815 478 870Z" glyph-name="parenleft.cap" horiz-adv-x="400" /><glyph d="M-78 -230 -68 -250C125 -183 360 58 360 360C360 577 231 716 105 750L95 730C195 704 316 575 316 362C316 58 77 -175 -78 -230Z" glyph-name="parenright" horiz-adv-x="400" unicode=")" /><glyph d="M-78 -90 -68 -110C125 -43 360 198 360 500C360 717 231 856 105 890L95 870C195 844 316 715 316 502C316 198 77 -35 -78 -90Z" glyph-name="parenright.cap" horiz-adv-x="400" /><glyph d="M482 408C482 615 375 739 277 790L256 780C353 729 448 597 448 404C448 400 448 396 448 392C429 465 380 510 288 510C142 510 17 352 17 182C17 63 88 -10 194 -10C356 -10 482 182 482 408ZM55 191C55 316 149 480 283 480C394 480 441 406 441 328C441 324 441 320 441 316C417 170 336 20 198 20C106 20 55 90 55 191Z" glyph-name="partialdiff" horiz-adv-x="500" unicode="&#8706;" /><glyph d="M147 350C260 350 335 508 335 642C335 693 324 734 299 760H567L-12 6L10 -10L602 760L608 790H224C113 790 36 631 36 499C36 410 72 350 147 350ZM146 377C106 377 90 414 90 473C90 591 138 762 225 762C265 762 281 725 281 667C281 546 234 377 146 377ZM377 -10C490 -10 565 148 565 282C565 370 530 430 455 430C343 430 266 271 266 139C266 50 303 -10 377 -10ZM377 17C336 17 320 54 320 113C320 231 368 402 456 402C496 402 511 365 511 307C511 186 464 17 377 17Z" glyph-name="percent" horiz-adv-x="600" unicode="%" /><glyph d="M40 50C40 10 71 -10 100 -10C130 -10 160 10 160 50C160 90 130 110 100 110C71 110 40 90 40 50Z" glyph-name="period" horiz-adv-x="300" unicode="." /><glyph d="M90 250C90 210 121 190 150 190C180 190 210 210 210 250C210 291 180 310 150 310C121 310 90 291 90 250Z" glyph-name="periodcentered" horiz-adv-x="300" unicode="&#183;" /><glyph d="M90 390C90 350 121 330 150 330C180 330 210 350 210 390C210 431 180 450 150 450C121 450 90 431 90 390Z" glyph-name="periodcentered.cap" horiz-adv-x="300" /><glyph d="M147 350C260 350 335 508 335 642C335 693 324 734 299 760H567L-12 6L10 -10L602 760L608 790H224C113 790 36 631 36 499C36 410 72 350 147 350ZM146 377C106 377 90 414 90 473C90 591 138 762 225 762C265 762 281 725 281 667C281 546 234 377 146 377ZM677 -10C790 -10 866 148 866 282C866 370 830 430 755 430C643 430 566 271 566 139C566 50 603 -10 677 -10ZM377 -10C490 -10 566 148 566 282C566 370 530 430 455 430C343 430 266 271 266 139C266 50 303 -10 377 -10ZM677 17C636 17 620 54 620 113C620 231 668 402 756 402C796 402 812 365 812 307C812 186 764 17 677 17ZM377 17C336 17 320 54 320 113C320 231 368 402 456 402C496 402 512 365 512 307C512 186 464 17 377 17Z" glyph-name="perthousand" horiz-adv-x="900" unicode="&#8240;" /><glyph d="M147 0 230 470H396L329 90C318 29 324 0 391 0H480L485 30H394C360 30 351 43 359 90L426 470H563L568 500H68L63 470H200L117 0Z" glyph-name="pi" horiz-adv-x="600" unicode="&#960;" /><glyph d="M273 60 312 285H537L543 315H318L357 540H327L288 315H63L57 285H282L243 60Z" glyph-name="plus" horiz-adv-x="600" unicode="+" /><glyph d="M76 285H301L262 60H292L331 285H556L562 315H337L376 540H346L307 315H82ZM38 0H518L524 30H44Z" glyph-name="plusminus" horiz-adv-x="600" unicode="&#177;" /><glyph d="M100 780 94 750H219L87 0H119L251 750H437L305 0H337L469 750H594L600 780Z" glyph-name="product" horiz-adv-x="600" unicode="&#8719;" /><glyph d="M441 -190C419 -190 378 -184 392 -130L564 510H534L496 380H492C490 436 450 510 360 510C212 510 50 340 50 159C50 50 110 -10 200 -10C280 -10 364 52 413 142H417L353 -130C339 -190 287 -190 267 -190H237L230 -220H490L497 -190ZM440 320C440 180 350 50 240 50C150 50 110 130 110 200C110 350 210 450 310 450C400 450 440 385 440 320Z" glyph-name="q" horiz-adv-x="600" unicode="q" /><glyph d="M340 760C468 760 520 680 520 610C520 400 276 468 240 308L220 220H250L266 288C288 383 569 347 570 598C570 700 502 790 356 790C190 790 66 666 66 606C66 582 80 560 110 560C157 560 157 596 167 636C185 706 230 760 340 760ZM140 50C140 10 171 -10 200 -10C230 -10 260 10 260 50C260 90 230 110 200 110C171 110 140 90 140 50Z" glyph-name="question" horiz-adv-x="600" unicode="?" /><glyph d="M496 450C496 490 465 510 436 510C406 510 376 490 376 450C376 410 406 390 436 390C465 390 496 410 496 450ZM296 -260C168 -260 116 -180 116 -110C116 100 360 32 396 192L416 280H386L370 212C348 117 67 153 66 -98C66 -200 134 -290 280 -290C446 -290 570 -166 570 -106C570 -82 556 -60 526 -60C479 -60 479 -96 469 -136C451 -206 406 -260 296 -260Z" glyph-name="questiondown" horiz-adv-x="600" unicode="&#191;" /><glyph d="M496 730C496 770 465 790 436 790C406 790 376 770 376 730C376 690 406 670 436 670C465 670 496 690 496 730ZM296 20C168 20 116 100 116 170C116 380 360 312 396 472L416 560H386L370 492C348 397 67 433 66 182C66 80 134 -10 280 -10C446 -10 570 114 570 174C570 198 556 220 526 220C479 220 479 184 469 144C451 74 406 20 296 20Z" glyph-name="questiondown.cap" horiz-adv-x="600" /><glyph d="M55 520H85L145 780H115ZM155 520H185L245 780H215Z" glyph-name="quotedbl" horiz-adv-x="300" unicode="&quot;" /><glyph d="M290 50C290 14 314 -2 336 -2C350 -2 357 2 362 6H366L228 -168L254 -186L392 2C406 21 410 34 410 50C410 90 380 110 350 110C320 110 290 90 290 50ZM90 50C90 14 114 -2 136 -2C150 -2 157 2 162 6H166L28 -168L54 -186L192 2C206 21 210 34 210 50C210 90 180 110 150 110C120 110 90 90 90 50Z" glyph-name="quotedblbase" horiz-adv-x="500" unicode="&#8222;" /><glyph d="M210 586C210 622 186 638 164 638C150 638 143 634 138 630H134L272 804L246 822L108 634C94 615 90 602 90 586C90 546 120 526 150 526C180 526 210 546 210 586ZM410 586C410 622 386 638 364 638C350 638 343 634 338 630H334L472 804L446 822L308 634C294 615 290 602 290 586C290 546 320 526 350 526C380 526 410 546 410 586Z" glyph-name="quotedblleft" horiz-adv-x="500" unicode="&#8220;" /><glyph d="M290 730C290 694 314 678 336 678C350 678 357 682 362 686H366L228 512L254 494L392 682C406 701 410 714 410 730C410 770 380 790 350 790C320 790 290 770 290 730ZM90 730C90 694 114 678 136 678C150 678 157 682 162 686H166L28 512L54 494L192 682C206 701 210 714 210 730C210 770 180 790 150 790C120 790 90 770 90 730Z" glyph-name="quotedblright" horiz-adv-x="500" unicode="&#8221;" /><glyph d="M210 586C210 622 186 638 164 638C150 638 143 634 138 630H134L272 804L246 822L108 634C94 615 90 602 90 586C90 546 120 526 150 526C180 526 210 546 210 586Z" glyph-name="quoteleft" horiz-adv-x="300" unicode="&#8216;" /><glyph d="M90 730C90 694 114 678 136 678C150 678 157 682 162 686H166L28 512L54 494L192 682C206 701 210 714 210 730C210 770 180 790 150 790C120 790 90 770 90 730Z" glyph-name="quoteright" horiz-adv-x="300" unicode="&#8217;" /><glyph d="M50 50C50 14 74 -2 96 -2C110 -2 117 2 122 6H126L-12 -168L14 -186L152 2C166 21 170 34 170 50C170 90 140 110 110 110C80 110 50 90 50 50Z" glyph-name="quotesinglbase" horiz-adv-x="300" unicode="&#8218;" /><glyph d="M55 520H85L145 780H115Z" glyph-name="quotesingle" horiz-adv-x="200" unicode="'" /><glyph d="M216 500H50L40 450H150L40 0H100L197 250C252 391 284 420 330 420H388C416 420 430 444 430 472C430 502 408 510 384 510C310 510 253 434 194 310L132 180H120C126 196 220 476 220 496Z" glyph-name="r" horiz-adv-x="400" unicode="r" /><glyph d="M372 768 352 790 148 600 168 578ZM216 500H50L40 450H150L40 0H100L197 250C252 391 284 420 330 420H388C416 420 430 444 430 472C430 502 408 510 384 510C310 510 253 434 194 310L132 180H120C126 196 220 476 220 496Z" glyph-name="racute" horiz-adv-x="400" unicode="&#341;" /><glyph d="M34 500H0L88 0H138L520 780H484L116 22Z" glyph-name="radical" horiz-adv-x="470" unicode="&#8730;" /><glyph d="M446 768 428 790 248 622 128 788 106 770 241 580H245ZM216 500H50L40 450H150L40 0H100L197 250C252 391 284 420 330 420H388C416 420 430 444 430 472C430 502 408 510 384 510C310 510 253 434 194 310L132 180H120C126 196 220 476 220 496Z" glyph-name="rcaron" horiz-adv-x="400" unicode="&#345;" /><glyph d="M216 500H50L40 450H150L40 0H100L197 250C252 391 284 420 330 420H388C416 420 430 444 430 472C430 502 408 510 384 510C310 510 253 434 194 310L132 180H120C126 196 220 476 220 496ZM-89 -208 -71 -230 86 -70 68 -48Z" glyph-name="rcommaaccent" horiz-adv-x="400" unicode="&#343;" /><glyph d="M44 321C44 132 183 -10 379 -10C658 -10 856 210 856 460C856 647 717 790 520 790C249 790 44 574 44 321ZM515 760C697 760 822 629 822 457C822 215 625 20 385 20C203 20 78 152 78 325C78 569 275 760 515 760ZM431 137 435 157H383C342 157 328 168 333 196L366 385H431L539 137H626L630 157H617C586 157 573 175 558 209L478 386C605 394 669 461 669 530C669 618 587 644 476 644H274L270 625H309C350 625 364 616 359 586L291 196C286 170 266 157 227 157H188L184 137ZM436 405H369L401 586C406 612 426 625 465 625H475C557 625 614 604 614 528C614 458 556 405 436 405Z" glyph-name="registered" horiz-adv-x="937" unicode="&#174;" /><glyph d="M351 685C351 746 307 784 250 784C194 784 150 746 150 685C150 623 194 584 250 584C307 584 351 623 351 685ZM318 685C318 640 291 612 250 612C210 612 182 640 182 685C182 728 210 756 250 756C291 756 318 728 318 685Z" glyph-name="ring" horiz-adv-x="500" unicode="&#730;" /><glyph d="M351 926C351 987 307 1025 250 1025C194 1025 150 987 150 926C150 864 194 825 250 825C307 825 351 864 351 926ZM318 926C318 881 291 853 250 853C210 853 182 881 182 926C182 969 210 997 250 997C291 997 318 969 318 926Z" glyph-name="ring.cap" horiz-adv-x="500" /><glyph d="M260 -10C344 -10 424 34 424 130C424 280 174 260 174 390C174 450 214 480 270 480C394 480 444 310 447 300L467 310L434 510H430L400 481C395 476 390 474 384 474C358 474 340 510 260 510C184 510 104 460 104 370C104 200 364 230 364 100C364 50 334 20 264 20C98 20 53 190 50 200L30 190L63 -10H67L97 19C102 24 107 26 113 26C139 26 167 -10 260 -10Z" glyph-name="s" horiz-adv-x="500" unicode="s" /><glyph d="M412 768 392 790 188 600 208 578ZM260 -10C344 -10 424 34 424 130C424 280 174 260 174 390C174 450 214 480 270 480C394 480 444 310 447 300L467 310L434 510H430L400 481C395 476 390 474 384 474C358 474 340 510 260 510C184 510 104 460 104 370C104 200 364 230 364 100C364 50 334 20 264 20C98 20 53 190 50 200L30 190L63 -10H67L97 19C102 24 107 26 113 26C139 26 167 -10 260 -10Z" glyph-name="sacute" horiz-adv-x="500" unicode="&#347;" /><glyph d="M486 768 468 790 288 622 168 788 146 770 281 580H285ZM260 -10C344 -10 424 34 424 130C424 280 174 260 174 390C174 450 214 480 270 480C394 480 444 310 447 300L467 310L434 510H430L400 481C395 476 390 474 384 474C358 474 340 510 260 510C184 510 104 460 104 370C104 200 364 230 364 100C364 50 334 20 264 20C98 20 53 190 50 200L30 190L63 -10H67L97 19C102 24 107 26 113 26C139 26 167 -10 260 -10Z" glyph-name="scaron" horiz-adv-x="500" unicode="&#353;" /><glyph d="M109 -140C112 -150 130 -210 204 -210C274 -210 312 -162 312 -120C312 -81 284 -64 255 -64C245 -64 234 -66 222 -70L288 -8C361 0 424 45 424 130C424 280 174 260 174 390C174 450 214 480 270 480C394 480 444 310 447 300L467 310L434 510H430L400 481C395 476 390 474 384 474C358 474 340 510 260 510C184 510 104 460 104 370C104 200 364 230 364 100C364 65 349 39 315 27L311 40L291 22C283 21 274 20 264 20C98 20 53 190 50 200L30 190L63 -10H67L97 19C102 24 107 26 113 26C139 26 166 -9 257 -10L192 -70L198 -90C204 -88 213 -86 225 -86C250 -86 274 -96 274 -126C274 -156 251 -182 202 -182C152 -182 134 -140 131 -130Z" glyph-name="scedilla" horiz-adv-x="500" unicode="&#351;" /><glyph d="M480 320C480 440 420 510 310 510C146 510 54 318 40 290L60 280C70 302 136 450 270 450C370 450 430 370 430 270C430 260 429 250 428 240H110L80 120C71 83 90 -10 200 -10C340 -10 480 150 480 320ZM130 190H417C391 109 324 50 240 50C140 50 130 120 130 160Z" glyph-name="schwa" horiz-adv-x="500" /><glyph d="M116 602 136 580 314 745 434 580 456 600 321 790H317ZM260 -10C344 -10 424 34 424 130C424 280 174 260 174 390C174 450 214 480 270 480C394 480 444 310 447 300L467 310L434 510H430L400 481C395 476 390 474 384 474C358 474 340 510 260 510C184 510 104 460 104 370C104 200 364 230 364 100C364 50 334 20 264 20C98 20 53 190 50 200L30 190L63 -10H67L97 19C102 24 107 26 113 26C139 26 167 -10 260 -10Z" glyph-name="scircumflex" horiz-adv-x="500" unicode="&#349;" /><glyph d="M260 -10C344 -10 424 34 424 130C424 280 174 260 174 390C174 450 214 480 270 480C394 480 444 310 447 300L467 310L434 510H430L400 481C395 476 390 474 384 474C358 474 340 510 260 510C184 510 104 460 104 370C104 200 364 230 364 100C364 50 334 20 264 20C98 20 53 190 50 200L30 190L63 -10H67L97 19C102 24 107 26 113 26C139 26 167 -10 260 -10ZM87 -208 105 -230 262 -70 244 -48Z" glyph-name="scommaaccent" horiz-adv-x="500" unicode="&#537;" /><glyph d="M373 145C373 205 333 234 285 254C374 270 424 332 424 397C424 558 161 496 161 642C161 708 214 760 308 760C435 760 447 673 447 647V640L469 650V660C469 693 456 790 307 790C193 790 126 718 126 634C126 575 162 545 207 524C124 506 76 447 76 381C76 216 339 276 339 139C339 80 286 20 188 20C58 20 43 117 43 137V140L21 130V125C21 100 35 -10 188 -10C310 -10 373 63 373 145ZM111 382C111 454 158 504 243 510C313 484 389 468 389 399C389 329 336 270 243 270C177 293 111 313 111 382Z" glyph-name="section" horiz-adv-x="500" unicode="&#167;" /><glyph d="M120 450C120 410 151 390 180 390C210 390 240 410 240 450C240 490 210 510 180 510C151 510 120 490 120 450ZM50 50C50 14 74 -2 96 -2C110 -2 117 2 122 6H126L-12 -168L14 -186L152 2C166 21 170 34 170 50C170 90 140 110 110 110C80 110 50 90 50 50Z" glyph-name="semicolon" horiz-adv-x="300" unicode=";" /><glyph d="M637 776 638 780H158L74 600L94 590C113 630 169 730 319 730H483C502 730 509 723 509 711C509 640 134 159 134 36C134 12 148 -10 178 -10C210 -10 223 15 235 67C292 310 430 540 637 776Z" glyph-name="seven" horiz-adv-x="600" unicode="7" /><glyph d="M637 776 638 780H158L74 600L94 590C113 630 169 730 319 730H483C502 730 509 723 509 711C509 640 134 159 134 36C134 12 148 -10 178 -10C210 -10 223 15 235 67C292 310 430 540 637 776Z" glyph-name="seven.LP" horiz-adv-x="600" /><glyph d="M384 782V784H120L76 685L90 674C101 696 125 746 208 746H287C297 746 301 741 301 736C301 708 113 432 113 372C113 355 124 350 134 350C168 350 171 375 184 432C218 581 292 681 384 782Z" glyph-name="sevensuperior" horiz-adv-x="400" unicode="&#8311;" /><glyph d="M407 760C480 760 516 725 516 674C516 652 509 624 509 602C509 574 523 560 551 560C581 560 599 582 599 626C599 706 540 790 410 790C176 790 28 480 28 258C28 85 110 -10 241 -10C406 -10 542 148 542 306C542 433 457 510 343 510C255 510 179 462 128 401C173 610 274 760 407 760ZM314 480C402 480 458 411 458 305C458 167 379 20 251 20C163 20 108 97 108 203C108 341 186 480 314 480Z" glyph-name="six" horiz-adv-x="600" unicode="6" /><glyph d="M407 760C480 760 516 725 516 674C516 652 509 624 509 602C509 574 523 560 551 560C581 560 599 582 599 626C599 706 540 790 410 790C176 790 28 480 28 258C28 85 110 -10 241 -10C406 -10 542 148 542 306C542 433 457 510 343 510C255 510 179 462 128 401C173 610 274 760 407 760ZM314 480C402 480 458 411 458 305C458 167 379 20 251 20C163 20 108 97 108 203C108 341 186 480 314 480Z" glyph-name="six.LP" horiz-adv-x="600" /><glyph d="M264 762C332 762 312 717 312 690C312 672 322 663 338 663C354 663 366 676 366 706C366 740 346 790 272 790C137 790 50 620 50 498C50 402 95 350 168 350C258 350 333 429 333 524C333 594 286 636 223 636C176 636 139 603 115 575C139 689 190 762 264 762ZM205 608C250 608 276 577 276 525C276 439 233 377 174 377C128 377 105 411 105 464C105 530 139 608 205 608Z" glyph-name="sixsuperior" horiz-adv-x="400" unicode="&#8310;" /><glyph d="M725 790 -45 -210 -25 -230 745 770Z" glyph-name="slash" horiz-adv-x="700" unicode="/" /><glyph glyph-name="space" horiz-adv-x="300" unicode=" " /><glyph d="M840 780H60V0H840ZM810 750V30H90V750ZM587 303C587 359 553 387 515 408C564 428 604 467 604 522C604 584 556 610 496 610C409 610 350 556 350 494C350 449 375 424 406 404C349 385 296 345 296 274C296 212 344 170 424 170C523 170 587 231 587 303ZM403 506C403 548 436 582 493 582C538 582 570 562 570 514C570 468 535 433 493 419C448 441 403 459 403 506ZM330 282C330 344 374 379 427 393C477 366 534 347 534 286C534 233 490 197 430 197C369 197 330 228 330 282Z" glyph-name="squareddigiteight" horiz-adv-x="900" /><glyph d="M840 780H60V0H840ZM810 750V30H90V750ZM458 426C508 426 536 393 536 333C536 269 499 200 422 200C334 200 320 273 320 310L301 299C301 256 320 173 427 173C533 173 593 260 593 341C593 415 539 453 480 453C432 453 397 433 377 417L397 530C402 563 415 569 443 569H503C586 569 592 519 595 497L613 508L603 607H383L344 386H371C382 398 412 426 458 426Z" glyph-name="squareddigitfive" horiz-adv-x="900" /><glyph d="M840 780H60V0H840ZM810 750V30H90V750ZM489 512C492 512 493 509 492 503L460 326H321L481 505C486 511 487 512 489 512ZM284 299H455L445 244C441 222 431 211 398 211H354L349 183H567L572 211H528C494 211 486 224 490 244L500 299H598L603 326H504L556 618H553L289 326Z" glyph-name="squareddigitfour" horiz-adv-x="900" /><glyph d="M840 780H60V0H840ZM810 750V30H90V750ZM387 198C319 198 303 258 303 291L285 280C285 259 292 170 394 170C516 170 601 341 601 463C601 558 556 610 483 610C393 610 318 531 318 436C318 366 365 324 428 324C475 324 511 353 535 384C511 270 461 198 387 198ZM446 352C401 352 375 383 375 434C375 521 418 583 477 583C523 583 546 549 546 496C546 430 512 352 446 352Z" glyph-name="squareddigitnine" horiz-adv-x="900" /><glyph d="M840 780H60V0H840ZM810 750V30H90V750ZM411 234C407 212 397 201 364 201H303L297 173H550L556 201H496C462 201 454 210 458 234L524 608H496L492 587C485 553 474 536 434 536H368L362 509H460Z" glyph-name="squareddigitone" horiz-adv-x="900" /><glyph d="M840 780H60V0H840ZM810 750V30H90V750ZM633 605V607H369L325 508L339 497C350 519 374 569 457 569H536C546 569 550 564 550 559C550 531 362 255 362 195C362 178 373 173 383 173C417 173 420 198 433 255C467 404 541 504 633 605Z" glyph-name="squareddigitseven" horiz-adv-x="899" /><glyph d="M840 780H60V0H840ZM810 750V30H90V750ZM506 582C574 582 554 537 554 510C554 492 564 483 580 483C596 483 608 496 608 526C608 560 588 610 514 610C379 610 292 440 292 318C292 222 337 170 410 170C500 170 575 249 575 344C575 414 528 456 465 456C418 456 381 423 357 395C381 509 432 582 506 582ZM447 428C492 428 518 397 518 345C518 259 475 197 416 197C370 197 347 231 347 284C347 350 381 428 447 428Z" glyph-name="squareddigitsix" horiz-adv-x="900" /><glyph d="M840 780H60V0H840ZM810 750V30H90V750ZM536 170C648 170 724 328 724 462C724 550 688 610 613 610C502 610 425 451 425 319C425 230 461 170 536 170ZM275 234C271 212 261 201 228 201H167L161 173H414L420 201H360C326 201 318 210 322 234L388 608H360L356 587C349 553 338 536 298 536H232L226 509H324ZM535 197C495 197 479 234 479 293C479 411 527 582 614 582C654 582 670 545 670 487C670 366 623 197 535 197Z" glyph-name="squareddigitten" horiz-adv-x="900" /><glyph d="M840 780H60V0H840ZM810 750V30H90V750ZM418 170C512 170 579 233 579 308C579 386 512 405 494 409V412C502 414 602 437 602 524C602 570 566 610 495 610C399 610 346 538 346 505C346 488 357 483 367 483C393 483 401 505 404 528C408 564 427 582 479 582C523 582 551 563 551 519C551 461 507 417 436 417H403L399 391H432C489 391 521 364 521 304C521 252 485 197 413 197C320 197 309 290 309 307L291 296C291 273 300 170 418 170Z" glyph-name="squareddigitthree" horiz-adv-x="900" /><glyph d="M840 780H60V0H840ZM810 750V30H90V750ZM536 173 580 272 566 283C555 261 531 212 448 212H356C348 212 344 214 344 218C344 223 347 227 354 234C465 345 606 398 606 513C606 571 569 608 496 608C398 608 345 536 345 503C345 486 356 481 366 481C394 481 402 500 404 522C407 555 419 580 478 580C522 580 550 561 550 517C550 397 391 328 286 190L283 173Z" glyph-name="squareddigittwo" horiz-adv-x="899" /><glyph d="M840 780H60V0H840ZM810 750V30H90V750ZM412 170C524 170 600 328 600 462C600 550 564 610 489 610C378 610 301 451 301 319C301 230 337 170 412 170ZM411 197C371 197 355 234 355 293C355 411 403 582 490 582C530 582 546 545 546 487C546 366 499 197 411 197Z" glyph-name="squareddigitzero" horiz-adv-x="900" /><glyph d="M35 375H179C181 363 182 351 182 340C182 190 46 68 5 30L0 0H460L542 180L522 190C502 150 450 50 300 50H99C84 50 78 53 78 60C78 88 270 160 270 364C270 368 270 371 270 375H425L431 405H267C258 466 235 525 235 590C235 670 276 760 410 760C490 760 512 725 512 674C512 652 505 626 505 604C505 579 514 560 549 560C569 560 597 579 597 615C597 677 540 790 390 790C251 790 148 690 148 570C148 508 164 454 174 405H41Z" glyph-name="sterling" horiz-adv-x="600" unicode="&#163;" /><glyph d="M35 375H179C181 363 182 351 182 340C182 190 46 68 5 30L0 0H460L542 180L522 190C502 150 450 50 300 50H99C84 50 78 53 78 60C78 88 270 160 270 364C270 368 270 371 270 375H425L431 405H267C258 466 235 525 235 590C235 670 276 760 410 760C490 760 512 725 512 674C512 652 505 626 505 604C505 579 514 560 549 560C569 560 597 579 597 615C597 677 540 790 390 790C251 790 148 690 148 570C148 508 164 454 174 405H41Z" glyph-name="sterling.LP" horiz-adv-x="600" /><glyph d="M-44 -190 -50 -220H460L466 -190H-6L365 300L160 750H632L638 780H128L122 750L325 300Z" glyph-name="summation" horiz-adv-x="600" unicode="&#8721;" /><glyph d="M385 667H415V774H385ZM681 650 660 671 584 595 605 574ZM140 671 119 650 195 574 216 595ZM402 144C541 144 647 250 647 390C647 530 541 635 402 635C262 635 155 530 155 390C155 250 262 144 402 144ZM402 176C278 176 189 266 189 390C189 514 278 604 402 604C524 604 613 514 613 390C613 266 524 176 402 176ZM677 405V375H784V405ZM17 405V375H125V405ZM215 184 194 205 118 129 139 108ZM606 205 585 184 661 108 682 129ZM385 7H415V115H385Z" glyph-name="sunrayswhite" horiz-adv-x="800" unicode="&#9788;" /><glyph d="M190 50C159 50 130 74 130 118C130 134 133 150 138 170L209 450H370L380 500H222L280 730H200L186 500H61L50 450H175L72 158C61 128 58 100 58 80C58 3 126 -10 150 -10C223 -10 288 61 342 154L380 220L360 230L322 164C267 69 231 50 190 50Z" glyph-name="t" horiz-adv-x="400" unicode="t" /><glyph d="M190 50C159 50 130 74 130 118C130 134 133 150 138 170L171 300H300V332H179L209 450H370L380 500H222L280 730H200L186 500H61L50 450H175L134 332H10V300H122L72 158C61 128 58 100 58 80C58 3 126 -10 150 -10C223 -10 288 61 342 154L380 220L360 230L322 164C267 69 231 50 190 50Z" glyph-name="tbar" horiz-adv-x="400" unicode="&#359;" /><glyph d="M391 732 362 740 271 538 299 530ZM190 50C159 50 130 74 130 118C130 134 133 150 138 170L209 450H370L380 500H222L280 730H200L186 500H61L50 450H175L72 158C61 128 58 100 58 80C58 3 126 -10 150 -10C223 -10 288 61 342 154L380 220L360 230L322 164C267 69 231 50 190 50Z" glyph-name="tcaron" horiz-adv-x="400" unicode="&#357;" /><glyph d="M190 50C159 50 130 74 130 118C130 134 133 150 138 170L209 450H370L380 500H222L280 730H200L186 500H61L50 450H175L72 158C61 128 58 100 58 80C58 3 126 -10 150 -10C223 -10 288 61 342 154L380 220L360 230L322 164C267 69 231 50 190 50ZM-13 -208 5 -230 162 -70 144 -48Z" glyph-name="tcommaaccent" horiz-adv-x="400" unicode="&#539;" /><glyph glyph-name="thinspace" horiz-adv-x="100" unicode="&#8201;" /><glyph d="M116 77H120C132 39 172 -10 250 -10C398 -10 560 160 560 340C560 450 500 510 410 510C330 510 246 450 183 340H179C186 357 296 756 296 776L292 780H126L116 730H226L28 -116C17 -164 -8 -190 -45 -190H-75L-82 -220H178L185 -190H129C86 -190 65 -176 65 -140C65 -120 71 -100 78 -74ZM170 180C170 320 260 450 370 450C460 450 500 370 500 300C500 150 400 50 300 50C210 50 170 115 170 180Z" glyph-name="thorn" horiz-adv-x="600" unicode="&#254;" /><glyph d="M228 -10C402 -10 523 113 523 246C523 383 403 415 369 422V426C403 436 567 500 567 636C567 730 500 790 366 790C205 790 103 674 103 606C103 583 117 560 147 560C243 560 149 760 351 760C441 760 483 704 483 630C483 537 405 430 263 430H203L197 400H258C372 400 439 360 439 254C439 134 356 40 221 40C28 40 20 207 20 230L0 220C0 193 8 -10 228 -10Z" glyph-name="three" horiz-adv-x="600" unicode="3" /><glyph d="M228 -10C402 -10 523 113 523 246C523 383 403 415 369 422V426C403 436 567 500 567 636C567 730 500 790 366 790C205 790 103 674 103 606C103 583 117 560 147 560C243 560 149 760 351 760C441 760 483 704 483 630C483 537 405 430 263 430H203L197 400H258C372 400 439 360 439 254C439 134 356 40 221 40C28 40 20 207 20 230L0 220C0 193 8 -10 228 -10Z" glyph-name="three.LP" horiz-adv-x="600" /><glyph d="M590 790 -11 6 11 -10 612 774ZM116 350C210 350 277 413 277 488C277 566 210 585 192 589V592C200 594 300 617 300 704C300 750 264 790 193 790C97 790 44 718 44 685C44 668 55 663 65 663C91 663 99 685 102 708C106 744 125 762 177 762C221 762 249 743 249 699C249 641 205 597 134 597H101L97 571H130C187 571 219 544 219 484C219 432 183 377 111 377C18 377 7 470 7 487L-11 476C-11 453 -2 350 116 350ZM424 329C427 329 428 326 427 320L395 143H256L416 322C421 328 422 329 424 329ZM219 116H390L380 61C376 39 366 28 333 28H289L284 0H502L507 28H463C429 28 421 41 425 61L435 116H533L538 143H439L491 435H488L224 143Z" glyph-name="threequarters" horiz-adv-x="600" unicode="&#190;" /><glyph d="M169 350C263 350 330 413 330 488C330 566 263 585 245 589V592C253 594 353 617 353 704C353 750 317 790 246 790C150 790 97 718 97 685C97 668 108 663 118 663C144 663 152 685 155 708C159 744 178 762 230 762C274 762 302 743 302 699C302 641 258 597 187 597H154L150 571H183C240 571 272 544 272 484C272 432 236 377 164 377C71 377 60 470 60 487L42 476C42 453 51 350 169 350Z" glyph-name="threesuperior" horiz-adv-x="400" unicode="&#179;" /><glyph d="M330 700C378 700 391 654 393 640H423C422 657 410 732 336 732C272 732 233 670 169 670C121 670 108 716 107 730H77C77 713 89 638 163 638C237 638 277 700 330 700Z" glyph-name="tilde" horiz-adv-x="500" unicode="&#732;" /><glyph d="M330 940C378 940 391 894 393 880H423C422 897 410 972 336 972C272 972 233 910 169 910C121 910 108 956 107 970H77C77 953 89 878 163 878C237 878 277 940 330 940Z" glyph-name="tilde.cap" horiz-adv-x="500" /><glyph d="M310 350 313 370H273C232 370 217 378 222 409L277 720C282 747 303 760 342 760H362C440 760 464 711 471 677L424 409C420 383 399 370 359 370H333L330 350H521L524 370H498C457 370 442 382 447 409L504 731L605 343H608L850 730L793 409C789 383 768 370 728 370H689L686 350H923L926 370H887C846 370 831 378 836 409L891 720C896 747 916 760 956 760H995L999 780H854L633 421L539 780H56L2 661L13 654C26 681 65 760 164 760H184C225 760 240 748 235 720L180 409C176 384 154 370 115 370H75L72 350Z" glyph-name="trademark" horiz-adv-x="1000" unicode="&#8482;" /><glyph d="M430 0 512 180 492 190C472 150 419 50 269 50H69C54 50 47 53 47 61C47 66 54 78 66 90C264 284 560 386 560 608C560 712 480 790 350 790C178 790 76 674 76 606C76 582 90 560 120 560C216 560 122 760 324 760C420 760 476 702 476 618C476 380 168 272 -25 30L-31 0Z" glyph-name="two" horiz-adv-x="600" unicode="2" /><glyph d="M430 0 512 180 492 190C472 150 419 50 269 50H69C54 50 47 53 47 61C47 66 54 78 66 90C264 284 560 386 560 608C560 712 480 790 350 790C178 790 76 674 76 606C76 582 90 560 120 560C216 560 122 760 324 760C420 760 476 702 476 618C476 380 168 272 -25 30L-31 0Z" glyph-name="two.LP" horiz-adv-x="600" /><glyph d="M286 355 330 454 316 465C305 443 281 394 198 394H106C98 394 94 396 94 400C94 405 97 409 104 416C215 527 356 580 356 695C356 753 319 790 246 790C148 790 95 718 95 685C95 668 106 663 116 663C144 663 152 682 154 704C157 737 169 762 228 762C272 762 300 743 300 699C300 579 141 510 36 372L33 355Z" glyph-name="twosuperior" horiz-adv-x="400" unicode="&#178;" /><glyph d="M466 70C448 70 438 80 438 100C438 124 444 147 448 162L530 500H470L372 250C309 90 273 50 212 50C161 50 124 88 124 136C124 167 134 205 145 242L221 496L217 500H51L40 450H169C140 372 115 308 96 256C68 178 52 142 52 90C52 44 86 -10 164 -10C250 -10 318 51 380 190L438 320H450L380 128C373 108 370 94 370 78C370 32 394 0 434 0H454C474 10 492 27 524 70L590 160L570 170C517 96 490 70 466 70Z" glyph-name="u" horiz-adv-x="600" unicode="u" /><glyph d="M492 768 472 790 268 600 288 578ZM466 70C448 70 438 80 438 100C438 124 444 147 448 162L530 500H470L372 250C309 90 273 50 212 50C161 50 124 88 124 136C124 167 134 205 145 242L221 496L217 500H51L40 450H169C140 372 115 308 96 256C68 178 52 142 52 90C52 44 86 -10 164 -10C250 -10 318 51 380 190L438 320H450L380 128C373 108 370 94 370 78C370 32 394 0 434 0H454C474 10 492 27 524 70L590 160L570 170C517 96 490 70 466 70Z" glyph-name="uacute" horiz-adv-x="600" unicode="&#250;" /><glyph d="M288 745H258V733C258 690 276 625 367 625C467 625 507 703 518 745H488C480 720 452 655 372 655C295 655 288 716 288 742ZM466 70C448 70 438 80 438 100C438 124 444 147 448 162L530 500H470L372 250C309 90 273 50 212 50C161 50 124 88 124 136C124 167 134 205 145 242L221 496L217 500H51L40 450H169C140 372 115 308 96 256C68 178 52 142 52 90C52 44 86 -10 164 -10C250 -10 318 51 380 190L438 320H450L380 128C373 108 370 94 370 78C370 32 394 0 434 0H454C474 10 492 27 524 70L590 160L570 170C517 96 490 70 466 70Z" glyph-name="ubreve" horiz-adv-x="600" unicode="&#365;" /><glyph d="M196 602 216 580 394 745 514 580 536 600 401 790H397ZM466 70C448 70 438 80 438 100C438 124 444 147 448 162L530 500H470L372 250C309 90 273 50 212 50C161 50 124 88 124 136C124 167 134 205 145 242L221 496L217 500H51L40 450H169C140 372 115 308 96 256C68 178 52 142 52 90C52 44 86 -10 164 -10C250 -10 318 51 380 190L438 320H450L380 128C373 108 370 94 370 78C370 32 394 0 434 0H454C474 10 492 27 524 70L590 160L570 170C517 96 490 70 466 70Z" glyph-name="ucircumflex" horiz-adv-x="600" unicode="&#251;" /><glyph d="M230 685C230 649 254 635 280 635C306 635 330 649 330 685C330 721 306 735 280 735C255 735 230 721 230 685ZM390 685C390 649 414 635 440 635C466 635 490 649 490 685C490 721 466 735 440 735C415 735 390 721 390 685ZM466 70C448 70 438 80 438 100C438 124 444 147 448 162L530 500H470L372 250C309 90 273 50 212 50C161 50 124 88 124 136C124 167 134 205 145 242L221 496L217 500H51L40 450H169C140 372 115 308 96 256C68 178 52 142 52 90C52 44 86 -10 164 -10C250 -10 318 51 380 190L438 320H450L380 128C373 108 370 94 370 78C370 32 394 0 434 0H454C474 10 492 27 524 70L590 160L570 170C517 96 490 70 466 70Z" glyph-name="udieresis" horiz-adv-x="600" unicode="&#252;" /><glyph d="M278 770 414 580 438 598 302 788ZM466 70C448 70 438 80 438 100C438 124 444 147 448 162L530 500H470L372 250C309 90 273 50 212 50C161 50 124 88 124 136C124 167 134 205 145 242L221 496L217 500H51L40 450H169C140 372 115 308 96 256C68 178 52 142 52 90C52 44 86 -10 164 -10C250 -10 318 51 380 190L438 320H450L380 128C373 108 370 94 370 78C370 32 394 0 434 0H454C474 10 492 27 524 70L590 160L570 170C517 96 490 70 466 70Z" glyph-name="ugrave" horiz-adv-x="600" unicode="&#249;" /><glyph d="M441 750 273 594 291 572 459 728ZM561 750 393 594 411 572 579 728ZM466 70C448 70 438 80 438 100C438 124 444 147 448 162L530 500H470L372 250C309 90 273 50 212 50C161 50 124 88 124 136C124 167 134 205 145 242L221 496L217 500H51L40 450H169C140 372 115 308 96 256C68 178 52 142 52 90C52 44 86 -10 164 -10C250 -10 318 51 380 190L438 320H450L380 128C373 108 370 94 370 78C370 32 394 0 434 0H454C474 10 492 27 524 70L590 160L570 170C517 96 490 70 466 70Z" glyph-name="uhungarumlaut" horiz-adv-x="600" unicode="&#369;" /><glyph d="M485 701H261L255 669H479ZM466 70C448 70 438 80 438 100C438 124 444 147 448 162L530 500H470L372 250C309 90 273 50 212 50C161 50 124 88 124 136C124 167 134 205 145 242L221 496L217 500H51L40 450H169C140 372 115 308 96 256C68 178 52 142 52 90C52 44 86 -10 164 -10C250 -10 318 51 380 190L438 320H450L380 128C373 108 370 94 370 78C370 32 394 0 434 0H454C474 10 492 27 524 70L590 160L570 170C517 96 490 70 466 70Z" glyph-name="umacron" horiz-adv-x="600" unicode="&#363;" /><glyph d="M20 -40H574L580 -10H26Z" glyph-name="underscore" horiz-adv-x="600" unicode="_" /><glyph d="M44 321C44 132 183 -10 379 -10C658 -10 856 210 856 460C856 647 717 790 520 790C249 790 44 574 44 321ZM515 760C697 760 822 629 822 457C822 215 625 20 385 20C203 20 78 152 78 325C78 569 275 760 515 760ZM461 137 465 157H413C372 157 358 168 363 196L396 385H483C626 385 699 456 699 530C699 618 617 644 506 644H304L300 625H339C380 625 394 616 389 586L321 196C316 170 296 157 257 157H218L214 137ZM466 405H399L431 586C436 612 456 625 495 625H505C587 625 644 604 644 528C644 458 586 405 466 405Z" glyph-name="uni2117" horiz-adv-x="937" unicode="&#8471;" /><glyph d="M500 -10C673 -10 850 169 850 390C850 611 671 790 450 790C228 790 50 609 50 390C50 329 64 268 93 210L120 223C95 275 84 324 84 390C84 593 246 760 450 760C654 760 816 594 816 390C816 186 651 20 494 20C400 20 350 70 350 138C350 164 354 191 358 199L436 171L466 256L382 286L464 513L549 483L579 568L466 609L323 212L337 207C332 192 327 164 327 138C327 62 370 -10 500 -10Z" glyph-name="uni260E" horiz-adv-x="900" unicode="&#9742;" /><glyph d="M612 128V652H88V128ZM582 158H118V622H582Z" glyph-name="uni2610" horiz-adv-x="700" unicode="&#9744;" /><glyph d="M612 128V652H88V128ZM582 158H118V622H582ZM482 560 300 251 218 390H180L290 210H310L520 560Z" glyph-name="uni2611" horiz-adv-x="700" unicode="&#9745;" /><glyph d="M612 128V652H88V128ZM582 158H118V622H582ZM222 560H180L329 390L180 220H222L350 366L478 220H520L371 390L520 560H478L350 414Z" glyph-name="uni2612" horiz-adv-x="700" unicode="&#9746;" /><glyph d="M222 560H180L329 390L180 220H222L350 366L478 220H520L371 390L520 560H478L350 414Z" glyph-name="uni2713" horiz-adv-x="700" unicode="&#10003;" /><glyph d="M840 300 620 520 600 500 787 315H93L280 500L260 520L40 300L260 80L280 100L93 285H787L600 100L620 80Z" glyph-name="uni27F7" horiz-adv-x="880" unicode="&#10231;" /><glyph d="M390 100 203 285H560V315H203L390 500L370 520L150 300L370 80ZM60 80H90V520H60Z" glyph-name="uni2B70" horiz-adv-x="600" unicode="&#11120;" /><glyph d="M80 500V470H520V500ZM100 170 285 357V0H315V357L500 170L520 190L300 410L80 190Z" glyph-name="uni2B71" horiz-adv-x="600" unicode="&#11121;" /><glyph d="M210 100 230 80 450 300 230 520 210 500 397 315H40V285H397ZM540 80V520H510V80Z" glyph-name="uni2B72" horiz-adv-x="600" unicode="&#11122;" /><glyph d="M100 330 80 310 300 90 520 310 500 330 315 143V500H285V143ZM80 0H520V30H80Z" glyph-name="uni2B73" horiz-adv-x="600" unicode="&#11123;" /><glyph d="M80 0H110V790H330V820H80Z" glyph-name="uni300C" horiz-adv-x="400" unicode="&#12300;" /><glyph d="M320 780H290V-10H70V-40H320Z" glyph-name="uni300D" horiz-adv-x="400" unicode="&#12301;" /><glyph d="M788 632V662H186V632ZM503 294V488H788V518H186V488H471V294ZM331 368C331 371 331 375 330 377L357 388L344 417L319 405C318 406 317 408 315 409L331 432L305 449L290 424C288 425 287 425 285 425V454H255V425C253 425 252 425 250 424L235 449L209 432L225 408C224 407 223 406 222 405L196 417L183 388L211 377C210 374 210 371 210 368C210 330 238 307 270 307C303 307 331 330 331 368ZM643 368C643 330 671 307 704 307C736 307 764 330 764 368C764 371 764 374 763 377L791 388L778 417L752 405C751 406 750 407 749 408L765 432L739 449L724 424L719 425V454H689V425C687 425 686 425 684 424L669 449L643 432L659 409C657 408 656 406 655 405L630 417L617 388L644 377C643 375 643 371 643 368ZM102 379C102 402 110 420 128 420C139 420 145 416 150 411L170 431C162 440 151 448 130 448C94 448 70 420 70 379C70 317 104 270 150 270C209 149 339 118 487 118C635 118 765 149 824 270C870 270 904 317 904 379C904 420 880 448 844 448C823 448 812 440 804 431L824 411C829 416 835 420 846 420C864 420 872 402 872 379C872 337 848 297 804 297C752 179 629 148 487 148C345 148 222 179 170 297C126 297 102 337 102 379ZM300 368C300 349 289 335 270 335C252 335 240 349 240 368C240 385 252 399 270 399C289 399 300 385 300 368ZM674 368C674 385 685 399 704 399C722 399 734 385 734 368C734 349 722 335 704 335C685 335 674 349 674 368ZM289 287C318 208 379 168 487 168C595 168 656 208 685 287H653C625 218 579 196 487 196C395 196 349 218 321 287Z" glyph-name="uni3020" horiz-adv-x="937" unicode="&#12320;" /><glyph d="M87 391C87 169 267 -10 487 -10C707 -10 887 169 887 391C887 611 707 790 487 790C267 790 87 611 87 391ZM119 391C119 597 283 760 487 760C691 760 855 597 855 391C855 185 691 20 487 20C283 20 119 185 119 391ZM698 584V614H276V584ZM503 106V440H698V470H276V440H471V106Z" glyph-name="uni3036" horiz-adv-x="937" unicode="&#12342;" /><glyph d="M466 70C448 70 438 80 438 100C438 124 444 147 448 162L530 500H470L372 250C309 90 273 50 212 50C161 50 124 88 124 136C124 167 134 205 145 242L221 496L217 500H51L40 450H169C140 372 115 308 96 256C68 178 52 142 52 90C52 44 86 -10 164 -10C250 -10 318 51 380 190L438 320H450L380 128C373 108 370 94 370 78C370 32 394 0 434 0H454C465 5 475 13 487 25C462 -23 444 -68 444 -101C444 -138 460 -170 516 -170H564L569 -140H535C494 -140 479 -122 479 -92C479 -25 525 63 590 160L570 170C517 96 490 70 466 70Z" glyph-name="uogonek" horiz-adv-x="600" unicode="&#371;" /><glyph d="M461 685C461 746 417 784 360 784C304 784 260 746 260 685C260 623 304 584 360 584C417 584 461 623 461 685ZM428 685C428 640 401 612 360 612C320 612 292 640 292 685C292 728 320 756 360 756C401 756 428 728 428 685ZM466 70C448 70 438 80 438 100C438 124 444 147 448 162L530 500H470L372 250C309 90 273 50 212 50C161 50 124 88 124 136C124 167 134 205 145 242L221 496L217 500H51L40 450H169C140 372 115 308 96 256C68 178 52 142 52 90C52 44 86 -10 164 -10C250 -10 318 51 380 190L438 320H450L380 128C373 108 370 94 370 78C370 32 394 0 434 0H454C474 10 492 27 524 70L590 160L570 170C517 96 490 70 466 70Z" glyph-name="uring" horiz-adv-x="600" unicode="&#367;" /><glyph d="M440 700C488 700 501 654 503 640H533C532 657 520 732 446 732C382 732 343 670 279 670C231 670 218 716 217 730H187C187 713 199 638 273 638C347 638 387 700 440 700ZM466 70C448 70 438 80 438 100C438 124 444 147 448 162L530 500H470L372 250C309 90 273 50 212 50C161 50 124 88 124 136C124 167 134 205 145 242L221 496L217 500H51L40 450H169C140 372 115 308 96 256C68 178 52 142 52 90C52 44 86 -10 164 -10C250 -10 318 51 380 190L438 320H450L380 128C373 108 370 94 370 78C370 32 394 0 434 0H454C474 10 492 27 524 70L590 160L570 170C517 96 490 70 466 70Z" glyph-name="utilde" horiz-adv-x="600" unicode="&#361;" /><glyph d="M218 390C218 472 180 500 140 500H120C100 490 82 473 50 430L-16 340L4 330C57 404 88 430 102 430C136 430 148 394 148 300C148 263 137 109 123 -6L127 -10H163C456 330 529 430 529 490L519 500H354L344 450H424C436 450 440 446 440 436C440 394 303 190 183 53H179C196 142 218 300 218 390Z" glyph-name="v" horiz-adv-x="500" unicode="v" /><glyph d="M173 -10 363 289 340 -6 344 -10H380C647 330 720 430 720 490L710 500H545L535 450H615C627 450 631 447 631 436C631 394 581 294 406 53H402L450 500H380L368 350L190 53H186C203 142 228 300 228 390C228 472 190 500 150 500H130C110 490 92 473 60 430L-6 340L14 330C67 404 98 430 112 430C146 430 158 394 158 300C158 263 147 109 133 -6L137 -10Z" glyph-name="w" horiz-adv-x="700" unicode="w" /><glyph d="M552 768 532 790 328 600 348 578ZM173 -10 363 289 340 -6 344 -10H380C647 330 720 430 720 490L710 500H545L535 450H615C627 450 631 447 631 436C631 394 581 294 406 53H402L450 500H380L368 350L190 53H186C203 142 228 300 228 390C228 472 190 500 150 500H130C110 490 92 473 60 430L-6 340L14 330C67 404 98 430 112 430C146 430 158 394 158 300C158 263 147 109 133 -6L137 -10Z" glyph-name="wacute" horiz-adv-x="700" unicode="&#7811;" /><glyph d="M256 602 276 580 454 745 574 580 596 600 461 790H457ZM173 -10 363 289 340 -6 344 -10H380C647 330 720 430 720 490L710 500H545L535 450H615C627 450 631 447 631 436C631 394 581 294 406 53H402L450 500H380L368 350L190 53H186C203 142 228 300 228 390C228 472 190 500 150 500H130C110 490 92 473 60 430L-6 340L14 330C67 404 98 430 112 430C146 430 158 394 158 300C158 263 147 109 133 -6L137 -10Z" glyph-name="wcircumflex" horiz-adv-x="700" unicode="&#373;" /><glyph d="M290 685C290 649 314 635 340 635C366 635 390 649 390 685C390 721 366 735 340 735C315 735 290 721 290 685ZM450 685C450 649 474 635 500 635C526 635 550 649 550 685C550 721 526 735 500 735C475 735 450 721 450 685ZM173 -10 363 289 340 -6 344 -10H380C647 330 720 430 720 490L710 500H545L535 450H615C627 450 631 447 631 436C631 394 581 294 406 53H402L450 500H380L368 350L190 53H186C203 142 228 300 228 390C228 472 190 500 150 500H130C110 490 92 473 60 430L-6 340L14 330C67 404 98 430 112 430C146 430 158 394 158 300C158 263 147 109 133 -6L137 -10Z" glyph-name="wdieresis" horiz-adv-x="700" unicode="&#7813;" /><glyph d="M338 770 474 580 498 598 362 788ZM173 -10 363 289 340 -6 344 -10H380C647 330 720 430 720 490L710 500H545L535 450H615C627 450 631 447 631 436C631 394 581 294 406 53H402L450 500H380L368 350L190 53H186C203 142 228 300 228 390C228 472 190 500 150 500H130C110 490 92 473 60 430L-6 340L14 330C67 404 98 430 112 430C146 430 158 394 158 300C158 263 147 109 133 -6L137 -10Z" glyph-name="wgrave" horiz-adv-x="700" unicode="&#7809;" /><glyph d="M340 126C486 126 606 245 606 390C606 535 486 654 340 654C194 654 74 535 74 390C74 245 194 126 340 126ZM340 156C209 156 108 259 108 390C108 521 209 624 340 624C471 624 572 521 572 390C572 259 471 156 340 156Z" glyph-name="whitecircle" horiz-adv-x="680" /><glyph d="M340 80 650 390 340 700 30 390ZM340 120 70 390 340 660 610 390Z" glyph-name="whitediamond" horiz-adv-x="680" /><glyph d="M62 640 350 140 638 640ZM112 610H588L350 196Z" glyph-name="whitedownpointingtriangle" horiz-adv-x="700" /><glyph d="M580 102V678L80 390ZM550 152 136 390 550 628Z" glyph-name="whiteleftpointingtriangle" horiz-adv-x="700" /><glyph d="M120 102 620 390 120 678ZM150 152V628L564 390Z" glyph-name="whiterightpointingtriangle" horiz-adv-x="700" /><glyph d="M570 160V620H110V160ZM540 190H140V590H540Z" glyph-name="whitesquare" horiz-adv-x="680" /><glyph d="M110 102 610 390 110 678ZM140 152V628L558 390Z" glyph-name="whitetriangle" horiz-adv-x="680" /><glyph d="M62 140H638L350 640ZM112 170 350 584 588 170Z" glyph-name="whiteuppointingtriangle" horiz-adv-x="700" /><glyph d="M240 440C227 489 198 500 170 500H150C130 490 112 473 80 430L14 340L34 330C87 404 118 430 132 430C160 430 174 411 190 360L228 241L-30 4V0L40 -10L235 219L290 50C300 19 320 0 340 0H360C380 10 398 27 430 70L496 160L476 170C423 96 392 70 378 70C350 70 334 88 320 140L284 274L520 496V500L450 510L279 294Z" glyph-name="x" horiz-adv-x="500" unicode="x" /><glyph d="M218 390C218 472 180 500 140 500H120C100 490 82 473 50 430L-16 340L4 330C57 404 88 430 102 430C136 430 148 394 148 300C148 159 136 2 76 -61C23 -117 -26 -150 -100 -150H-206C-218 -156 -230 -172 -230 -192C-230 -222 -208 -230 -184 -230C-24 -230 142 -35 163 -10C456 330 529 430 529 490L519 500H354L344 450H424C436 450 440 446 440 436C440 394 303 190 183 53H179C196 142 218 300 218 390Z" glyph-name="y" horiz-adv-x="500" unicode="y" /><glyph d="M462 768 442 790 238 600 258 578ZM218 390C218 472 180 500 140 500H120C100 490 82 473 50 430L-16 340L4 330C57 404 88 430 102 430C136 430 148 394 148 300C148 159 136 2 76 -61C23 -117 -26 -150 -100 -150H-206C-218 -156 -230 -172 -230 -192C-230 -222 -208 -230 -184 -230C-24 -230 142 -35 163 -10C456 330 529 430 529 490L519 500H354L344 450H424C436 450 440 446 440 436C440 394 303 190 183 53H179C196 142 218 300 218 390Z" glyph-name="yacute" horiz-adv-x="500" unicode="&#253;" /><glyph d="M166 602 186 580 364 745 484 580 506 600 371 790H367ZM218 390C218 472 180 500 140 500H120C100 490 82 473 50 430L-16 340L4 330C57 404 88 430 102 430C136 430 148 394 148 300C148 159 136 2 76 -61C23 -117 -26 -150 -100 -150H-206C-218 -156 -230 -172 -230 -192C-230 -222 -208 -230 -184 -230C-24 -230 142 -35 163 -10C456 330 529 430 529 490L519 500H354L344 450H424C436 450 440 446 440 436C440 394 303 190 183 53H179C196 142 218 300 218 390Z" glyph-name="ycircumflex" horiz-adv-x="500" unicode="&#375;" /><glyph d="M200 685C200 649 224 635 250 635C276 635 300 649 300 685C300 721 276 735 250 735C225 735 200 721 200 685ZM360 685C360 649 384 635 410 635C436 635 460 649 460 685C460 721 436 735 410 735C385 735 360 721 360 685ZM218 390C218 472 180 500 140 500H120C100 490 82 473 50 430L-16 340L4 330C57 404 88 430 102 430C136 430 148 394 148 300C148 159 136 2 76 -61C23 -117 -26 -150 -100 -150H-206C-218 -156 -230 -172 -230 -192C-230 -222 -208 -230 -184 -230C-24 -230 142 -35 163 -10C456 330 529 430 529 490L519 500H354L344 450H424C436 450 440 446 440 436C440 394 303 190 183 53H179C196 142 218 300 218 390Z" glyph-name="ydieresis" horiz-adv-x="500" unicode="&#255;" /><glyph d="M72 280H236L202 90C195 50 163 30 103 30H43L37 0H397L403 30H343C281 30 259 50 266 90L300 280H462L468 310H305L312 350L387 470H495L501 500H406L518 680C554 737 564 750 626 750H660L666 780H406L400 750H424C469 750 497 740 497 716C497 707 491 695 482 680L373 500H275L220 690C212 717 215 750 300 750H330L336 780H26L20 750H54C90 750 130 739 142 701L203 500H111L105 470H212L248 350L241 310H78ZM283 470H354L306 391Z" glyph-name="yen" horiz-adv-x="600" unicode="&#165;" /><glyph d="M72 280H236L202 90C195 50 163 30 103 30H43L37 0H397L403 30H343C281 30 259 50 266 90L300 280H462L468 310H305L312 350L387 470H495L501 500H406L518 680C554 737 564 750 626 750H660L666 780H406L400 750H424C469 750 497 740 497 716C497 707 491 695 482 680L373 500H275L220 690C212 717 215 750 300 750H330L336 780H26L20 750H54C90 750 130 739 142 701L203 500H111L105 470H212L248 350L241 310H78ZM283 470H354L306 391Z" glyph-name="yen.LP" horiz-adv-x="600" /><glyph d="M248 770 384 580 408 598 272 788ZM218 390C218 472 180 500 140 500H120C100 490 82 473 50 430L-16 340L4 330C57 404 88 430 102 430C136 430 148 394 148 300C148 159 136 2 76 -61C23 -117 -26 -150 -100 -150H-206C-218 -156 -230 -172 -230 -192C-230 -222 -208 -230 -184 -230C-24 -230 142 -35 163 -10C456 330 529 430 529 490L519 500H354L344 450H424C436 450 440 446 440 436C440 394 303 190 183 53H179C196 142 218 300 218 390Z" glyph-name="ygrave" horiz-adv-x="500" unicode="&#7923;" /><glyph d="M500 490V500H126L60 320L80 310C120 411 170 450 280 450H388C397 450 400 446 400 440C400 434 396 428 388 420L-20 10V0H376L440 180L420 190C390 90 340 50 210 50H92C84 50 80 52 80 58C80 64 83 71 92 80Z" glyph-name="z" horiz-adv-x="500" unicode="z" /><glyph d="M442 768 422 790 218 600 238 578ZM500 490V500H126L60 320L80 310C120 411 170 450 280 450H388C397 450 400 446 400 440C400 434 396 428 388 420L-20 10V0H376L440 180L420 190C390 90 340 50 210 50H92C84 50 80 52 80 58C80 64 83 71 92 80Z" glyph-name="zacute" horiz-adv-x="500" unicode="&#378;" /><glyph d="M516 768 498 790 318 622 198 788 176 770 311 580H315ZM500 490V500H126L60 320L80 310C120 411 170 450 280 450H388C397 450 400 446 400 440C400 434 396 428 388 420L-20 10V0H376L440 180L420 190C390 90 340 50 210 50H92C84 50 80 52 80 58C80 64 83 71 92 80Z" glyph-name="zcaron" horiz-adv-x="500" unicode="&#382;" /><glyph d="M260 685C260 649 284 635 310 635C336 635 360 649 360 685C360 721 336 735 310 735C285 735 260 721 260 685ZM500 490V500H126L60 320L80 310C120 411 170 450 280 450H388C397 450 400 446 400 440C400 434 396 428 388 420L-20 10V0H376L440 180L420 190C390 90 340 50 210 50H92C84 50 80 52 80 58C80 64 83 71 92 80Z" glyph-name="zdotaccent" horiz-adv-x="500" unicode="&#380;" /><glyph d="M229 -10C433 -10 572 276 572 519C572 680 506 790 370 790C166 790 28 500 28 260C28 98 93 -10 229 -10ZM225 20C137 20 106 96 106 209C106 433 188 760 375 760C462 760 494 683 494 569C494 335 407 20 225 20Z" glyph-name="zero" horiz-adv-x="600" unicode="0" /><glyph d="M229 -10C433 -10 572 276 572 519C572 680 506 790 370 790C166 790 28 500 28 260C28 98 93 -10 229 -10ZM225 20C137 20 106 96 106 209C106 433 188 760 375 760C462 760 494 683 494 569C494 335 407 20 225 20Z" glyph-name="zero.LP" horiz-adv-x="600" /><glyph d="M229 -10C433 -10 572 276 572 519C572 582 562 637 542 681L695 880L675 900L527 708C493 760 441 790 370 790C166 790 28 500 28 260C28 197 38 142 58 99L-95 -100L-75 -120L73 72C106 20 158 -10 229 -10ZM106 209C106 433 188 760 375 760C438 760 472 720 486 655L108 164C107 178 106 193 106 209ZM225 20C161 20 127 60 114 125L492 616C493 601 494 586 494 569C494 335 407 20 225 20Z" glyph-name="zero.slash" horiz-adv-x="600" /><glyph d="M229 -10C433 -10 572 276 572 519C572 582 562 637 542 681L695 880L675 900L527 708C493 760 441 790 370 790C166 790 28 500 28 260C28 197 38 142 58 99L-95 -100L-75 -120L73 72C106 20 158 -10 229 -10ZM106 209C106 433 188 760 375 760C438 760 472 720 486 655L108 164C107 178 106 193 106 209ZM225 20C161 20 127 60 114 125L492 616C493 601 494 586 494 569C494 335 407 20 225 20Z" glyph-name="zero.slashLP" horiz-adv-x="600" /><glyph d="M162 350C274 350 350 508 350 642C350 730 314 790 239 790C128 790 51 631 51 499C51 410 87 350 162 350ZM161 377C121 377 105 414 105 473C105 591 153 762 240 762C280 762 296 725 296 667C296 546 249 377 161 377Z" glyph-name="zerosuperior" horiz-adv-x="400" unicode="&#8304;" /></font>
</defs>
</svg>
