<?xml version="1.0" standalone="no"?><!DOCTYPE svg PUBLIC "-//W3C//DTD SVG 1.1//EN" "http://www.w3.org/Graphics/SVG/1.1/DTD/svg11.dtd" ><svg version="1.1" xmlns="http://www.w3.org/2000/svg"><defs><font horiz-adv-x="0" id="font"><font-face ascent="780" bbox="-70 -290 1390 1177" cap-height="780" descent="-220" font-family="Self Modern" font-stretch="normal" font-style="normal" font-weight="300" units-per-em="1000" x-height="500" /><missing-glyph horiz-adv-x="500" /><glyph glyph-name=".null" horiz-adv-x="500" /><glyph d="M280 0V30H240C192 30 164 42 164 70C164 78 166 89 170 100L235 280H534L601 90C603 84 604 78 604 72C604 42 569 30 520 30H480V0H800V30H766C730 30 690 41 676 80L420 790H416L380 760L130 100C108 43 96 30 34 30H0V0ZM246 310 387 699 524 310Z" glyph-name="A" horiz-adv-x="800" unicode="A" /><glyph d="M601 90C603 84 604 78 604 72C604 42 569 30 520 30H480V0H930L980 180L960 190C948 150 911 32 764 30C730 30 690 41 676 80L568 380H716C785 380 816 334 816 254V220H840V570H816V536C816 456 785 410 716 410H557L434 750H730C880 750 918 630 930 590L950 600L900 780H416L380 760L130 100C108 43 96 30 34 30H0V0H280V30H240C192 30 164 42 164 70C164 78 166 89 170 100L387 699L489 410H370V380H499Z" glyph-name="AE" horiz-adv-x="1000" unicode="&#198;" /><glyph d="M666 1010 644 1030 474 840 496 820ZM601 90C603 84 604 78 604 72C604 42 569 30 520 30H480V0H930L980 180L960 190C948 150 911 32 764 30C730 30 690 41 676 80L568 380H716C785 380 816 334 816 254V220H840V570H816V536C816 456 785 410 716 410H557L434 750H730C880 750 918 630 930 590L950 600L900 780H416L380 760L130 100C108 43 96 30 34 30H0V0H280V30H240C192 30 164 42 164 70C164 78 166 89 170 100L387 699L489 410H370V380H499Z" glyph-name="AEacute" horiz-adv-x="1000" unicode="&#508;" /><glyph d="M526 1011 504 1031 334 841 356 821ZM280 0V30H240C192 30 164 42 164 70C164 78 166 89 170 100L235 280H534L601 90C603 84 604 78 604 72C604 42 569 30 520 30H480V0H800V30H766C730 30 690 41 676 80L420 790H416L380 760L130 100C108 43 96 30 34 30H0V0ZM246 310 387 699 524 310Z" glyph-name="Aacute" horiz-adv-x="800" unicode="&#193;" /><glyph d="M300 986H270C274 944 300 866 400 866C500 866 526 944 530 986H500C496 961 480 896 400 896C320 896 304 961 300 986ZM280 0V30H240C192 30 164 42 164 70C164 78 166 89 170 100L235 280H534L601 90C603 84 604 78 604 72C604 42 569 30 520 30H480V0H800V30H766C730 30 690 41 676 80L420 790H416L380 760L130 100C108 43 96 30 34 30H0V0ZM246 310 387 699 524 310Z" glyph-name="Abreve" horiz-adv-x="800" unicode="&#258;" /><glyph d="M230 841 252 821 400 989 548 821 570 841 402 1031H398ZM280 0V30H240C192 30 164 42 164 70C164 78 166 89 170 100L235 280H534L601 90C603 84 604 78 604 72C604 42 569 30 520 30H480V0H800V30H766C730 30 690 41 676 80L420 790H416L380 760L130 100C108 43 96 30 34 30H0V0ZM246 310 387 699 524 310Z" glyph-name="Acircumflex" horiz-adv-x="800" unicode="&#194;" /><glyph d="M270 926C270 890 294 876 320 876C346 876 370 890 370 926C370 962 346 976 320 976C295 976 270 962 270 926ZM430 926C430 890 454 876 480 876C506 876 530 890 530 926C530 962 506 976 480 976C455 976 430 962 430 926ZM280 0V30H240C192 30 164 42 164 70C164 78 166 89 170 100L235 280H534L601 90C603 84 604 78 604 72C604 42 569 30 520 30H480V0H800V30H766C730 30 690 41 676 80L420 790H416L380 760L130 100C108 43 96 30 34 30H0V0ZM246 310 387 699 524 310Z" glyph-name="Adieresis" horiz-adv-x="800" unicode="&#196;" /><glyph d="M284 1011 454 821 476 841 306 1031ZM280 0V30H240C192 30 164 42 164 70C164 78 166 89 170 100L235 280H534L601 90C603 84 604 78 604 72C604 42 569 30 520 30H480V0H800V30H766C730 30 690 41 676 80L420 790H416L380 760L130 100C108 43 96 30 34 30H0V0ZM246 310 387 699 524 310Z" glyph-name="Agrave" horiz-adv-x="800" unicode="&#192;" /><glyph d="M512 942H288V910H512ZM280 0V30H240C192 30 164 42 164 70C164 78 166 89 170 100L235 280H534L601 90C603 84 604 78 604 72C604 42 569 30 520 30H480V0H800V30H766C730 30 690 41 676 80L420 790H416L380 760L130 100C108 43 96 30 34 30H0V0ZM246 310 387 699 524 310Z" glyph-name="Amacron" horiz-adv-x="800" unicode="&#256;" /><glyph d="M280 0V30H240C192 30 164 42 164 70C164 78 166 89 170 100L235 280H534L601 90C603 84 604 78 604 72C604 42 569 30 520 30H480V0H724C687 -43 670 -72 670 -108C670 -140 690 -170 732 -170H800V-140H746C722 -140 704 -130 704 -104C704 -78 715 -48 755 0H800V30H766C730 30 694 41 680 80L420 790H416L380 760L130 100C108 43 96 30 34 30H0V0ZM246 310 387 699 524 310Z" glyph-name="Aogonek" horiz-adv-x="800" unicode="&#260;" /><glyph d="M501 927C501 988 457 1026 400 1026C344 1026 300 988 300 927C300 865 344 826 400 826C457 826 501 865 501 927ZM468 927C468 882 441 854 400 854C360 854 332 882 332 927C332 970 360 998 400 998C441 998 468 970 468 927ZM280 0V30H240C192 30 164 42 164 70C164 78 166 89 170 100L235 280H534L601 90C603 84 604 78 604 72C604 42 569 30 520 30H480V0H800V30H766C730 30 690 41 676 80L420 790H416L380 760L130 100C108 43 96 30 34 30H0V0ZM246 310 387 699 524 310Z" glyph-name="Aring" horiz-adv-x="800" unicode="&#197;" /><glyph d="M501 927C501 988 457 1026 400 1026C397 1026 395 1026 393 1026L510 1157L488 1177L329 1000C326 996 322 992 319 988L318 987C307 971 300 951 300 927C300 865 344 826 400 826C457 826 501 865 501 927ZM468 927C468 882 441 854 400 854C360 854 332 882 332 927C332 970 360 998 400 998C441 998 468 970 468 927ZM280 0V30H240C192 30 164 42 164 70C164 78 166 89 170 100L235 280H534L601 90C603 84 604 78 604 72C604 42 569 30 520 30H480V0H800V30H766C730 30 690 41 676 80L420 790H416L380 760L130 100C108 43 96 30 34 30H0V0ZM246 310 387 699 524 310Z" glyph-name="Aringacute" horiz-adv-x="800" unicode="&#506;" /><glyph d="M478 941C526 941 547 895 551 881H581C577 898 552 973 478 973C414 973 386 911 322 911C274 911 253 957 249 971H219C222 954 248 879 322 879C396 879 425 941 478 941ZM280 0V30H240C192 30 164 42 164 70C164 78 166 89 170 100L235 280H534L601 90C603 84 604 78 604 72C604 42 569 30 520 30H480V0H800V30H766C730 30 690 41 676 80L420 790H416L380 760L130 100C108 43 96 30 34 30H0V0ZM246 310 387 699 524 310Z" glyph-name="Atilde" horiz-adv-x="800" unicode="&#195;" /><glyph d="M670 214C670 317 607 401 477 421C574 456 650 510 650 600C650 720 537 780 346 780H20V750H80C140 750 168 730 168 690V90C168 51 140 30 80 30H20V0H376C536 0 670 64 670 214ZM232 690C232 730 260 750 320 750C457 750 566 710 566 592C566 482 486 430 356 430H232ZM306 400C486 400 586 365 586 214C586 74 476 30 346 30H320C260 30 232 50 232 90V400Z" glyph-name="B" horiz-adv-x="700" unicode="B" /><glyph d="M380 790C180 790 40 620 40 391C40 160 180 -10 380 -10C640 -10 688 248 690 260L670 270C668 260 630 40 390 40C230 40 124 180 124 391C124 601 221 760 391 760C550 760 610 640 640 570L660 580L600 790H596L567 771C557 765 550 762 540 762C506 762 480 790 380 790Z" glyph-name="C" horiz-adv-x="700" unicode="C" /><glyph glyph-name="CR" horiz-adv-x="500" /><glyph d="M506 1010 484 1030 314 840 336 820ZM380 790C180 790 40 620 40 391C40 160 180 -10 380 -10C640 -10 688 248 690 260L670 270C668 260 630 40 390 40C230 40 124 180 124 391C124 601 221 760 391 760C550 760 610 640 640 570L660 580L600 790H596L567 771C557 765 550 762 540 762C506 762 480 790 380 790Z" glyph-name="Cacute" horiz-adv-x="700" unicode="&#262;" /><glyph d="M210 1010 378 820H382L550 1010L528 1030L380 862L232 1030ZM380 790C180 790 40 620 40 391C40 160 180 -10 380 -10C640 -10 688 248 690 260L670 270C668 260 630 40 390 40C230 40 124 180 124 391C124 601 221 760 391 760C550 760 610 640 640 570L660 580L600 790H596L567 771C557 765 550 762 540 762C506 762 480 790 380 790Z" glyph-name="Ccaron" horiz-adv-x="700" unicode="&#268;" /><glyph d="M270 -140C272 -150 288 -210 370 -210C430 -210 470 -180 470 -130C470 -85 436 -64 402 -64C392 -64 381 -66 370 -70L426 -7C646 21 688 249 690 260L670 270C668 260 630 40 390 40C230 40 124 180 124 391C124 601 221 760 391 760C550 760 610 640 640 570L660 580L600 790H596L567 771C557 765 550 762 540 762C506 762 480 790 380 790C180 790 40 620 40 391C40 160 180 -10 380 -10C385 -10 390 -10 395 -10L340 -70L350 -90C356 -88 364 -86 376 -86C404 -86 434 -98 434 -134C434 -166 412 -182 370 -182C310 -182 294 -140 290 -130Z" glyph-name="Ccedilla" horiz-adv-x="700" unicode="&#199;" /><glyph d="M210 840 232 820 380 988 528 820 550 840 382 1030H378ZM380 790C180 790 40 620 40 391C40 160 180 -10 380 -10C640 -10 688 248 690 260L670 270C668 260 630 40 390 40C230 40 124 180 124 391C124 601 221 760 391 760C550 760 610 640 640 570L660 580L600 790H596L567 771C557 765 550 762 540 762C506 762 480 790 380 790Z" glyph-name="Ccircumflex" horiz-adv-x="700" unicode="&#264;" /><glyph d="M330 925C330 889 354 875 380 875C406 875 430 889 430 925C430 961 406 975 380 975C355 975 330 961 330 925ZM380 790C180 790 40 620 40 391C40 160 180 -10 380 -10C640 -10 688 248 690 260L670 270C668 260 630 40 390 40C230 40 124 180 124 391C124 601 221 760 391 760C550 760 610 640 640 570L660 580L600 790H596L567 771C557 765 550 762 540 762C506 762 480 790 380 790Z" glyph-name="Cdotaccent" horiz-adv-x="700" unicode="&#266;" /><glyph d="M380 0C610 0 760 160 760 391C760 620 620 780 370 780H20V750H80C140 750 168 730 168 690V90C168 51 140 30 80 30H20V0ZM232 690C232 730 260 750 320 750H350C590 750 676 601 676 391C676 170 570 30 370 30H320C260 30 232 50 232 90Z" glyph-name="D" horiz-adv-x="800" unicode="D" /><glyph d="M130 1010 298 820H302L470 1010L448 1030L300 862L152 1030ZM380 0C610 0 760 160 760 391C760 620 620 780 370 780H20V750H80C140 750 168 730 168 690V90C168 51 140 30 80 30H20V0ZM232 690C232 730 260 750 320 750H350C590 750 676 601 676 391C676 170 570 30 370 30H320C260 30 232 50 232 90Z" glyph-name="Dcaron" horiz-adv-x="800" unicode="&#270;" /><glyph d="M380 0C610 0 760 160 760 391C760 620 620 780 370 780H20V750H80C140 750 168 730 168 690V406H55V374H168V90C168 51 140 30 80 30H20V0ZM345 406H232V690C232 730 260 750 320 750H350C590 750 676 601 676 391C676 170 570 30 370 30H320C260 30 232 50 232 90V374H345Z" glyph-name="Dcroat" horiz-adv-x="800" unicode="&#272;" /><glyph d="M300 751 526 30H74ZM40 30V0H560V30L325 780H275Z" glyph-name="Delta.math" horiz-adv-x="600" /><glyph d="M390 380C459 380 490 334 490 254V220H514V570H490V536C490 456 459 410 390 410H232V690C232 730 260 750 320 750H430C580 750 618 630 630 590L650 600L600 780H20V750H80C140 750 168 730 168 690V90C168 51 140 30 80 30H20V0H630L680 180L660 190C648 150 610 30 460 30H320C260 30 232 50 232 90V380Z" glyph-name="E" horiz-adv-x="700" unicode="E" /><glyph d="M350 -10C600 -10 670 182 680 220L660 230C658 215 592 40 386 40C248 40 144 100 144 220C144 356 244 400 404 400H520V430H404C273 430 164 458 164 590C164 710 233 760 364 760C530 760 600 640 630 570L650 580L590 790H586L557 771C547 765 540 762 530 762C504 762 464 790 354 790C184 790 84 718 84 600C84 448 244 424 276 420V416C238 406 60 386 60 216C60 64 188 -10 350 -10Z" glyph-name="E.alt" horiz-adv-x="700" /><glyph d="M476 1010 454 1030 284 840 306 820ZM390 380C459 380 490 334 490 254V220H514V570H490V536C490 456 459 410 390 410H232V690C232 730 260 750 320 750H430C580 750 618 630 630 590L650 600L600 780H20V750H80C140 750 168 730 168 690V90C168 51 140 30 80 30H20V0H630L680 180L660 190C648 150 610 30 460 30H320C260 30 232 50 232 90V380Z" glyph-name="Eacute" horiz-adv-x="700" unicode="&#201;" /><glyph d="M250 985H220C224 943 250 865 350 865C450 865 476 943 480 985H450C446 960 430 895 350 895C270 895 254 960 250 985ZM390 380C459 380 490 334 490 254V220H514V570H490V536C490 456 459 410 390 410H232V690C232 730 260 750 320 750H430C580 750 618 630 630 590L650 600L600 780H20V750H80C140 750 168 730 168 690V90C168 51 140 30 80 30H20V0H630L680 180L660 190C648 150 610 30 460 30H320C260 30 232 50 232 90V380Z" glyph-name="Ebreve" horiz-adv-x="700" unicode="&#276;" /><glyph d="M180 1010 348 820H352L520 1010L498 1030L350 862L202 1030ZM390 380C459 380 490 334 490 254V220H514V570H490V536C490 456 459 410 390 410H232V690C232 730 260 750 320 750H430C580 750 618 630 630 590L650 600L600 780H20V750H80C140 750 168 730 168 690V90C168 51 140 30 80 30H20V0H630L680 180L660 190C648 150 610 30 460 30H320C260 30 232 50 232 90V380Z" glyph-name="Ecaron" horiz-adv-x="700" unicode="&#282;" /><glyph d="M180 840 202 820 350 988 498 820 520 840 352 1030H348ZM390 380C459 380 490 334 490 254V220H514V570H490V536C490 456 459 410 390 410H232V690C232 730 260 750 320 750H430C580 750 618 630 630 590L650 600L600 780H20V750H80C140 750 168 730 168 690V90C168 51 140 30 80 30H20V0H630L680 180L660 190C648 150 610 30 460 30H320C260 30 232 50 232 90V380Z" glyph-name="Ecircumflex" horiz-adv-x="700" unicode="&#202;" /><glyph d="M220 925C220 889 244 875 270 875C296 875 320 889 320 925C320 961 296 975 270 975C245 975 220 961 220 925ZM380 925C380 889 404 875 430 875C456 875 480 889 480 925C480 961 456 975 430 975C405 975 380 961 380 925ZM390 380C459 380 490 334 490 254V220H514V570H490V536C490 456 459 410 390 410H232V690C232 730 260 750 320 750H430C580 750 618 630 630 590L650 600L600 780H20V750H80C140 750 168 730 168 690V90C168 51 140 30 80 30H20V0H630L680 180L660 190C648 150 610 30 460 30H320C260 30 232 50 232 90V380Z" glyph-name="Edieresis" horiz-adv-x="700" unicode="&#203;" /><glyph d="M300 925C300 889 324 875 350 875C376 875 400 889 400 925C400 961 376 975 350 975C325 975 300 961 300 925ZM390 380C459 380 490 334 490 254V220H514V570H490V536C490 456 459 410 390 410H232V690C232 730 260 750 320 750H430C580 750 618 630 630 590L650 600L600 780H20V750H80C140 750 168 730 168 690V90C168 51 140 30 80 30H20V0H630L680 180L660 190C648 150 610 30 460 30H320C260 30 232 50 232 90V380Z" glyph-name="Edotaccent" horiz-adv-x="700" unicode="&#278;" /><glyph d="M234 1010 404 820 426 840 256 1030ZM390 380C459 380 490 334 490 254V220H514V570H490V536C490 456 459 410 390 410H232V690C232 730 260 750 320 750H430C580 750 618 630 630 590L650 600L600 780H20V750H80C140 750 168 730 168 690V90C168 51 140 30 80 30H20V0H630L680 180L660 190C648 150 610 30 460 30H320C260 30 232 50 232 90V380Z" glyph-name="Egrave" horiz-adv-x="700" unicode="&#200;" /><glyph d="M462 941H238V909H462ZM390 380C459 380 490 334 490 254V220H514V570H490V536C490 456 459 410 390 410H232V690C232 730 260 750 320 750H430C580 750 618 630 630 590L650 600L600 780H20V750H80C140 750 168 730 168 690V90C168 51 140 30 80 30H20V0H630L680 180L660 190C648 150 610 30 460 30H320C260 30 232 50 232 90V380Z" glyph-name="Emacron" horiz-adv-x="700" unicode="&#274;" /><glyph d="M452 -130C435 -130 412 -140 412 -170C412 -207 444 -230 492 -230C608 -230 672 -110 672 0V690C672 730 700 750 760 750H800V780H510V750H550C610 750 638 730 638 690V119L212 780H20V750H60C120 750 148 730 148 690V90C148 50 120 30 60 30H20V0H310V30H270C210 30 182 50 182 90V711L608 47V-6C608 -132 592 -180 552 -180C502 -180 504 -130 452 -130Z" glyph-name="Eng" horiz-adv-x="800" unicode="&#330;" /><glyph d="M390 380C459 380 490 334 490 254V220H514V570H490V536C490 456 459 410 390 410H232V690C232 730 260 750 320 750H430C580 750 618 630 630 590L650 600L600 780H20V750H80C140 750 168 730 168 690V90C168 51 140 30 80 30H20V0H546C514 -47 500 -75 500 -108C500 -140 520 -170 562 -170H630V-140H576C552 -140 534 -130 534 -104C534 -80 543 -52 576 0H630L680 180L660 190C648 150 610 30 460 30H320C260 30 232 50 232 90V380Z" glyph-name="Eogonek" horiz-adv-x="700" unicode="&#280;" /><glyph d="M380 0C610 0 760 160 760 391C760 620 620 780 370 780H20V750H80C140 750 168 730 168 690V500H40V470H168V90C168 51 140 30 80 30H20V0ZM232 690C232 730 260 750 320 750H350C590 750 676 601 676 391C676 170 570 30 370 30H320C260 30 232 50 232 90V470H360V500H232Z" glyph-name="Eth" horiz-adv-x="800" unicode="&#208;" /><glyph d="M20 280H78C103 108 192 -10 350 -10C564 -10 588 248 590 260L570 270C568 260 554 40 360 40C238 40 178 133 160 280H410V310H157C155 335 154 362 154 390C154 418 155 444 157 470H410V500H161C180 653 244 760 348 760C466 760 520 630 550 570L570 580L510 790H506L477 771C467 765 460 762 454 762C430 762 402 790 340 790C207 790 108 672 79 500H20V470H75C72 444 70 418 70 390C70 362 71 336 74 310H20Z" glyph-name="Euro" horiz-adv-x="600" unicode="&#8364;" /><glyph d="M20 280H78C103 108 192 -10 350 -10C564 -10 588 248 590 260L570 270C568 260 554 40 360 40C238 40 178 133 160 280H410V310H157C155 335 154 362 154 390C154 418 155 444 157 470H410V500H161C180 653 244 760 348 760C466 760 520 630 550 570L570 580L510 790H506L477 771C467 765 460 762 454 762C430 762 402 790 340 790C207 790 108 672 79 500H20V470H75C72 444 70 418 70 390C70 362 71 336 74 310H20Z" glyph-name="Euro.LP" horiz-adv-x="600" /><glyph d="M420 0V30H320C260 30 232 50 232 90V380H410C479 380 510 334 510 254V220H534V570H510V536C510 456 479 410 410 410H232V690C232 730 260 750 320 750H470C620 750 658 630 670 590L690 600L640 780H20V750H80C140 750 168 730 168 690V90C168 51 140 30 80 30H20V0Z" glyph-name="F" horiz-adv-x="700" unicode="F" /><glyph d="M380 760C527 760 580 640 610 570L630 580L570 790H566L537 771C527 765 520 762 510 762C476 762 458 790 370 790C180 790 40 619 40 390C40 159 165 -10 356 -10C465 -10 527 43 576 126L600 -10L620 0V386H280V356H560V300C560 180 546 20 366 20C216 20 124 179 124 390C124 600 220 760 380 760Z" glyph-name="G" horiz-adv-x="700" unicode="G" /><glyph d="M266 985H236C240 943 266 865 366 865C466 865 492 943 496 985H466C462 960 446 895 366 895C286 895 270 960 266 985ZM380 760C527 760 580 640 610 570L630 580L570 790H566L537 771C527 765 520 762 510 762C476 762 458 790 370 790C180 790 40 619 40 390C40 159 165 -10 356 -10C465 -10 527 43 576 126L600 -10L620 0V386H280V356H560V300C560 180 546 20 366 20C216 20 124 179 124 390C124 600 220 760 380 760Z" glyph-name="Gbreve" horiz-adv-x="700" unicode="&#286;" /><glyph d="M196 840 218 820 366 988 514 820 536 840 368 1030H364ZM380 760C527 760 580 640 610 570L630 580L570 790H566L537 771C527 765 520 762 510 762C476 762 458 790 370 790C180 790 40 619 40 390C40 159 165 -10 356 -10C465 -10 527 43 576 126L600 -10L620 0V386H280V356H560V300C560 180 546 20 366 20C216 20 124 179 124 390C124 600 220 760 380 760Z" glyph-name="Gcircumflex" horiz-adv-x="700" unicode="&#284;" /><glyph d="M380 760C527 760 580 640 610 570L630 580L570 790H566L537 771C527 765 520 762 510 762C476 762 458 790 370 790C180 790 40 619 40 390C40 159 165 -10 356 -10C465 -10 527 43 576 126L600 -10L620 0V386H280V356H560V300C560 180 546 20 366 20C216 20 124 179 124 390C124 600 220 760 380 760ZM246 -210 268 -230 396 -70 374 -50Z" glyph-name="Gcommaaccent" horiz-adv-x="700" unicode="&#290;" /><glyph d="M316 925C316 889 340 875 366 875C392 875 416 889 416 925C416 961 392 975 366 975C341 975 316 961 316 925ZM380 760C527 760 580 640 610 570L630 580L570 790H566L537 771C527 765 520 762 510 762C476 762 458 790 370 790C180 790 40 619 40 390C40 159 165 -10 356 -10C465 -10 527 43 576 126L600 -10L620 0V386H280V356H560V300C560 180 546 20 366 20C216 20 124 179 124 390C124 600 220 760 380 760Z" glyph-name="Gdotaccent" horiz-adv-x="700" unicode="&#288;" /><glyph d="M380 0V30H320C260 30 232 50 232 90V380H668V90C668 50 640 30 580 30H520V0H880V30H820C760 30 732 50 732 90V690C732 730 760 750 820 750H880V780H520V750H580C640 750 668 730 668 690V410H232V690C232 730 260 750 320 750H380V780H20V750H80C140 750 168 730 168 690V90C168 50 140 30 80 30H20V0Z" glyph-name="H" horiz-adv-x="900" unicode="H" /><glyph d="M380 0V30H320C260 30 232 50 232 90V380H668V90C668 50 640 30 580 30H520V0H880V30H820C760 30 732 50 732 90V570H825V600H732V690C732 730 760 750 820 750H880V780H520V750H580C640 750 668 730 668 690V600H232V690C232 730 260 750 320 750H380V780H20V750H80C140 750 168 730 168 690V600H75V570H168V90C168 50 140 30 80 30H20V0ZM232 410V570H668V410Z" glyph-name="Hbar" horiz-adv-x="900" unicode="&#294;" /><glyph d="M280 840 302 820 450 988 598 820 620 840 452 1030H448ZM380 0V30H320C260 30 232 50 232 90V380H668V90C668 50 640 30 580 30H520V0H880V30H820C760 30 732 50 732 90V690C732 730 760 750 820 750H880V780H520V750H580C640 750 668 730 668 690V410H232V690C232 730 260 750 320 750H380V780H20V750H80C140 750 168 730 168 690V90C168 50 140 30 80 30H20V0Z" glyph-name="Hcircumflex" horiz-adv-x="900" unicode="&#292;" /><glyph d="M380 0V30H320C260 30 232 50 232 90V690C232 730 260 750 320 750H380V780H20V750H80C140 750 168 730 168 690V90C168 50 140 30 80 30H20V0Z" glyph-name="I" horiz-adv-x="400" unicode="I" /><glyph d="M380 0V30H320C260 30 232 50 232 90V690C232 730 260 750 320 750H380V780H20V750H80C140 750 168 730 168 690V90C168 50 140 30 80 30H20V0ZM580 -10C710 -10 752 110 752 240V690C752 730 780 750 840 750H900V780H540V750H600C660 750 688 730 688 690V230C688 110 650 40 560 40C440 40 440 190 440 200L420 190C420 170 420 -10 580 -10Z" glyph-name="IJ" horiz-adv-x="900" unicode="&#306;" /><glyph d="M326 1010 304 1030 134 840 156 820ZM380 0V30H320C260 30 232 50 232 90V690C232 730 260 750 320 750H380V780H20V750H80C140 750 168 730 168 690V90C168 50 140 30 80 30H20V0Z" glyph-name="Iacute" horiz-adv-x="400" unicode="&#205;" /><glyph d="M100 985H70C74 943 100 865 200 865C300 865 326 943 330 985H300C296 960 280 895 200 895C120 895 104 960 100 985ZM380 0V30H320C260 30 232 50 232 90V690C232 730 260 750 320 750H380V780H20V750H80C140 750 168 730 168 690V90C168 50 140 30 80 30H20V0Z" glyph-name="Ibreve" horiz-adv-x="400" unicode="&#300;" /><glyph d="M30 840 52 820 200 988 348 820 370 840 202 1030H198ZM380 0V30H320C260 30 232 50 232 90V690C232 730 260 750 320 750H380V780H20V750H80C140 750 168 730 168 690V90C168 50 140 30 80 30H20V0Z" glyph-name="Icircumflex" horiz-adv-x="400" unicode="&#206;" /><glyph d="M70 925C70 889 94 875 120 875C146 875 170 889 170 925C170 961 146 975 120 975C95 975 70 961 70 925ZM230 925C230 889 254 875 280 875C306 875 330 889 330 925C330 961 306 975 280 975C255 975 230 961 230 925ZM380 0V30H320C260 30 232 50 232 90V690C232 730 260 750 320 750H380V780H20V750H80C140 750 168 730 168 690V90C168 50 140 30 80 30H20V0Z" glyph-name="Idieresis" horiz-adv-x="400" unicode="&#207;" /><glyph d="M150 925C150 889 174 875 200 875C226 875 250 889 250 925C250 961 226 975 200 975C175 975 150 961 150 925ZM380 0V30H320C260 30 232 50 232 90V690C232 730 260 750 320 750H380V780H20V750H80C140 750 168 730 168 690V90C168 50 140 30 80 30H20V0Z" glyph-name="Idotaccent" horiz-adv-x="400" unicode="&#304;" /><glyph d="M84 1010 254 820 276 840 106 1030ZM380 0V30H320C260 30 232 50 232 90V690C232 730 260 750 320 750H380V780H20V750H80C140 750 168 730 168 690V90C168 50 140 30 80 30H20V0Z" glyph-name="Igrave" horiz-adv-x="400" unicode="&#204;" /><glyph d="M312 941H88V909H312ZM380 0V30H320C260 30 232 50 232 90V690C232 730 260 750 320 750H380V780H20V750H80C140 750 168 730 168 690V90C168 50 140 30 80 30H20V0Z" glyph-name="Imacron" horiz-adv-x="400" unicode="&#298;" /><glyph d="M380 0V30H320C260 30 232 50 232 90V690C232 730 260 750 320 750H380V780H20V750H80C140 750 168 730 168 690V90C168 50 140 30 80 30H20V0H304C267 -43 250 -72 250 -108C250 -140 270 -170 312 -170H380V-140H326C302 -140 284 -130 284 -104C284 -78 295 -48 335 0Z" glyph-name="Iogonek" horiz-adv-x="400" unicode="&#302;" /><glyph d="M278 940C326 940 347 894 351 880H381C377 897 352 972 278 972C214 972 186 910 122 910C74 910 53 956 49 970H19C22 953 48 878 122 878C196 878 225 940 278 940ZM380 0V30H320C260 30 232 50 232 90V690C232 730 260 750 320 750H380V780H20V750H80C140 750 168 730 168 690V90C168 50 140 30 80 30H20V0Z" glyph-name="Itilde" horiz-adv-x="400" unicode="&#296;" /><glyph d="M180 -10C310 -10 352 110 352 240V690C352 730 380 750 440 750H500V780H140V750H200C260 750 288 730 288 690V230C288 110 250 40 160 40C40 40 40 190 40 200L20 190C20 170 20 -10 180 -10Z" glyph-name="J" horiz-adv-x="500" unicode="J" /><glyph d="M150 840 172 820 320 988 468 820 490 840 322 1030H318ZM180 -10C310 -10 352 110 352 240V690C352 730 380 750 440 750H500V780H140V750H200C260 750 288 730 288 690V230C288 110 250 40 160 40C40 40 40 190 40 200L20 190C20 170 20 -10 180 -10Z" glyph-name="Jcircumflex" horiz-adv-x="500" unicode="&#308;" /><glyph d="M380 0V30H320C260 30 232 50 232 90V322L350 440L580 90C586 81 590 74 590 64C590 36 551 30 520 30H480V0H800V30H766C730 30 686 42 661 80L395 485L590 680C633 724 664 750 726 750H760V780H480V750H520C554 750 564 740 564 725C564 710 557 698 540 680L232 363V690C232 730 260 750 320 750H380V780H20V750H80C140 750 168 730 168 690V90C168 50 140 30 80 30H20V0Z" glyph-name="K" horiz-adv-x="800" unicode="K" /><glyph d="M380 0V30H320C260 30 232 50 232 90V322L350 440L580 90C586 81 590 74 590 64C590 36 551 30 520 30H480V0H800V30H766C730 30 686 42 661 80L395 485L590 680C633 724 664 750 726 750H760V780H480V750H520C554 750 564 740 564 725C564 710 557 698 540 680L232 363V690C232 730 260 750 320 750H380V780H20V750H80C140 750 168 730 168 690V90C168 50 140 30 80 30H20V0ZM280 -210 302 -230 430 -70 408 -50Z" glyph-name="Kcommaaccent" horiz-adv-x="800" unicode="&#310;" /><glyph d="M640 0 690 180 670 190C658 150 620 30 470 30H320C260 30 232 50 232 90V690C232 730 260 750 320 750H400V780H20V750H80C140 750 168 730 168 690V90C168 51 140 30 80 30H20V0Z" glyph-name="L" horiz-adv-x="700" unicode="L" /><glyph d="M326 1010 304 1030 134 840 156 820ZM640 0 690 180 670 190C658 150 620 30 470 30H320C260 30 232 50 232 90V690C232 730 260 750 320 750H400V780H20V750H80C140 750 168 730 168 690V90C168 51 140 30 80 30H20V0Z" glyph-name="Lacute" horiz-adv-x="700" unicode="&#313;" /><glyph d="M482 782 452 790 396 588 426 580ZM640 0 690 180 670 190C658 150 620 30 470 30H320C260 30 232 50 232 90V690C232 730 260 750 320 750H400V780H20V750H80C140 750 168 730 168 690V90C168 51 140 30 80 30H20V0Z" glyph-name="Lcaron" horiz-adv-x="700" unicode="&#317;" /><glyph d="M640 0 690 180 670 190C658 150 620 30 470 30H320C260 30 232 50 232 90V690C232 730 260 750 320 750H400V780H20V750H80C140 750 168 730 168 690V90C168 51 140 30 80 30H20V0ZM230 -210 252 -230 380 -70 358 -50Z" glyph-name="Lcommaaccent" horiz-adv-x="700" unicode="&#315;" /><glyph d="M640 0 690 180 670 190C658 150 620 30 470 30H320C260 30 232 50 232 90V690C232 730 260 750 320 750H400V780H20V750H80C140 750 168 730 168 690V90C168 51 140 30 80 30H20V0ZM340 360C340 324 364 310 390 310C416 310 440 324 440 360C440 396 416 410 390 410C365 410 340 396 340 360Z" glyph-name="Ldot" horiz-adv-x="700" unicode="&#319;" /><glyph d="M323 504 301 524 232 447V690C232 730 260 750 320 750H400V780H20V750H80C140 750 168 730 168 690V376L77 275L99 255L168 332V90C168 51 140 30 80 30H20V0H640L690 180L670 190C658 150 620 30 470 30H320C260 30 232 50 232 90V403Z" glyph-name="Lslash" horiz-adv-x="700" unicode="&#321;" /><glyph d="M970 0V30H910C850 30 822 50 822 90V690C822 730 850 750 910 750H970V780H750L482 110L212 780H10V750H50C110 750 138 730 138 690V90C138 50 110 30 50 30H10V0H300V30H260C200 30 172 50 172 90V704L461 -10H465L758 703V90C758 50 730 30 670 30H610V0Z" glyph-name="M" horiz-adv-x="1000" unicode="M" /><glyph d="M638 690V119L212 780H20V750H60C120 750 148 730 148 690V90C148 50 120 30 60 30H20V0H310V30H270C210 30 182 50 182 90V711L638 0H672V690C672 730 700 750 760 750H800V780H510V750H550C610 750 638 730 638 690Z" glyph-name="N" horiz-adv-x="800" unicode="N" /><glyph d="M516 1010 494 1030 324 840 346 820ZM638 690V119L212 780H20V750H60C120 750 148 730 148 690V90C148 50 120 30 60 30H20V0H310V30H270C210 30 182 50 182 90V711L638 0H672V690C672 730 700 750 760 750H800V780H510V750H550C610 750 638 730 638 690Z" glyph-name="Nacute" horiz-adv-x="800" unicode="&#323;" /><glyph d="M220 1010 388 820H392L560 1010L538 1030L390 862L242 1030ZM638 690V119L212 780H20V750H60C120 750 148 730 148 690V90C148 50 120 30 60 30H20V0H310V30H270C210 30 182 50 182 90V711L638 0H672V690C672 730 700 750 760 750H800V780H510V750H550C610 750 638 730 638 690Z" glyph-name="Ncaron" horiz-adv-x="800" unicode="&#327;" /><glyph d="M638 690V119L212 780H20V750H60C120 750 148 730 148 690V90C148 50 120 30 60 30H20V0H310V30H270C210 30 182 50 182 90V711L638 0H672V690C672 730 700 750 760 750H800V780H510V750H550C610 750 638 730 638 690ZM310 -210 332 -230 460 -70 438 -50Z" glyph-name="Ncommaaccent" horiz-adv-x="800" unicode="&#325;" /><glyph d="M468 940C516 940 537 894 541 880H571C567 897 542 972 468 972C404 972 376 910 312 910C264 910 243 956 239 970H209C212 953 238 878 312 878C386 878 415 940 468 940ZM638 690V119L212 780H20V750H60C120 750 148 730 148 690V90C148 50 120 30 60 30H20V0H310V30H270C210 30 182 50 182 90V711L638 0H672V690C672 730 700 750 760 750H800V780H510V750H550C610 750 638 730 638 690Z" glyph-name="Ntilde" horiz-adv-x="800" unicode="&#209;" /><glyph d="M40 390C40 159 190 -10 400 -10C610 -10 760 159 760 390C760 619 610 790 400 790C190 790 40 619 40 390ZM124 400C124 610 230 760 410 760C580 760 676 590 676 380C676 159 569 20 390 20C220 20 124 189 124 400Z" glyph-name="O" horiz-adv-x="800" unicode="O" /><glyph d="M40 390C40 159 190 -10 400 -10C430 -10 459 -7 486 0H930L980 180L960 190C948 150 910 30 760 30H565C682 92 757 220 760 380H776C845 380 876 334 876 254V220H900V570H876V536C876 456 845 410 776 410H760C754 564 679 689 565 750H730C880 750 918 630 930 590L950 600L900 780H485C458 787 430 790 400 790C190 790 40 619 40 390ZM124 400C124 610 230 760 410 760C572 760 667 606 675 410H400V380H676C676 159 569 20 390 20C220 20 124 189 124 400Z" glyph-name="OE" horiz-adv-x="1000" unicode="&#338;" /><glyph d="M530 1010 508 1030 338 840 360 820ZM40 390C40 159 190 -10 400 -10C610 -10 760 159 760 390C760 619 610 790 400 790C190 790 40 619 40 390ZM124 400C124 610 230 760 410 760C580 760 676 590 676 380C676 159 569 20 390 20C220 20 124 189 124 400Z" glyph-name="Oacute" horiz-adv-x="800" unicode="&#211;" /><glyph d="M304 985H274C278 943 304 865 404 865C504 865 530 943 534 985H504C500 960 484 895 404 895C324 895 308 960 304 985ZM40 390C40 159 190 -10 400 -10C610 -10 760 159 760 390C760 619 610 790 400 790C190 790 40 619 40 390ZM124 400C124 610 230 760 410 760C580 760 676 590 676 380C676 159 569 20 390 20C220 20 124 189 124 400Z" glyph-name="Obreve" horiz-adv-x="800" unicode="&#334;" /><glyph d="M234 840 256 820 404 988 552 820 574 840 406 1030H402ZM40 390C40 159 190 -10 400 -10C610 -10 760 159 760 390C760 619 610 790 400 790C190 790 40 619 40 390ZM124 400C124 610 230 760 410 760C580 760 676 590 676 380C676 159 569 20 390 20C220 20 124 189 124 400Z" glyph-name="Ocircumflex" horiz-adv-x="800" unicode="&#212;" /><glyph d="M274 925C274 889 298 875 324 875C350 875 374 889 374 925C374 961 350 975 324 975C299 975 274 961 274 925ZM434 925C434 889 458 875 484 875C510 875 534 889 534 925C534 961 510 975 484 975C459 975 434 961 434 925ZM40 390C40 159 190 -10 400 -10C610 -10 760 159 760 390C760 619 610 790 400 790C190 790 40 619 40 390ZM124 400C124 610 230 760 410 760C580 760 676 590 676 380C676 159 569 20 390 20C220 20 124 189 124 400Z" glyph-name="Odieresis" horiz-adv-x="800" unicode="&#214;" /><glyph d="M288 1010 458 820 480 840 310 1030ZM40 390C40 159 190 -10 400 -10C610 -10 760 159 760 390C760 619 610 790 400 790C190 790 40 619 40 390ZM124 400C124 610 230 760 410 760C580 760 676 590 676 380C676 159 569 20 390 20C220 20 124 189 124 400Z" glyph-name="Ograve" horiz-adv-x="800" unicode="&#210;" /><glyph d="M456 1030 316 874 338 854 478 1010ZM576 1030 436 874 458 854 598 1010ZM40 390C40 159 190 -10 400 -10C610 -10 760 159 760 390C760 619 610 790 400 790C190 790 40 619 40 390ZM124 400C124 610 230 760 410 760C580 760 676 590 676 380C676 159 569 20 390 20C220 20 124 189 124 400Z" glyph-name="Ohungarumlaut" horiz-adv-x="800" unicode="&#336;" /><glyph d="M516 941H292V909H516ZM40 390C40 159 190 -10 400 -10C610 -10 760 159 760 390C760 619 610 790 400 790C190 790 40 619 40 390ZM124 400C124 610 230 760 410 760C580 760 676 590 676 380C676 159 569 20 390 20C220 20 124 189 124 400Z" glyph-name="Omacron" horiz-adv-x="800" unicode="&#332;" /><glyph d="M582 30H365C471 120 562 250 562 440C562 610 484 790 300 790C116 790 38 610 38 440C38 250 129 120 235 30H18V0H272V30C251 40 74 210 74 420C74 632 163 760 300 760C437 760 526 632 526 420C526 210 349 40 328 30V0H582Z" glyph-name="Omega.math" horiz-adv-x="600" /><glyph d="M40 390C40 232 110 103 221 38L154 -108L180 -120L247 24C292 2 344 -10 400 -10C610 -10 760 159 760 390C760 546 690 676 579 742L646 888L620 900L553 756C508 778 456 790 400 790C190 790 40 619 40 390ZM124 400C124 610 230 760 410 760C459 760 501 746 537 721L239 77C164 144 124 263 124 400ZM676 380C676 159 569 20 390 20C341 20 299 34 263 59L560 703C635 636 676 516 676 380Z" glyph-name="Oslash" horiz-adv-x="800" unicode="&#216;" /><glyph d="M526 1010 504 1030 334 840 356 820ZM40 390C40 232 110 103 221 38L154 -108L180 -120L247 24C292 2 344 -10 400 -10C610 -10 760 159 760 390C760 546 690 676 579 742L646 888L620 900L553 756C508 778 456 790 400 790C190 790 40 619 40 390ZM124 400C124 610 230 760 410 760C459 760 501 746 537 721L239 77C164 144 124 263 124 400ZM676 380C676 159 569 20 390 20C341 20 299 34 263 59L560 703C635 636 676 516 676 380Z" glyph-name="Oslashacute" horiz-adv-x="800" unicode="&#510;" /><glyph d="M482 940C530 940 551 894 555 880H585C581 897 556 972 482 972C418 972 390 910 326 910C278 910 257 956 253 970H223C226 953 252 878 326 878C400 878 429 940 482 940ZM40 390C40 159 190 -10 400 -10C610 -10 760 159 760 390C760 619 610 790 400 790C190 790 40 619 40 390ZM124 400C124 610 230 760 410 760C580 760 676 590 676 380C676 159 569 20 390 20C220 20 124 189 124 400Z" glyph-name="Otilde" horiz-adv-x="800" unicode="&#213;" /><glyph d="M400 0V30H320C260 30 232 50 232 90V362H386C547 362 680 420 680 570C680 720 556 780 366 780H20V750H80C140 750 168 730 168 690V90C168 50 140 30 80 30H20V0ZM596 570C596 430 486 392 356 392H232V690C232 730 260 750 320 750H356C496 750 596 701 596 570Z" glyph-name="P" horiz-adv-x="700" unicode="P" /><glyph d="M40 390C40 159 190 -10 400 -10C491 -10 570 22 631 76L738 -60L760 -40L653 97C720 168 760 271 760 390C760 619 610 790 400 790C190 790 40 619 40 390ZM124 380C124 590 230 760 410 760C580 760 676 610 676 400C676 300 654 213 613 147L470 330L448 310L596 121C547 57 477 20 390 20C220 20 124 169 124 380Z" glyph-name="Q" horiz-adv-x="800" unicode="Q" /><glyph d="M400 0V30H320C260 30 232 50 232 90V382H331L566 0H700V30H680C632 30 608 59 576 110L404 383C548 390 660 442 660 580C660 730 536 780 346 780H20V750H80C140 750 168 730 168 690V90C168 50 140 30 80 30H20V0ZM576 580C576 440 466 412 336 412H232V690C232 730 260 750 320 750H336C476 750 576 711 576 580Z" glyph-name="R" horiz-adv-x="700" unicode="R" /><glyph d="M476 1000 454 1020 284 830 306 810ZM400 0V30H320C260 30 232 50 232 90V382H331L566 0H700V30H680C632 30 608 59 576 110L404 383C548 390 660 442 660 580C660 730 536 780 346 780H20V750H80C140 750 168 730 168 690V90C168 50 140 30 80 30H20V0ZM576 580C576 440 466 412 336 412H232V690C232 730 260 750 320 750H336C476 750 576 711 576 580Z" glyph-name="Racute" horiz-adv-x="700" unicode="&#340;" /><glyph d="M180 1000 348 810H352L520 1000L498 1020L350 852L202 1020ZM400 0V30H320C260 30 232 50 232 90V382H331L566 0H700V30H680C632 30 608 59 576 110L404 383C548 390 660 442 660 580C660 730 536 780 346 780H20V750H80C140 750 168 730 168 690V90C168 50 140 30 80 30H20V0ZM576 580C576 440 466 412 336 412H232V690C232 730 260 750 320 750H336C476 750 576 711 576 580Z" glyph-name="Rcaron" horiz-adv-x="700" unicode="&#344;" /><glyph d="M400 0V30H320C260 30 232 50 232 90V382H331L566 0H700V30H680C632 30 608 59 576 110L404 383C548 390 660 442 660 580C660 730 536 780 346 780H20V750H80C140 750 168 730 168 690V90C168 50 140 30 80 30H20V0ZM576 580C576 440 466 412 336 412H232V690C232 730 260 750 320 750H336C476 750 576 711 576 580ZM230 -210 252 -230 380 -70 358 -50Z" glyph-name="Rcommaaccent" horiz-adv-x="700" unicode="&#342;" /><glyph d="M314 -10C454 -10 560 70 560 206C560 517 126 374 126 610C126 716 198 756 288 756C408 756 464 688 520 570L540 580L480 790H476L447 771C437 765 430 762 420 762C386 762 352 790 282 790C148 790 66 710 66 598C66 294 498 436 498 186C498 60 412 24 322 24C174 24 114 112 70 210L50 200L110 -10H114L143 9C153 15 160 18 170 18C204 18 234 -10 314 -10Z" glyph-name="S" horiz-adv-x="600" unicode="S" /><glyph d="M416 1010 394 1030 224 840 246 820ZM314 -10C454 -10 560 70 560 206C560 517 126 374 126 610C126 716 198 756 288 756C408 756 464 688 520 570L540 580L480 790H476L447 771C437 765 430 762 420 762C386 762 352 790 282 790C148 790 66 710 66 598C66 294 498 436 498 186C498 60 412 24 322 24C174 24 114 112 70 210L50 200L110 -10H114L143 9C153 15 160 18 170 18C204 18 234 -10 314 -10Z" glyph-name="Sacute" horiz-adv-x="600" unicode="&#346;" /><glyph d="M120 1010 288 820H292L460 1010L438 1030L290 862L142 1030ZM314 -10C454 -10 560 70 560 206C560 517 126 374 126 610C126 716 198 756 288 756C408 756 464 688 520 570L540 580L480 790H476L447 771C437 765 430 762 420 762C386 762 352 790 282 790C148 790 66 710 66 598C66 294 498 436 498 186C498 60 412 24 322 24C174 24 114 112 70 210L50 200L110 -10H114L143 9C153 15 160 18 170 18C204 18 234 -10 314 -10Z" glyph-name="Scaron" horiz-adv-x="600" unicode="&#352;" /><glyph d="M190 -140C190 -140 208 -210 290 -210C350 -210 390 -180 390 -130C390 -85 356 -64 322 -64C312 -64 302 -66 290 -70L344 -9C469 2 560 80 560 206C560 517 126 374 126 610C126 716 198 756 288 756C408 756 464 688 520 570L540 580L480 790H476L447 771C437 765 430 762 420 762C386 762 352 790 282 790C148 790 66 710 66 598C66 294 498 436 498 186C498 60 412 24 322 24C174 24 114 112 70 210L50 200L110 -10H114L143 9C153 15 160 18 170 18C204 18 234 -10 314 -10H315L260 -70L270 -90C276 -88 284 -86 296 -86C324 -86 354 -98 354 -134C354 -166 332 -182 290 -182C230 -182 210 -130 210 -130Z" glyph-name="Scedilla" horiz-adv-x="600" unicode="&#350;" /><glyph d="M40 390C40 159 190 -10 400 -10C610 -10 760 159 760 390C760 619 610 790 400 790C180 790 70 639 40 470H124C144 620 220 760 390 760C577 760 673 595 676 390ZM390 20C231 20 137 168 125 360H676C669 151 564 20 390 20Z" glyph-name="Schwa" horiz-adv-x="800" unicode="&#399;" /><glyph d="M120 840 142 820 290 988 438 820 460 840 292 1030H288ZM314 -10C454 -10 560 70 560 206C560 517 126 374 126 610C126 716 198 756 288 756C408 756 464 688 520 570L540 580L480 790H476L447 771C437 765 430 762 420 762C386 762 352 790 282 790C148 790 66 710 66 598C66 294 498 436 498 186C498 60 412 24 322 24C174 24 114 112 70 210L50 200L110 -10H114L143 9C153 15 160 18 170 18C204 18 234 -10 314 -10Z" glyph-name="Scircumflex" horiz-adv-x="600" unicode="&#348;" /><glyph d="M314 -10C454 -10 560 70 560 206C560 517 126 374 126 610C126 716 198 756 288 756C408 756 464 688 520 570L540 580L480 790H476L447 771C437 765 430 762 420 762C386 762 352 790 282 790C148 790 66 710 66 598C66 294 498 436 498 186C498 60 412 24 322 24C174 24 114 112 70 210L50 200L110 -10H114L143 9C153 15 160 18 170 18C204 18 234 -10 314 -10ZM200 -210 222 -230 350 -70 328 -50Z" glyph-name="Scommaaccent" horiz-adv-x="600" unicode="&#536;" /><glyph d="M580 0V30H520C460 30 432 50 432 90V690C432 730 460 750 520 750H550C700 750 738 630 750 590L770 600L720 780H80L30 600L50 590C62 630 100 750 250 750H280C340 750 368 730 368 690V90C368 51 340 30 280 30H220V0Z" glyph-name="T" horiz-adv-x="800" unicode="T" /><glyph d="M580 0V30H520C460 30 432 50 432 90V374H545V406H432V690C432 730 460 750 520 750H550C700 750 738 630 750 590L770 600L720 780H80L30 600L50 590C62 630 100 750 250 750H280C340 750 368 730 368 690V406H255V374H368V90C368 51 340 30 280 30H220V0Z" glyph-name="Tbar" horiz-adv-x="800" unicode="&#358;" /><glyph d="M230 1010 398 820H402L570 1010L548 1030L400 862L252 1030ZM580 0V30H520C460 30 432 50 432 90V690C432 730 460 750 520 750H550C700 750 738 630 750 590L770 600L720 780H80L30 600L50 590C62 630 100 750 250 750H280C340 750 368 730 368 690V90C368 51 340 30 280 30H220V0Z" glyph-name="Tcaron" horiz-adv-x="800" unicode="&#356;" /><glyph d="M580 0V30H520C460 30 432 50 432 90V690C432 730 460 750 520 750H550C700 750 738 630 750 590L770 600L720 780H80L30 600L50 590C62 630 100 750 250 750H280C340 750 368 730 368 690V90C368 51 340 30 280 30H220V0ZM280 -210 302 -230 430 -70 408 -50Z" glyph-name="Tcommaaccent" horiz-adv-x="800" unicode="&#538;" /><glyph d="M262 250H386C547 250 680 308 680 458C680 608 556 668 366 668H232V690C232 730 260 750 320 750H380V780H20V750H80C140 750 168 730 168 690V90C168 50 140 30 80 30H20V0H400V30H320C260 30 232 50 232 90V638H356C496 638 596 589 596 458C596 318 486 280 356 280H262Z" glyph-name="Thorn" horiz-adv-x="700" unicode="&#222;" /><glyph d="M410 -10C601 -10 662 110 662 230V690C662 730 694 750 752 750H800V780H492V750H540C600 750 628 730 628 690V230C628 130 601 30 420 30C270 30 222 110 222 240V690C222 730 250 750 310 750H370V780H10V750H70C130 750 158 730 158 690V240C158 90 230 -10 410 -10Z" glyph-name="U" horiz-adv-x="800" unicode="U" /><glyph d="M526 1010 504 1030 334 840 356 820ZM410 -10C601 -10 662 110 662 230V690C662 730 694 750 752 750H800V780H492V750H540C600 750 628 730 628 690V230C628 130 601 30 420 30C270 30 222 110 222 240V690C222 730 250 750 310 750H370V780H10V750H70C130 750 158 730 158 690V240C158 90 230 -10 410 -10Z" glyph-name="Uacute" horiz-adv-x="800" unicode="&#218;" /><glyph d="M300 985H270C274 943 300 865 400 865C500 865 526 943 530 985H500C496 960 480 895 400 895C320 895 304 960 300 985ZM410 -10C601 -10 662 110 662 230V690C662 730 694 750 752 750H800V780H492V750H540C600 750 628 730 628 690V230C628 130 601 30 420 30C270 30 222 110 222 240V690C222 730 250 750 310 750H370V780H10V750H70C130 750 158 730 158 690V240C158 90 230 -10 410 -10Z" glyph-name="Ubreve" horiz-adv-x="800" unicode="&#364;" /><glyph d="M230 840 252 820 400 988 548 820 570 840 402 1030H398ZM410 -10C601 -10 662 110 662 230V690C662 730 694 750 752 750H800V780H492V750H540C600 750 628 730 628 690V230C628 130 601 30 420 30C270 30 222 110 222 240V690C222 730 250 750 310 750H370V780H10V750H70C130 750 158 730 158 690V240C158 90 230 -10 410 -10Z" glyph-name="Ucircumflex" horiz-adv-x="800" unicode="&#219;" /><glyph d="M270 925C270 889 294 875 320 875C346 875 370 889 370 925C370 961 346 975 320 975C295 975 270 961 270 925ZM430 925C430 889 454 875 480 875C506 875 530 889 530 925C530 961 506 975 480 975C455 975 430 961 430 925ZM410 -10C601 -10 662 110 662 230V690C662 730 694 750 752 750H800V780H492V750H540C600 750 628 730 628 690V230C628 130 601 30 420 30C270 30 222 110 222 240V690C222 730 250 750 310 750H370V780H10V750H70C130 750 158 730 158 690V240C158 90 230 -10 410 -10Z" glyph-name="Udieresis" horiz-adv-x="800" unicode="&#220;" /><glyph d="M284 1010 454 820 476 840 306 1030ZM410 -10C601 -10 662 110 662 230V690C662 730 694 750 752 750H800V780H492V750H540C600 750 628 730 628 690V230C628 130 601 30 420 30C270 30 222 110 222 240V690C222 730 250 750 310 750H370V780H10V750H70C130 750 158 730 158 690V240C158 90 230 -10 410 -10Z" glyph-name="Ugrave" horiz-adv-x="800" unicode="&#217;" /><glyph d="M452 1030 312 874 334 854 474 1010ZM572 1030 432 874 454 854 594 1010ZM410 -10C601 -10 662 110 662 230V690C662 730 694 750 752 750H800V780H492V750H540C600 750 628 730 628 690V230C628 130 601 30 420 30C270 30 222 110 222 240V690C222 730 250 750 310 750H370V780H10V750H70C130 750 158 730 158 690V240C158 90 230 -10 410 -10Z" glyph-name="Uhungarumlaut" horiz-adv-x="800" unicode="&#368;" /><glyph d="M512 941H288V909H512ZM410 -10C601 -10 662 110 662 230V690C662 730 694 750 752 750H800V780H492V750H540C600 750 628 730 628 690V230C628 130 601 30 420 30C270 30 222 110 222 240V690C222 730 250 750 310 750H370V780H10V750H70C130 750 158 730 158 690V240C158 90 230 -10 410 -10Z" glyph-name="Umacron" horiz-adv-x="800" unicode="&#362;" /><glyph d="M410 -10C486 -10 541 9 580 39C547 -46 532 -74 532 -108C532 -140 552 -170 594 -170H662V-140H608C584 -140 566 -130 566 -104C566 -74 580 -40 634 105C654 142 662 186 662 230V690C662 730 694 750 752 750H800V780H492V750H540C600 750 628 730 628 690V230C628 130 601 30 420 30C270 30 222 110 222 240V690C222 730 250 750 310 750H370V780H10V750H70C130 750 158 730 158 690V240C158 90 230 -10 410 -10Z" glyph-name="Uogonek" horiz-adv-x="800" unicode="&#370;" /><glyph d="M501 926C501 987 457 1025 400 1025C344 1025 300 987 300 926C300 864 344 825 400 825C457 825 501 864 501 926ZM468 926C468 881 441 853 400 853C360 853 332 881 332 926C332 969 360 997 400 997C441 997 468 969 468 926ZM410 -10C601 -10 662 110 662 230V690C662 730 694 750 752 750H800V780H492V750H540C600 750 628 730 628 690V230C628 130 601 30 420 30C270 30 222 110 222 240V690C222 730 250 750 310 750H370V780H10V750H70C130 750 158 730 158 690V240C158 90 230 -10 410 -10Z" glyph-name="Uring" horiz-adv-x="800" unicode="&#366;" /><glyph d="M478 940C526 940 547 894 551 880H581C577 897 552 972 478 972C414 972 386 910 322 910C274 910 253 956 249 970H219C222 953 248 878 322 878C396 878 425 940 478 940ZM410 -10C601 -10 662 110 662 230V690C662 730 694 750 752 750H800V780H492V750H540C600 750 628 730 628 690V230C628 130 601 30 420 30C270 30 222 110 222 240V690C222 730 250 750 310 750H370V780H10V750H70C130 750 158 730 158 690V240C158 90 230 -10 410 -10Z" glyph-name="Utilde" horiz-adv-x="800" unicode="&#360;" /><glyph d="M500 780V750H540C588 750 615 738 615 710C615 702 614 692 610 680L420 119L219 690C217 696 216 702 216 708C216 738 251 750 300 750H340V780H20V750H54C90 750 125 739 140 700L404 -10H408L650 680C670 737 684 750 746 750H780V780Z" glyph-name="V" horiz-adv-x="800" unicode="V" /><glyph d="M732 780V750H782C830 750 855 738 855 710C855 702 853 692 850 680L698 131L537 690C535 696 534 702 534 708C534 738 569 750 618 750H660V780H370V750H374C410 750 448 739 460 700L479 640L338 131L177 690C175 696 174 702 174 708C174 738 209 750 258 750H300V780H-20V750H14C50 750 88 739 100 700L324 -10H328L499 575L684 -10H688L890 680C907 737 924 750 986 750H1020V780Z" glyph-name="W" horiz-adv-x="1000" unicode="W" /><glyph d="M626 1010 604 1030 434 840 456 820ZM732 780V750H782C830 750 855 738 855 710C855 702 853 692 850 680L698 131L537 690C535 696 534 702 534 708C534 738 569 750 618 750H660V780H370V750H374C410 750 448 739 460 700L479 640L338 131L177 690C175 696 174 702 174 708C174 738 209 750 258 750H300V780H-20V750H14C50 750 88 739 100 700L324 -10H328L499 575L684 -10H688L890 680C907 737 924 750 986 750H1020V780Z" glyph-name="Wacute" horiz-adv-x="1000" unicode="&#7810;" /><glyph d="M330 840 352 820 500 988 648 820 670 840 502 1030H498ZM732 780V750H782C830 750 855 738 855 710C855 702 853 692 850 680L698 131L537 690C535 696 534 702 534 708C534 738 569 750 618 750H660V780H370V750H374C410 750 448 739 460 700L479 640L338 131L177 690C175 696 174 702 174 708C174 738 209 750 258 750H300V780H-20V750H14C50 750 88 739 100 700L324 -10H328L499 575L684 -10H688L890 680C907 737 924 750 986 750H1020V780Z" glyph-name="Wcircumflex" horiz-adv-x="1000" unicode="&#372;" /><glyph d="M370 925C370 889 394 875 420 875C446 875 470 889 470 925C470 961 446 975 420 975C395 975 370 961 370 925ZM530 925C530 889 554 875 580 875C606 875 630 889 630 925C630 961 606 975 580 975C555 975 530 961 530 925ZM732 780V750H782C830 750 855 738 855 710C855 702 853 692 850 680L698 131L537 690C535 696 534 702 534 708C534 738 569 750 618 750H660V780H370V750H374C410 750 448 739 460 700L479 640L338 131L177 690C175 696 174 702 174 708C174 738 209 750 258 750H300V780H-20V750H14C50 750 88 739 100 700L324 -10H328L499 575L684 -10H688L890 680C907 737 924 750 986 750H1020V780Z" glyph-name="Wdieresis" horiz-adv-x="1000" unicode="&#7812;" /><glyph d="M384 1010 554 820 576 840 406 1030ZM732 780V750H782C830 750 855 738 855 710C855 702 853 692 850 680L698 131L537 690C535 696 534 702 534 708C534 738 569 750 618 750H660V780H370V750H374C410 750 448 739 460 700L479 640L338 131L177 690C175 696 174 702 174 708C174 738 209 750 258 750H300V780H-20V750H14C50 750 88 739 100 700L324 -10H328L499 575L684 -10H688L890 680C907 737 924 750 986 750H1020V780Z" glyph-name="Wgrave" horiz-adv-x="1000" unicode="&#7808;" /><glyph d="M200 100 385 367 561 90C566 82 568 76 568 68C568 42 545 30 496 30H460V0H780V30H736C700 30 662 44 640 79L422 421L601 680C635 730 654 750 716 750H750V780H470V750H510C550 750 570 738 570 710C570 702 567 689 561 680L403 451L250 690C246 697 244 702 244 710C244 738 271 750 320 750H360V780H40V750H74C110 750 150 737 172 702L366 397L160 100C126 50 108 30 54 30H20V0H300V30H258C210 30 188 42 188 68C188 78 193 90 200 100Z" glyph-name="X" horiz-adv-x="800" unicode="X" /><glyph d="M650 680C679 733 684 750 746 750H790V780H510V750H540C588 750 619 738 619 710C619 702 616 692 610 680L431 339L230 690C226 697 224 702 224 710C224 738 251 750 300 750H340V780H20V750H54C90 750 129 737 150 701L378 300V90C378 50 350 30 290 30H230V0H590V30H530C470 30 442 50 442 90V300Z" glyph-name="Y" horiz-adv-x="800" unicode="Y" /><glyph d="M536 1010 514 1030 344 840 366 820ZM650 680C679 733 684 750 746 750H790V780H510V750H540C588 750 619 738 619 710C619 702 616 692 610 680L431 339L230 690C226 697 224 702 224 710C224 738 251 750 300 750H340V780H20V750H54C90 750 129 737 150 701L378 300V90C378 50 350 30 290 30H230V0H590V30H530C470 30 442 50 442 90V300Z" glyph-name="Yacute" horiz-adv-x="800" unicode="&#221;" /><glyph d="M240 840 262 820 410 988 558 820 580 840 412 1030H408ZM650 680C679 733 684 750 746 750H790V780H510V750H540C588 750 619 738 619 710C619 702 616 692 610 680L431 339L230 690C226 697 224 702 224 710C224 738 251 750 300 750H340V780H20V750H54C90 750 129 737 150 701L378 300V90C378 50 350 30 290 30H230V0H590V30H530C470 30 442 50 442 90V300Z" glyph-name="Ycircumflex" horiz-adv-x="800" unicode="&#374;" /><glyph d="M280 925C280 889 304 875 330 875C356 875 380 889 380 925C380 961 356 975 330 975C305 975 280 961 280 925ZM440 925C440 889 464 875 490 875C516 875 540 889 540 925C540 961 516 975 490 975C465 975 440 961 440 925ZM650 680C679 733 684 750 746 750H790V780H510V750H540C588 750 619 738 619 710C619 702 616 692 610 680L431 339L230 690C226 697 224 702 224 710C224 738 251 750 300 750H340V780H20V750H54C90 750 129 737 150 701L378 300V90C378 50 350 30 290 30H230V0H590V30H530C470 30 442 50 442 90V300Z" glyph-name="Ydieresis" horiz-adv-x="800" unicode="&#376;" /><glyph d="M294 1010 464 820 486 840 316 1030ZM650 680C679 733 684 750 746 750H790V780H510V750H540C588 750 619 738 619 710C619 702 616 692 610 680L431 339L230 690C226 697 224 702 224 710C224 738 251 750 300 750H340V780H20V750H54C90 750 129 737 150 701L378 300V90C378 50 350 30 290 30H230V0H590V30H530C470 30 442 50 442 90V300Z" glyph-name="Ygrave" horiz-adv-x="800" unicode="&#7922;" /><glyph d="M540 0 590 180 570 190C558 150 520 30 370 30H108L588 776V780H100L50 600L70 590C82 630 120 750 270 750H496L12 4V0Z" glyph-name="Z" horiz-adv-x="600" unicode="Z" /><glyph d="M456 1010 434 1030 264 840 286 820ZM540 0 590 180 570 190C558 150 520 30 370 30H108L588 776V780H100L50 600L70 590C82 630 120 750 270 750H496L12 4V0Z" glyph-name="Zacute" horiz-adv-x="600" unicode="&#377;" /><glyph d="M160 1010 328 820H332L500 1010L478 1030L330 862L182 1030ZM540 0 590 180 570 190C558 150 520 30 370 30H108L588 776V780H100L50 600L70 590C82 630 120 750 270 750H496L12 4V0Z" glyph-name="Zcaron" horiz-adv-x="600" unicode="&#381;" /><glyph d="M280 925C280 889 304 875 330 875C356 875 380 889 380 925C380 961 356 975 330 975C305 975 280 961 280 925ZM540 0 590 180 570 190C558 150 520 30 370 30H108L588 776V780H100L50 600L70 590C82 630 120 750 270 750H496L12 4V0Z" glyph-name="Zdotaccent" horiz-adv-x="600" unicode="&#379;" /><glyph d="M50 391C50 169 229 -10 450 -10C671 -10 850 169 850 391C850 611 671 790 450 790C229 790 50 611 50 391ZM435 570C386 571 341 577 299 588C330 683 383 748 435 758ZM601 588C560 577 513 571 465 570V758C517 748 569 683 601 588ZM627 597C603 662 571 716 535 750C608 733 673 694 722 641C695 623 663 608 627 597ZM274 596C237 607 204 623 178 641C227 694 292 733 365 750C329 716 297 661 274 596ZM265 567C250 517 241 463 240 405H80C83 486 112 560 159 619C188 598 224 580 265 567ZM661 405C658 463 649 517 636 567C676 580 711 598 741 619C788 560 817 486 820 405ZM465 540C516 541 565 547 608 560C621 513 630 462 631 405H465ZM270 405C271 462 279 513 292 560C335 548 384 541 435 540V405ZM636 215C650 264 658 319 661 375H820C816 296 788 223 742 164C713 185 677 202 636 215ZM240 375C241 319 250 265 264 216C223 202 187 185 158 164C112 223 84 296 80 375ZM465 375H631C630 320 621 269 609 224C566 235 516 242 465 244ZM435 244C383 242 334 236 291 224C278 269 271 320 270 375H435ZM435 21C382 32 329 98 298 195C340 206 386 212 435 214ZM465 214C513 212 560 206 601 195C570 98 517 32 465 21ZM272 189C295 121 328 65 365 30C291 48 225 88 176 142C203 161 235 176 272 189ZM628 188C664 176 697 160 724 142C674 87 609 47 535 30C572 65 605 121 628 188Z" glyph-name="_0196" horiz-adv-x="900" /><glyph d="M500 -10C550 -10 579 40 600 100L580 110C577 100 564 40 520 40C490 40 480 70 480 100V361C480 480 380 510 280 510C160 510 70 436 70 380C70 350 93 340 112 340C160 340 163 378 168 414C173 451 180 485 275 485C365 485 420 440 420 361C420 305 357 292 266 281C140 266 40 245 40 120C40 35 105 -10 205 -10C323 -10 379 69 416 134H420V90C420 30 450 -10 500 -10ZM420 240C420 190 375 30 230 30C166 30 120 55 120 130C120 215 185 238 275 255C327 265 382 278 420 295Z" glyph-name="a" horiz-adv-x="600" unicode="a" /><glyph d="M420 90C420 31 450 -10 500 -10C550 -10 579 40 600 100L580 110C576 92 564 40 520 40C490 40 480 70 480 100V240H476L421 212C410 158 357 30 230 30C166 30 120 56 120 130C120 224 200 244 300 260C402 276 498 300 498 390C498 486 380 510 290 510C154 510 70 436 70 380C70 350 93 340 112 340C160 340 163 377 168 413C173 450 180 485 275 485C365 485 430 455 430 380C430 326 394 299 330 292C210 279 40 276 40 120C40 30 113 -10 204 -10C324 -10 379 69 416 134H420Z" glyph-name="a.alt" horiz-adv-x="600" /><glyph d="M412 770 390 790 220 600 242 580ZM500 -10C550 -10 579 40 600 100L580 110C577 100 564 40 520 40C490 40 480 70 480 100V361C480 480 380 510 280 510C160 510 70 436 70 380C70 350 93 340 112 340C160 340 163 378 168 414C173 451 180 485 275 485C365 485 420 440 420 361C420 305 357 292 266 281C140 266 40 245 40 120C40 35 105 -10 205 -10C323 -10 379 69 416 134H420V90C420 30 450 -10 500 -10ZM420 240C420 190 375 30 230 30C166 30 120 55 120 130C120 215 185 238 275 255C327 265 382 278 420 295Z" glyph-name="aacute" horiz-adv-x="600" unicode="&#225;" /><glyph d="M186 745H156C160 703 186 625 286 625C386 625 412 703 416 745H386C382 720 366 655 286 655C206 655 190 720 186 745ZM500 -10C550 -10 579 40 600 100L580 110C577 100 564 40 520 40C490 40 480 70 480 100V361C480 480 380 510 280 510C160 510 70 436 70 380C70 350 93 340 112 340C160 340 163 378 168 414C173 451 180 485 275 485C365 485 420 440 420 361C420 305 357 292 266 281C140 266 40 245 40 120C40 35 105 -10 205 -10C323 -10 379 69 416 134H420V90C420 30 450 -10 500 -10ZM420 240C420 190 375 30 230 30C166 30 120 55 120 130C120 215 185 238 275 255C327 265 382 278 420 295Z" glyph-name="abreve" horiz-adv-x="600" unicode="&#259;" /><glyph d="M116 600 138 580 286 748 434 580 456 600 288 790H284ZM500 -10C550 -10 579 40 600 100L580 110C577 100 564 40 520 40C490 40 480 70 480 100V361C480 480 380 510 280 510C160 510 70 436 70 380C70 350 93 340 112 340C160 340 163 378 168 414C173 451 180 485 275 485C365 485 420 440 420 361C420 305 357 292 266 281C140 266 40 245 40 120C40 35 105 -10 205 -10C323 -10 379 69 416 134H420V90C420 30 450 -10 500 -10ZM420 240C420 190 375 30 230 30C166 30 120 55 120 130C120 215 185 238 275 255C327 265 382 278 420 295Z" glyph-name="acircumflex" horiz-adv-x="600" unicode="&#226;" /><glyph d="M376 770 354 790 184 600 206 580Z" glyph-name="acute" horiz-adv-x="500" unicode="&#180;" /><glyph d="M376 1010 354 1030 184 840 206 820Z" glyph-name="acute.cap" horiz-adv-x="500" /><glyph d="M156 685C156 649 180 635 206 635C232 635 256 649 256 685C256 721 232 735 206 735C181 735 156 721 156 685ZM316 685C316 649 340 635 366 635C392 635 416 649 416 685C416 721 392 735 366 735C341 735 316 721 316 685ZM500 -10C550 -10 579 40 600 100L580 110C577 100 564 40 520 40C490 40 480 70 480 100V361C480 480 380 510 280 510C160 510 70 436 70 380C70 350 93 340 112 340C160 340 163 378 168 414C173 451 180 485 275 485C365 485 420 440 420 361C420 305 357 292 266 281C140 266 40 245 40 120C40 35 105 -10 205 -10C323 -10 379 69 416 134H420V90C420 30 450 -10 500 -10ZM420 240C420 190 375 30 230 30C166 30 120 55 120 130C120 215 185 238 275 255C327 265 382 278 420 295Z" glyph-name="adieresis" horiz-adv-x="600" unicode="&#228;" /><glyph d="M840 284C840 400 782 510 640 510C575 510 512 478 470 418C443 490 362 510 280 510C160 510 70 436 70 380C70 350 93 340 110 340C160 340 161 377 168 413C175 450 195 485 275 485C365 485 420 440 420 361C420 305 357 292 266 281C140 266 40 245 40 120C40 35 105 -10 205 -10C323 -10 380 71 427 156H431C457 58 531 -10 638 -10C804 -10 848 170 850 180L830 190C828 178 794 40 660 40C552 40 500 131 500 250C500 260 500 270 501 280H836ZM652 480C760 480 760 356 760 310H504C520 416 576 480 652 480ZM420 240C420 190 375 30 230 30C166 30 120 55 120 130C120 215 185 238 275 255C327 265 382 278 420 295Z" glyph-name="ae" horiz-adv-x="900" unicode="&#230;" /><glyph d="M616 770 594 790 424 600 446 580ZM840 284C840 400 782 510 640 510C575 510 512 478 470 418C443 490 362 510 280 510C160 510 70 436 70 380C70 350 93 340 110 340C160 340 161 377 168 413C175 450 195 485 275 485C365 485 420 440 420 361C420 305 357 292 266 281C140 266 40 245 40 120C40 35 105 -10 205 -10C323 -10 380 71 427 156H431C457 58 531 -10 638 -10C804 -10 848 170 850 180L830 190C828 178 794 40 660 40C552 40 500 131 500 250C500 260 500 270 501 280H836ZM652 480C760 480 760 356 760 310H504C520 416 576 480 652 480ZM420 240C420 190 375 30 230 30C166 30 120 55 120 130C120 215 185 238 275 255C327 265 382 278 420 295Z" glyph-name="aeacute" horiz-adv-x="900" unicode="&#509;" /><glyph d="M170 770 340 580 362 600 192 790ZM500 -10C550 -10 579 40 600 100L580 110C577 100 564 40 520 40C490 40 480 70 480 100V361C480 480 380 510 280 510C160 510 70 436 70 380C70 350 93 340 112 340C160 340 163 378 168 414C173 451 180 485 275 485C365 485 420 440 420 361C420 305 357 292 266 281C140 266 40 245 40 120C40 35 105 -10 205 -10C323 -10 379 69 416 134H420V90C420 30 450 -10 500 -10ZM420 240C420 190 375 30 230 30C166 30 120 55 120 130C120 215 185 238 275 255C327 265 382 278 420 295Z" glyph-name="agrave" horiz-adv-x="600" unicode="&#224;" /><glyph d="M398 701H174V669H398ZM500 -10C550 -10 579 40 600 100L580 110C577 100 564 40 520 40C490 40 480 70 480 100V361C480 480 380 510 280 510C160 510 70 436 70 380C70 350 93 340 112 340C160 340 163 378 168 414C173 451 180 485 275 485C365 485 420 440 420 361C420 305 357 292 266 281C140 266 40 245 40 120C40 35 105 -10 205 -10C323 -10 379 69 416 134H420V90C420 30 450 -10 500 -10ZM420 240C420 190 375 30 230 30C166 30 120 55 120 130C120 215 185 238 275 255C327 265 382 278 420 295Z" glyph-name="amacron" horiz-adv-x="600" unicode="&#257;" /><glyph d="M394 305 483 350C491 354 501 356 510 356C553 356 620 308 620 210C620 144 578 40 372 40C234 40 130 100 130 220C130 356 230 400 390 400H416V430H390C259 430 150 468 150 602C150 700 209 760 320 760C476 760 530 640 560 570L580 580L520 790H516L487 771C477 765 470 762 460 762C434 762 404 790 310 790C160 790 70 718 70 604C70 462 202 432 242 422V418C214 412 46 386 46 216C46 64 174 -10 356 -10C586 -10 650 112 650 210C650 289 602 346 533 375L693 455L680 480L380 330Z" glyph-name="ampersand" horiz-adv-x="700" unicode="&amp;" /><glyph d="M500 -10C503 -10 507 -10 510 -9C482 -51 470 -77 470 -108C470 -140 490 -170 532 -170H600V-140H546C522 -140 504 -130 504 -104C504 -76 516 -45 562 24C566 29 570 35 574 41C574 42 575 42 575 43C585 60 593 79 600 100L580 110C577 100 564 40 520 40C490 40 480 70 480 100V361C480 480 380 510 280 510C160 510 70 436 70 380C70 350 93 340 112 340C160 340 163 378 168 414C173 451 180 485 275 485C365 485 420 440 420 361C420 305 357 292 266 281C140 266 40 245 40 120C40 35 105 -10 205 -10C323 -10 379 69 416 134H420V90C420 30 450 -10 500 -10ZM420 240C420 190 375 30 230 30C166 30 120 55 120 130C120 215 185 238 275 255C327 265 382 278 420 295Z" glyph-name="aogonek" horiz-adv-x="600" unicode="&#261;" /><glyph d="M50 416V386C62 374 98 346 160 346C266 346 335 426 432 426C494 426 536 396 550 386V416C538 428 502 456 440 456C334 456 266 376 168 376C106 376 64 406 50 416ZM50 215V185C62 173 98 145 160 145C266 145 335 225 432 225C494 225 536 195 550 185V215C538 227 502 255 440 255C334 255 266 175 168 175C106 175 64 205 50 215Z" glyph-name="approxequal" horiz-adv-x="600" unicode="&#8776;" /><glyph d="M387 685C387 746 343 784 286 784C230 784 186 746 186 685C186 623 230 584 286 584C343 584 387 623 387 685ZM354 685C354 640 327 612 286 612C246 612 218 640 218 685C218 728 246 756 286 756C327 756 354 728 354 685ZM500 -10C550 -10 579 40 600 100L580 110C577 100 564 40 520 40C490 40 480 70 480 100V361C480 480 380 510 280 510C160 510 70 436 70 380C70 350 93 340 112 340C160 340 163 378 168 414C173 451 180 485 275 485C365 485 420 440 420 361C420 305 357 292 266 281C140 266 40 245 40 120C40 35 105 -10 205 -10C323 -10 379 69 416 134H420V90C420 30 450 -10 500 -10ZM420 240C420 190 375 30 230 30C166 30 120 55 120 130C120 215 185 238 275 255C327 265 382 278 420 295Z" glyph-name="aring" horiz-adv-x="600" unicode="&#229;" /><glyph d="M387 685C387 746 343 784 286 784C283 784 281 784 279 784L404 924L382 944L215 757C197 740 186 716 186 685C186 623 230 584 286 584C343 584 387 623 387 685ZM354 685C354 640 327 612 286 612C246 612 218 640 218 685C218 728 246 756 286 756C327 756 354 728 354 685ZM500 -10C550 -10 579 40 600 100L580 110C577 100 564 40 520 40C490 40 480 70 480 100V361C480 480 380 510 280 510C160 510 70 436 70 380C70 350 93 340 112 340C160 340 163 378 168 414C173 451 180 485 275 485C365 485 420 440 420 361C420 305 357 292 266 281C140 266 40 245 40 120C40 35 105 -10 205 -10C323 -10 379 69 416 134H420V90C420 30 450 -10 500 -10ZM420 240C420 190 375 30 230 30C166 30 120 55 120 130C120 215 185 238 275 255C327 265 382 278 420 295Z" glyph-name="aringacute" horiz-adv-x="600" unicode="&#507;" /><glyph d="M60 180 40 160 260 -60 480 160 460 180 275 -7V660H245V-7Z" glyph-name="arrowdown" horiz-adv-x="520" unicode="&#8595;" /><glyph d="M67 346H40V35H352V62H88L560 534L539 555L67 83Z" glyph-name="arrowdownleft" horiz-adv-x="580" /><glyph d="M513 346V83L41 555L20 534L492 62H228V35H540V346Z" glyph-name="arrowdownright" horiz-adv-x="580" /><glyph d="M280 100 93 285H760V315H93L280 500L260 520L40 300L260 80Z" glyph-name="arrowleft" horiz-adv-x="800" unicode="&#8592;" /><glyph d="M520 100 540 80 760 300 540 520 520 500 707 315H40V285H707Z" glyph-name="arrowright" horiz-adv-x="800" unicode="&#8594;" /><glyph d="M60 420 245 607V-60H275V607L460 420L480 440L260 660L40 440Z" glyph-name="arrowup" horiz-adv-x="520" unicode="&#8593;" /><glyph d="M67 244V507L539 35L560 56L88 528H352V555H40V244Z" glyph-name="arrowupleft" horiz-adv-x="580" /><glyph d="M513 244H540V555H228V528H492L20 56L41 35L513 507Z" glyph-name="arrowupright" horiz-adv-x="580" /><glyph d="M436 70H470L250 530L30 70H64L250 465Z" glyph-name="asciicircum" horiz-adv-x="500" unicode="^" /><glyph d="M50 315V285C62 273 98 245 160 245C266 245 335 325 432 325C494 325 536 295 550 285V315C538 327 502 355 440 355C334 355 266 275 168 275C106 275 64 305 50 315Z" glyph-name="asciitilde" horiz-adv-x="600" unicode="~" /><glyph d="M40 629H174L107 513L133 498L200 614L267 498L293 513L226 629H360V659H226L293 775L267 790L200 674L133 790L107 775L174 659H40Z" glyph-name="asterisk" horiz-adv-x="400" unicode="*" /><glyph d="M680 0C760 0 850 100 850 250C850 471 671 650 450 650C229 650 50 471 50 250C50 29 232 -150 450 -150V-120C248 -120 84 46 84 250C84 454 246 620 450 620C654 620 816 454 816 250C816 140 770 30 670 30C606 30 583 52 582 88C582 101 585 115 590 130L665 342C671 358 676 378 676 394C676 464 612 510 490 510C370 510 280 436 280 380C280 350 304 340 320 340C370 340 371 376 378 413C385 451 406 485 490 485C574 485 616 440 616 400C616 331 570 298 452 285C314 270 220 234 220 120C220 40 280 -10 360 -10C468 -10 524 90 543 128H547C543 118 536 100 536 68C536 22 573 0 600 0ZM451 258C518 269 577 277 604 314L588 281C567 237 520 50 390 50C330 50 290 80 290 140C290 220 338 240 451 258Z" glyph-name="at" horiz-adv-x="900" unicode="@" /><glyph d="M364 700C412 700 433 654 437 640H467C463 657 438 732 364 732C300 732 272 670 208 670C160 670 139 716 135 730H105C108 713 134 638 208 638C282 638 311 700 364 700ZM500 -10C550 -10 579 40 600 100L580 110C577 100 564 40 520 40C490 40 480 70 480 100V361C480 480 380 510 280 510C160 510 70 436 70 380C70 350 93 340 112 340C160 340 163 378 168 414C173 451 180 485 275 485C365 485 420 440 420 361C420 305 357 292 266 281C140 266 40 245 40 120C40 35 105 -10 205 -10C323 -10 379 69 416 134H420V90C420 30 450 -10 500 -10ZM420 240C420 190 375 30 230 30C166 30 120 55 120 130C120 215 185 238 275 255C327 265 382 278 420 295Z" glyph-name="atilde" horiz-adv-x="600" unicode="&#227;" /><glyph d="M314 -10C430 -10 540 90 540 250C540 410 448 510 328 510C234 510 180 434 164 408H160V786L156 790L0 720L10 690C33 700 50 708 64 708C95 708 100 677 100 620V0H136V110H140C159 68 198 -10 314 -10ZM160 292C160 396 228 470 313 470C408 470 460 380 460 250C460 120 390 30 295 30C206 30 168 100 160 138Z" glyph-name="b" horiz-adv-x="600" unicode="b" /><glyph d="M470 -230 496 -218 30 790 4 778Z" glyph-name="backslash" horiz-adv-x="500" unicode="\" /><glyph d="M85 -220H115V780H85Z" glyph-name="bar" horiz-adv-x="200" unicode="|" /><glyph d="M350 126C496 126 616 245 616 390C616 535 496 654 350 654C204 654 84 535 84 390C84 245 204 126 350 126Z" glyph-name="blackcircle" horiz-adv-x="700" /><glyph d="M350 700 40 390 350 80 660 390Z" glyph-name="blackdiamond" horiz-adv-x="700" /><glyph d="M638 640H62L350 140Z" glyph-name="blackdownpointingtriangle" horiz-adv-x="700" /><glyph d="M580 678 80 390 580 102Z" glyph-name="blackleftpointingtriangle" horiz-adv-x="700" /><glyph d="M120 678V102L620 390Z" glyph-name="blackrightpointingtriangle" horiz-adv-x="700" /><glyph d="M120 620V160H580V620Z" glyph-name="blacksquare" horiz-adv-x="700" /><glyph d="M120 678V102L620 390Z" glyph-name="blacktriangle" horiz-adv-x="700" /><glyph d="M638 140 350 640 62 140Z" glyph-name="blackuppointingtriangle" horiz-adv-x="700" /><glyph d="M182 119C182 38 122 4 122 -88C122 -206 212 -250 300 -250L310 -230C240 -230 158 -186 158 -98C158 -7 222 38 222 119C222 207 155 240 120 248V252C155 260 222 293 222 381C222 462 158 507 158 598C158 686 240 730 310 730L300 750C212 750 122 706 122 588C122 496 182 462 182 381C182 312 126 270 40 260V240C126 230 182 188 182 119Z" glyph-name="braceleft" horiz-adv-x="400" unicode="{" /><glyph d="M182 259C182 178 122 144 122 52C122 -66 212 -110 300 -110L310 -90C240 -90 158 -46 158 42C158 133 222 178 222 259C222 347 155 380 120 388V392C155 400 222 433 222 521C222 602 158 647 158 738C158 826 240 870 310 870L300 890C212 890 122 846 122 728C122 636 182 602 182 521C182 452 126 410 40 400V380C126 370 182 328 182 259Z" glyph-name="braceleft.cap" horiz-adv-x="400" /><glyph d="M178 119C178 38 242 -7 242 -98C242 -186 160 -230 90 -230L100 -250C188 -250 278 -206 278 -88C278 4 218 38 218 119C218 188 274 230 360 240V260C274 270 218 312 218 381C218 462 278 496 278 588C278 706 188 750 100 750L90 730C160 730 242 686 242 598C242 507 178 462 178 381C178 293 245 260 280 252V248C245 240 178 207 178 119Z" glyph-name="braceright" horiz-adv-x="400" unicode="}" /><glyph d="M178 259C178 178 242 133 242 42C242 -46 160 -90 90 -90L100 -110C188 -110 278 -66 278 52C278 144 218 178 218 259C218 328 274 370 360 380V400C274 410 218 452 218 521C218 602 278 636 278 728C278 846 188 890 100 890L90 870C160 870 242 826 242 738C242 647 178 602 178 521C178 433 245 400 280 392V388C245 380 178 347 178 259Z" glyph-name="braceright.cap" horiz-adv-x="400" /><glyph d="M80 -250H330V-220H112V720H330V750H80Z" glyph-name="bracketleft" horiz-adv-x="400" unicode="[" /><glyph d="M80 -110H330V-80H112V860H330V890H80Z" glyph-name="bracketleft.cap" horiz-adv-x="400" /><glyph d="M320 750H70V720H288V-220H70V-250H320Z" glyph-name="bracketright" horiz-adv-x="400" unicode="]" /><glyph d="M320 890H70V860H288V-80H70V-110H320Z" glyph-name="bracketright.cap" horiz-adv-x="400" /><glyph d="M150 745H120C124 703 150 625 250 625C350 625 376 703 380 745H350C346 720 330 655 250 655C170 655 154 720 150 745Z" glyph-name="breve" horiz-adv-x="500" unicode="&#728;" /><glyph d="M150 985H120C124 943 150 865 250 865C350 865 376 943 380 985H350C346 960 330 895 250 895C170 895 154 960 150 985Z" glyph-name="breve.cap" horiz-adv-x="500" /><glyph d="M85 780V390H115V780ZM85 170V-220H115V170Z" glyph-name="brokenbar" horiz-adv-x="200" unicode="&#166;" /><glyph d="M60 300C60 221 121 160 200 160C280 160 340 221 340 300C340 380 280 440 200 440C121 440 60 380 60 300Z" glyph-name="bullet" horiz-adv-x="400" unicode="&#8226;" /><glyph d="M260 510C146 510 40 412 40 240C40 100 122 -10 258 -10C424 -10 468 170 470 180L450 190C448 178 414 40 281 40C172 40 120 131 120 250C120 391 175 485 270 485C330 485 347 450 355 410C363 372 352 320 410 320C428 320 450 330 450 361C450 416 400 510 260 510Z" glyph-name="c" horiz-adv-x="500" unicode="c" /><glyph d="M376 770 354 790 184 600 206 580ZM260 510C146 510 40 412 40 240C40 100 122 -10 258 -10C424 -10 468 170 470 180L450 190C448 178 414 40 281 40C172 40 120 131 120 250C120 391 175 485 270 485C330 485 347 450 355 410C363 372 352 320 410 320C428 320 450 330 450 361C450 416 400 510 260 510Z" glyph-name="cacute" horiz-adv-x="500" unicode="&#263;" /><glyph d="M80 770 248 580H252L420 770L398 790L250 622L102 790Z" glyph-name="caron" horiz-adv-x="500" unicode="&#711;" /><glyph d="M80 1010 248 820H252L420 1010L398 1030L250 862L102 1030Z" glyph-name="caron.cap" horiz-adv-x="500" /><glyph d="M300 782 270 790 214 588 244 580Z" glyph-name="caronSlovak" horiz-adv-x="500" /><glyph d="M80 770 248 580H252L420 770L398 790L250 622L102 790ZM260 510C146 510 40 412 40 240C40 100 122 -10 258 -10C424 -10 468 170 470 180L450 190C448 178 414 40 281 40C172 40 120 131 120 250C120 391 175 485 270 485C330 485 347 450 355 410C363 372 352 320 410 320C428 320 450 330 450 361C450 416 400 510 260 510Z" glyph-name="ccaron" horiz-adv-x="500" unicode="&#269;" /><glyph d="M140 -140C142 -150 158 -210 240 -210C300 -210 340 -180 340 -130C340 -85 306 -64 272 -64C262 -64 251 -66 240 -70L296 -7C431 18 468 171 470 180L450 190C448 178 414 40 281 40C172 40 120 131 120 250C120 391 175 485 270 485C330 485 347 450 355 410C363 372 352 320 410 320C428 320 450 330 450 361C450 416 400 510 260 510C146 510 40 412 40 240C40 100 122 -10 258 -10H265L210 -70L220 -90C226 -88 234 -86 246 -86C274 -86 304 -98 304 -134C304 -166 282 -182 240 -182C180 -182 164 -140 160 -130Z" glyph-name="ccedilla" horiz-adv-x="500" unicode="&#231;" /><glyph d="M80 600 102 580 250 748 398 580 420 600 252 790H248ZM260 510C146 510 40 412 40 240C40 100 122 -10 258 -10C424 -10 468 170 470 180L450 190C448 178 414 40 281 40C172 40 120 131 120 250C120 391 175 485 270 485C330 485 347 450 355 410C363 372 352 320 410 320C428 320 450 330 450 361C450 416 400 510 260 510Z" glyph-name="ccircumflex" horiz-adv-x="500" unicode="&#265;" /><glyph d="M200 685C200 649 224 635 250 635C276 635 300 649 300 685C300 721 276 735 250 735C225 735 200 721 200 685ZM260 510C146 510 40 412 40 240C40 100 122 -10 258 -10C424 -10 468 170 470 180L450 190C448 178 414 40 281 40C172 40 120 131 120 250C120 391 175 485 270 485C330 485 347 450 355 410C363 372 352 320 410 320C428 320 450 330 450 361C450 416 400 510 260 510Z" glyph-name="cdotaccent" horiz-adv-x="500" unicode="&#267;" /><glyph d="M140 -140C142 -150 158 -210 240 -210C300 -210 340 -180 340 -130C340 -85 306 -64 272 -64C262 -64 251 -66 240 -70L320 20L310 40L210 -70L220 -90C226 -88 234 -86 246 -86C274 -86 304 -98 304 -134C304 -166 282 -182 240 -182C180 -182 164 -140 160 -130Z" glyph-name="cedilla" horiz-adv-x="500" unicode="&#184;" /><glyph d="M305 650C191 650 85 552 85 380C85 309 106 245 145 200L4 6L26 -10L164 180C200 149 247 130 303 130C469 130 513 310 515 320L495 330C493 318 459 180 326 180C273 180 233 202 206 238L405 511C408 484 416 460 455 460C473 460 495 470 495 501C495 526 485 559 460 587L596 774L574 790L441 607C411 632 367 650 305 650ZM165 390C165 531 220 625 315 625C375 625 392 590 400 551L191 263C174 298 165 342 165 390Z" glyph-name="cent" horiz-adv-x="600" unicode="&#162;" /><glyph d="M305 650C191 650 85 552 85 380C85 309 106 245 145 200L4 6L26 -10L164 180C200 149 247 130 303 130C469 130 513 310 515 320L495 330C493 318 459 180 326 180C273 180 233 202 206 238L405 511C408 484 416 460 455 460C473 460 495 470 495 501C495 526 485 559 460 587L596 774L574 790L441 607C411 632 367 650 305 650ZM165 390C165 531 220 625 315 625C375 625 392 590 400 551L191 263C174 298 165 342 165 390Z" glyph-name="cent.LP" horiz-adv-x="600" /><glyph d="M50 391C50 169 229 -10 450 -10C671 -10 850 169 850 391C850 611 671 790 450 790C229 790 50 611 50 391ZM84 391C84 595 246 760 450 760C654 760 816 595 816 391C816 187 654 20 450 20C246 20 84 187 84 391ZM593 288C593 360 547 390 497 412C536 429 571 462 571 514C571 578 516 610 448 610C374 610 322 569 322 505C322 448 356 421 397 400C352 382 307 348 307 283C307 206 373 170 443 170C527 170 593 212 593 288ZM373 514C373 555 401 582 450 582C500 582 538 562 538 506C538 456 512 430 479 419C426 442 373 459 373 514ZM340 288C340 349 374 380 415 392C475 366 542 348 542 280C542 219 496 197 445 197C390 197 340 221 340 288Z" glyph-name="circleddigiteight" horiz-adv-x="900" /><glyph d="M50 391C50 169 229 -10 450 -10C671 -10 850 169 850 391C850 611 671 790 450 790C229 790 50 611 50 391ZM84 391C84 595 246 760 450 760C654 760 816 595 816 391C816 187 654 20 450 20C246 20 84 187 84 391ZM445 426C512 426 536 382 536 316C536 244 501 200 436 200C339 200 325 301 324 310L307 299C310 278 328 173 445 173C535 173 593 232 593 316C593 422 516 453 456 453C409 453 379 433 362 417V530C362 563 373 569 401 569H461C544 569 559 519 566 497L582 508L555 607H335V386H362C370 400 396 426 445 426Z" glyph-name="circleddigitfive" horiz-adv-x="900" /><glyph d="M50 391C50 169 229 -10 450 -10C671 -10 850 169 850 391C850 611 671 790 450 790C229 790 50 611 50 391ZM84 391C84 595 246 760 450 760C654 760 816 595 816 391C816 187 654 20 450 20C246 20 84 187 84 391ZM438 504C439 504 440 502 440 497V326H305L431 497C435 503 436 504 438 504ZM271 299H440V244C440 222 431 211 398 211H354V183H574V211H530C497 211 487 222 487 244V299H585V326H487V618H484L271 326Z" glyph-name="circleddigitfour" horiz-adv-x="900" /><glyph d="M50 391C50 169 229 -10 450 -10C671 -10 850 169 850 391C850 611 671 790 450 790C229 790 50 611 50 391ZM84 391C84 595 246 760 450 760C654 760 816 595 816 391C816 187 654 20 450 20C246 20 84 187 84 391ZM428 197C362 197 335 258 329 291L313 280C317 259 341 170 436 170C538 170 593 274 593 395C593 533 533 610 445 610C368 610 307 549 307 467C307 379 368 324 439 324C486 324 517 347 536 379C532 261 503 197 428 197ZM452 351C399 351 364 395 364 467C364 544 392 582 442 582C500 582 530 531 530 456C530 392 506 351 452 351Z" glyph-name="circleddigitnine" horiz-adv-x="900" /><glyph d="M50 391C50 169 229 -10 450 -10C671 -10 850 169 850 391C850 611 671 790 450 790C229 790 50 611 50 391ZM84 391C84 595 246 760 450 760C654 760 816 595 816 391C816 187 654 20 450 20C246 20 84 187 84 391ZM427 234C427 212 418 201 385 201H324V173H577V201H517C484 201 474 212 474 234V608H446V587C446 553 436 536 396 536H330V509H427Z" glyph-name="circleddigitone" horiz-adv-x="900" /><glyph d="M50 391C50 169 229 -10 450 -10C671 -10 850 169 850 391C850 611 671 790 450 790C229 790 50 611 50 391ZM84 391C84 595 246 760 450 760C654 760 816 595 816 391C816 187 654 20 450 20C246 20 84 187 84 391ZM449 228C449 426 584 593 595 605V607H331L304 508L320 497C327 519 342 569 425 569H504C516 569 521 563 521 555C521 504 397 332 397 199C397 177 410 173 419 173C447 173 449 193 449 228Z" glyph-name="circleddigitseven" horiz-adv-x="899" /><glyph d="M50 391C50 169 229 -10 450 -10C671 -10 850 169 850 391C850 611 671 790 450 790C229 790 50 611 50 391ZM84 391C84 595 246 760 450 760C654 760 816 595 816 391C816 187 654 20 450 20C246 20 84 187 84 391ZM464 582C510 582 533 564 533 526C533 504 537 483 563 483C573 483 585 489 585 505C585 536 545 610 462 610C360 610 299 505 299 384C299 247 360 170 448 170C525 170 585 230 585 313C585 401 525 456 453 456C406 456 375 431 356 398C360 511 395 582 464 582ZM440 428C493 428 528 384 528 313C528 236 500 197 450 197C393 197 362 248 362 324C362 387 386 428 440 428Z" glyph-name="circleddigitsix" horiz-adv-x="900" /><glyph d="M50 391C50 169 229 -10 450 -10C671 -10 850 169 850 391C850 611 671 790 450 790C229 790 50 611 50 391ZM84 391C84 595 246 760 450 760C654 760 816 595 816 391C816 187 654 20 450 20C246 20 84 187 84 391ZM574 170C668 170 717 263 717 390C717 516 668 610 574 610C481 610 431 516 431 390C431 263 481 170 574 170ZM291 234C291 212 282 201 249 201H188V173H441V201H381C348 201 338 212 338 234V608H310V587C310 553 300 536 260 536H194V509H291ZM569 197C508 197 488 280 488 395C488 511 514 582 580 582C640 582 660 500 660 384C660 263 635 197 569 197Z" glyph-name="circleddigitten" horiz-adv-x="900" /><glyph d="M50 391C50 169 229 -10 450 -10C671 -10 850 169 850 391C850 611 671 790 450 790C229 790 50 611 50 391ZM84 391C84 595 246 760 450 760C654 760 816 595 816 391C816 187 654 20 450 20C246 20 84 187 84 391ZM593 294C593 382 511 403 490 407V409C497 409 579 428 579 511C579 560 541 610 458 610C366 610 326 536 326 505C326 489 340 483 348 483C376 483 378 504 378 526C378 564 399 582 447 582C500 582 524 549 524 500C524 450 491 417 431 417H398V391H431C497 391 535 365 535 296C535 241 506 197 435 197C338 197 324 298 323 307L307 296C310 275 323 170 444 170C534 170 593 227 593 294Z" glyph-name="circleddigitthree" horiz-adv-x="900" /><glyph d="M50 391C50 169 229 -10 450 -10C671 -10 850 169 850 391C850 611 671 790 450 790C229 790 50 611 50 391ZM84 391C84 595 246 760 450 760C654 760 816 595 816 391C816 187 654 20 450 20C246 20 84 187 84 391ZM563 173 590 272 574 283C567 261 552 212 469 212H377C368 212 363 214 363 219C363 224 367 228 371 234C447 329 576 366 576 487C576 559 530 608 447 608C355 608 315 534 315 503C315 487 328 481 337 481C365 481 367 502 367 524C367 562 392 580 436 580C491 580 519 553 519 487C519 362 379 307 310 190V173Z" glyph-name="circleddigittwo" horiz-adv-x="899" /><glyph d="M50 391C50 169 229 -10 450 -10C671 -10 850 169 850 391C850 611 671 790 450 790C229 790 50 611 50 391ZM84 391C84 595 246 760 450 760C654 760 816 595 816 391C816 187 654 20 450 20C246 20 84 187 84 391ZM450 170C544 170 593 263 593 390C593 516 544 610 450 610C357 610 307 516 307 390C307 263 357 170 450 170ZM445 197C384 197 364 280 364 395C364 511 390 582 456 582C516 582 536 500 536 384C536 263 511 197 445 197Z" glyph-name="circleddigitzero" horiz-adv-x="900" /><glyph d="M80 600 102 580 250 748 398 580 420 600 252 790H248Z" glyph-name="circumflex" horiz-adv-x="500" unicode="&#710;" /><glyph d="M80 840 102 820 250 988 398 820 420 840 252 1030H248Z" glyph-name="circumflex.cap" horiz-adv-x="500" /><glyph d="M90 450C90 410 121 390 150 390C180 390 210 410 210 450C210 490 180 510 150 510C121 510 90 490 90 450ZM90 50C90 10 121 -10 150 -10C180 -10 210 10 210 50C210 90 180 110 150 110C121 110 90 90 90 50Z" glyph-name="colon" horiz-adv-x="300" unicode=":" /><glyph d="M90 50C90 14 114 -2 136 -2C150 -2 157 2 162 6H166L54 -166L80 -182L200 14C207 25 210 35 210 50C210 90 180 110 150 110C121 110 90 90 90 50Z" glyph-name="comma" horiz-adv-x="300" unicode="," /><glyph d="M130 -210 152 -230 280 -70 258 -50Z" glyph-name="commaaccent" horiz-adv-x="500" unicode="&#63171;" /><glyph d="M192 630 214 610 342 770 320 790Z" glyph-name="commaaccent.alt" horiz-adv-x="500" /><glyph d="M50 391C50 169 230 -10 450 -10C670 -10 850 169 850 391C850 611 670 790 450 790C230 790 50 611 50 391ZM84 391C84 595 246 760 450 760C654 760 816 595 816 391C816 187 654 20 450 20C246 20 84 187 84 391ZM452 650C316 650 210 536 210 390C210 244 304 128 446 128C636 128 678 324 680 332L664 341C662 334 616 156 456 156C342 156 266 256 266 390C266 524 344 622 460 622C574 622 620 526 641 480L657 491L608 635H604C595 624 590 616 580 616C558 616 538 650 452 650Z" glyph-name="copyright" horiz-adv-x="900" unicode="&#169;" /><glyph d="M142 120 203 181C229 158 264 145 301 145C338 145 372 158 399 180L459 120L481 142L420 202C443 228 456 263 456 300C456 338 443 372 420 399L481 458L459 480L399 420C372 442 338 455 301 455C264 455 229 442 202 420L141 481L119 459L181 397C159 371 146 337 146 300C146 263 159 229 181 203L120 142ZM178 300C178 370 231 427 301 427C371 427 424 370 424 300C424 231 371 173 301 173C231 173 178 231 178 300Z" glyph-name="currency" horiz-adv-x="600" unicode="&#164;" /><glyph d="M420 425H416C400 450 352 510 260 510C144 510 40 410 40 250C40 90 144 -10 256 -10C344 -10 398 42 428 109H432L412 -2L416 -6L580 24V54C568 52 544 46 526 46C498 46 480 60 480 100V786L476 790L320 720L330 690C353 700 370 708 384 708C415 708 420 677 420 620ZM420 302V158C412 110 360 30 275 30C180 30 120 120 120 250C120 380 180 470 275 470C360 470 420 408 420 302Z" glyph-name="d" horiz-adv-x="600" unicode="d" /><glyph d="M91 470 190 475 185 370V-10L190 -110H210L215 -10V370L210 475L310 470H380V500H310L210 496L215 601V680L210 780H190L185 680V601L190 496L90 500H20V470Z" glyph-name="dagger" horiz-adv-x="400" unicode="&#8224;" /><glyph d="M185 300 190 195 91 200H20V170H90L190 175L185 70V-10L190 -110H210L215 -10V70L210 175L310 170H380V200H310L210 195L215 300V370L210 475L310 470H380V500H310L210 496L215 601V680L210 780H190L185 680V601L190 496L90 500H20V470H91L190 475L185 370Z" glyph-name="daggerdbl" horiz-adv-x="400" unicode="&#8225;" /><glyph d="M420 425H416C400 450 352 510 260 510C144 510 40 410 40 250C40 90 144 -10 256 -10C344 -10 398 42 428 109H432L412 -2L416 -6L580 24V54C568 52 544 46 526 46C498 46 480 60 480 100V786L476 790L320 720L330 690C353 700 370 708 384 708C415 708 420 677 420 620ZM590 782 560 790 504 588 534 580ZM420 302V158C412 110 360 30 275 30C180 30 120 120 120 250C120 380 180 470 275 470C360 470 420 408 420 302Z" glyph-name="dcaron" horiz-adv-x="600" unicode="&#271;" /><glyph d="M420 425H416C400 450 352 510 260 510C144 510 40 410 40 250C40 90 144 -10 256 -10C344 -10 398 42 428 109H432L412 -2L416 -6L580 24V54C568 52 544 46 526 46C498 46 480 60 480 100V570H580V602H480V786L476 790L320 720L330 690C353 700 370 708 384 708C415 708 420 677 420 620V602H290V570H420ZM420 302V158C412 110 360 30 275 30C180 30 120 120 120 250C120 380 180 470 275 470C360 470 420 408 420 302Z" glyph-name="dcroat" horiz-adv-x="600" unicode="&#273;" /><glyph d="M65 655C65 580 125 520 200 520C275 520 335 580 335 655C335 731 275 790 200 790C125 790 65 731 65 655ZM97 655C97 715 140 762 200 762C260 762 303 715 303 655C303 596 260 548 200 548C140 548 97 596 97 655Z" glyph-name="degree" horiz-adv-x="400" unicode="&#176;" /><glyph d="M120 685C120 649 144 635 170 635C196 635 220 649 220 685C220 721 196 735 170 735C145 735 120 721 120 685ZM280 685C280 649 304 635 330 635C356 635 380 649 380 685C380 721 356 735 330 735C305 735 280 721 280 685Z" glyph-name="dieresis" horiz-adv-x="500" unicode="&#168;" /><glyph d="M120 925C120 889 144 875 170 875C196 875 220 889 220 925C220 961 196 975 170 975C145 975 120 961 120 925ZM280 925C280 889 304 875 330 875C356 875 380 889 380 925C380 961 356 975 330 975C305 975 280 961 280 925Z" glyph-name="dieresis.cap" horiz-adv-x="500" /><glyph d="M240 465C240 425 272 405 300 405C330 405 360 425 360 465C360 505 330 525 300 525C271 525 240 505 240 465ZM60 285H540V315H60ZM240 135C240 95 272 75 300 75C330 75 360 95 360 135C360 175 330 195 300 195C271 195 240 175 240 135Z" glyph-name="divide" horiz-adv-x="600" unicode="&#247;" /><glyph d="M285 -110H315V-10C454 -10 560 70 560 206C560 375 432 410 315 444V755C417 745 468 679 520 570L540 580L480 790H476L447 771C437 765 430 762 420 762C392 762 364 781 315 788V890H285V790H282C148 790 66 710 66 598C66 445 176 405 285 371V26C164 40 110 121 70 210L50 200L110 -10H114L143 9C153 15 160 18 170 18C200 18 226 -3 285 -9ZM126 610C126 715 196 755 285 756V453C199 480 126 513 126 610ZM498 186C498 60 412 24 322 24C320 24 317 24 315 24V361C411 331 498 298 498 186Z" glyph-name="dollar" horiz-adv-x="600" unicode="$" /><glyph d="M285 -110H315V-10C454 -10 560 70 560 206C560 375 432 410 315 444V755C417 745 468 679 520 570L540 580L480 790H476L447 771C437 765 430 762 420 762C392 762 364 781 315 788V890H285V790H282C148 790 66 710 66 598C66 445 176 405 285 371V26C164 40 110 121 70 210L50 200L110 -10H114L143 9C153 15 160 18 170 18C200 18 226 -3 285 -9ZM126 610C126 715 196 755 285 756V453C199 480 126 513 126 610ZM498 186C498 60 412 24 322 24C320 24 317 24 315 24V361C411 331 498 298 498 186Z" glyph-name="dollar.LP" horiz-adv-x="600" /><glyph d="M200 685C200 649 224 635 250 635C276 635 300 649 300 685C300 721 276 735 250 735C225 735 200 721 200 685Z" glyph-name="dotaccent" horiz-adv-x="500" unicode="&#729;" /><glyph d="M200 925C200 889 224 875 250 875C276 875 300 889 300 925C300 961 276 975 250 975C225 975 200 961 200 925Z" glyph-name="dotaccent.cap" horiz-adv-x="500" /><glyph d="M280 0V30H246C210 30 180 46 180 90V506L176 510L20 440L30 410C53 420 70 428 84 428C115 428 120 397 120 340V90C120 46 90 30 54 30H20V0Z" glyph-name="dotlessi" horiz-adv-x="300" unicode="&#305;" /><glyph d="M130 340V-16C130 -140 110 -180 70 -180C20 -180 22 -130 -30 -130C-47 -130 -70 -140 -70 -170C-70 -207 -38 -230 10 -230C126 -230 190 -100 190 0V506L186 510L30 440L40 410C63 420 80 428 94 428C125 428 130 397 130 340Z" glyph-name="dotlessj" horiz-adv-x="300" unicode="&#567;" /><glyph d="M460 284C460 400 402 510 260 510C146 510 40 412 40 240C40 100 122 -10 258 -10C424 -10 468 170 470 180L450 190C448 178 414 40 280 40C172 40 120 131 120 250C120 260 120 270 121 280H456ZM272 480C380 480 380 356 380 310H124C140 416 196 480 272 480Z" glyph-name="e" horiz-adv-x="500" unicode="e" /><glyph d="M396 770 374 790 204 600 226 580ZM460 284C460 400 402 510 260 510C146 510 40 412 40 240C40 100 122 -10 258 -10C424 -10 468 170 470 180L450 190C448 178 414 40 280 40C172 40 120 131 120 250C120 260 120 270 121 280H456ZM272 480C380 480 380 356 380 310H124C140 416 196 480 272 480Z" glyph-name="eacute" horiz-adv-x="500" unicode="&#233;" /><glyph d="M170 745H140C144 703 170 625 270 625C370 625 396 703 400 745H370C366 720 350 655 270 655C190 655 174 720 170 745ZM460 284C460 400 402 510 260 510C146 510 40 412 40 240C40 100 122 -10 258 -10C424 -10 468 170 470 180L450 190C448 178 414 40 280 40C172 40 120 131 120 250C120 260 120 270 121 280H456ZM272 480C380 480 380 356 380 310H124C140 416 196 480 272 480Z" glyph-name="ebreve" horiz-adv-x="500" unicode="&#277;" /><glyph d="M100 770 268 580H272L440 770L418 790L270 622L122 790ZM460 284C460 400 402 510 260 510C146 510 40 412 40 240C40 100 122 -10 258 -10C424 -10 468 170 470 180L450 190C448 178 414 40 280 40C172 40 120 131 120 250C120 260 120 270 121 280H456ZM272 480C380 480 380 356 380 310H124C140 416 196 480 272 480Z" glyph-name="ecaron" horiz-adv-x="500" unicode="&#283;" /><glyph d="M100 600 122 580 270 748 418 580 440 600 272 790H268ZM460 284C460 400 402 510 260 510C146 510 40 412 40 240C40 100 122 -10 258 -10C424 -10 468 170 470 180L450 190C448 178 414 40 280 40C172 40 120 131 120 250C120 260 120 270 121 280H456ZM272 480C380 480 380 356 380 310H124C140 416 196 480 272 480Z" glyph-name="ecircumflex" horiz-adv-x="500" unicode="&#234;" /><glyph d="M140 685C140 649 164 635 190 635C216 635 240 649 240 685C240 721 216 735 190 735C165 735 140 721 140 685ZM300 685C300 649 324 635 350 635C376 635 400 649 400 685C400 721 376 735 350 735C325 735 300 721 300 685ZM460 284C460 400 402 510 260 510C146 510 40 412 40 240C40 100 122 -10 258 -10C424 -10 468 170 470 180L450 190C448 178 414 40 280 40C172 40 120 131 120 250C120 260 120 270 121 280H456ZM272 480C380 480 380 356 380 310H124C140 416 196 480 272 480Z" glyph-name="edieresis" horiz-adv-x="500" unicode="&#235;" /><glyph d="M220 685C220 649 244 635 270 635C296 635 320 649 320 685C320 721 296 735 270 735C245 735 220 721 220 685ZM460 284C460 400 402 510 260 510C146 510 40 412 40 240C40 100 122 -10 258 -10C424 -10 468 170 470 180L450 190C448 178 414 40 280 40C172 40 120 131 120 250C120 260 120 270 121 280H456ZM272 480C380 480 380 356 380 310H124C140 416 196 480 272 480Z" glyph-name="edotaccent" horiz-adv-x="500" unicode="&#279;" /><glyph d="M154 770 324 580 346 600 176 790ZM460 284C460 400 402 510 260 510C146 510 40 412 40 240C40 100 122 -10 258 -10C424 -10 468 170 470 180L450 190C448 178 414 40 280 40C172 40 120 131 120 250C120 260 120 270 121 280H456ZM272 480C380 480 380 356 380 310H124C140 416 196 480 272 480Z" glyph-name="egrave" horiz-adv-x="500" unicode="&#232;" /><glyph d="M560 205C560 334 472 384 376 422C458 450 520 523 520 601C520 731 420 790 290 790C162 790 68 716 68 600C68 493 136 444 217 409C127 382 40 309 40 196C40 56 160 -10 300 -10C440 -10 560 70 560 205ZM132 620C132 716 202 760 290 760C390 760 470 710 470 601C470 505 413 452 347 433C240 473 132 505 132 620ZM90 206C90 312 165 376 247 397C364 352 496 323 496 190C496 60 391 20 300 20C190 20 90 76 90 206Z" glyph-name="eight" horiz-adv-x="600" unicode="8" /><glyph d="M560 205C560 334 472 384 376 422C458 450 520 523 520 601C520 731 420 790 290 790C162 790 68 716 68 600C68 493 136 444 217 409C127 382 40 309 40 196C40 56 160 -10 300 -10C440 -10 560 70 560 205ZM132 620C132 716 202 760 290 760C390 760 470 710 470 601C470 505 413 452 347 433C240 473 132 505 132 620ZM90 206C90 312 165 376 247 397C364 352 496 323 496 190C496 60 391 20 300 20C190 20 90 76 90 206Z" glyph-name="eight.LP" horiz-adv-x="600" /><glyph d="M343 468C343 540 297 570 247 592C286 609 321 642 321 694C321 758 266 790 198 790C124 790 72 749 72 685C72 628 106 601 147 580C102 562 57 528 57 463C57 386 123 350 193 350C277 350 343 392 343 468ZM123 694C123 735 151 762 200 762C250 762 288 742 288 686C288 636 262 610 229 599C176 622 123 639 123 694ZM90 468C90 529 124 560 165 572C225 546 292 528 292 460C292 399 246 377 195 377C140 377 90 401 90 468Z" glyph-name="eightsuperior" horiz-adv-x="400" unicode="&#8312;" /><glyph d="M510 50C510 10 541 -10 570 -10C600 -10 630 10 630 50C630 90 600 110 570 110C541 110 510 90 510 50ZM90 50C90 10 121 -10 150 -10C180 -10 210 10 210 50C210 90 180 110 150 110C121 110 90 90 90 50ZM300 50C300 10 331 -10 360 -10C390 -10 420 10 420 50C420 90 390 110 360 110C331 110 300 90 300 50Z" glyph-name="ellipsis" horiz-adv-x="700" unicode="&#8230;" /><glyph d="M382 701H158V669H382ZM460 284C460 400 402 510 260 510C146 510 40 412 40 240C40 100 122 -10 258 -10C424 -10 468 170 470 180L450 190C448 178 414 40 280 40C172 40 120 131 120 250C120 260 120 270 121 280H456ZM272 480C380 480 380 356 380 310H124C140 416 196 480 272 480Z" glyph-name="emacron" horiz-adv-x="500" unicode="&#275;" /><glyph d="M780 235V265H20V235Z" glyph-name="emdash" horiz-adv-x="800" unicode="&#8212;" /><glyph d="M780 375V405H20V375Z" glyph-name="emdash.cap" horiz-adv-x="800" /><glyph d="M20 235H580V265H20Z" glyph-name="endash" horiz-adv-x="600" unicode="&#8211;" /><glyph d="M20 375H580V405H20Z" glyph-name="endash.cap" horiz-adv-x="600" /><glyph d="M310 -230C426 -230 490 -100 490 0V392C490 462 448 510 374 510C296 510 228 450 174 366H170L214 506L210 510L20 440L30 410C56 420 70 424 84 424C116 424 120 396 120 340V90C120 46 90 30 54 30H20V0H280V30H246C210 30 180 46 180 90V280C180 365 248 450 334 450C394 450 430 421 430 340V-16C430 -140 410 -180 370 -180C320 -180 322 -130 270 -130C253 -130 230 -140 230 -170C230 -207 262 -230 310 -230Z" glyph-name="eng" horiz-adv-x="600" unicode="&#331;" /><glyph d="M470 -170V-140H404C380 -140 364 -130 364 -104C364 -85 369 -63 386 -13L413 64C455 115 469 174 470 180L450 190C448 178 414 40 280 40C172 40 120 131 120 250C120 260 120 270 121 280H456L460 284C460 400 402 510 260 510C146 510 40 412 40 240C40 100 122 -10 258 -10C305 -10 342 4 371 25L360 -3C340 -53 328 -82 328 -108C328 -140 348 -170 390 -170ZM272 480C380 480 380 356 380 310H124C140 416 196 480 272 480Z" glyph-name="eogonek" horiz-adv-x="500" unicode="&#281;" /><glyph d="M50 386H550V415H50ZM50 185H550V215H50Z" glyph-name="equal" horiz-adv-x="600" unicode="=" /><glyph d="M728 323C729 329 730 338 730 344C730 538 604 682 400 682C196 682 70 538 70 344C70 150 196 -10 400 -10C547 -10 654 71 714 197L694 207C648 108 541 20 400 20C286 20 198 77 149 164V323ZM400 648C514 648 602 599 651 517V353H149V518C198 599 286 648 400 648Z" glyph-name="estimated" horiz-adv-x="800" unicode="&#8494;" /><glyph d="M400 425H396C380 452 332 510 240 510C124 510 20 410 20 250C20 90 124 -10 246 -10C430 -10 480 170 480 280C480 498 397 625 304 701L402 810L380 830L280 719C234 752 186 774 146 790L136 770C170 755 212 726 252 688L156 581L178 561L273 667C335 603 389 517 400 425ZM400 242C400 110 350 30 265 30C170 30 100 130 100 260C100 390 150 470 245 470C330 470 400 398 400 242Z" glyph-name="eth" horiz-adv-x="500" unicode="&#240;" /><glyph d="M180 780H120C120 661 135 510 135 221H165C165 510 180 661 180 780ZM90 50C90 10 120 -10 150 -10C180 -10 210 10 210 50C210 90 180 110 150 110C121 110 90 90 90 50Z" glyph-name="exclam" horiz-adv-x="300" unicode="!" /><glyph d="M210 450C210 490 180 510 150 510C120 510 90 490 90 450C90 410 120 390 150 390C179 390 210 410 210 450ZM120 -280H180C180 -161 165 -10 165 279H135C135 -10 120 -161 120 -280Z" glyph-name="exclamdown" horiz-adv-x="300" unicode="&#161;" /><glyph d="M210 730C210 770 180 790 150 790C120 790 90 770 90 730C90 690 120 670 150 670C179 670 210 690 210 730ZM120 0H180C180 119 165 270 165 559H135C135 270 120 119 120 0Z" glyph-name="exclamdown.cap" horiz-adv-x="300" /><glyph d="M280 0V30H246C210 30 180 46 180 90V470H300V500H180V576C180 700 200 740 240 740C290 740 288 690 340 690C357 690 380 700 380 730C380 767 348 790 300 790C184 790 120 660 120 560V500H20V470H120V90C120 46 90 30 54 30H20V0Z" glyph-name="f" horiz-adv-x="300" unicode="f" /><glyph d="M250 380C299 380 330 364 330 314V280H354V510H330V476C330 426 297 410 250 410H170V750H290C383 750 433 693 460 630L480 640L430 780H40V750H110V90C110 46 80 30 44 30H10V0H280V30H236C200 30 170 46 170 90V380Z" glyph-name="f.alt" horiz-adv-x="400" /><glyph d="M520 410H480V750H590C683 750 733 693 760 630L780 640L730 780H40V750H110V90C110 46 80 30 44 30H10V0H280V30H236C200 30 170 46 170 90V380H420V90C420 46 390 30 354 30H320V0H590V30H546C510 30 480 46 480 90V380H520C569 380 600 364 600 314V280H624V510H600V476C600 426 567 410 520 410ZM170 410V750H280C345 750 390 722 420 683V410Z" glyph-name="f_f" horiz-adv-x="700" /><glyph d="M280 0V30H246C210 30 180 46 180 90V470H420V90C420 46 390 30 354 30H320V0H580V30H546C510 30 480 46 480 90V470H600V500H480V576C480 700 500 740 540 740C590 740 588 690 640 690C657 690 680 700 680 730C680 767 648 790 600 790C484 790 420 660 420 560V500H180V576C180 700 200 740 240 740C290 740 288 690 340 690C357 690 380 700 380 730C380 767 348 790 300 790C184 790 120 660 120 560V500H20V470H120V90C120 46 90 30 54 30H20V0Z" glyph-name="f_f.alt" horiz-adv-x="600" /><glyph d="M30 750H100V90C100 46 70 30 34 30H0V0H270V30H226C190 30 160 46 160 90V380H410V90C410 46 380 30 344 30H310V0H580V30H536C500 30 470 46 470 90V380H640C700 380 720 370 720 320V90C720 46 690 30 654 30H620V0H890V30H846C810 30 780 46 780 90V510H750C750 440 712 410 590 410H470V750H600C693 750 744 693 771 630L791 640L741 780H30ZM410 410H160V750H270C335 750 380 722 410 683Z" glyph-name="f_f_i" horiz-adv-x="900" /><glyph d="M280 0V30H246C210 30 180 46 180 90V470H420V90C420 46 390 30 354 30H320V0H580V30H546C510 30 480 46 480 90V470H684C715 470 720 439 720 382V90C720 46 690 30 654 30H620V0H880V30H846C810 30 780 46 780 90V506L776 510C732 502 670 500 600 500H480V576C480 730 550 740 580 740C640 740 638 690 690 690C707 690 730 700 730 730C730 767 698 790 650 790C534 790 420 690 420 560V500H180V576C180 700 200 740 240 740C290 740 288 690 340 690C357 690 380 700 380 730C380 767 348 790 300 790C184 790 120 660 120 560V500H20V470H120V90C120 46 90 30 54 30H20V0Z" glyph-name="f_f_i.alt" horiz-adv-x="900" /><glyph d="M270 30H226C190 30 160 46 160 90V379H410V90C410 46 380 30 344 30H310V0H580V30H536C500 30 470 46 470 90V380H648V410H470V750H580C645 750 690 722 720 683V90C720 46 690 30 654 30H620V0H880V30H846C810 30 780 46 780 90V780H30V750H100V90C100 46 70 30 34 30H0V0H270ZM160 750H270C335 750 380 722 410 683V409H160Z" glyph-name="f_f_l" horiz-adv-x="900" /><glyph d="M290 0V30H246C210 30 180 46 180 90V470H420V90C420 46 390 30 354 30H320V0H580V30H546C510 30 480 46 480 90V470H710V90C710 46 680 30 644 30H610V0H870V30H836C800 30 770 46 770 90V730C770 767 738 790 690 790C554 790 420 700 420 560V500H180V576C180 700 200 740 240 740C290 740 288 690 340 690C357 690 380 700 380 730C380 767 348 790 300 790C184 790 120 660 120 560V500H20V470H120V90C120 46 90 30 54 30H20V0ZM480 576C480 720 560 740 620 740C672 740 700 704 710 690V500H480Z" glyph-name="f_f_l.alt" horiz-adv-x="900" /><glyph d="M420 90C420 46 390 30 354 30H320V0H590V30H546C510 30 480 46 480 90V510H450C450 440 412 410 290 410H170V750H300C393 750 444 693 471 630L491 640L441 780H40V750H110V90C110 46 80 30 44 30H10V0H280V30H236C200 30 170 46 170 90V380H340C400 380 420 370 420 320Z" glyph-name="fi" horiz-adv-x="600" unicode="&#64257;" /><glyph d="M280 0V30H246C210 30 180 46 180 90V470H384C415 470 420 439 420 382V90C420 46 390 30 354 30H320V0H580V30H546C510 30 480 46 480 90V506L476 510C432 502 370 500 300 500H180V576C180 730 250 740 280 740C340 740 338 690 390 690C407 690 430 700 430 730C430 767 398 790 350 790C234 790 120 690 120 560V500H20V470H120V90C120 46 90 30 54 30H20V0Z" glyph-name="fi.alt" horiz-adv-x="600" /><glyph d="M420 0V30H320C260 30 232 50 232 90V380H410C479 380 510 334 510 254V220H534V570H510V536C510 456 479 410 410 410H232V690C232 730 260 750 320 750H470C620 750 658 630 670 590L690 600L640 780H20V750H80C140 750 168 730 168 690V90C168 51 140 30 80 30H20V0ZM1080 0V30H1020C960 30 932 50 932 90V690C932 730 960 750 1020 750H1080V780H720V750H780C840 750 868 730 868 690V90C868 50 840 30 780 30H720V0Z" glyph-name="fi.cap" horiz-adv-x="1100" /><glyph d="M290 470C420 470 476 370 476 250C476 120 402 40 274 40C78 40 62 214 60 230L40 220C46 182 70 -10 290 -10C454 -10 560 98 560 250C560 444 420 500 310 500C217 500 152 456 120 427V660C120 719 140 730 190 730H320C470 730 508 630 520 590L540 600L490 780H90V378H120C134 404 180 470 290 470Z" glyph-name="five" horiz-adv-x="600" unicode="5" /><glyph d="M290 470C420 470 476 370 476 250C476 120 402 40 274 40C78 40 62 214 60 230L40 220C46 182 70 -10 290 -10C454 -10 560 98 560 250C560 444 420 500 310 500C217 500 152 456 120 427V660C120 719 140 730 190 730H320C470 730 508 630 520 590L540 600L490 780H90V378H120C134 404 180 470 290 470Z" glyph-name="five.LP" horiz-adv-x="600" /><glyph d="M195 603C262 603 286 559 286 493C286 421 251 377 186 377C89 377 75 478 74 487L57 476C60 455 78 350 195 350C285 350 343 409 343 493C343 599 266 630 206 630C159 630 129 610 112 594V707C112 740 123 746 151 746H211C294 746 309 696 316 674L332 685L305 784H85V563H112C120 577 146 603 195 603Z" glyph-name="fivesuperior" horiz-adv-x="400" unicode="&#8309;" /><glyph d="M420 90C420 46 390 30 354 30H320V0H580V30H546C510 30 480 46 480 90V780H40V750H110V90C110 46 80 30 44 30H10V0H280V30H236C200 30 170 46 170 90V380H348V410H170V750H280C345 750 390 722 420 683Z" glyph-name="fl" horiz-adv-x="600" unicode="&#64258;" /><glyph d="M280 0V30H246C210 30 180 46 180 90V470H410V90C410 46 380 30 344 30H310V0H570V30H536C500 30 470 46 470 90V730C470 767 438 790 390 790C254 790 120 700 120 560V500H20V470H120V90C120 46 90 30 54 30H20V0ZM180 576C180 720 260 740 320 740C372 740 400 704 410 690V500H180Z" glyph-name="fl.alt" horiz-adv-x="600" /><glyph d="M420 0V30H320C260 30 232 50 232 90V380H410C479 380 510 334 510 254V220H534V570H510V536C510 456 479 410 410 410H232V690C232 730 260 750 320 750H470C620 750 658 630 670 590L690 600L640 780H20V750H80C140 750 168 730 168 690V90C168 51 140 30 80 30H20V0ZM1340 0 1390 180 1370 190C1358 150 1320 30 1170 30H1020C960 30 932 50 932 90V690C932 730 960 750 1020 750H1100V780H720V750H780C840 750 868 730 868 690V90C868 51 840 30 780 30H720V0Z" glyph-name="fl.cap" horiz-adv-x="1400" /><glyph d="M268 204C268 60 210 40 170 40C120 40 122 90 70 90C53 90 30 80 30 50C30 13 62 -10 110 -10C226 -10 332 100 332 220V375H500V405H332V576C332 720 390 740 430 740C480 740 478 690 530 690C547 690 570 700 570 730C570 767 538 790 490 790C374 790 268 680 268 560V405H100V375H268Z" glyph-name="florin" horiz-adv-x="600" unicode="&#402;" /><glyph d="M268 204C268 60 210 40 170 40C120 40 122 90 70 90C53 90 30 80 30 50C30 13 62 -10 110 -10C226 -10 332 100 332 220V375H500V405H332V576C332 720 390 740 430 740C480 740 478 690 530 690C547 690 570 700 570 730C570 767 538 790 490 790C374 790 268 680 268 560V405H100V375H268Z" glyph-name="florin.LP" horiz-adv-x="600" /><glyph d="M343 644C346 644 348 642 348 632V260H48L330 632C337 642 340 644 343 644ZM10 210H348V90C348 50 320 30 260 30H200V0H560V30H500C440 30 412 50 412 90V210H580V260H412V790H407L10 260Z" glyph-name="four" horiz-adv-x="600" unicode="4" /><glyph d="M343 644C346 644 348 642 348 632V260H48L330 632C337 642 340 644 343 644ZM10 210H348V90C348 50 320 30 260 30H200V0H560V30H500C440 30 412 50 412 90V210H580V260H412V790H407L10 260Z" glyph-name="four.LP" horiz-adv-x="600" /><glyph d="M210 676C211 676 212 674 212 669V498H77L203 669C207 675 208 676 210 676ZM43 471H212V416C212 394 203 383 170 383H126V355H346V383H302C269 383 259 394 259 416V471H357V498H259V790H256L43 498Z" glyph-name="foursuperior" horiz-adv-x="400" unicode="&#8308;" /><glyph d="M520 790 56 6 80 -10 544 774Z" glyph-name="fraction" horiz-adv-x="600" unicode="&#8260;" /><glyph d="M90 330C90 246 144 191 207 166C124 157 60 131 60 70C60 29 94 1 150 -7C101 -18 40 -44 40 -110C40 -220 180 -230 278 -230C430 -230 561 -180 561 -70C561 0 520 50 400 50H190C150 50 121 60 121 90C121 140 210 150 290 150C380 150 490 210 490 330C490 393 459 440 417 470H600V500H355C334 507 311 510 290 510C200 510 90 450 90 330ZM160 320C160 430 228 480 300 480C318 480 335 477 350 470C393 451 420 407 420 340C420 231 352 180 281 180C211 180 160 230 160 320ZM380 -10C461 -10 510 -40 510 -90C510 -165 420 -200 291 -200C179 -200 110 -181 110 -100C110 -10 210 -10 210 -10Z" glyph-name="g" horiz-adv-x="600" unicode="g" /><glyph d="M190 745H160C164 703 190 625 290 625C390 625 416 703 420 745H390C386 720 370 655 290 655C210 655 194 720 190 745ZM90 330C90 246 144 191 207 166C124 157 60 131 60 70C60 29 94 1 150 -7C101 -18 40 -44 40 -110C40 -220 180 -230 278 -230C430 -230 561 -180 561 -70C561 0 520 50 400 50H190C150 50 121 60 121 90C121 140 210 150 290 150C380 150 490 210 490 330C490 393 459 440 417 470H600V500H355C334 507 311 510 290 510C200 510 90 450 90 330ZM160 320C160 430 228 480 300 480C318 480 335 477 350 470C393 451 420 407 420 340C420 231 352 180 281 180C211 180 160 230 160 320ZM380 -10C461 -10 510 -40 510 -90C510 -165 420 -200 291 -200C179 -200 110 -181 110 -100C110 -10 210 -10 210 -10Z" glyph-name="gbreve" horiz-adv-x="600" unicode="&#287;" /><glyph d="M120 600 142 580 290 748 438 580 460 600 292 790H288ZM90 330C90 246 144 191 207 166C124 157 60 131 60 70C60 29 94 1 150 -7C101 -18 40 -44 40 -110C40 -220 180 -230 278 -230C430 -230 561 -180 561 -70C561 0 520 50 400 50H190C150 50 121 60 121 90C121 140 210 150 290 150C380 150 490 210 490 330C490 393 459 440 417 470H600V500H355C334 507 311 510 290 510C200 510 90 450 90 330ZM160 320C160 430 228 480 300 480C318 480 335 477 350 470C393 451 420 407 420 340C420 231 352 180 281 180C211 180 160 230 160 320ZM380 -10C461 -10 510 -40 510 -90C510 -165 420 -200 291 -200C179 -200 110 -181 110 -100C110 -10 210 -10 210 -10Z" glyph-name="gcircumflex" horiz-adv-x="600" unicode="&#285;" /><glyph d="M232 630 254 610 382 770 360 790ZM90 330C90 246 144 191 207 166C124 157 60 131 60 70C60 29 94 1 150 -7C101 -18 40 -44 40 -110C40 -220 180 -230 278 -230C430 -230 561 -180 561 -70C561 0 520 50 400 50H190C150 50 121 60 121 90C121 140 210 150 290 150C380 150 490 210 490 330C490 393 459 440 417 470H600V500H355C334 507 311 510 290 510C200 510 90 450 90 330ZM160 320C160 430 228 480 300 480C318 480 335 477 350 470C393 451 420 407 420 340C420 231 352 180 281 180C211 180 160 230 160 320ZM380 -10C461 -10 510 -40 510 -90C510 -165 420 -200 291 -200C179 -200 110 -181 110 -100C110 -10 210 -10 210 -10Z" glyph-name="gcommaaccent" horiz-adv-x="600" unicode="&#291;" /><glyph d="M240 685C240 649 264 635 290 635C316 635 340 649 340 685C340 721 316 735 290 735C265 735 240 721 240 685ZM90 330C90 246 144 191 207 166C124 157 60 131 60 70C60 29 94 1 150 -7C101 -18 40 -44 40 -110C40 -220 180 -230 278 -230C430 -230 561 -180 561 -70C561 0 520 50 400 50H190C150 50 121 60 121 90C121 140 210 150 290 150C380 150 490 210 490 330C490 393 459 440 417 470H600V500H355C334 507 311 510 290 510C200 510 90 450 90 330ZM160 320C160 430 228 480 300 480C318 480 335 477 350 470C393 451 420 407 420 340C420 231 352 180 281 180C211 180 160 230 160 320ZM380 -10C461 -10 510 -40 510 -90C510 -165 420 -200 291 -200C179 -200 110 -181 110 -100C110 -10 210 -10 210 -10Z" glyph-name="gdotaccent" horiz-adv-x="600" unicode="&#289;" /><glyph d="M560 206C560 366 426 410 348 432V436L502 660C503 722 454 790 340 790C230 790 114 715 114 555V90C114 46 90 30 54 30H20V0H174V611C174 697 214 760 324 760C412 760 436 700 436 666L280 440V411C401 411 480 336 480 210C480 120 436 40 344 40C232 40 216 162 214 190L194 180C198 132 214 -10 364 -10C488 -10 560 96 560 206Z" glyph-name="germandbls" horiz-adv-x="600" unicode="&#223;" /><glyph d="M314 -10C454 -10 560 70 560 206C560 517 126 374 126 610C126 716 198 756 288 756C408 756 464 688 520 570L540 580L480 790H476L447 771C437 765 430 762 420 762C386 762 352 790 282 790C148 790 66 710 66 598C66 294 498 436 498 186C498 60 412 24 322 24C174 24 114 112 70 210L50 200L110 -10H114L143 9C153 15 160 18 170 18C204 18 234 -10 314 -10ZM914 -10C1054 -10 1160 70 1160 206C1160 517 726 374 726 610C726 716 798 756 888 756C1008 756 1064 688 1120 570L1140 580L1080 790H1076L1047 771C1037 765 1030 762 1020 762C986 762 952 790 882 790C748 790 666 710 666 598C666 294 1098 436 1098 186C1098 60 1012 24 922 24C774 24 714 112 670 210L650 200L710 -10H714L743 9C753 15 760 18 770 18C804 18 834 -10 914 -10Z" glyph-name="germandbls.cap" horiz-adv-x="1200" /><glyph d="M134 770 304 580 326 600 156 790Z" glyph-name="grave" horiz-adv-x="500" unicode="`" /><glyph d="M134 1010 304 820 326 840 156 1030Z" glyph-name="grave.cap" horiz-adv-x="500" /><glyph d="M542 300 82 520V486L477 300L82 114V80Z" glyph-name="greater" horiz-adv-x="600" unicode="&gt;" /><glyph d="M542 300 82 520V486L477 300L82 114V80ZM70 0H550V30H70Z" glyph-name="greaterequal" horiz-adv-x="600" unicode="&#8805;" /><glyph d="M68 250 270 450 250 470 30 250 250 30 270 50ZM188 250 390 450 370 470 150 250 370 30 390 50Z" glyph-name="guillemotleft" horiz-adv-x="400" unicode="&#171;" /><glyph d="M68 390 270 590 250 610 30 390 250 170 270 190ZM188 390 390 590 370 610 150 390 370 170 390 190Z" glyph-name="guillemotleft.cap" horiz-adv-x="400" /><glyph d="M332 250 130 50 150 30 370 250 150 470 130 450ZM212 250 10 50 30 30 250 250 30 470 10 450Z" glyph-name="guillemotright" horiz-adv-x="400" unicode="&#187;" /><glyph d="M332 390 130 190 150 170 370 390 150 610 130 590ZM212 390 10 190 30 170 250 390 30 610 10 590Z" glyph-name="guillemotright.cap" horiz-adv-x="400" /><glyph d="M78 250 280 450 260 470 40 250 260 30 280 50Z" glyph-name="guilsinglleft" horiz-adv-x="300" unicode="&#8249;" /><glyph d="M78 390 280 590 260 610 40 390 260 170 280 190Z" glyph-name="guilsinglleft.cap" horiz-adv-x="300" /><glyph d="M222 250 20 50 40 30 260 250 40 470 20 450Z" glyph-name="guilsinglright" horiz-adv-x="300" unicode="&#8250;" /><glyph d="M222 390 20 190 40 170 260 390 40 610 20 590Z" glyph-name="guilsinglright.cap" horiz-adv-x="300" /><glyph d="M180 381V786L176 790L20 720L30 690C53 700 70 708 84 708C115 708 120 677 120 620V90C120 46 90 30 54 30H20V0H280V30H246C210 30 180 46 180 90V280C180 365 248 450 334 450C394 450 430 421 430 340V90C430 46 400 30 364 30H330V0H590V30H556C520 30 490 46 490 90V392C490 462 448 510 374 510C296 510 236 460 184 381Z" glyph-name="h" horiz-adv-x="600" unicode="h" /><glyph d="M180 381V570H310V602H180V786L176 790L20 720L30 690C53 700 70 708 84 708C115 708 120 677 120 620V602H20V570H120V90C120 46 90 30 54 30H20V0H280V30H246C210 30 180 46 180 90V280C180 365 248 450 334 450C394 450 430 421 430 340V90C430 46 400 30 364 30H330V0H590V30H556C520 30 490 46 490 90V392C490 462 448 510 374 510C296 510 236 460 184 381Z" glyph-name="hbar" horiz-adv-x="600" unicode="&#295;" /><glyph d="M-20 840 2 820 150 988 298 820 320 840 152 1030H148ZM180 381V786L176 790L20 720L30 690C53 700 70 708 84 708C115 708 120 677 120 620V90C120 46 90 30 54 30H20V0H280V30H246C210 30 180 46 180 90V280C180 365 248 450 334 450C394 450 430 421 430 340V90C430 46 400 30 364 30H330V0H590V30H556C520 30 490 46 490 90V392C490 462 448 510 374 510C296 510 236 460 184 381Z" glyph-name="hcircumflex" horiz-adv-x="600" unicode="&#293;" /><glyph d="M160 650C83 650 40 600 40 520C40 367 200 240 300 130C400 240 560 367 560 520C560 600 517 650 440 650C336 650 310 550 300 481C290 550 264 650 160 650Z" glyph-name="heart" horiz-adv-x="600" unicode="&#9829;" /><glyph d="M300 790 160 634 182 614 322 770ZM420 790 280 634 302 614 442 770Z" glyph-name="hungarumlaut" horiz-adv-x="500" unicode="&#733;" /><glyph d="M302 1030 162 874 184 854 324 1010ZM422 1030 282 874 304 854 444 1010Z" glyph-name="hungarumlaut.cap" horiz-adv-x="500" /><glyph d="M40 235H360V265H40Z" glyph-name="hyphen" horiz-adv-x="400" unicode="-" /><glyph d="M40 375H360V405H40Z" glyph-name="hyphen.cap" horiz-adv-x="400" /><glyph d="M78 685C78 645 108 625 138 625C168 625 198 645 198 685C198 725 168 745 138 745C109 745 78 725 78 685ZM280 0V30H246C210 30 180 46 180 90V506L176 510L20 440L30 410C53 420 70 428 84 428C115 428 120 397 120 340V90C120 46 90 30 54 30H20V0Z" glyph-name="i" horiz-adv-x="300" unicode="i" /><glyph d="M266 770 244 790 74 600 96 580ZM280 0V30H246C210 30 180 46 180 90V506L176 510L20 440L30 410C53 420 70 428 84 428C115 428 120 397 120 340V90C120 46 90 30 54 30H20V0Z" glyph-name="iacute" horiz-adv-x="300" unicode="&#237;" /><glyph d="M40 745H10C14 703 40 625 140 625C240 625 266 703 270 745H240C236 720 220 655 140 655C60 655 44 720 40 745ZM280 0V30H246C210 30 180 46 180 90V506L176 510L20 440L30 410C53 420 70 428 84 428C115 428 120 397 120 340V90C120 46 90 30 54 30H20V0Z" glyph-name="ibreve" horiz-adv-x="300" unicode="&#301;" /><glyph d="M-30 600 -8 580 140 748 288 580 310 600 142 790H138ZM280 0V30H246C210 30 180 46 180 90V506L176 510L20 440L30 410C53 420 70 428 84 428C115 428 120 397 120 340V90C120 46 90 30 54 30H20V0Z" glyph-name="icircumflex" horiz-adv-x="300" unicode="&#238;" /><glyph d="M10 685C10 649 34 635 60 635C86 635 110 649 110 685C110 721 86 735 60 735C35 735 10 721 10 685ZM170 685C170 649 194 635 220 635C246 635 270 649 270 685C270 721 246 735 220 735C195 735 170 721 170 685ZM280 0V30H246C210 30 180 46 180 90V506L176 510L20 440L30 410C53 420 70 428 84 428C115 428 120 397 120 340V90C120 46 90 30 54 30H20V0Z" glyph-name="idieresis" horiz-adv-x="300" unicode="&#239;" /><glyph d="M90 685C90 649 114 635 140 635C166 635 190 649 190 685C190 721 166 735 140 735C115 735 90 721 90 685ZM280 0V30H246C210 30 180 46 180 90V506L176 510L20 440L30 410C53 420 70 428 84 428C115 428 120 397 120 340V90C120 46 90 30 54 30H20V0Z" glyph-name="idotaccent" horiz-adv-x="300" /><glyph d="M24 770 194 580 216 600 46 790ZM280 0V30H246C210 30 180 46 180 90V506L176 510L20 440L30 410C53 420 70 428 84 428C115 428 120 397 120 340V90C120 46 90 30 54 30H20V0Z" glyph-name="igrave" horiz-adv-x="300" unicode="&#236;" /><glyph d="M78 685C78 645 108 625 138 625C168 625 198 645 198 685C198 725 168 745 138 745C109 745 78 725 78 685ZM380 685C380 645 410 625 440 625C470 625 500 645 500 685C500 725 470 745 440 745C411 745 380 725 380 685ZM280 0V30H246C210 30 180 46 180 90V506L176 510L20 440L30 410C53 420 70 428 84 428C115 428 120 397 120 340V90C120 46 90 30 54 30H20V0ZM430 340V-16C430 -140 410 -180 370 -180C320 -180 322 -130 270 -130C253 -130 230 -140 230 -170C230 -207 262 -230 310 -230C426 -230 490 -100 490 0V506L486 510L330 440L340 410C363 420 380 428 394 428C425 428 430 397 430 340Z" glyph-name="ij" horiz-adv-x="600" unicode="&#307;" /><glyph d="M252 701H28V669H252ZM280 0V30H246C210 30 180 46 180 90V506L176 510L20 440L30 410C53 420 70 428 84 428C115 428 120 397 120 340V90C120 46 90 30 54 30H20V0Z" glyph-name="imacron" horiz-adv-x="300" unicode="&#299;" /><glyph d="M156 168C108 168 64 220 64 300C64 380 108 433 156 433C221 433 254 367 286 297C253 230 219 168 156 168ZM156 138C226 138 265 200 300 268C333 200 370 138 444 138C518 138 570 209 570 300C570 391 518 463 444 463C375 463 338 400 304 333C270 400 231 463 156 463C82 463 30 391 30 300C30 209 82 138 156 138ZM443 168C382 168 351 234 318 303C352 371 385 433 444 433C492 433 536 380 536 300C536 220 491 168 443 168Z" glyph-name="infinity" horiz-adv-x="600" unicode="&#8734;" /><glyph d="M157 -220V750H280V780H127V-190H20V-220Z" glyph-name="integral" horiz-adv-x="300" unicode="&#8747;" /><glyph d="M78 680C78 640 108 620 138 620C168 620 198 640 198 680C198 720 168 740 138 740C109 740 78 720 78 680ZM280 0V30H246C210 30 180 46 180 90V506L176 510L20 440L30 410C53 420 70 428 84 428C115 428 120 397 120 340V90C120 46 90 30 54 30H20V0H192C167 -43 150 -72 150 -108C150 -140 170 -170 212 -170H280V-140H226C202 -140 184 -130 184 -104C184 -78 195 -48 222 0Z" glyph-name="iogonek" horiz-adv-x="300" unicode="&#303;" /><glyph d="M218 700C266 700 287 654 291 640H321C317 657 292 732 218 732C154 732 126 670 62 670C14 670 -7 716 -11 730H-41C-38 713 -12 638 62 638C136 638 165 700 218 700ZM280 0V30H246C210 30 180 46 180 90V506L176 510L20 440L30 410C53 420 70 428 84 428C115 428 120 397 120 340V90C120 46 90 30 54 30H20V0Z" glyph-name="itilde" horiz-adv-x="300" unicode="&#297;" /><glyph d="M80 685C80 645 110 625 140 625C170 625 200 645 200 685C200 725 170 745 140 745C111 745 80 725 80 685ZM130 340V-16C130 -140 110 -180 70 -180C20 -180 22 -130 -30 -130C-47 -130 -70 -140 -70 -170C-70 -207 -38 -230 10 -230C126 -230 190 -100 190 0V506L186 510L30 440L40 410C63 420 80 428 94 428C125 428 130 397 130 340Z" glyph-name="j" horiz-adv-x="300" unicode="j" /><glyph d="M-20 600 2 580 150 748 298 580 320 600 152 790H148ZM130 340V-16C130 -140 110 -180 70 -180C20 -180 22 -130 -30 -130C-47 -130 -70 -140 -70 -170C-70 -207 -38 -230 10 -230C126 -230 190 -100 190 0V506L186 510L30 440L40 410C63 420 80 428 94 428C125 428 130 397 130 340Z" glyph-name="jcircumflex" horiz-adv-x="300" unicode="&#309;" /><glyph d="M280 0V30H246C210 30 180 46 180 90V167L259 248L380 90C389 79 394 66 394 56C394 40 384 30 360 30H320V0H580V30H546C510 30 485 47 461 80L305 293L410 400C451 440 477 470 516 470H550V500H280V470H334C374 470 388 455 388 436C388 424 384 414 370 400L180 208V786L176 790L20 720L30 690C53 700 70 708 84 708C115 708 120 677 120 620V90C120 46 90 30 54 30H20V0Z" glyph-name="k" horiz-adv-x="600" unicode="k" /><glyph d="M280 0V30H246C210 30 180 46 180 90V167L259 248L380 90C389 79 394 66 394 56C394 40 384 30 360 30H320V0H580V30H546C510 30 485 47 461 80L305 293L410 400C451 440 477 470 516 470H550V500H280V470H334C374 470 388 455 388 436C388 424 384 414 370 400L180 208V786L176 790L20 720L30 690C53 700 70 708 84 708C115 708 120 677 120 620V90C120 46 90 30 54 30H20V0ZM180 -210 202 -230 330 -70 308 -50Z" glyph-name="kcommaaccent" horiz-adv-x="600" unicode="&#311;" /><glyph d="M180 786 176 790 20 720 30 690C53 700 70 708 84 708C115 708 120 677 120 620V90C120 46 90 30 54 30H20V0H280V30H246C210 30 180 46 180 90Z" glyph-name="l" horiz-adv-x="300" unicode="l" /><glyph d="M276 1010 254 1030 84 840 106 820ZM180 786 176 790 20 720 30 690C53 700 70 708 84 708C115 708 120 677 120 620V90C120 46 90 30 54 30H20V0H280V30H246C210 30 180 46 180 90Z" glyph-name="lacute" horiz-adv-x="300" unicode="&#314;" /><glyph d="M180 786 176 790 20 720 30 690C53 700 70 708 84 708C115 708 120 677 120 620V90C120 46 90 30 54 30H20V0H280V30H246C210 30 180 46 180 90ZM290 782 260 790 204 588 234 580Z" glyph-name="lcaron" horiz-adv-x="300" unicode="&#318;" /><glyph d="M180 786 176 790 20 720 30 690C53 700 70 708 84 708C115 708 120 677 120 620V90C120 46 90 30 54 30H20V0H280V30H246C210 30 180 46 180 90ZM30 -210 52 -230 180 -70 158 -50Z" glyph-name="lcommaaccent" horiz-adv-x="300" unicode="&#316;" /><glyph d="M180 786 176 790 20 720 30 690C53 700 70 708 84 708C115 708 120 677 120 620V90C120 46 90 30 54 30H20V0H280V30H246C210 30 180 46 180 90ZM220 385C220 349 244 335 270 335C296 335 320 349 320 385C320 421 296 435 270 435C245 435 220 421 220 385Z" glyph-name="ldot" horiz-adv-x="300" unicode="&#320;" /><glyph d="M518 114 123 300 518 486V520L58 300L518 80Z" glyph-name="less" horiz-adv-x="600" unicode="&lt;" /><glyph d="M518 114 123 300 518 486V520L58 300L518 80ZM50 0H530V30H50Z" glyph-name="lessequal" horiz-adv-x="600" unicode="&#8804;" /><glyph d="M56 442V412H510V158H540V442Z" glyph-name="logicalnot" horiz-adv-x="600" unicode="&#172;" /><glyph d="M325 0 560 390 325 780H275L40 390L275 0ZM78 390 300 760 522 390 300 20Z" glyph-name="lozenge" horiz-adv-x="600" unicode="&#9674;" /><glyph d="M272 504 250 524 180 446V786L176 790L20 720L30 690C53 700 70 708 84 708C115 708 120 677 120 620V379L26 275L48 255L120 335V90C120 46 90 30 54 30H20V0H280V30H246C210 30 180 46 180 90V402Z" glyph-name="lslash" horiz-adv-x="300" unicode="&#322;" /><glyph d="M420 90C420 46 390 30 354 30H320V0H580V30H546C510 30 480 46 480 90V280C480 365 548 450 634 450C694 450 730 421 730 340V90C730 46 700 30 664 30H630V0H890V30H856C820 30 790 46 790 90V392C790 462 748 510 674 510C599 510 536 454 484 382H480C480 462 438 510 364 510C286 510 218 450 164 366H160L204 506L200 510L10 440L20 410C46 420 60 424 74 424C106 424 110 396 110 340V90C110 46 80 30 44 30H10V0H270V30H236C200 30 170 46 170 90V280C170 365 238 450 324 450C384 450 420 421 420 340Z" glyph-name="m" horiz-adv-x="900" unicode="m" /><glyph d="M362 701H138V669H362Z" glyph-name="macron" horiz-adv-x="500" unicode="&#175;" /><glyph d="M362 941H138V909H362Z" glyph-name="macron.cap" horiz-adv-x="500" /><glyph d="M60 285H540V315H60Z" glyph-name="minus" horiz-adv-x="600" unicode="&#8722;" /><glyph d="M60 500V-200H90V71C124 8 182 -10 244 -10C335 -10 383 28 410 89V0H440V500H410V212C410 120 395 20 245 20C115 20 90 110 90 212V500Z" glyph-name="mu.math" horiz-adv-x="500" unicode="&#181;" /><glyph d="M141 120 300 279 459 120 481 141 321 300 481 459 459 480 300 321 141 480 120 459 279 300 120 141Z" glyph-name="multiply" horiz-adv-x="600" unicode="&#215;" /><glyph d="M430 90C430 46 400 30 364 30H330V0H590V30H556C520 30 490 46 490 90V392C490 462 448 510 374 510C296 510 228 450 174 366H170L214 506L210 510L20 440L30 410C56 420 70 424 84 424C116 424 120 396 120 340V90C120 46 90 30 54 30H20V0H280V30H246C210 30 180 46 180 90V280C180 365 248 450 334 450C394 450 430 421 430 340Z" glyph-name="n" horiz-adv-x="600" unicode="n" /><glyph d="M430 770 408 790 238 600 260 580ZM430 90C430 46 400 30 364 30H330V0H590V30H556C520 30 490 46 490 90V392C490 462 448 510 374 510C296 510 228 450 174 366H170L214 506L210 510L20 440L30 410C56 420 70 424 84 424C116 424 120 396 120 340V90C120 46 90 30 54 30H20V0H280V30H246C210 30 180 46 180 90V280C180 365 248 450 334 450C394 450 430 421 430 340Z" glyph-name="nacute" horiz-adv-x="600" unicode="&#324;" /><glyph d="M134 770 302 580H306L474 770L452 790L304 622L156 790ZM430 90C430 46 400 30 364 30H330V0H590V30H556C520 30 490 46 490 90V392C490 462 448 510 374 510C296 510 228 450 174 366H170L214 506L210 510L20 440L30 410C56 420 70 424 84 424C116 424 120 396 120 340V90C120 46 90 30 54 30H20V0H280V30H246C210 30 180 46 180 90V280C180 365 248 450 334 450C394 450 430 421 430 340Z" glyph-name="ncaron" horiz-adv-x="600" unicode="&#328;" /><glyph d="M430 90C430 46 400 30 364 30H330V0H590V30H556C520 30 490 46 490 90V392C490 462 448 510 374 510C296 510 228 450 174 366H170L214 506L210 510L20 440L30 410C56 420 70 424 84 424C116 424 120 396 120 340V90C120 46 90 30 54 30H20V0H280V30H246C210 30 180 46 180 90V280C180 365 248 450 334 450C394 450 430 421 430 340ZM184 -210 206 -230 334 -70 312 -50Z" glyph-name="ncommaaccent" horiz-adv-x="600" unicode="&#326;" /><glyph d="M260 30C130 30 80 140 70 200L50 190C58 152 92 -10 274 -10C460 -10 560 180 560 400C560 650 450 790 290 790C150 790 40 680 40 530C40 370 150 270 280 270C369 270 435 318 476 379C469 157 399 30 260 30ZM304 300C200 300 124 400 124 530C124 670 186 760 286 760C398 760 466 648 466 510C466 394 410 300 304 300Z" glyph-name="nine" horiz-adv-x="600" unicode="9" /><glyph d="M250 30C120 30 70 140 60 200L40 190C48 152 82 -10 264 -10C450 -10 550 180 550 400C550 650 440 790 280 790C140 790 30 680 30 530C30 370 140 270 270 270C359 270 425 318 466 379C459 157 389 30 250 30ZM294 300C190 300 114 400 114 530C114 670 176 760 276 760C388 760 456 648 456 510C456 394 400 300 294 300Z" glyph-name="nine.LP" horiz-adv-x="600" /><glyph d="M178 377C112 377 85 438 79 471L63 460C67 439 91 350 186 350C288 350 343 454 343 575C343 713 283 790 195 790C118 790 57 729 57 647C57 559 118 504 189 504C236 504 267 527 286 559C282 441 253 377 178 377ZM202 531C149 531 114 575 114 647C114 724 142 762 192 762C250 762 280 711 280 636C280 572 256 531 202 531Z" glyph-name="ninesuperior" horiz-adv-x="400" unicode="&#8313;" /><glyph d="M50 185H211L76 -27L99 -42L243 185H550V215H262L371 386H550V415H390L525 628L502 643L357 415H50V386H339L230 215H50Z" glyph-name="notequal" horiz-adv-x="600" unicode="&#8800;" /><glyph d="M382 700C430 700 451 654 455 640H485C481 657 456 732 382 732C318 732 290 670 226 670C178 670 157 716 153 730H123C126 713 152 638 226 638C300 638 329 700 382 700ZM430 90C430 46 400 30 364 30H330V0H590V30H556C520 30 490 46 490 90V392C490 462 448 510 374 510C296 510 228 450 174 366H170L214 506L210 510L20 440L30 410C56 420 70 424 84 424C116 424 120 396 120 340V90C120 46 90 30 54 30H20V0H280V30H246C210 30 180 46 180 90V280C180 365 248 450 334 450C394 450 430 421 430 340Z" glyph-name="ntilde" horiz-adv-x="600" unicode="&#241;" /><glyph d="M190 0H220V255H380V0H410V255H560V285H410V495H560V525H410V780H380V525H220V780H190V525H40V495H190V285H40V255H190ZM220 285V495H380V285Z" glyph-name="numbersign" horiz-adv-x="600" unicode="#" /><glyph d="M190 0H220V255H380V0H410V255H560V285H410V495H560V525H410V780H380V525H220V780H190V525H40V495H190V285H40V255H190ZM220 285V495H380V285Z" glyph-name="numbersign.LP" horiz-adv-x="600" /><glyph d="M454 570C454 440 542 350 662 350C782 350 870 440 870 570C870 700 782 790 662 790C542 790 454 700 454 570ZM212 780H20V750H60C120 750 148 730 148 690V90C148 50 120 30 60 30H20V0H310V30H270C210 30 182 50 182 90V708L584 0H651V4ZM510 562C510 685 574 760 670 760C762 760 814 692 814 578C814 456 750 380 654 380C562 380 510 449 510 562Z" glyph-name="numero" horiz-adv-x="900" unicode="&#8470;" /><glyph d="M40 250C40 100 150 -10 300 -10C450 -10 560 100 560 250C560 400 450 510 300 510C150 510 40 400 40 250ZM120 240C120 381 190 480 310 480C420 480 480 390 480 260C480 120 410 20 290 20C180 20 120 111 120 240Z" glyph-name="o" horiz-adv-x="600" unicode="o" /><glyph d="M426 770 404 790 234 600 256 580ZM40 250C40 100 150 -10 300 -10C450 -10 560 100 560 250C560 400 450 510 300 510C150 510 40 400 40 250ZM120 240C120 381 190 480 310 480C420 480 480 390 480 260C480 120 410 20 290 20C180 20 120 111 120 240Z" glyph-name="oacute" horiz-adv-x="600" unicode="&#243;" /><glyph d="M200 745H170C174 703 200 625 300 625C400 625 426 703 430 745H400C396 720 380 655 300 655C220 655 204 720 200 745ZM40 250C40 100 150 -10 300 -10C450 -10 560 100 560 250C560 400 450 510 300 510C150 510 40 400 40 250ZM120 240C120 381 190 480 310 480C420 480 480 390 480 260C480 120 410 20 290 20C180 20 120 111 120 240Z" glyph-name="obreve" horiz-adv-x="600" unicode="&#335;" /><glyph d="M130 600 152 580 300 748 448 580 470 600 302 790H298ZM40 250C40 100 150 -10 300 -10C450 -10 560 100 560 250C560 400 450 510 300 510C150 510 40 400 40 250ZM120 240C120 381 190 480 310 480C420 480 480 390 480 260C480 120 410 20 290 20C180 20 120 111 120 240Z" glyph-name="ocircumflex" horiz-adv-x="600" unicode="&#244;" /><glyph d="M170 685C170 649 194 635 220 635C246 635 270 649 270 685C270 721 246 735 220 735C195 735 170 721 170 685ZM330 685C330 649 354 635 380 635C406 635 430 649 430 685C430 721 406 735 380 735C355 735 330 721 330 685ZM40 250C40 100 150 -10 300 -10C450 -10 560 100 560 250C560 400 450 510 300 510C150 510 40 400 40 250ZM120 240C120 381 190 480 310 480C420 480 480 390 480 260C480 120 410 20 290 20C180 20 120 111 120 240Z" glyph-name="odieresis" horiz-adv-x="600" unicode="&#246;" /><glyph d="M40 250C40 100 140 -10 280 -10C364 -10 434 30 476 94C513 31 575 -10 658 -10C824 -10 868 170 870 180L850 190C848 178 814 40 680 40C572 40 520 131 520 250C520 260 520 270 521 280H856L860 284C860 400 802 510 660 510C589 510 520 472 479 401C438 468 366 510 280 510C140 510 40 400 40 250ZM120 240C120 381 180 480 290 480C390 480 440 390 440 260C440 120 380 20 270 20C170 20 120 111 120 240ZM672 480C780 480 780 356 780 310H524C540 416 596 480 672 480Z" glyph-name="oe" horiz-adv-x="900" unicode="&#339;" /><glyph d="M360 -170V-140H306C282 -140 264 -130 264 -104C264 -74 278 -39 335 43H305C253 -33 230 -66 230 -108C230 -140 250 -170 292 -170Z" glyph-name="ogonek" horiz-adv-x="500" unicode="&#731;" /><glyph d="M184 770 354 580 376 600 206 790ZM40 250C40 100 150 -10 300 -10C450 -10 560 100 560 250C560 400 450 510 300 510C150 510 40 400 40 250ZM120 240C120 381 190 480 310 480C420 480 480 390 480 260C480 120 410 20 290 20C180 20 120 111 120 240Z" glyph-name="ograve" horiz-adv-x="600" unicode="&#242;" /><glyph d="M350 750 210 594 232 574 372 730ZM470 750 330 594 352 574 492 730ZM40 250C40 100 150 -10 300 -10C450 -10 560 100 560 250C560 400 450 510 300 510C150 510 40 400 40 250ZM120 240C120 381 190 480 310 480C420 480 480 390 480 260C480 120 410 20 290 20C180 20 120 111 120 240Z" glyph-name="ohungarumlaut" horiz-adv-x="600" unicode="&#337;" /><glyph d="M412 701H188V669H412ZM40 250C40 100 150 -10 300 -10C450 -10 560 100 560 250C560 400 450 510 300 510C150 510 40 400 40 250ZM120 240C120 381 190 480 310 480C420 480 480 390 480 260C480 120 410 20 290 20C180 20 120 111 120 240Z" glyph-name="omacron" horiz-adv-x="600" unicode="&#333;" /><glyph d="M288 90C288 50 260 30 200 30H90V0H550V30H440C380 30 352 50 352 90V790H322V752C322 690 293 660 220 660H100V630H288Z" glyph-name="one" horiz-adv-x="600" unicode="1" /><glyph d="M238 90C238 50 210 30 150 30H40V0H500V30H390C330 30 302 50 302 90V790H272V752C272 690 243 660 170 660H50V630H238Z" glyph-name="one.LP" horiz-adv-x="500" /><glyph d="M530 790 66 6 90 -10 554 774ZM103 406C103 384 94 373 61 373H0V345H253V373H193C160 373 150 384 150 406V780H122V759C122 725 112 708 72 708H6V681H103ZM573 0 600 99 584 110C577 88 562 39 479 39H387C378 39 373 41 373 46C373 51 377 55 381 61C457 156 586 193 586 314C586 386 540 435 457 435C365 435 325 361 325 330C325 314 338 308 347 308C375 308 377 329 377 351C377 389 402 407 446 407C501 407 529 380 529 314C529 189 389 134 320 17V0Z" glyph-name="onehalf" horiz-adv-x="600" unicode="&#189;" /><glyph d="M540 790 76 6 100 -10 564 774ZM103 406C103 384 94 373 61 373H0V345H253V373H193C160 373 150 384 150 406V780H122V759C122 725 112 708 72 708H6V681H103ZM433 321C434 321 435 319 435 314V143H300L426 314C430 320 431 321 433 321ZM266 116H435V61C435 39 426 28 393 28H349V0H569V28H525C492 28 482 39 482 61V116H580V143H482V435H479L266 143Z" glyph-name="onequarter" horiz-adv-x="600" unicode="&#188;" /><glyph d="M177 416C177 394 168 383 135 383H74V355H327V383H267C234 383 224 394 224 416V790H196V769C196 735 186 718 146 718H80V691H177Z" glyph-name="onesuperior" horiz-adv-x="400" unicode="&#185;" /><glyph d="M336 430C336 383 360 350 400 350C440 350 463 390 480 438L464 446C461 432 451 390 416 390C392 390 384 414 384 438V550H381L337 528C328 484 286 377 184 377C133 377 98 403 98 462C98 537 162 556 240 576C332 599 398 612 398 684C398 761 304 790 240 790C128 790 56 731 56 686C56 662 74 654 88 654C128 654 129 684 134 712C140 742 156 770 220 770C292 770 344 736 344 676C344 633 325 611 264 602C168 588 40 579 40 454C40 382 90 350 163 350C259 350 303 413 333 465H336Z" glyph-name="ordfeminine" horiz-adv-x="500" unicode="&#170;" /><glyph d="M32 570C32 440 120 350 240 350C360 350 448 440 448 570C448 700 360 790 240 790C120 790 32 700 32 570ZM88 562C88 685 152 760 248 760C340 760 392 692 392 578C392 456 328 380 232 380C140 380 88 449 88 562Z" glyph-name="ordmasculine" horiz-adv-x="480" unicode="&#186;" /><glyph d="M40 250C40 145 94 60 177 18L54 -248L80 -260L203 7C233 -4 265 -10 300 -10C450 -10 560 100 560 250C560 355 506 440 423 482L546 748L520 760L397 493C367 504 335 510 300 510C150 510 40 400 40 250ZM120 240C120 381 190 480 310 480C338 480 362 474 383 464L193 52C145 89 120 157 120 240ZM480 260C480 120 410 20 290 20C262 20 238 26 217 36L408 448C455 411 480 344 480 260Z" glyph-name="oslash" horiz-adv-x="600" unicode="&#248;" /><glyph d="M446 770 424 790 254 600 276 580ZM40 250C40 145 94 60 177 18L54 -248L80 -260L203 7C233 -4 265 -10 300 -10C450 -10 560 100 560 250C560 355 506 440 423 482L546 748L520 760L397 493C367 504 335 510 300 510C150 510 40 400 40 250ZM120 240C120 381 190 480 310 480C338 480 362 474 383 464L193 52C145 89 120 157 120 240ZM480 260C480 120 410 20 290 20C262 20 238 26 217 36L408 448C455 411 480 344 480 260Z" glyph-name="oslashacute" horiz-adv-x="600" unicode="&#511;" /><glyph d="M378 700C426 700 447 654 451 640H481C477 657 452 732 378 732C314 732 286 670 222 670C174 670 153 716 149 730H119C122 713 148 638 222 638C296 638 325 700 378 700ZM40 250C40 100 150 -10 300 -10C450 -10 560 100 560 250C560 400 450 510 300 510C150 510 40 400 40 250ZM120 240C120 381 190 480 310 480C420 480 480 390 480 260C480 120 410 20 290 20C180 20 120 111 120 240Z" glyph-name="otilde" horiz-adv-x="600" unicode="&#245;" /><glyph d="M180 -130V72C205 33 248 -10 334 -10C450 -10 560 90 560 250C560 410 468 510 348 510C254 510 200 434 184 408H180L204 506L200 510L20 440L30 410C56 420 70 424 84 424C116 424 120 397 120 340V-130C120 -174 90 -190 54 -190H20V-220H280V-190H246C210 -190 180 -174 180 -130ZM180 292C180 396 248 470 333 470C428 470 480 380 480 250C480 120 410 30 315 30C226 30 188 100 180 138Z" glyph-name="p" horiz-adv-x="600" unicode="p" /><glyph d="M330 750H420V0H450V750H590V780H215C113 780 30 698 30 596C30 494 113 410 215 410H300V0H330Z" glyph-name="paragraph" horiz-adv-x="600" unicode="&#182;" /><glyph d="M420 731 410 750C210 710 40 530 40 250C40 -30 210 -210 410 -250L420 -230C251 -200 84 -30 84 250C84 531 251 701 420 731Z" glyph-name="parenleft" horiz-adv-x="400" unicode="(" /><glyph d="M420 871 410 890C210 850 40 670 40 390C40 110 210 -70 410 -110L420 -90C251 -60 84 110 84 390C84 671 251 841 420 871Z" glyph-name="parenleft.cap" horiz-adv-x="400" /><glyph d="M-20 -231 -10 -250C190 -210 360 -30 360 250C360 530 190 710 -10 750L-20 730C149 700 316 530 316 250C316 -31 149 -201 -20 -231Z" glyph-name="parenright" horiz-adv-x="400" unicode=")" /><glyph d="M-20 -91 -10 -110C190 -70 360 110 360 390C360 670 190 850 -10 890L-20 870C149 840 316 670 316 390C316 109 149 -61 -20 -91Z" glyph-name="parenright.cap" horiz-adv-x="400" /><glyph d="M470 288C470 568 314 730 188 790L168 780C276 729 396 593 428 395C395 466 338 510 248 510C124 510 30 410 30 244C30 88 122 -10 246 -10C356 -10 470 72 470 288ZM66 250C66 380 134 480 248 480C376 480 436 383 436 293V292C436 148 375 20 244 20C136 20 66 118 66 250Z" glyph-name="partialdiff" horiz-adv-x="500" unicode="&#8706;" /><glyph d="M153 350C247 350 296 443 296 570C296 653 275 723 233 760H502L56 6L80 -10L536 760V790H153C60 790 10 696 10 570C10 443 60 350 153 350ZM148 377C87 377 67 460 67 575C67 691 93 762 159 762C219 762 239 680 239 564C239 443 214 377 148 377ZM447 -10C541 -10 590 83 590 210C590 336 541 430 447 430C354 430 304 336 304 210C304 83 354 -10 447 -10ZM442 17C381 17 361 100 361 215C361 331 387 402 453 402C513 402 533 320 533 204C533 83 508 17 442 17Z" glyph-name="percent" horiz-adv-x="600" unicode="%" /><glyph d="M90 50C90 10 121 -10 150 -10C180 -10 210 10 210 50C210 90 180 110 150 110C121 110 90 90 90 50Z" glyph-name="period" horiz-adv-x="300" unicode="." /><glyph d="M90 250C90 210 121 190 150 190C180 190 210 210 210 250C210 291 180 310 150 310C121 310 90 291 90 250Z" glyph-name="periodcentered" horiz-adv-x="300" unicode="&#183;" /><glyph d="M90 390C90 350 121 330 150 330C180 330 210 350 210 390C210 431 180 450 150 450C121 450 90 431 90 390Z" glyph-name="periodcentered.cap" horiz-adv-x="300" /><glyph d="M153 350C247 350 296 443 296 570C296 653 275 723 233 760H502L56 6L80 -10L536 760V790H153C60 790 10 696 10 570C10 443 60 350 153 350ZM148 377C87 377 67 460 67 575C67 691 93 762 159 762C219 762 239 680 239 564C239 443 214 377 148 377ZM747 -10C841 -10 890 83 890 210C890 336 841 430 747 430C654 430 604 336 604 210C604 83 654 -10 747 -10ZM447 -10C541 -10 590 83 590 210C590 336 541 430 447 430C354 430 304 336 304 210C304 83 354 -10 447 -10ZM742 17C681 17 661 100 661 215C661 331 687 402 753 402C813 402 833 320 833 204C833 83 808 17 742 17ZM442 17C381 17 361 100 361 215C361 331 387 402 453 402C513 402 533 320 533 204C533 83 508 17 442 17Z" glyph-name="perthousand" horiz-adv-x="900" unicode="&#8240;" /><glyph d="M217 0V470H383V90C383 22 393 0 461 0H550V30H459C425 30 413 40 413 90V470H550V500H50V470H187V0Z" glyph-name="pi" horiz-adv-x="600" unicode="&#960;" /><glyph d="M60 285H285V60H315V285H540V315H315V540H285V315H60Z" glyph-name="plus" horiz-adv-x="600" unicode="+" /><glyph d="M60 285H285V60H315V285H540V315H315V540H285V315H60ZM60 0H540V30H60Z" glyph-name="plusminus" horiz-adv-x="600" unicode="&#177;" /><glyph d="M205 750H395V0H425V750H550V780H50V750H175V0H205Z" glyph-name="product" horiz-adv-x="600" unicode="&#8719;" /><glyph d="M580 -220V-190H546C510 -190 480 -174 480 -130V500H440V394H436C414 438 360 510 262 510C146 510 40 410 40 250C40 90 140 -10 256 -10C356 -10 402 60 416 94H420V-130C420 -174 390 -190 354 -190H320V-220ZM420 158C412 111 360 30 275 30C180 30 120 120 120 250C120 380 182 470 277 470C360 470 420 405 420 304Z" glyph-name="q" horiz-adv-x="600" unicode="q" /><glyph d="M300 790C126 790 60 650 60 600C60 570 83 560 100 560C147 560 154 595 154 636C154 715 180 760 290 760C410 760 484 690 484 580C484 391 280 462 280 300V221H310V270C310 391 534 335 534 574C534 688 461 790 300 790ZM235 50C235 10 265 -10 295 -10C326 -10 356 10 356 50C356 90 326 110 295 110C266 110 235 90 235 50Z" glyph-name="question" horiz-adv-x="600" unicode="?" /><glyph d="M359 450C359 490 329 510 299 510C268 510 238 490 238 450C238 410 268 390 299 390C328 390 359 410 359 450ZM294 -290C468 -290 534 -150 534 -100C534 -70 511 -60 494 -60C447 -60 440 -95 440 -136C440 -215 414 -260 304 -260C184 -260 110 -190 110 -80C110 109 314 38 314 200V279H284V230C284 109 60 165 60 -74C60 -188 133 -290 294 -290Z" glyph-name="questiondown" horiz-adv-x="600" unicode="&#191;" /><glyph d="M359 730C359 770 329 790 299 790C268 790 238 770 238 730C238 690 268 670 299 670C328 670 359 690 359 730ZM294 -10C468 -10 534 130 534 180C534 210 511 220 494 220C447 220 440 185 440 144C440 65 414 20 304 20C184 20 110 90 110 200C110 389 314 318 314 480V559H284V510C284 389 60 445 60 206C60 92 133 -10 294 -10Z" glyph-name="questiondown.cap" horiz-adv-x="600" /><glyph d="M86 520H116V780H86ZM184 520H214V780H184Z" glyph-name="quotedbl" horiz-adv-x="300" unicode="&quot;" /><glyph d="M305 50C305 14 329 -2 351 -2C365 -2 372 2 377 6H381L269 -166L295 -182L415 14C422 25 425 35 425 50C425 90 395 110 365 110C336 110 305 90 305 50ZM105 50C105 14 129 -2 151 -2C165 -2 172 2 177 6H181L69 -166L95 -182L215 14C222 25 225 35 225 50C225 90 195 110 165 110C136 110 105 90 105 50Z" glyph-name="quotedblbase" horiz-adv-x="500" unicode="&#8222;" /><glyph d="M195 580C195 616 171 632 149 632C135 632 128 628 123 624H119L231 796L205 812L85 616C78 605 75 595 75 580C75 540 105 520 135 520C164 520 195 540 195 580ZM395 580C395 616 371 632 349 632C335 632 328 628 323 624H319L431 796L405 812L285 616C278 605 275 595 275 580C275 540 305 520 335 520C364 520 395 540 395 580Z" glyph-name="quotedblleft" horiz-adv-x="500" unicode="&#8220;" /><glyph d="M305 730C305 694 329 678 351 678C365 678 372 682 377 686H381L269 514L295 498L415 694C422 705 425 715 425 730C425 770 395 790 365 790C336 790 305 770 305 730ZM105 730C105 694 129 678 151 678C165 678 172 682 177 686H181L69 514L95 498L215 694C222 705 225 715 225 730C225 770 195 790 165 790C136 790 105 770 105 730Z" glyph-name="quotedblright" horiz-adv-x="500" unicode="&#8221;" /><glyph d="M195 580C195 616 171 632 149 632C135 632 128 628 123 624H119L231 796L205 812L85 616C78 605 75 595 75 580C75 540 105 520 135 520C164 520 195 540 195 580Z" glyph-name="quoteleft" horiz-adv-x="300" unicode="&#8216;" /><glyph d="M90 730C90 694 114 678 136 678C150 678 157 682 162 686H166L54 514L80 498L200 694C207 705 210 715 210 730C210 770 180 790 150 790C121 790 90 770 90 730Z" glyph-name="quoteright" horiz-adv-x="300" unicode="&#8217;" /><glyph d="M90 50C90 14 114 -2 136 -2C150 -2 157 2 162 6H166L54 -166L80 -182L200 14C207 25 210 35 210 50C210 90 180 110 150 110C121 110 90 90 90 50Z" glyph-name="quotesinglbase" horiz-adv-x="300" unicode="&#8218;" /><glyph d="M85 520H115V780H85Z" glyph-name="quotesingle" horiz-adv-x="200" unicode="'" /><glyph d="M180 358C182 362 230 430 310 430H368C396 430 410 444 410 472C410 502 388 510 364 510C312 510 241 452 174 386H170L214 506L210 510L20 440L30 410C56 420 70 424 84 424C116 424 120 396 120 340V90C120 46 90 30 54 30H20V0H280V30H246C210 30 180 46 180 90Z" glyph-name="r" horiz-adv-x="400" unicode="r" /><glyph d="M326 770 304 790 134 600 156 580ZM180 358C182 362 230 430 310 430H368C396 430 410 444 410 472C410 502 388 510 364 510C312 510 241 452 174 386H170L214 506L210 510L20 440L30 410C56 420 70 424 84 424C116 424 120 396 120 340V90C120 46 90 30 54 30H20V0H280V30H246C210 30 180 46 180 90Z" glyph-name="racute" horiz-adv-x="400" unicode="&#341;" /><glyph d="M36 500H0L176 0H226L470 780H434L203 25Z" glyph-name="radical" horiz-adv-x="470" unicode="&#8730;" /><glyph d="M30 770 198 580H202L370 770L348 790L200 622L52 790ZM180 358C182 362 230 430 310 430H368C396 430 410 444 410 472C410 502 388 510 364 510C312 510 241 452 174 386H170L214 506L210 510L20 440L30 410C56 420 70 424 84 424C116 424 120 396 120 340V90C120 46 90 30 54 30H20V0H280V30H246C210 30 180 46 180 90Z" glyph-name="rcaron" horiz-adv-x="400" unicode="&#345;" /><glyph d="M180 358C182 362 230 430 310 430H368C396 430 410 444 410 472C410 502 388 510 364 510C312 510 241 452 174 386H170L214 506L210 510L20 440L30 410C56 420 70 424 84 424C116 424 120 396 120 340V90C120 46 90 30 54 30H20V0H280V30H246C210 30 180 46 180 90ZM30 -210 52 -230 180 -70 158 -50Z" glyph-name="rcommaaccent" horiz-adv-x="400" unicode="&#343;" /><glyph d="M87 391C87 169 267 -10 487 -10C707 -10 887 169 887 391C887 611 707 790 487 790C267 790 87 611 87 391ZM121 391C121 595 283 760 487 760C691 760 853 595 853 391C853 187 691 20 487 20C283 20 121 187 121 391ZM515 137V157H463C424 157 406 170 406 196V385H471L623 137H710V157H697C666 157 650 175 629 209L518 386C611 391 684 425 684 514C684 612 603 644 480 644H268V625H307C346 625 364 612 364 586V196C364 170 346 157 307 157H268V137ZM629 514C629 423 558 405 473 405H406V586C406 612 424 625 463 625H473C564 625 629 599 629 514Z" glyph-name="registered" horiz-adv-x="937" unicode="&#174;" /><glyph d="M351 685C351 746 307 784 250 784C194 784 150 746 150 685C150 623 194 584 250 584C307 584 351 623 351 685ZM318 685C318 640 291 612 250 612C210 612 182 640 182 685C182 728 210 756 250 756C291 756 318 728 318 685Z" glyph-name="ring" horiz-adv-x="500" unicode="&#730;" /><glyph d="M351 926C351 987 307 1025 250 1025C194 1025 150 987 150 926C150 864 194 825 250 825C307 825 351 864 351 926ZM318 926C318 881 291 853 250 853C210 853 182 881 182 926C182 969 210 997 250 997C291 997 318 969 318 926Z" glyph-name="ring.cap" horiz-adv-x="500" /><glyph d="M410 320 430 330 365 510H361L346 496C336 486 328 478 312 478C284 478 264 510 195 510C100 510 50 450 50 380C50 280 150 258 242 230C320 206 390 184 390 110C390 68 361 30 280 30C140 30 57 188 50 200L30 190L96 -10H100L114 4C130 20 140 34 154 34C178 34 206 -10 290 -10C391 -10 450 50 450 130C450 245 348 268 256 294C180 316 110 332 110 400C110 440 140 480 200 480C320 480 410 320 410 320Z" glyph-name="s" horiz-adv-x="500" unicode="s" /><glyph d="M376 770 354 790 184 600 206 580ZM410 320 430 330 365 510H361L346 496C336 486 328 478 312 478C284 478 264 510 195 510C100 510 50 450 50 380C50 280 150 258 242 230C320 206 390 184 390 110C390 68 361 30 280 30C140 30 57 188 50 200L30 190L96 -10H100L114 4C130 20 140 34 154 34C178 34 206 -10 290 -10C391 -10 450 50 450 130C450 245 348 268 256 294C180 316 110 332 110 400C110 440 140 480 200 480C320 480 410 320 410 320Z" glyph-name="sacute" horiz-adv-x="500" unicode="&#347;" /><glyph d="M80 770 248 580H252L420 770L398 790L250 622L102 790ZM410 320 430 330 365 510H361L346 496C336 486 328 478 312 478C284 478 264 510 195 510C100 510 50 450 50 380C50 280 150 258 242 230C320 206 390 184 390 110C390 68 361 30 280 30C140 30 57 188 50 200L30 190L96 -10H100L114 4C130 20 140 34 154 34C178 34 206 -10 290 -10C391 -10 450 50 450 130C450 245 348 268 256 294C180 316 110 332 110 400C110 440 140 480 200 480C320 480 410 320 410 320Z" glyph-name="scaron" horiz-adv-x="500" unicode="&#353;" /><glyph d="M140 -140C142 -150 158 -210 240 -210C300 -210 340 -180 340 -130C340 -85 306 -64 272 -64C262 -64 251 -66 240 -70L293 -10C391 -10 450 50 450 130C450 245 348 268 256 294C180 316 110 332 110 400C110 440 140 480 200 480C320 480 410 320 410 320L430 330L365 510H361L346 496C336 486 328 478 312 478C284 478 264 510 195 510C100 510 50 450 50 380C50 280 150 258 242 230C320 206 390 184 390 110C390 74 369 42 314 33L310 40L302 31C295 30 288 30 280 30C140 30 57 188 50 200L30 190L96 -10H100L114 4C130 20 140 34 154 34C176 34 200 -1 266 -9L210 -70L220 -90C226 -88 234 -86 246 -86C274 -86 304 -98 304 -134C304 -166 282 -182 240 -182C180 -182 164 -140 160 -130Z" glyph-name="scedilla" horiz-adv-x="500" unicode="&#351;" /><glyph d="M50 216C50 100 108 -10 250 -10C364 -10 470 88 470 260C470 400 388 510 252 510C86 510 42 330 40 320L60 310C62 322 96 460 230 460C338 460 390 369 390 250C390 240 390 230 389 220H54ZM238 20C130 20 130 144 130 190H386C370 84 314 20 238 20Z" glyph-name="schwa" horiz-adv-x="500" /><glyph d="M80 600 102 580 250 748 398 580 420 600 252 790H248ZM410 320 430 330 365 510H361L346 496C336 486 328 478 312 478C284 478 264 510 195 510C100 510 50 450 50 380C50 280 150 258 242 230C320 206 390 184 390 110C390 68 361 30 280 30C140 30 57 188 50 200L30 190L96 -10H100L114 4C130 20 140 34 154 34C178 34 206 -10 290 -10C391 -10 450 50 450 130C450 245 348 268 256 294C180 316 110 332 110 400C110 440 140 480 200 480C320 480 410 320 410 320Z" glyph-name="scircumflex" horiz-adv-x="500" unicode="&#349;" /><glyph d="M410 320 430 330 365 510H361L346 496C336 486 328 478 312 478C284 478 264 510 195 510C100 510 50 450 50 380C50 280 150 258 242 230C320 206 390 184 390 110C390 68 361 30 280 30C140 30 57 188 50 200L30 190L96 -10H100L114 4C130 20 140 34 154 34C178 34 206 -10 290 -10C391 -10 450 50 450 130C450 245 348 268 256 294C180 316 110 332 110 400C110 440 140 480 200 480C320 480 410 320 410 320ZM130 -210 152 -230 280 -70 258 -50Z" glyph-name="scommaaccent" horiz-adv-x="500" unicode="&#537;" /><glyph d="M414 130C414 202 367 233 310 255C380 269 420 314 420 380C420 575 114 480 114 654C114 720 160 760 240 760C382 760 400 650 400 640L420 650C420 660 404 790 244 790C138 790 80 730 80 650C80 579 123 546 177 523C112 507 74 463 74 400C74 200 380 290 380 130C380 64 334 20 250 20C112 20 84 130 84 140L64 130C64 120 90 -10 246 -10C358 -10 414 50 414 130ZM108 404C108 465 147 504 216 509C297 483 386 466 386 380C386 315 342 272 264 270C187 294 108 316 108 404Z" glyph-name="section" horiz-adv-x="500" unicode="&#167;" /><glyph d="M90 450C90 410 121 390 150 390C180 390 210 410 210 450C210 490 180 510 150 510C121 510 90 490 90 450ZM90 50C90 14 114 -2 136 -2C150 -2 157 2 162 6H166L54 -166L80 -182L200 14C207 25 210 35 210 50C210 90 180 110 150 110C121 110 90 90 90 50Z" glyph-name="semicolon" horiz-adv-x="300" unicode=";" /><glyph d="M314 90C314 450 560 754 580 776V780H100L50 600L70 590C82 630 120 730 270 730H434C456 730 464 720 464 706C464 630 220 240 220 38C220 -2 244 -10 260 -10C309 -10 314 28 314 90Z" glyph-name="seven" horiz-adv-x="600" unicode="7" /><glyph d="M314 90C314 450 560 754 580 776V780H100L50 600L70 590C82 630 120 730 270 730H434C456 730 464 720 464 706C464 630 220 240 220 38C220 -2 244 -10 260 -10C309 -10 314 28 314 90Z" glyph-name="seven.LP" horiz-adv-x="600" /><glyph d="M200 405C200 603 335 770 346 782V784H82L55 685L71 674C78 696 93 746 176 746H255C267 746 272 740 272 732C272 681 148 509 148 376C148 354 161 350 170 350C198 350 200 370 200 405Z" glyph-name="sevensuperior" horiz-adv-x="400" unicode="&#8311;" /><glyph d="M340 760C440 760 466 708 466 638C466 598 471 560 520 560C538 560 560 570 560 600C560 656 488 790 324 790C150 790 40 600 40 380C40 130 150 -10 310 -10C450 -10 560 100 560 250C560 410 450 510 320 510C231 510 165 462 125 401C132 610 207 760 340 760ZM296 480C400 480 476 380 476 250C476 110 414 20 314 20C202 20 134 132 134 270C134 386 190 480 296 480Z" glyph-name="six" horiz-adv-x="600" unicode="6" /><glyph d="M340 760C440 760 466 708 466 638C466 598 471 560 520 560C538 560 560 570 560 600C560 656 488 790 324 790C150 790 40 600 40 380C40 130 150 -10 310 -10C450 -10 560 100 560 250C560 410 450 510 320 510C231 510 165 462 125 401C132 610 207 760 340 760ZM296 480C400 480 476 380 476 250C476 110 414 20 314 20C202 20 134 132 134 270C134 386 190 480 296 480Z" glyph-name="six.LP" horiz-adv-x="600" /><glyph d="M222 762C268 762 291 744 291 706C291 684 295 663 321 663C331 663 343 669 343 685C343 716 303 790 220 790C118 790 57 685 57 564C57 427 118 350 206 350C283 350 343 410 343 493C343 581 283 636 211 636C164 636 133 611 114 578C118 691 153 762 222 762ZM198 608C251 608 286 564 286 493C286 416 258 377 208 377C151 377 120 428 120 504C120 567 144 608 198 608Z" glyph-name="sixsuperior" horiz-adv-x="400" unicode="&#8310;" /><glyph d="M470 790 4 -218 30 -230 496 778Z" glyph-name="slash" horiz-adv-x="500" unicode="/" /><glyph glyph-name="space" horiz-adv-x="300" unicode=" " /><glyph d="M840 780H60V0H840ZM810 750V30H90V750ZM593 288C593 360 547 390 497 412C536 429 571 462 571 514C571 578 516 610 448 610C374 610 322 569 322 505C322 448 356 421 397 400C352 382 307 348 307 283C307 206 373 170 443 170C527 170 593 212 593 288ZM373 514C373 555 401 582 450 582C500 582 538 562 538 506C538 456 512 430 479 419C426 442 373 459 373 514ZM340 288C340 349 374 380 415 392C475 366 542 348 542 280C542 219 496 197 445 197C390 197 340 221 340 288Z" glyph-name="squareddigiteight" horiz-adv-x="900" /><glyph d="M840 780H60V0H840ZM810 750V30H90V750ZM445 426C512 426 536 382 536 316C536 244 501 200 436 200C339 200 325 301 324 310L307 299C310 278 328 173 445 173C535 173 593 232 593 316C593 422 516 453 456 453C409 453 379 433 362 417V530C362 563 373 569 401 569H461C544 569 559 519 566 497L582 508L555 607H335V386H362C370 400 396 426 445 426Z" glyph-name="squareddigitfive" horiz-adv-x="900" /><glyph d="M840 780H60V0H840ZM810 750V30H90V750ZM448 504C449 504 450 502 450 497V326H315L441 497C445 503 446 504 448 504ZM281 299H450V244C450 222 441 211 408 211H364V183H584V211H540C507 211 497 222 497 244V299H595V326H497V618H494L281 326Z" glyph-name="squareddigitfour" horiz-adv-x="900" /><glyph d="M840 780H60V0H840ZM810 750V30H90V750ZM428 197C362 197 335 258 329 291L313 280C317 259 341 170 436 170C538 170 593 274 593 395C593 533 533 610 445 610C368 610 307 549 307 467C307 379 368 324 439 324C486 324 517 347 536 379C532 261 503 197 428 197ZM452 351C399 351 364 395 364 467C364 544 392 582 442 582C500 582 530 531 530 456C530 392 506 351 452 351Z" glyph-name="squareddigitnine" horiz-adv-x="900" /><glyph d="M840 780H60V0H840ZM810 750V30H90V750ZM427 234C427 212 418 201 385 201H324V173H577V201H517C484 201 474 212 474 234V608H446V587C446 553 436 536 396 536H330V509H427Z" glyph-name="squareddigitone" horiz-adv-x="900" /><glyph d="M840 780H60V0H840ZM810 750V30H90V750ZM449 228C449 426 584 593 595 605V607H331L304 508L320 497C327 519 342 569 425 569H504C516 569 521 563 521 555C521 504 397 332 397 199C397 177 410 173 419 173C447 173 449 193 449 228Z" glyph-name="squareddigitseven" horiz-adv-x="899" /><glyph d="M840 780H60V0H840ZM810 750V30H90V750ZM464 582C510 582 533 564 533 526C533 504 537 483 563 483C573 483 585 489 585 505C585 536 545 610 462 610C360 610 299 505 299 384C299 247 360 170 448 170C525 170 585 230 585 313C585 401 525 456 453 456C406 456 375 431 356 398C360 511 395 582 464 582ZM440 428C493 428 528 384 528 313C528 236 500 197 450 197C393 197 362 248 362 324C362 387 386 428 440 428Z" glyph-name="squareddigitsix" horiz-adv-x="900" /><glyph d="M840 780H60V0H840ZM810 750V30H90V750ZM574 170C668 170 717 263 717 390C717 516 668 610 574 610C481 610 431 516 431 390C431 263 481 170 574 170ZM291 234C291 212 282 201 249 201H188V173H441V201H381C348 201 338 212 338 234V608H310V587C310 553 300 536 260 536H194V509H291ZM569 197C508 197 488 280 488 395C488 511 514 582 580 582C640 582 660 500 660 384C660 263 635 197 569 197Z" glyph-name="squareddigitten" horiz-adv-x="900" /><glyph d="M840 780H60V0H840ZM810 750V30H90V750ZM593 294C593 382 511 403 490 407V409C497 409 579 428 579 511C579 560 541 610 458 610C366 610 326 536 326 505C326 489 340 483 348 483C376 483 378 504 378 526C378 564 399 582 447 582C500 582 524 549 524 500C524 450 491 417 431 417H398V391H431C497 391 535 365 535 296C535 241 506 197 435 197C338 197 324 298 323 307L307 296C310 275 323 170 444 170C534 170 593 227 593 294Z" glyph-name="squareddigitthree" horiz-adv-x="900" /><glyph d="M840 780H60V0H840ZM810 750V30H90V750ZM563 173 590 272 574 283C567 261 552 212 469 212H377C368 212 363 214 363 219C363 224 367 228 371 234C447 329 576 366 576 487C576 559 530 608 447 608C355 608 315 534 315 503C315 487 328 481 337 481C365 481 367 502 367 524C367 562 392 580 436 580C491 580 519 553 519 487C519 362 379 307 310 190V173Z" glyph-name="squareddigittwo" horiz-adv-x="899" /><glyph d="M840 780H60V0H840ZM810 750V30H90V750ZM450 170C544 170 593 263 593 390C593 516 544 610 450 610C357 610 307 516 307 390C307 263 357 170 450 170ZM445 197C384 197 364 280 364 395C364 511 390 582 456 582C516 582 536 500 536 384C536 263 511 197 445 197Z" glyph-name="squareddigitzero" horiz-adv-x="900" /><glyph d="M30 375H172C180 353 186 329 186 300C186 192 88 62 60 30V0H520L570 180L550 190C538 150 500 50 350 50H150C134 50 126 54 126 63C126 104 270 180 270 320C270 341 268 359 264 375H420V405H255C233 465 194 506 194 598C194 676 230 760 330 760C430 760 456 708 456 638C456 598 461 560 510 560C527 560 550 570 550 600C550 656 478 790 310 790C200 790 110 708 110 580C110 501 138 454 160 405H30Z" glyph-name="sterling" horiz-adv-x="600" unicode="&#163;" /><glyph d="M30 375H172C180 353 186 329 186 300C186 192 88 62 60 30V0H520L570 180L550 190C538 150 500 50 350 50H150C134 50 126 54 126 63C126 104 270 180 270 320C270 341 268 359 264 375H420V405H255C233 465 194 506 194 598C194 676 230 760 330 760C430 760 456 708 456 638C456 598 461 560 510 560C527 560 550 570 550 600C550 656 478 790 310 790C200 790 110 708 110 580C110 501 138 454 160 405H30Z" glyph-name="sterling.LP" horiz-adv-x="600" /><glyph d="M40 -190V-220H550V-190H78L362 300L78 750H550V780H40V750L322 300Z" glyph-name="summation" horiz-adv-x="600" unicode="&#8721;" /><glyph d="M385 667H415V774H385ZM681 650 660 671 584 595 605 574ZM140 671 119 650 195 574 216 595ZM402 144C541 144 647 250 647 390C647 530 541 635 402 635C262 635 155 530 155 390C155 250 262 144 402 144ZM402 176C278 176 189 266 189 390C189 514 278 604 402 604C524 604 613 514 613 390C613 266 524 176 402 176ZM677 405V375H784V405ZM17 405V375H125V405ZM215 184 194 205 118 129 139 108ZM606 205 585 184 661 108 682 129ZM385 7H415V115H385Z" glyph-name="sunrayswhite" horiz-adv-x="800" unicode="&#9788;" /><glyph d="M0 470H130V150C130 40 185 -10 270 -10C412 -10 426 160 430 190L410 200C406 164 392 40 286 40C216 40 190 90 190 170V470H390V500H190V730H160V691C160 530 103 500 30 500H0Z" glyph-name="t" horiz-adv-x="400" unicode="t" /><glyph d="M310 332H190V470H390V500H190V730H160V691C160 530 103 500 30 500H0V470H130V332H20V300H130V150C130 40 185 -10 270 -10C412 -10 426 160 430 190L410 200C406 164 392 40 286 40C216 40 190 90 190 170V300H310Z" glyph-name="tbar" horiz-adv-x="400" unicode="&#359;" /><glyph d="M300 732 270 740 214 538 244 530ZM0 470H130V150C130 40 185 -10 270 -10C412 -10 426 160 430 190L410 200C406 164 392 40 286 40C216 40 190 90 190 170V470H390V500H190V730H160V691C160 530 103 500 30 500H0Z" glyph-name="tcaron" horiz-adv-x="400" unicode="&#357;" /><glyph d="M0 470H130V150C130 40 185 -10 270 -10C412 -10 426 160 430 190L410 200C406 164 392 40 286 40C216 40 190 90 190 170V470H390V500H190V730H160V691C160 530 103 500 30 500H0ZM140 -210 162 -230 290 -70 268 -50Z" glyph-name="tcommaaccent" horiz-adv-x="400" unicode="&#539;" /><glyph glyph-name="thinspace" horiz-adv-x="100" unicode="&#8201;" /><glyph d="M180 -130V72C205 33 248 -10 334 -10C450 -10 560 90 560 250C560 410 468 510 348 510C254 510 200 434 184 408H180V786L176 790L20 720L30 690C54 700 70 708 84 708C116 708 120 675 120 618V-130C120 -174 90 -190 54 -190H20V-220H280V-190H246C210 -190 180 -174 180 -130ZM180 292C180 396 248 470 333 470C428 470 480 380 480 250C480 120 410 30 315 30C226 30 188 100 180 138Z" glyph-name="thorn" horiz-adv-x="600" unicode="&#254;" /><glyph d="M550 216C550 376 402 414 364 422V426C376 426 526 459 526 610C526 700 456 790 306 790C138 790 66 656 66 600C66 570 89 560 106 560C155 560 160 598 160 638C160 708 186 760 286 760C406 760 446 680 446 590C446 479 377 430 256 430H196V401H256C387 401 466 346 466 220C466 120 392 40 264 40C68 40 52 214 50 230L30 220C36 182 60 -10 280 -10C444 -10 550 94 550 216Z" glyph-name="three" horiz-adv-x="600" unicode="3" /><glyph d="M550 216C550 376 402 414 364 422V426C376 426 526 459 526 610C526 700 456 790 306 790C138 790 66 656 66 600C66 570 89 560 106 560C155 560 160 598 160 638C160 708 186 760 286 760C406 760 446 680 446 590C446 479 377 430 256 430H196V401H256C387 401 466 346 466 220C466 120 392 40 264 40C68 40 52 214 50 230L30 220C36 182 60 -10 280 -10C444 -10 550 94 550 216Z" glyph-name="three.LP" horiz-adv-x="600" /><glyph d="M546 790 82 6 106 -10 570 774ZM296 474C296 562 214 583 193 587V589C200 589 282 608 282 691C282 740 244 790 161 790C69 790 29 716 29 685C29 669 43 663 51 663C79 663 81 684 81 706C81 744 102 762 150 762C203 762 227 729 227 680C227 630 194 597 134 597H101V571H134C200 571 238 545 238 476C238 421 209 377 138 377C41 377 27 478 26 487L10 476C13 455 26 350 147 350C237 350 296 407 296 474ZM443 321C444 321 445 319 445 314V143H310L436 314C440 320 441 321 443 321ZM276 116H445V61C445 39 436 28 403 28H359V0H579V28H535C502 28 492 39 492 61V116H590V143H492V435H489L276 143Z" glyph-name="threequarters" horiz-adv-x="600" unicode="&#190;" /><glyph d="M344 474C344 562 262 583 241 587V589C248 589 330 608 330 691C330 740 292 790 209 790C117 790 77 716 77 685C77 669 91 663 99 663C127 663 129 684 129 706C129 744 150 762 198 762C251 762 275 729 275 680C275 630 242 597 182 597H149V571H182C248 571 286 545 286 476C286 421 257 377 186 377C89 377 75 478 74 487L58 476C61 455 74 350 195 350C285 350 344 407 344 474Z" glyph-name="threesuperior" horiz-adv-x="400" unicode="&#179;" /><glyph d="M328 700C376 700 397 654 401 640H431C427 657 402 732 328 732C264 732 236 670 172 670C124 670 103 716 99 730H69C72 713 98 638 172 638C246 638 275 700 328 700Z" glyph-name="tilde" horiz-adv-x="500" unicode="&#732;" /><glyph d="M328 940C376 940 397 894 401 880H431C427 897 402 972 328 972C264 972 236 910 172 910C124 910 103 956 99 970H69C72 953 98 878 172 878C246 878 275 940 328 940Z" glyph-name="tilde.cap" horiz-adv-x="500" /><glyph d="M373 350V370H333C294 370 275 383 275 409V720C275 747 294 760 333 760H353C431 760 463 711 477 677V409C477 383 459 370 419 370H393V350H584V370H558C518 370 500 383 500 409V731L670 343H673L846 730V409C846 383 828 370 788 370H749V350H986V370H947C907 370 889 383 889 409V720C889 747 907 760 947 760H986V780H841L684 421L526 780H43L10 661L23 654C31 681 56 760 155 760H175C214 760 233 747 233 720V409C233 384 214 370 175 370H135V350Z" glyph-name="trademark" horiz-adv-x="1000" unicode="&#8482;" /><glyph d="M510 0 560 180 540 190C528 150 490 50 340 50H140C124 50 116 54 116 63C116 72 122 80 130 90C268 263 534 350 534 570C534 701 450 790 300 790C132 790 60 656 60 600C60 570 83 560 100 560C149 560 154 598 154 638C154 708 180 760 280 760C400 760 450 690 450 570C450 344 176 244 50 30V0Z" glyph-name="two" horiz-adv-x="600" unicode="2" /><glyph d="M510 0 560 180 540 190C528 150 490 50 340 50H140C124 50 116 54 116 63C116 72 122 80 130 90C268 263 534 350 534 570C534 701 450 790 300 790C132 790 60 656 60 600C60 570 83 560 100 560C149 560 154 598 154 638C154 708 180 760 280 760C400 760 450 690 450 570C450 344 176 244 50 30V0Z" glyph-name="two.LP" horiz-adv-x="600" /><glyph d="M313 355 340 454 324 465C317 443 302 394 219 394H127C118 394 113 396 113 401C113 406 117 410 121 416C197 511 326 548 326 669C326 741 280 790 197 790C105 790 65 716 65 685C65 669 78 663 87 663C115 663 117 684 117 706C117 744 142 762 186 762C241 762 269 735 269 669C269 544 129 489 60 372V355Z" glyph-name="twosuperior" horiz-adv-x="400" unicode="&#178;" /><glyph d="M160 500H10V470H34C70 470 100 454 100 410V128C100 50 144 -10 236 -10C324 -10 372 50 426 134H430L406 -6L410 -10L580 30V60C564 56 540 50 526 50C494 50 480 66 480 112V500H320V470H354C390 470 420 454 420 410V220C420 135 358 50 272 50C212 50 160 79 160 160Z" glyph-name="u" horiz-adv-x="600" unicode="u" /><glyph d="M416 770 394 790 224 600 246 580ZM160 500H10V470H34C70 470 100 454 100 410V128C100 50 144 -10 236 -10C324 -10 372 50 426 134H430L406 -6L410 -10L580 30V60C564 56 540 50 526 50C494 50 480 66 480 112V500H320V470H354C390 470 420 454 420 410V220C420 135 358 50 272 50C212 50 160 79 160 160Z" glyph-name="uacute" horiz-adv-x="600" unicode="&#250;" /><glyph d="M190 745H160C164 703 190 625 290 625C390 625 416 703 420 745H390C386 720 370 655 290 655C210 655 194 720 190 745ZM160 500H10V470H34C70 470 100 454 100 410V128C100 50 144 -10 236 -10C324 -10 372 50 426 134H430L406 -6L410 -10L580 30V60C564 56 540 50 526 50C494 50 480 66 480 112V500H320V470H354C390 470 420 454 420 410V220C420 135 358 50 272 50C212 50 160 79 160 160Z" glyph-name="ubreve" horiz-adv-x="600" unicode="&#365;" /><glyph d="M120 600 142 580 290 748 438 580 460 600 292 790H288ZM160 500H10V470H34C70 470 100 454 100 410V128C100 50 144 -10 236 -10C324 -10 372 50 426 134H430L406 -6L410 -10L580 30V60C564 56 540 50 526 50C494 50 480 66 480 112V500H320V470H354C390 470 420 454 420 410V220C420 135 358 50 272 50C212 50 160 79 160 160Z" glyph-name="ucircumflex" horiz-adv-x="600" unicode="&#251;" /><glyph d="M160 685C160 649 184 635 210 635C236 635 260 649 260 685C260 721 236 735 210 735C185 735 160 721 160 685ZM320 685C320 649 344 635 370 635C396 635 420 649 420 685C420 721 396 735 370 735C345 735 320 721 320 685ZM160 500H10V470H34C70 470 100 454 100 410V128C100 50 144 -10 236 -10C324 -10 372 50 426 134H430L406 -6L410 -10L580 30V60C564 56 540 50 526 50C494 50 480 66 480 112V500H320V470H354C390 470 420 454 420 410V220C420 135 358 50 272 50C212 50 160 79 160 160Z" glyph-name="udieresis" horiz-adv-x="600" unicode="&#252;" /><glyph d="M174 770 344 580 366 600 196 790ZM160 500H10V470H34C70 470 100 454 100 410V128C100 50 144 -10 236 -10C324 -10 372 50 426 134H430L406 -6L410 -10L580 30V60C564 56 540 50 526 50C494 50 480 66 480 112V500H320V470H354C390 470 420 454 420 410V220C420 135 358 50 272 50C212 50 160 79 160 160Z" glyph-name="ugrave" horiz-adv-x="600" unicode="&#249;" /><glyph d="M340 750 200 594 222 574 362 730ZM460 750 320 594 342 574 482 730ZM160 500H10V470H34C70 470 100 454 100 410V128C100 50 144 -10 236 -10C324 -10 372 50 426 134H430L406 -6L410 -10L580 30V60C564 56 540 50 526 50C494 50 480 66 480 112V500H320V470H354C390 470 420 454 420 410V220C420 135 358 50 272 50C212 50 160 79 160 160Z" glyph-name="uhungarumlaut" horiz-adv-x="600" unicode="&#369;" /><glyph d="M402 701H178V669H402ZM160 500H10V470H34C70 470 100 454 100 410V128C100 50 144 -10 236 -10C324 -10 372 50 426 134H430L406 -6L410 -10L580 30V60C564 56 540 50 526 50C494 50 480 66 480 112V500H320V470H354C390 470 420 454 420 410V220C420 135 358 50 272 50C212 50 160 79 160 160Z" glyph-name="umacron" horiz-adv-x="600" unicode="&#363;" /><glyph d="M20 -50H580V-20H20Z" glyph-name="underscore" horiz-adv-x="600" unicode="_" /><glyph d="M87 391C87 169 267 -10 487 -10C707 -10 887 169 887 391C887 611 707 790 487 790C267 790 87 611 87 391ZM121 391C121 595 283 760 487 760C691 760 853 595 853 391C853 187 691 20 487 20C283 20 121 187 121 391ZM545 137V157H493C454 157 436 170 436 196V385H523C628 385 714 417 714 514C714 612 633 644 510 644H298V625H337C376 625 394 612 394 586V196C394 170 376 157 337 157H298V137ZM659 514C659 423 588 405 503 405H436V586C436 612 454 625 493 625H503C594 625 659 599 659 514Z" glyph-name="uni2117" horiz-adv-x="937" unicode="&#8471;" /><glyph d="M500 -10C673 -10 850 169 850 390C850 611 671 790 450 790C228 790 50 609 50 390C50 329 64 268 93 210L120 223C95 275 84 324 84 390C84 593 246 760 450 760C654 760 816 594 816 390C816 186 651 20 494 20C400 20 350 70 350 138C350 164 354 191 358 199L436 171L466 256L382 286L464 513L549 483L579 568L466 609L323 212L337 207C332 192 327 164 327 138C327 62 370 -10 500 -10Z" glyph-name="uni260E" horiz-adv-x="900" unicode="&#9742;" /><glyph d="M612 128V652H88V128ZM582 158H118V622H582Z" glyph-name="uni2610" horiz-adv-x="700" unicode="&#9744;" /><glyph d="M612 128V652H88V128ZM582 158H118V622H582ZM482 560 300 251 218 390H180L290 210H310L520 560Z" glyph-name="uni2611" horiz-adv-x="700" unicode="&#9745;" /><glyph d="M612 128V652H88V128ZM582 158H118V622H582ZM222 560H180L329 390L180 220H222L350 366L478 220H520L371 390L520 560H478L350 414Z" glyph-name="uni2612" horiz-adv-x="700" unicode="&#9746;" /><glyph d="M222 560H180L329 390L180 220H222L350 366L478 220H520L371 390L520 560H478L350 414Z" glyph-name="uni2713" horiz-adv-x="700" unicode="&#10003;" /><glyph d="M840 300 620 520 600 500 787 315H93L280 500L260 520L40 300L260 80L280 100L93 285H787L600 100L620 80Z" glyph-name="uni27F7" horiz-adv-x="880" unicode="&#10231;" /><glyph d="M390 100 203 285H560V315H203L390 500L370 520L150 300L370 80ZM60 80H90V520H60Z" glyph-name="uni2B70" horiz-adv-x="600" unicode="&#11120;" /><glyph d="M80 500V470H520V500ZM100 170 285 357V0H315V357L500 170L520 190L300 410L80 190Z" glyph-name="uni2B71" horiz-adv-x="600" unicode="&#11121;" /><glyph d="M210 100 230 80 450 300 230 520 210 500 397 315H40V285H397ZM540 80V520H510V80Z" glyph-name="uni2B72" horiz-adv-x="600" unicode="&#11122;" /><glyph d="M100 330 80 310 300 90 520 310 500 330 315 143V500H285V143ZM80 0H520V30H80Z" glyph-name="uni2B73" horiz-adv-x="600" unicode="&#11123;" /><glyph d="M80 0H110V790H330V820H80Z" glyph-name="uni300C" horiz-adv-x="400" unicode="&#12300;" /><glyph d="M320 780H290V-10H70V-40H320Z" glyph-name="uni300D" horiz-adv-x="400" unicode="&#12301;" /><glyph d="M788 632V662H186V632ZM503 294V488H788V518H186V488H471V294ZM331 368C331 371 331 375 330 377L357 388L344 417L319 405C318 406 317 408 315 409L331 432L305 449L290 424C288 425 287 425 285 425V454H255V425C253 425 252 425 250 424L235 449L209 432L225 408C224 407 223 406 222 405L196 417L183 388L211 377C210 374 210 371 210 368C210 330 238 307 270 307C303 307 331 330 331 368ZM643 368C643 330 671 307 704 307C736 307 764 330 764 368C764 371 764 374 763 377L791 388L778 417L752 405C751 406 750 407 749 408L765 432L739 449L724 424L719 425V454H689V425C687 425 686 425 684 424L669 449L643 432L659 409C657 408 656 406 655 405L630 417L617 388L644 377C643 375 643 371 643 368ZM102 379C102 402 110 420 128 420C139 420 145 416 150 411L170 431C162 440 151 448 130 448C94 448 70 420 70 379C70 317 104 270 150 270C209 149 339 118 487 118C635 118 765 149 824 270C870 270 904 317 904 379C904 420 880 448 844 448C823 448 812 440 804 431L824 411C829 416 835 420 846 420C864 420 872 402 872 379C872 337 848 297 804 297C752 179 629 148 487 148C345 148 222 179 170 297C126 297 102 337 102 379ZM300 368C300 349 289 335 270 335C252 335 240 349 240 368C240 385 252 399 270 399C289 399 300 385 300 368ZM674 368C674 385 685 399 704 399C722 399 734 385 734 368C734 349 722 335 704 335C685 335 674 349 674 368ZM289 287C318 208 379 168 487 168C595 168 656 208 685 287H653C625 218 579 196 487 196C395 196 349 218 321 287Z" glyph-name="uni3020" horiz-adv-x="937" unicode="&#12320;" /><glyph d="M87 391C87 169 267 -10 487 -10C707 -10 887 169 887 391C887 611 707 790 487 790C267 790 87 611 87 391ZM119 391C119 597 283 760 487 760C691 760 855 597 855 391C855 185 691 20 487 20C283 20 119 185 119 391ZM698 584V614H276V584ZM503 106V440H698V470H276V440H471V106Z" glyph-name="uni3036" horiz-adv-x="937" unicode="&#12342;" /><glyph d="M160 500H10V470H34C70 470 100 454 100 410V128C100 50 144 -10 236 -10C324 -10 372 50 426 134H430L406 -6L410 -10L504 12C467 -43 450 -72 450 -108C450 -140 470 -170 512 -170H580V-140H526C502 -140 484 -130 484 -104C484 -77 495 -46 540 21L580 30V60C564 56 540 50 526 50C494 50 480 66 480 112V500H320V470H354C390 470 420 454 420 410V220C420 135 358 50 272 50C212 50 160 79 160 160Z" glyph-name="uogonek" horiz-adv-x="600" unicode="&#371;" /><glyph d="M391 685C391 746 347 784 290 784C234 784 190 746 190 685C190 623 234 584 290 584C347 584 391 623 391 685ZM358 685C358 640 331 612 290 612C250 612 222 640 222 685C222 728 250 756 290 756C331 756 358 728 358 685ZM160 500H10V470H34C70 470 100 454 100 410V128C100 50 144 -10 236 -10C324 -10 372 50 426 134H430L406 -6L410 -10L580 30V60C564 56 540 50 526 50C494 50 480 66 480 112V500H320V470H354C390 470 420 454 420 410V220C420 135 358 50 272 50C212 50 160 79 160 160Z" glyph-name="uring" horiz-adv-x="600" unicode="&#367;" /><glyph d="M368 700C416 700 437 654 441 640H471C467 657 442 732 368 732C304 732 276 670 212 670C164 670 143 716 139 730H109C112 713 138 638 212 638C286 638 315 700 368 700ZM160 500H10V470H34C70 470 100 454 100 410V128C100 50 144 -10 236 -10C324 -10 372 50 426 134H430L406 -6L410 -10L580 30V60C564 56 540 50 526 50C494 50 480 66 480 112V500H320V470H354C390 470 420 454 420 410V220C420 135 358 50 272 50C212 50 160 79 160 160Z" glyph-name="utilde" horiz-adv-x="600" unicode="&#361;" /><glyph d="M80 420 248 -10H252L410 400C431 456 460 470 496 470H520V500H290V470H314C350 470 386 465 386 430C386 422 385 413 380 400L268 102L150 410C147 418 144 426 144 436C144 465 170 470 200 470H230V500H-10V470H14C48 470 65 457 80 420Z" glyph-name="v" horiz-adv-x="500" unicode="v" /><glyph d="M70 420 218 -10H222L349 365L478 -10H482L620 400C639 457 670 470 706 470H730V500H510V470H524C560 470 596 465 596 430C596 422 594 413 590 400L499 121L400 410C397 418 394 426 394 436C394 465 420 470 450 470H480V500H250V470H264C298 470 317 457 330 420L334 409L239 121L140 410C137 418 134 426 134 436C134 465 160 470 190 470H220V500H-20V470H4C38 470 57 457 70 420Z" glyph-name="w" horiz-adv-x="700" unicode="w" /><glyph d="M486 770 464 790 294 600 316 580ZM70 420 218 -10H222L349 365L478 -10H482L620 400C639 457 670 470 706 470H730V500H510V470H524C560 470 596 465 596 430C596 422 594 413 590 400L499 121L400 410C397 418 394 426 394 436C394 465 420 470 450 470H480V500H250V470H264C298 470 317 457 330 420L334 409L239 121L140 410C137 418 134 426 134 436C134 465 160 470 190 470H220V500H-20V470H4C38 470 57 457 70 420Z" glyph-name="wacute" horiz-adv-x="700" unicode="&#7811;" /><glyph d="M190 600 212 580 360 748 508 580 530 600 362 790H358ZM70 420 218 -10H222L349 365L478 -10H482L620 400C639 457 670 470 706 470H730V500H510V470H524C560 470 596 465 596 430C596 422 594 413 590 400L499 121L400 410C397 418 394 426 394 436C394 465 420 470 450 470H480V500H250V470H264C298 470 317 457 330 420L334 409L239 121L140 410C137 418 134 426 134 436C134 465 160 470 190 470H220V500H-20V470H4C38 470 57 457 70 420Z" glyph-name="wcircumflex" horiz-adv-x="700" unicode="&#373;" /><glyph d="M230 685C230 649 254 635 280 635C306 635 330 649 330 685C330 721 306 735 280 735C255 735 230 721 230 685ZM390 685C390 649 414 635 440 635C466 635 490 649 490 685C490 721 466 735 440 735C415 735 390 721 390 685ZM70 420 218 -10H222L349 365L478 -10H482L620 400C639 457 670 470 706 470H730V500H510V470H524C560 470 596 465 596 430C596 422 594 413 590 400L499 121L400 410C397 418 394 426 394 436C394 465 420 470 450 470H480V500H250V470H264C298 470 317 457 330 420L334 409L239 121L140 410C137 418 134 426 134 436C134 465 160 470 190 470H220V500H-20V470H4C38 470 57 457 70 420Z" glyph-name="wdieresis" horiz-adv-x="700" unicode="&#7813;" /><glyph d="M244 770 414 580 436 600 266 790ZM70 420 218 -10H222L349 365L478 -10H482L620 400C639 457 670 470 706 470H730V500H510V470H524C560 470 596 465 596 430C596 422 594 413 590 400L499 121L400 410C397 418 394 426 394 436C394 465 420 470 450 470H480V500H250V470H264C298 470 317 457 330 420L334 409L239 121L140 410C137 418 134 426 134 436C134 465 160 470 190 470H220V500H-20V470H4C38 470 57 457 70 420Z" glyph-name="wgrave" horiz-adv-x="700" unicode="&#7809;" /><glyph d="M340 126C486 126 606 245 606 390C606 535 486 654 340 654C194 654 74 535 74 390C74 245 194 126 340 126ZM340 156C209 156 108 259 108 390C108 521 209 624 340 624C471 624 572 521 572 390C572 259 471 156 340 156Z" glyph-name="whitecircle" horiz-adv-x="680" /><glyph d="M340 80 650 390 340 700 30 390ZM340 120 70 390 340 660 610 390Z" glyph-name="whitediamond" horiz-adv-x="680" /><glyph d="M62 640 350 140 638 640ZM112 610H588L350 196Z" glyph-name="whitedownpointingtriangle" horiz-adv-x="700" /><glyph d="M580 102V678L80 390ZM550 152 136 390 550 628Z" glyph-name="whiteleftpointingtriangle" horiz-adv-x="700" /><glyph d="M120 102 620 390 120 678ZM150 152V628L564 390Z" glyph-name="whiterightpointingtriangle" horiz-adv-x="700" /><glyph d="M570 160V620H110V160ZM540 190H140V590H540Z" glyph-name="whitesquare" horiz-adv-x="680" /><glyph d="M110 102 610 390 110 678ZM140 152V628L558 390Z" glyph-name="whitetriangle" horiz-adv-x="680" /><glyph d="M62 140H638L350 640ZM112 170 350 584 588 170Z" glyph-name="whiteuppointingtriangle" horiz-adv-x="700" /><glyph d="M260 0V30H230C200 30 184 34 184 54C184 66 190 79 205 100L295 220L390 90C398 78 402 70 402 60C402 39 390 30 360 30H330V0H580V30H546C504 30 495 46 470 80L332 270L430 400C476 462 490 470 540 470H570V500H340V470H370C400 470 416 466 416 446C416 434 410 421 395 400L315 293L230 410C222 422 218 430 218 440C218 461 230 470 260 470H290V500H40V470H74C116 470 125 454 150 420L278 244L170 100C124 38 110 30 60 30H30V0Z" glyph-name="x" horiz-adv-x="600" unicode="x" /><glyph d="M70 420 228 16 192 -80C161 -162 124 -180 90 -180C40 -180 42 -130 -10 -130C-27 -130 -50 -140 -50 -170C-50 -207 -18 -230 40 -230C110 -230 175 -201 220 -80L400 400C421 456 450 470 486 470H510V500H280V470H304C334 470 376 465 376 430C376 422 374 411 370 400L259 100L140 410C136 420 134 426 134 436C134 465 160 470 190 470H220V500H-20V470H4C38 470 55 457 70 420Z" glyph-name="y" horiz-adv-x="500" unicode="y" /><glyph d="M376 770 354 790 184 600 206 580ZM70 420 228 16 192 -80C161 -162 124 -180 90 -180C40 -180 42 -130 -10 -130C-27 -130 -50 -140 -50 -170C-50 -207 -18 -230 40 -230C110 -230 175 -201 220 -80L400 400C421 456 450 470 486 470H510V500H280V470H304C334 470 376 465 376 430C376 422 374 411 370 400L259 100L140 410C136 420 134 426 134 436C134 465 160 470 190 470H220V500H-20V470H4C38 470 55 457 70 420Z" glyph-name="yacute" horiz-adv-x="500" unicode="&#253;" /><glyph d="M80 600 102 580 250 748 398 580 420 600 252 790H248ZM70 420 228 16 192 -80C161 -162 124 -180 90 -180C40 -180 42 -130 -10 -130C-27 -130 -50 -140 -50 -170C-50 -207 -18 -230 40 -230C110 -230 175 -201 220 -80L400 400C421 456 450 470 486 470H510V500H280V470H304C334 470 376 465 376 430C376 422 374 411 370 400L259 100L140 410C136 420 134 426 134 436C134 465 160 470 190 470H220V500H-20V470H4C38 470 55 457 70 420Z" glyph-name="ycircumflex" horiz-adv-x="500" unicode="&#375;" /><glyph d="M120 685C120 649 144 635 170 635C196 635 220 649 220 685C220 721 196 735 170 735C145 735 120 721 120 685ZM280 685C280 649 304 635 330 635C356 635 380 649 380 685C380 721 356 735 330 735C305 735 280 721 280 685ZM70 420 228 16 192 -80C161 -162 124 -180 90 -180C40 -180 42 -130 -10 -130C-27 -130 -50 -140 -50 -170C-50 -207 -18 -230 40 -230C110 -230 175 -201 220 -80L400 400C421 456 450 470 486 470H510V500H280V470H304C334 470 376 465 376 430C376 422 374 411 370 400L259 100L140 410C136 420 134 426 134 436C134 465 160 470 190 470H220V500H-20V470H4C38 470 55 457 70 420Z" glyph-name="ydieresis" horiz-adv-x="500" unicode="&#255;" /><glyph d="M115 280H278V90C278 50 250 30 190 30H130V0H490V30H430C370 30 342 50 342 90V280H505V310H342V350L396 470H505V500H409L490 680C516 737 524 750 586 750H620V780H360V750H384C432 750 463 738 463 710C463 702 459 692 454 680L377 500H281L190 690C187 697 184 702 184 710C184 738 211 750 260 750H290V780H-20V750H14C50 750 92 739 110 701L206 500H115V470H221L278 350V310H115ZM295 470H364L331 395Z" glyph-name="yen" horiz-adv-x="600" unicode="&#165;" /><glyph d="M115 280H278V90C278 50 250 30 190 30H130V0H490V30H430C370 30 342 50 342 90V280H505V310H342V350L396 470H505V500H409L490 680C516 737 524 750 586 750H620V780H360V750H384C432 750 463 738 463 710C463 702 459 692 454 680L377 500H281L190 690C187 697 184 702 184 710C184 738 211 750 260 750H290V780H-20V750H14C50 750 92 739 110 701L206 500H115V470H221L278 350V310H115ZM295 470H364L331 395Z" glyph-name="yen.LP" horiz-adv-x="600" /><glyph d="M134 770 304 580 326 600 156 790ZM70 420 228 16 192 -80C161 -162 124 -180 90 -180C40 -180 42 -130 -10 -130C-27 -130 -50 -140 -50 -170C-50 -207 -18 -230 40 -230C110 -230 175 -201 220 -80L400 400C421 456 450 470 486 470H510V500H280V470H304C334 470 376 465 376 430C376 422 374 411 370 400L259 100L140 410C136 420 134 426 134 436C134 465 160 470 190 470H220V500H-20V470H4C38 470 55 457 70 420Z" glyph-name="ygrave" horiz-adv-x="500" unicode="&#7923;" /><glyph d="M461 490V500H180L134 510H130L70 350L90 340C122 408 180 480 262 480H352C362 480 368 476 368 468C368 460 365 456 361 450L40 10V0H362L406 -10H410L470 150L450 160C418 92 362 20 240 20H150C138 20 132 24 132 32C132 38 135 43 140 50Z" glyph-name="z" horiz-adv-x="500" unicode="z" /><glyph d="M396 770 374 790 204 600 226 580ZM461 490V500H180L134 510H130L70 350L90 340C122 408 180 480 262 480H352C362 480 368 476 368 468C368 460 365 456 361 450L40 10V0H362L406 -10H410L470 150L450 160C418 92 362 20 240 20H150C138 20 132 24 132 32C132 38 135 43 140 50Z" glyph-name="zacute" horiz-adv-x="500" unicode="&#378;" /><glyph d="M100 770 268 580H272L440 770L418 790L270 622L122 790ZM461 490V500H180L134 510H130L70 350L90 340C122 408 180 480 262 480H352C362 480 368 476 368 468C368 460 365 456 361 450L40 10V0H362L406 -10H410L470 150L450 160C418 92 362 20 240 20H150C138 20 132 24 132 32C132 38 135 43 140 50Z" glyph-name="zcaron" horiz-adv-x="500" unicode="&#382;" /><glyph d="M220 685C220 649 244 635 270 635C296 635 320 649 320 685C320 721 296 735 270 735C245 735 220 721 220 685ZM461 490V500H180L134 510H130L70 350L90 340C122 408 180 480 262 480H352C362 480 368 476 368 468C368 460 365 456 361 450L40 10V0H362L406 -10H410L470 150L450 160C418 92 362 20 240 20H150C138 20 132 24 132 32C132 38 135 43 140 50Z" glyph-name="zdotaccent" horiz-adv-x="500" unicode="&#380;" /><glyph d="M300 -10C470 -10 560 159 560 390C560 619 470 790 300 790C130 790 40 619 40 390C40 159 130 -10 300 -10ZM290 20C159 20 124 189 124 400C124 610 170 760 310 760C440 760 476 590 476 380C476 159 429 20 290 20Z" glyph-name="zero" horiz-adv-x="600" unicode="0" /><glyph d="M300 -10C470 -10 560 159 560 390C560 619 470 790 300 790C130 790 40 619 40 390C40 159 130 -10 300 -10ZM290 20C159 20 124 189 124 400C124 610 170 760 310 760C440 760 476 590 476 380C476 159 429 20 290 20Z" glyph-name="zero.LP" horiz-adv-x="600" /><glyph d="M300 -10C470 -10 560 159 560 390C560 527 528 643 466 714L546 888L520 900L444 736C405 771 357 790 300 790C130 790 40 619 40 390C40 252 72 136 134 65L54 -108L80 -120L156 44C194 9 243 -10 300 -10ZM124 400C124 610 170 760 310 760C361 760 397 734 423 690L161 123C133 192 124 290 124 400ZM290 20C239 20 202 46 177 90L439 656C466 587 476 489 476 380C476 159 429 20 290 20Z" glyph-name="zero.slash" horiz-adv-x="600" /><glyph d="M300 -10C470 -10 560 159 560 390C560 527 528 643 466 714L546 888L520 900L444 736C405 771 357 790 300 790C130 790 40 619 40 390C40 252 72 136 134 65L54 -108L80 -120L156 44C194 9 243 -10 300 -10ZM124 400C124 610 170 760 310 760C361 760 397 734 423 690L161 123C133 192 124 290 124 400ZM290 20C239 20 202 46 177 90L439 656C466 587 476 489 476 380C476 159 429 20 290 20Z" glyph-name="zero.slashLP" horiz-adv-x="600" /><glyph d="M200 350C294 350 343 443 343 570C343 696 294 790 200 790C107 790 57 696 57 570C57 443 107 350 200 350ZM195 377C134 377 114 460 114 575C114 691 140 762 206 762C266 762 286 680 286 564C286 443 261 377 195 377Z" glyph-name="zerosuperior" horiz-adv-x="400" unicode="&#8304;" /></font>
</defs>
</svg>
